G04 #@! TF.FileFunction,Legend,Top*
%FSLAX46Y46*%
G04 Gerber Fmt 4.6, Leading zero omitted, Abs format (unit mm)*
G04 Created by KiCad (PCBNEW 4.0.7) date 01/22/18 18:56:20*
%MOMM*%
%LPD*%
G01*
G04 APERTURE LIST*
%ADD10C,0.100000*%
%ADD11C,0.120000*%
%ADD12C,0.150000*%
%ADD13C,0.203200*%
%ADD14C,0.127000*%
%ADD15C,0.010000*%
%ADD16C,0.050000*%
G04 APERTURE END LIST*
D10*
D11*
X163118456Y-100392620D02*
G75*
G02X161586368Y-101678196I-766044J-642788D01*
G01*
X161586368Y-101678196D02*
X160322394Y-102738795D01*
X160322394Y-102738795D02*
X165297570Y-108667979D01*
X165297570Y-108667979D02*
X169357606Y-105261205D01*
X169357606Y-105261205D02*
X164382430Y-99332021D01*
X164382430Y-99332021D02*
X163118456Y-100392620D01*
X158376376Y-104293374D02*
X163428687Y-110314483D01*
X163428687Y-110314483D02*
X171303624Y-103706626D01*
X171303624Y-103706626D02*
X166251313Y-97685517D01*
X166251313Y-97685517D02*
X158376376Y-104293374D01*
X164540000Y-90740000D02*
G75*
G02X164540000Y-92740000I0J-1000000D01*
G01*
X164540000Y-92740000D02*
X164540000Y-94390000D01*
X164540000Y-94390000D02*
X172280000Y-94390000D01*
X172280000Y-94390000D02*
X172280000Y-89090000D01*
X172280000Y-89090000D02*
X164540000Y-89090000D01*
X164540000Y-89090000D02*
X164540000Y-90740000D01*
X164480000Y-96880000D02*
X172340000Y-96880000D01*
X172340000Y-96880000D02*
X172340000Y-86600000D01*
X172340000Y-86600000D02*
X164480000Y-86600000D01*
X164480000Y-86600000D02*
X164480000Y-96880000D01*
D12*
X136910000Y-106820000D02*
X136410000Y-106820000D01*
X158410000Y-106820000D02*
X158410000Y-108570000D01*
X136410000Y-106820000D02*
X136410000Y-108070000D01*
X158410000Y-106820000D02*
X136660000Y-106820000D01*
X158410000Y-114070000D02*
X158410000Y-107570000D01*
X136660000Y-114070000D02*
X158410000Y-114070000D01*
X136410000Y-107570000D02*
X136410000Y-114070000D01*
D13*
X132265000Y-102064600D02*
G75*
G03X132265000Y-102064600I-254000J0D01*
G01*
D11*
X155050000Y-77230000D02*
G75*
G02X157050000Y-77230000I1000000J0D01*
G01*
X157050000Y-77230000D02*
X158700000Y-77230000D01*
X158700000Y-77230000D02*
X158700000Y-69490000D01*
X158700000Y-69490000D02*
X153400000Y-69490000D01*
X153400000Y-69490000D02*
X153400000Y-77230000D01*
X153400000Y-77230000D02*
X155050000Y-77230000D01*
X161190000Y-77290000D02*
X161190000Y-69430000D01*
X161190000Y-69430000D02*
X150910000Y-69430000D01*
X150910000Y-69430000D02*
X150910000Y-77290000D01*
X150910000Y-77290000D02*
X161190000Y-77290000D01*
D14*
X130260000Y-97590000D02*
X130260000Y-94590000D01*
X127760000Y-94590000D02*
X127760000Y-97590000D01*
D10*
X130337000Y-94090000D02*
G75*
G03X130337000Y-94090000I-127000J0D01*
G01*
D14*
X129760000Y-96090000D02*
G75*
G03X129760000Y-96090000I-750000J0D01*
G01*
X130350000Y-90250000D02*
X130350000Y-87250000D01*
X127850000Y-87250000D02*
X127850000Y-90250000D01*
D10*
X130427000Y-86750000D02*
G75*
G03X130427000Y-86750000I-127000J0D01*
G01*
D14*
X129850000Y-88750000D02*
G75*
G03X129850000Y-88750000I-750000J0D01*
G01*
D11*
X163261626Y-80912736D02*
G75*
G02X164408778Y-82551040I573576J-819152D01*
G01*
X164408778Y-82551040D02*
X165355179Y-83902641D01*
X165355179Y-83902641D02*
X171695416Y-79463159D01*
X171695416Y-79463159D02*
X168655461Y-75121653D01*
X168655461Y-75121653D02*
X162315224Y-79561135D01*
X162315224Y-79561135D02*
X163261625Y-80912736D01*
X166734235Y-85976744D02*
X173172770Y-81468433D01*
X173172770Y-81468433D02*
X167276405Y-73047550D01*
X167276405Y-73047550D02*
X160837870Y-77555861D01*
X160837870Y-77555861D02*
X166734235Y-85976744D01*
X148550000Y-69780000D02*
X143470000Y-69780000D01*
X148550000Y-74220000D02*
X143470000Y-74220000D01*
X143470000Y-67880000D02*
X148550000Y-67880000D01*
X143470000Y-67880000D02*
X143470000Y-74220000D01*
X148550000Y-67880000D02*
X148550000Y-74220000D01*
X131570000Y-101300000D02*
X136770000Y-101300000D01*
X131570000Y-88540000D02*
X131570000Y-101300000D01*
X136770000Y-85940000D02*
X136770000Y-101300000D01*
X131570000Y-88540000D02*
X134170000Y-88540000D01*
X134170000Y-88540000D02*
X134170000Y-85940000D01*
X134170000Y-85940000D02*
X136770000Y-85940000D01*
X131570000Y-87270000D02*
X131570000Y-85940000D01*
X131570000Y-85940000D02*
X132900000Y-85940000D01*
X142260000Y-77540000D02*
X142260000Y-78540000D01*
X143960000Y-78540000D02*
X143960000Y-77540000D01*
X139480000Y-77630000D02*
X139480000Y-78630000D01*
X141180000Y-78630000D02*
X141180000Y-77630000D01*
X136300000Y-82560000D02*
X133100000Y-82560000D01*
X133100000Y-81060000D02*
X136300000Y-81060000D01*
X133100000Y-81060000D02*
X133100000Y-82560000D01*
X150540000Y-71090000D02*
X150540000Y-74290000D01*
X149040000Y-74290000D02*
X149040000Y-71090000D01*
X149040000Y-74290000D02*
X150540000Y-74290000D01*
X138830000Y-77600000D02*
X138830000Y-78800000D01*
X137070000Y-78800000D02*
X137070000Y-77600000D01*
X134520000Y-106740000D02*
X133520000Y-106740000D01*
X133520000Y-108440000D02*
X134520000Y-108440000D01*
D15*
G36*
X139866036Y-103600852D02*
X139907008Y-103600938D01*
X139943459Y-103601098D01*
X139974729Y-103601329D01*
X140000158Y-103601627D01*
X140019085Y-103601989D01*
X140030852Y-103602409D01*
X140034800Y-103602874D01*
X140033319Y-103608018D01*
X140029247Y-103619593D01*
X140023134Y-103636167D01*
X140015531Y-103656309D01*
X140006991Y-103678588D01*
X139998064Y-103701574D01*
X139989303Y-103723835D01*
X139981259Y-103743940D01*
X139974483Y-103760459D01*
X139970245Y-103770360D01*
X139957672Y-103798705D01*
X139762344Y-103799994D01*
X139716574Y-103800306D01*
X139678487Y-103800611D01*
X139647299Y-103800946D01*
X139622226Y-103801350D01*
X139602485Y-103801862D01*
X139587291Y-103802520D01*
X139575860Y-103803363D01*
X139567410Y-103804429D01*
X139561156Y-103805756D01*
X139556314Y-103807384D01*
X139552101Y-103809350D01*
X139550083Y-103810420D01*
X139532562Y-103821830D01*
X139517390Y-103836394D01*
X139503724Y-103855337D01*
X139490719Y-103879882D01*
X139477532Y-103911252D01*
X139473891Y-103920889D01*
X139468018Y-103936366D01*
X139459455Y-103958438D01*
X139448696Y-103985852D01*
X139436236Y-104017359D01*
X139422569Y-104051706D01*
X139408192Y-104087644D01*
X139393962Y-104123016D01*
X139380180Y-104157296D01*
X139367332Y-104189483D01*
X139355784Y-104218645D01*
X139345898Y-104243853D01*
X139338039Y-104264175D01*
X139332573Y-104278683D01*
X139329864Y-104286446D01*
X139329696Y-104287058D01*
X139326915Y-104298700D01*
X139703519Y-104298700D01*
X139744754Y-104386541D01*
X139757133Y-104413054D01*
X139768752Y-104438201D01*
X139778964Y-104460559D01*
X139787121Y-104478710D01*
X139792576Y-104491230D01*
X139793915Y-104494491D01*
X139801843Y-104514600D01*
X139451596Y-104514412D01*
X139388936Y-104514373D01*
X139334181Y-104514317D01*
X139286770Y-104514233D01*
X139246142Y-104514107D01*
X139211735Y-104513927D01*
X139182989Y-104513679D01*
X139159341Y-104513351D01*
X139140232Y-104512930D01*
X139125098Y-104512404D01*
X139113380Y-104511759D01*
X139104515Y-104510982D01*
X139097942Y-104510062D01*
X139093101Y-104508984D01*
X139089430Y-104507737D01*
X139086367Y-104506307D01*
X139085908Y-104506067D01*
X139063596Y-104489648D01*
X139046009Y-104467093D01*
X139033848Y-104439715D01*
X139027810Y-104408825D01*
X139027266Y-104395975D01*
X139028598Y-104376928D01*
X139032708Y-104353844D01*
X139039764Y-104326202D01*
X139049936Y-104293483D01*
X139063395Y-104255165D01*
X139080309Y-104210728D01*
X139100849Y-104159651D01*
X139116803Y-104121268D01*
X139128934Y-104091929D01*
X139142268Y-104058910D01*
X139155462Y-104025588D01*
X139167169Y-103995338D01*
X139171069Y-103985032D01*
X139190051Y-103935304D01*
X139209489Y-103886009D01*
X139228716Y-103838770D01*
X139247062Y-103795213D01*
X139263859Y-103756961D01*
X139274047Y-103734827D01*
X139295452Y-103695296D01*
X139319036Y-103663322D01*
X139345503Y-103638124D01*
X139375560Y-103618920D01*
X139381285Y-103616097D01*
X139410383Y-103602316D01*
X139722591Y-103601079D01*
X139773167Y-103600919D01*
X139821202Y-103600844D01*
X139866036Y-103600852D01*
X139866036Y-103600852D01*
G37*
X139866036Y-103600852D02*
X139907008Y-103600938D01*
X139943459Y-103601098D01*
X139974729Y-103601329D01*
X140000158Y-103601627D01*
X140019085Y-103601989D01*
X140030852Y-103602409D01*
X140034800Y-103602874D01*
X140033319Y-103608018D01*
X140029247Y-103619593D01*
X140023134Y-103636167D01*
X140015531Y-103656309D01*
X140006991Y-103678588D01*
X139998064Y-103701574D01*
X139989303Y-103723835D01*
X139981259Y-103743940D01*
X139974483Y-103760459D01*
X139970245Y-103770360D01*
X139957672Y-103798705D01*
X139762344Y-103799994D01*
X139716574Y-103800306D01*
X139678487Y-103800611D01*
X139647299Y-103800946D01*
X139622226Y-103801350D01*
X139602485Y-103801862D01*
X139587291Y-103802520D01*
X139575860Y-103803363D01*
X139567410Y-103804429D01*
X139561156Y-103805756D01*
X139556314Y-103807384D01*
X139552101Y-103809350D01*
X139550083Y-103810420D01*
X139532562Y-103821830D01*
X139517390Y-103836394D01*
X139503724Y-103855337D01*
X139490719Y-103879882D01*
X139477532Y-103911252D01*
X139473891Y-103920889D01*
X139468018Y-103936366D01*
X139459455Y-103958438D01*
X139448696Y-103985852D01*
X139436236Y-104017359D01*
X139422569Y-104051706D01*
X139408192Y-104087644D01*
X139393962Y-104123016D01*
X139380180Y-104157296D01*
X139367332Y-104189483D01*
X139355784Y-104218645D01*
X139345898Y-104243853D01*
X139338039Y-104264175D01*
X139332573Y-104278683D01*
X139329864Y-104286446D01*
X139329696Y-104287058D01*
X139326915Y-104298700D01*
X139703519Y-104298700D01*
X139744754Y-104386541D01*
X139757133Y-104413054D01*
X139768752Y-104438201D01*
X139778964Y-104460559D01*
X139787121Y-104478710D01*
X139792576Y-104491230D01*
X139793915Y-104494491D01*
X139801843Y-104514600D01*
X139451596Y-104514412D01*
X139388936Y-104514373D01*
X139334181Y-104514317D01*
X139286770Y-104514233D01*
X139246142Y-104514107D01*
X139211735Y-104513927D01*
X139182989Y-104513679D01*
X139159341Y-104513351D01*
X139140232Y-104512930D01*
X139125098Y-104512404D01*
X139113380Y-104511759D01*
X139104515Y-104510982D01*
X139097942Y-104510062D01*
X139093101Y-104508984D01*
X139089430Y-104507737D01*
X139086367Y-104506307D01*
X139085908Y-104506067D01*
X139063596Y-104489648D01*
X139046009Y-104467093D01*
X139033848Y-104439715D01*
X139027810Y-104408825D01*
X139027266Y-104395975D01*
X139028598Y-104376928D01*
X139032708Y-104353844D01*
X139039764Y-104326202D01*
X139049936Y-104293483D01*
X139063395Y-104255165D01*
X139080309Y-104210728D01*
X139100849Y-104159651D01*
X139116803Y-104121268D01*
X139128934Y-104091929D01*
X139142268Y-104058910D01*
X139155462Y-104025588D01*
X139167169Y-103995338D01*
X139171069Y-103985032D01*
X139190051Y-103935304D01*
X139209489Y-103886009D01*
X139228716Y-103838770D01*
X139247062Y-103795213D01*
X139263859Y-103756961D01*
X139274047Y-103734827D01*
X139295452Y-103695296D01*
X139319036Y-103663322D01*
X139345503Y-103638124D01*
X139375560Y-103618920D01*
X139381285Y-103616097D01*
X139410383Y-103602316D01*
X139722591Y-103601079D01*
X139773167Y-103600919D01*
X139821202Y-103600844D01*
X139866036Y-103600852D01*
G36*
X140431203Y-103600884D02*
X140498584Y-103601024D01*
X140554441Y-103601184D01*
X140623342Y-103601410D01*
X140684292Y-103601635D01*
X140737807Y-103601870D01*
X140784402Y-103602124D01*
X140824593Y-103602409D01*
X140858895Y-103602733D01*
X140887825Y-103603107D01*
X140911898Y-103603542D01*
X140931630Y-103604047D01*
X140947536Y-103604632D01*
X140960131Y-103605308D01*
X140969933Y-103606084D01*
X140977456Y-103606971D01*
X140983216Y-103607978D01*
X140987728Y-103609117D01*
X140989601Y-103609713D01*
X141016829Y-103623215D01*
X141039304Y-103643191D01*
X141056309Y-103668670D01*
X141067126Y-103698682D01*
X141070392Y-103718939D01*
X141070865Y-103735293D01*
X141069320Y-103753866D01*
X141065559Y-103775291D01*
X141059382Y-103800205D01*
X141050590Y-103829241D01*
X141038983Y-103863034D01*
X141024362Y-103902219D01*
X141006528Y-103947431D01*
X140985282Y-103999304D01*
X140973433Y-104027660D01*
X140963862Y-104050742D01*
X140951753Y-104080432D01*
X140937619Y-104115441D01*
X140921977Y-104154480D01*
X140905341Y-104196260D01*
X140888226Y-104239493D01*
X140871148Y-104282890D01*
X140858336Y-104315633D01*
X140781523Y-104512483D01*
X140645228Y-104513600D01*
X140603954Y-104513810D01*
X140569718Y-104513712D01*
X140542813Y-104513312D01*
X140523529Y-104512618D01*
X140512160Y-104511635D01*
X140508933Y-104510540D01*
X140510436Y-104505832D01*
X140514731Y-104494083D01*
X140521499Y-104476126D01*
X140530421Y-104452793D01*
X140541177Y-104424917D01*
X140553448Y-104393332D01*
X140566915Y-104358869D01*
X140575115Y-104337973D01*
X140589205Y-104302073D01*
X140602365Y-104268446D01*
X140614264Y-104237944D01*
X140624570Y-104211424D01*
X140632952Y-104189739D01*
X140639077Y-104173743D01*
X140642615Y-104164291D01*
X140643342Y-104162175D01*
X140643457Y-104160167D01*
X140642026Y-104158558D01*
X140638223Y-104157303D01*
X140631223Y-104156359D01*
X140620200Y-104155682D01*
X140604330Y-104155228D01*
X140582787Y-104154954D01*
X140554745Y-104154816D01*
X140519380Y-104154769D01*
X140503649Y-104154766D01*
X140361911Y-104154766D01*
X140338389Y-104210858D01*
X140330158Y-104230692D01*
X140319557Y-104256552D01*
X140307333Y-104286593D01*
X140294237Y-104318970D01*
X140281017Y-104351839D01*
X140271955Y-104374490D01*
X140260225Y-104403723D01*
X140249093Y-104431156D01*
X140239066Y-104455568D01*
X140230648Y-104475736D01*
X140224347Y-104490437D01*
X140220735Y-104498315D01*
X140212427Y-104514600D01*
X140079163Y-104514600D01*
X140037561Y-104514465D01*
X140003464Y-104514066D01*
X139977076Y-104513409D01*
X139958597Y-104512501D01*
X139948230Y-104511347D01*
X139945900Y-104510333D01*
X139947433Y-104505813D01*
X139951844Y-104494144D01*
X139958852Y-104476035D01*
X139968174Y-104452190D01*
X139979530Y-104423318D01*
X139992637Y-104390124D01*
X140007214Y-104353316D01*
X140022979Y-104313600D01*
X140039650Y-104271684D01*
X140056946Y-104228272D01*
X140074585Y-104184074D01*
X140092285Y-104139794D01*
X140109765Y-104096140D01*
X140126742Y-104053819D01*
X140142936Y-104013537D01*
X140158064Y-103976002D01*
X140166187Y-103955912D01*
X140441230Y-103955912D01*
X140584090Y-103954797D01*
X140726950Y-103953683D01*
X140740402Y-103926166D01*
X140748625Y-103907499D01*
X140757010Y-103885522D01*
X140763428Y-103866001D01*
X140768168Y-103848728D01*
X140770277Y-103837258D01*
X140769975Y-103829419D01*
X140767711Y-103823468D01*
X140764098Y-103817242D01*
X140760020Y-103812299D01*
X140754510Y-103808477D01*
X140746601Y-103805617D01*
X140735326Y-103803557D01*
X140719717Y-103802137D01*
X140698806Y-103801194D01*
X140671626Y-103800569D01*
X140637210Y-103800101D01*
X140626494Y-103799980D01*
X140509106Y-103798677D01*
X140500581Y-103812680D01*
X140494300Y-103824687D01*
X140485668Y-103843738D01*
X140475091Y-103868871D01*
X140462977Y-103899122D01*
X140451297Y-103929397D01*
X140441230Y-103955912D01*
X140166187Y-103955912D01*
X140171845Y-103941919D01*
X140183997Y-103911996D01*
X140194239Y-103886939D01*
X140198622Y-103876292D01*
X140230596Y-103798901D01*
X140185614Y-103704152D01*
X140173212Y-103677843D01*
X140162119Y-103653956D01*
X140152830Y-103633587D01*
X140145841Y-103617831D01*
X140141647Y-103607784D01*
X140140633Y-103604644D01*
X140143065Y-103603806D01*
X140150573Y-103603078D01*
X140163472Y-103602456D01*
X140182077Y-103601940D01*
X140206703Y-103601525D01*
X140237667Y-103601209D01*
X140275283Y-103600989D01*
X140319868Y-103600864D01*
X140371736Y-103600830D01*
X140431203Y-103600884D01*
X140431203Y-103600884D01*
G37*
X140431203Y-103600884D02*
X140498584Y-103601024D01*
X140554441Y-103601184D01*
X140623342Y-103601410D01*
X140684292Y-103601635D01*
X140737807Y-103601870D01*
X140784402Y-103602124D01*
X140824593Y-103602409D01*
X140858895Y-103602733D01*
X140887825Y-103603107D01*
X140911898Y-103603542D01*
X140931630Y-103604047D01*
X140947536Y-103604632D01*
X140960131Y-103605308D01*
X140969933Y-103606084D01*
X140977456Y-103606971D01*
X140983216Y-103607978D01*
X140987728Y-103609117D01*
X140989601Y-103609713D01*
X141016829Y-103623215D01*
X141039304Y-103643191D01*
X141056309Y-103668670D01*
X141067126Y-103698682D01*
X141070392Y-103718939D01*
X141070865Y-103735293D01*
X141069320Y-103753866D01*
X141065559Y-103775291D01*
X141059382Y-103800205D01*
X141050590Y-103829241D01*
X141038983Y-103863034D01*
X141024362Y-103902219D01*
X141006528Y-103947431D01*
X140985282Y-103999304D01*
X140973433Y-104027660D01*
X140963862Y-104050742D01*
X140951753Y-104080432D01*
X140937619Y-104115441D01*
X140921977Y-104154480D01*
X140905341Y-104196260D01*
X140888226Y-104239493D01*
X140871148Y-104282890D01*
X140858336Y-104315633D01*
X140781523Y-104512483D01*
X140645228Y-104513600D01*
X140603954Y-104513810D01*
X140569718Y-104513712D01*
X140542813Y-104513312D01*
X140523529Y-104512618D01*
X140512160Y-104511635D01*
X140508933Y-104510540D01*
X140510436Y-104505832D01*
X140514731Y-104494083D01*
X140521499Y-104476126D01*
X140530421Y-104452793D01*
X140541177Y-104424917D01*
X140553448Y-104393332D01*
X140566915Y-104358869D01*
X140575115Y-104337973D01*
X140589205Y-104302073D01*
X140602365Y-104268446D01*
X140614264Y-104237944D01*
X140624570Y-104211424D01*
X140632952Y-104189739D01*
X140639077Y-104173743D01*
X140642615Y-104164291D01*
X140643342Y-104162175D01*
X140643457Y-104160167D01*
X140642026Y-104158558D01*
X140638223Y-104157303D01*
X140631223Y-104156359D01*
X140620200Y-104155682D01*
X140604330Y-104155228D01*
X140582787Y-104154954D01*
X140554745Y-104154816D01*
X140519380Y-104154769D01*
X140503649Y-104154766D01*
X140361911Y-104154766D01*
X140338389Y-104210858D01*
X140330158Y-104230692D01*
X140319557Y-104256552D01*
X140307333Y-104286593D01*
X140294237Y-104318970D01*
X140281017Y-104351839D01*
X140271955Y-104374490D01*
X140260225Y-104403723D01*
X140249093Y-104431156D01*
X140239066Y-104455568D01*
X140230648Y-104475736D01*
X140224347Y-104490437D01*
X140220735Y-104498315D01*
X140212427Y-104514600D01*
X140079163Y-104514600D01*
X140037561Y-104514465D01*
X140003464Y-104514066D01*
X139977076Y-104513409D01*
X139958597Y-104512501D01*
X139948230Y-104511347D01*
X139945900Y-104510333D01*
X139947433Y-104505813D01*
X139951844Y-104494144D01*
X139958852Y-104476035D01*
X139968174Y-104452190D01*
X139979530Y-104423318D01*
X139992637Y-104390124D01*
X140007214Y-104353316D01*
X140022979Y-104313600D01*
X140039650Y-104271684D01*
X140056946Y-104228272D01*
X140074585Y-104184074D01*
X140092285Y-104139794D01*
X140109765Y-104096140D01*
X140126742Y-104053819D01*
X140142936Y-104013537D01*
X140158064Y-103976002D01*
X140166187Y-103955912D01*
X140441230Y-103955912D01*
X140584090Y-103954797D01*
X140726950Y-103953683D01*
X140740402Y-103926166D01*
X140748625Y-103907499D01*
X140757010Y-103885522D01*
X140763428Y-103866001D01*
X140768168Y-103848728D01*
X140770277Y-103837258D01*
X140769975Y-103829419D01*
X140767711Y-103823468D01*
X140764098Y-103817242D01*
X140760020Y-103812299D01*
X140754510Y-103808477D01*
X140746601Y-103805617D01*
X140735326Y-103803557D01*
X140719717Y-103802137D01*
X140698806Y-103801194D01*
X140671626Y-103800569D01*
X140637210Y-103800101D01*
X140626494Y-103799980D01*
X140509106Y-103798677D01*
X140500581Y-103812680D01*
X140494300Y-103824687D01*
X140485668Y-103843738D01*
X140475091Y-103868871D01*
X140462977Y-103899122D01*
X140451297Y-103929397D01*
X140441230Y-103955912D01*
X140166187Y-103955912D01*
X140171845Y-103941919D01*
X140183997Y-103911996D01*
X140194239Y-103886939D01*
X140198622Y-103876292D01*
X140230596Y-103798901D01*
X140185614Y-103704152D01*
X140173212Y-103677843D01*
X140162119Y-103653956D01*
X140152830Y-103633587D01*
X140145841Y-103617831D01*
X140141647Y-103607784D01*
X140140633Y-103604644D01*
X140143065Y-103603806D01*
X140150573Y-103603078D01*
X140163472Y-103602456D01*
X140182077Y-103601940D01*
X140206703Y-103601525D01*
X140237667Y-103601209D01*
X140275283Y-103600989D01*
X140319868Y-103600864D01*
X140371736Y-103600830D01*
X140431203Y-103600884D01*
G36*
X141754030Y-103599826D02*
X141804623Y-103599924D01*
X141853372Y-103600094D01*
X141899589Y-103600335D01*
X141942589Y-103600648D01*
X141981687Y-103601034D01*
X142016197Y-103601494D01*
X142045433Y-103602028D01*
X142068710Y-103602637D01*
X142085342Y-103603322D01*
X142094643Y-103604083D01*
X142096433Y-103604624D01*
X142094966Y-103609664D01*
X142090846Y-103621449D01*
X142084495Y-103638837D01*
X142076333Y-103660683D01*
X142066783Y-103685844D01*
X142059771Y-103704107D01*
X142023109Y-103799166D01*
X141757909Y-103799166D01*
X141746590Y-103821391D01*
X141741069Y-103833236D01*
X141733436Y-103850992D01*
X141724531Y-103872635D01*
X141715197Y-103896141D01*
X141710954Y-103907116D01*
X141700351Y-103934493D01*
X141688531Y-103964511D01*
X141676806Y-103993866D01*
X141666487Y-104019254D01*
X141664721Y-104023533D01*
X141658931Y-104037695D01*
X141650416Y-104058776D01*
X141639558Y-104085819D01*
X141626739Y-104117868D01*
X141612341Y-104153964D01*
X141596746Y-104193152D01*
X141580336Y-104234475D01*
X141563493Y-104276975D01*
X141556571Y-104294466D01*
X141470337Y-104512483D01*
X141330619Y-104513598D01*
X141190900Y-104514713D01*
X141195022Y-104503015D01*
X141197184Y-104497397D01*
X141202258Y-104484508D01*
X141210008Y-104464937D01*
X141220199Y-104439273D01*
X141232597Y-104408105D01*
X141246967Y-104372023D01*
X141263075Y-104331616D01*
X141280685Y-104287473D01*
X141299564Y-104240184D01*
X141319477Y-104190337D01*
X141336232Y-104148416D01*
X141356681Y-104097178D01*
X141376162Y-104048186D01*
X141394454Y-104002010D01*
X141411335Y-103959220D01*
X141426581Y-103920386D01*
X141439970Y-103886077D01*
X141451280Y-103856864D01*
X141460288Y-103833316D01*
X141466771Y-103816003D01*
X141470508Y-103805495D01*
X141471360Y-103802341D01*
X141466823Y-103801612D01*
X141454779Y-103800941D01*
X141436190Y-103800350D01*
X141412017Y-103799857D01*
X141383220Y-103799482D01*
X141350761Y-103799245D01*
X141316964Y-103799166D01*
X141164529Y-103799166D01*
X141167423Y-103789641D01*
X141169492Y-103783719D01*
X141174026Y-103771257D01*
X141180507Y-103753643D01*
X141188420Y-103732262D01*
X141197250Y-103708500D01*
X141206480Y-103683745D01*
X141215595Y-103659381D01*
X141224079Y-103636796D01*
X141231417Y-103617374D01*
X141235944Y-103605491D01*
X141240376Y-103604671D01*
X141252561Y-103603912D01*
X141271816Y-103603215D01*
X141297453Y-103602581D01*
X141328787Y-103602009D01*
X141365133Y-103601502D01*
X141405804Y-103601059D01*
X141450116Y-103600681D01*
X141497382Y-103600370D01*
X141546917Y-103600125D01*
X141598035Y-103599947D01*
X141650050Y-103599838D01*
X141702277Y-103599797D01*
X141754030Y-103599826D01*
X141754030Y-103599826D01*
G37*
X141754030Y-103599826D02*
X141804623Y-103599924D01*
X141853372Y-103600094D01*
X141899589Y-103600335D01*
X141942589Y-103600648D01*
X141981687Y-103601034D01*
X142016197Y-103601494D01*
X142045433Y-103602028D01*
X142068710Y-103602637D01*
X142085342Y-103603322D01*
X142094643Y-103604083D01*
X142096433Y-103604624D01*
X142094966Y-103609664D01*
X142090846Y-103621449D01*
X142084495Y-103638837D01*
X142076333Y-103660683D01*
X142066783Y-103685844D01*
X142059771Y-103704107D01*
X142023109Y-103799166D01*
X141757909Y-103799166D01*
X141746590Y-103821391D01*
X141741069Y-103833236D01*
X141733436Y-103850992D01*
X141724531Y-103872635D01*
X141715197Y-103896141D01*
X141710954Y-103907116D01*
X141700351Y-103934493D01*
X141688531Y-103964511D01*
X141676806Y-103993866D01*
X141666487Y-104019254D01*
X141664721Y-104023533D01*
X141658931Y-104037695D01*
X141650416Y-104058776D01*
X141639558Y-104085819D01*
X141626739Y-104117868D01*
X141612341Y-104153964D01*
X141596746Y-104193152D01*
X141580336Y-104234475D01*
X141563493Y-104276975D01*
X141556571Y-104294466D01*
X141470337Y-104512483D01*
X141330619Y-104513598D01*
X141190900Y-104514713D01*
X141195022Y-104503015D01*
X141197184Y-104497397D01*
X141202258Y-104484508D01*
X141210008Y-104464937D01*
X141220199Y-104439273D01*
X141232597Y-104408105D01*
X141246967Y-104372023D01*
X141263075Y-104331616D01*
X141280685Y-104287473D01*
X141299564Y-104240184D01*
X141319477Y-104190337D01*
X141336232Y-104148416D01*
X141356681Y-104097178D01*
X141376162Y-104048186D01*
X141394454Y-104002010D01*
X141411335Y-103959220D01*
X141426581Y-103920386D01*
X141439970Y-103886077D01*
X141451280Y-103856864D01*
X141460288Y-103833316D01*
X141466771Y-103816003D01*
X141470508Y-103805495D01*
X141471360Y-103802341D01*
X141466823Y-103801612D01*
X141454779Y-103800941D01*
X141436190Y-103800350D01*
X141412017Y-103799857D01*
X141383220Y-103799482D01*
X141350761Y-103799245D01*
X141316964Y-103799166D01*
X141164529Y-103799166D01*
X141167423Y-103789641D01*
X141169492Y-103783719D01*
X141174026Y-103771257D01*
X141180507Y-103753643D01*
X141188420Y-103732262D01*
X141197250Y-103708500D01*
X141206480Y-103683745D01*
X141215595Y-103659381D01*
X141224079Y-103636796D01*
X141231417Y-103617374D01*
X141235944Y-103605491D01*
X141240376Y-103604671D01*
X141252561Y-103603912D01*
X141271816Y-103603215D01*
X141297453Y-103602581D01*
X141328787Y-103602009D01*
X141365133Y-103601502D01*
X141405804Y-103601059D01*
X141450116Y-103600681D01*
X141497382Y-103600370D01*
X141546917Y-103600125D01*
X141598035Y-103599947D01*
X141650050Y-103599838D01*
X141702277Y-103599797D01*
X141754030Y-103599826D01*
G36*
X142836538Y-103601024D02*
X142874161Y-103601154D01*
X142906668Y-103601356D01*
X142933412Y-103601625D01*
X142953747Y-103601960D01*
X142967024Y-103602357D01*
X142972598Y-103602813D01*
X142972733Y-103602901D01*
X142971232Y-103607549D01*
X142967027Y-103618902D01*
X142960562Y-103635804D01*
X142952279Y-103657100D01*
X142942625Y-103681636D01*
X142937266Y-103695148D01*
X142926914Y-103721231D01*
X142917530Y-103744967D01*
X142909597Y-103765127D01*
X142903598Y-103780478D01*
X142900018Y-103789789D01*
X142899299Y-103791758D01*
X142898247Y-103793530D01*
X142895904Y-103794995D01*
X142891532Y-103796184D01*
X142884391Y-103797124D01*
X142873742Y-103797845D01*
X142858847Y-103798376D01*
X142838966Y-103798745D01*
X142813360Y-103798981D01*
X142781290Y-103799113D01*
X142742018Y-103799171D01*
X142709341Y-103799182D01*
X142664473Y-103799202D01*
X142627284Y-103799275D01*
X142596985Y-103799433D01*
X142572789Y-103799708D01*
X142553907Y-103800133D01*
X142539552Y-103800739D01*
X142528935Y-103801558D01*
X142521269Y-103802622D01*
X142515764Y-103803965D01*
X142511634Y-103805617D01*
X142508502Y-103807357D01*
X142498761Y-103814736D01*
X142493294Y-103822934D01*
X142492433Y-103832571D01*
X142496510Y-103844264D01*
X142505858Y-103858632D01*
X142520809Y-103876292D01*
X142541695Y-103897864D01*
X142568848Y-103923964D01*
X142573512Y-103928336D01*
X142609350Y-103962486D01*
X142642982Y-103995789D01*
X142673548Y-104027334D01*
X142700183Y-104056211D01*
X142722027Y-104081509D01*
X142738216Y-104102317D01*
X142738242Y-104102352D01*
X142756149Y-104133224D01*
X142770208Y-104169609D01*
X142779578Y-104209103D01*
X142782116Y-104227982D01*
X142783747Y-104265244D01*
X142781577Y-104303360D01*
X142775960Y-104340255D01*
X142767245Y-104373860D01*
X142755784Y-104402102D01*
X142751217Y-104410290D01*
X142733088Y-104434380D01*
X142709516Y-104457580D01*
X142683358Y-104477315D01*
X142665858Y-104487290D01*
X142656038Y-104492098D01*
X142647163Y-104496307D01*
X142638625Y-104499955D01*
X142629814Y-104503084D01*
X142620125Y-104505732D01*
X142608949Y-104507941D01*
X142595678Y-104509749D01*
X142579704Y-104511197D01*
X142560420Y-104512324D01*
X142537217Y-104513171D01*
X142509488Y-104513778D01*
X142476625Y-104514184D01*
X142438021Y-104514429D01*
X142393067Y-104514554D01*
X142341155Y-104514598D01*
X142281679Y-104514601D01*
X142250060Y-104514600D01*
X142196011Y-104514554D01*
X142144925Y-104514422D01*
X142097401Y-104514210D01*
X142054034Y-104513924D01*
X142015423Y-104513571D01*
X141982164Y-104513158D01*
X141954854Y-104512691D01*
X141934092Y-104512177D01*
X141920473Y-104511623D01*
X141914595Y-104511034D01*
X141914399Y-104510904D01*
X141915864Y-104506107D01*
X141919989Y-104494500D01*
X141926371Y-104477167D01*
X141934609Y-104455190D01*
X141944299Y-104429653D01*
X141954125Y-104404012D01*
X141993850Y-104300816D01*
X142239008Y-104298700D01*
X142290980Y-104298236D01*
X142335155Y-104297798D01*
X142372203Y-104297359D01*
X142402794Y-104296894D01*
X142427598Y-104296378D01*
X142447283Y-104295785D01*
X142462521Y-104295090D01*
X142473981Y-104294268D01*
X142482332Y-104293292D01*
X142488244Y-104292138D01*
X142492387Y-104290780D01*
X142495431Y-104289193D01*
X142495809Y-104288951D01*
X142506888Y-104279959D01*
X142512915Y-104270242D01*
X142513603Y-104259117D01*
X142508666Y-104245901D01*
X142497820Y-104229912D01*
X142480778Y-104210467D01*
X142457255Y-104186884D01*
X142450319Y-104180253D01*
X142433326Y-104163969D01*
X142411770Y-104143071D01*
X142387064Y-104118943D01*
X142360619Y-104092968D01*
X142333850Y-104066530D01*
X142309831Y-104042669D01*
X142281055Y-104013761D01*
X142257780Y-103989825D01*
X142239301Y-103970074D01*
X142224913Y-103953724D01*
X142213909Y-103939987D01*
X142205585Y-103928078D01*
X142202538Y-103923127D01*
X142185636Y-103890663D01*
X142174891Y-103860066D01*
X142169470Y-103828420D01*
X142168400Y-103803231D01*
X142171200Y-103758308D01*
X142179751Y-103719471D01*
X142194276Y-103686392D01*
X142215000Y-103658743D01*
X142242148Y-103636195D01*
X142275943Y-103618420D01*
X142300716Y-103609534D01*
X142305703Y-103608248D01*
X142312129Y-103607122D01*
X142320577Y-103606141D01*
X142331631Y-103605293D01*
X142345875Y-103604562D01*
X142363891Y-103603935D01*
X142386262Y-103603399D01*
X142413572Y-103602939D01*
X142446403Y-103602541D01*
X142485340Y-103602192D01*
X142530965Y-103601878D01*
X142583862Y-103601585D01*
X142644613Y-103601299D01*
X142647825Y-103601285D01*
X142699442Y-103601096D01*
X142748532Y-103600992D01*
X142794446Y-103600969D01*
X142836538Y-103601024D01*
X142836538Y-103601024D01*
G37*
X142836538Y-103601024D02*
X142874161Y-103601154D01*
X142906668Y-103601356D01*
X142933412Y-103601625D01*
X142953747Y-103601960D01*
X142967024Y-103602357D01*
X142972598Y-103602813D01*
X142972733Y-103602901D01*
X142971232Y-103607549D01*
X142967027Y-103618902D01*
X142960562Y-103635804D01*
X142952279Y-103657100D01*
X142942625Y-103681636D01*
X142937266Y-103695148D01*
X142926914Y-103721231D01*
X142917530Y-103744967D01*
X142909597Y-103765127D01*
X142903598Y-103780478D01*
X142900018Y-103789789D01*
X142899299Y-103791758D01*
X142898247Y-103793530D01*
X142895904Y-103794995D01*
X142891532Y-103796184D01*
X142884391Y-103797124D01*
X142873742Y-103797845D01*
X142858847Y-103798376D01*
X142838966Y-103798745D01*
X142813360Y-103798981D01*
X142781290Y-103799113D01*
X142742018Y-103799171D01*
X142709341Y-103799182D01*
X142664473Y-103799202D01*
X142627284Y-103799275D01*
X142596985Y-103799433D01*
X142572789Y-103799708D01*
X142553907Y-103800133D01*
X142539552Y-103800739D01*
X142528935Y-103801558D01*
X142521269Y-103802622D01*
X142515764Y-103803965D01*
X142511634Y-103805617D01*
X142508502Y-103807357D01*
X142498761Y-103814736D01*
X142493294Y-103822934D01*
X142492433Y-103832571D01*
X142496510Y-103844264D01*
X142505858Y-103858632D01*
X142520809Y-103876292D01*
X142541695Y-103897864D01*
X142568848Y-103923964D01*
X142573512Y-103928336D01*
X142609350Y-103962486D01*
X142642982Y-103995789D01*
X142673548Y-104027334D01*
X142700183Y-104056211D01*
X142722027Y-104081509D01*
X142738216Y-104102317D01*
X142738242Y-104102352D01*
X142756149Y-104133224D01*
X142770208Y-104169609D01*
X142779578Y-104209103D01*
X142782116Y-104227982D01*
X142783747Y-104265244D01*
X142781577Y-104303360D01*
X142775960Y-104340255D01*
X142767245Y-104373860D01*
X142755784Y-104402102D01*
X142751217Y-104410290D01*
X142733088Y-104434380D01*
X142709516Y-104457580D01*
X142683358Y-104477315D01*
X142665858Y-104487290D01*
X142656038Y-104492098D01*
X142647163Y-104496307D01*
X142638625Y-104499955D01*
X142629814Y-104503084D01*
X142620125Y-104505732D01*
X142608949Y-104507941D01*
X142595678Y-104509749D01*
X142579704Y-104511197D01*
X142560420Y-104512324D01*
X142537217Y-104513171D01*
X142509488Y-104513778D01*
X142476625Y-104514184D01*
X142438021Y-104514429D01*
X142393067Y-104514554D01*
X142341155Y-104514598D01*
X142281679Y-104514601D01*
X142250060Y-104514600D01*
X142196011Y-104514554D01*
X142144925Y-104514422D01*
X142097401Y-104514210D01*
X142054034Y-104513924D01*
X142015423Y-104513571D01*
X141982164Y-104513158D01*
X141954854Y-104512691D01*
X141934092Y-104512177D01*
X141920473Y-104511623D01*
X141914595Y-104511034D01*
X141914399Y-104510904D01*
X141915864Y-104506107D01*
X141919989Y-104494500D01*
X141926371Y-104477167D01*
X141934609Y-104455190D01*
X141944299Y-104429653D01*
X141954125Y-104404012D01*
X141993850Y-104300816D01*
X142239008Y-104298700D01*
X142290980Y-104298236D01*
X142335155Y-104297798D01*
X142372203Y-104297359D01*
X142402794Y-104296894D01*
X142427598Y-104296378D01*
X142447283Y-104295785D01*
X142462521Y-104295090D01*
X142473981Y-104294268D01*
X142482332Y-104293292D01*
X142488244Y-104292138D01*
X142492387Y-104290780D01*
X142495431Y-104289193D01*
X142495809Y-104288951D01*
X142506888Y-104279959D01*
X142512915Y-104270242D01*
X142513603Y-104259117D01*
X142508666Y-104245901D01*
X142497820Y-104229912D01*
X142480778Y-104210467D01*
X142457255Y-104186884D01*
X142450319Y-104180253D01*
X142433326Y-104163969D01*
X142411770Y-104143071D01*
X142387064Y-104118943D01*
X142360619Y-104092968D01*
X142333850Y-104066530D01*
X142309831Y-104042669D01*
X142281055Y-104013761D01*
X142257780Y-103989825D01*
X142239301Y-103970074D01*
X142224913Y-103953724D01*
X142213909Y-103939987D01*
X142205585Y-103928078D01*
X142202538Y-103923127D01*
X142185636Y-103890663D01*
X142174891Y-103860066D01*
X142169470Y-103828420D01*
X142168400Y-103803231D01*
X142171200Y-103758308D01*
X142179751Y-103719471D01*
X142194276Y-103686392D01*
X142215000Y-103658743D01*
X142242148Y-103636195D01*
X142275943Y-103618420D01*
X142300716Y-103609534D01*
X142305703Y-103608248D01*
X142312129Y-103607122D01*
X142320577Y-103606141D01*
X142331631Y-103605293D01*
X142345875Y-103604562D01*
X142363891Y-103603935D01*
X142386262Y-103603399D01*
X142413572Y-103602939D01*
X142446403Y-103602541D01*
X142485340Y-103602192D01*
X142530965Y-103601878D01*
X142583862Y-103601585D01*
X142644613Y-103601299D01*
X142647825Y-103601285D01*
X142699442Y-103601096D01*
X142748532Y-103600992D01*
X142794446Y-103600969D01*
X142836538Y-103601024D01*
G36*
X138983391Y-102839179D02*
X138981417Y-102844752D01*
X138976598Y-102857481D01*
X138969211Y-102876656D01*
X138959534Y-102901563D01*
X138947845Y-102931490D01*
X138934424Y-102965725D01*
X138919547Y-103003555D01*
X138903493Y-103044269D01*
X138886540Y-103087154D01*
X138886218Y-103087966D01*
X138791546Y-103327149D01*
X138932690Y-103328264D01*
X138966298Y-103328595D01*
X138997043Y-103329022D01*
X139023944Y-103329523D01*
X139046018Y-103330074D01*
X139062285Y-103330652D01*
X139071763Y-103331234D01*
X139073833Y-103331635D01*
X139072309Y-103336108D01*
X139068087Y-103347081D01*
X139061692Y-103363224D01*
X139053651Y-103383207D01*
X139046653Y-103400409D01*
X139037401Y-103423311D01*
X139029140Y-103444242D01*
X139022481Y-103461621D01*
X139018032Y-103473866D01*
X139016560Y-103478530D01*
X139013648Y-103490133D01*
X138527162Y-103490133D01*
X138529974Y-103480608D01*
X138531952Y-103475274D01*
X138536837Y-103462688D01*
X138544389Y-103443455D01*
X138554366Y-103418184D01*
X138566529Y-103387479D01*
X138580635Y-103351950D01*
X138596445Y-103312201D01*
X138613718Y-103268840D01*
X138632212Y-103222474D01*
X138651687Y-103173710D01*
X138660579Y-103151466D01*
X138788372Y-102831849D01*
X138887131Y-102830712D01*
X138985890Y-102829574D01*
X138983391Y-102839179D01*
X138983391Y-102839179D01*
G37*
X138983391Y-102839179D02*
X138981417Y-102844752D01*
X138976598Y-102857481D01*
X138969211Y-102876656D01*
X138959534Y-102901563D01*
X138947845Y-102931490D01*
X138934424Y-102965725D01*
X138919547Y-103003555D01*
X138903493Y-103044269D01*
X138886540Y-103087154D01*
X138886218Y-103087966D01*
X138791546Y-103327149D01*
X138932690Y-103328264D01*
X138966298Y-103328595D01*
X138997043Y-103329022D01*
X139023944Y-103329523D01*
X139046018Y-103330074D01*
X139062285Y-103330652D01*
X139071763Y-103331234D01*
X139073833Y-103331635D01*
X139072309Y-103336108D01*
X139068087Y-103347081D01*
X139061692Y-103363224D01*
X139053651Y-103383207D01*
X139046653Y-103400409D01*
X139037401Y-103423311D01*
X139029140Y-103444242D01*
X139022481Y-103461621D01*
X139018032Y-103473866D01*
X139016560Y-103478530D01*
X139013648Y-103490133D01*
X138527162Y-103490133D01*
X138529974Y-103480608D01*
X138531952Y-103475274D01*
X138536837Y-103462688D01*
X138544389Y-103443455D01*
X138554366Y-103418184D01*
X138566529Y-103387479D01*
X138580635Y-103351950D01*
X138596445Y-103312201D01*
X138613718Y-103268840D01*
X138632212Y-103222474D01*
X138651687Y-103173710D01*
X138660579Y-103151466D01*
X138788372Y-102831849D01*
X138887131Y-102830712D01*
X138985890Y-102829574D01*
X138983391Y-102839179D01*
G36*
X142327660Y-102834125D02*
X142377213Y-102834417D01*
X142418597Y-102834905D01*
X142451753Y-102835589D01*
X142476618Y-102836467D01*
X142493134Y-102837537D01*
X142500716Y-102838639D01*
X142524464Y-102849169D01*
X142543244Y-102865737D01*
X142556027Y-102887021D01*
X142561785Y-102911701D01*
X142562007Y-102917356D01*
X142561543Y-102925902D01*
X142559915Y-102936215D01*
X142556890Y-102948964D01*
X142552236Y-102964819D01*
X142545722Y-102984451D01*
X142537115Y-103008529D01*
X142526183Y-103037723D01*
X142512695Y-103072704D01*
X142496418Y-103114141D01*
X142477120Y-103162705D01*
X142476568Y-103164088D01*
X142454296Y-103219538D01*
X142434606Y-103267639D01*
X142417166Y-103308987D01*
X142401647Y-103344183D01*
X142387717Y-103373826D01*
X142375045Y-103398514D01*
X142363301Y-103418848D01*
X142352153Y-103435426D01*
X142341272Y-103448847D01*
X142330327Y-103459712D01*
X142318986Y-103468618D01*
X142306919Y-103476165D01*
X142303153Y-103478229D01*
X142284816Y-103488016D01*
X142068916Y-103488767D01*
X142017209Y-103488860D01*
X141971125Y-103488764D01*
X141931105Y-103488487D01*
X141897592Y-103488036D01*
X141871030Y-103487416D01*
X141851860Y-103486635D01*
X141840526Y-103485699D01*
X141838199Y-103485259D01*
X141817586Y-103475137D01*
X141801009Y-103458537D01*
X141789384Y-103436848D01*
X141783626Y-103411463D01*
X141783166Y-103401620D01*
X141783507Y-103391753D01*
X141784693Y-103381188D01*
X141786971Y-103369195D01*
X141790585Y-103355042D01*
X141795782Y-103338000D01*
X141802807Y-103317338D01*
X141804977Y-103311372D01*
X142012583Y-103311372D01*
X142017144Y-103319721D01*
X142027188Y-103324972D01*
X142043465Y-103327838D01*
X142066726Y-103329032D01*
X142096621Y-103329266D01*
X142126604Y-103328964D01*
X142149454Y-103327989D01*
X142166484Y-103326241D01*
X142179009Y-103323618D01*
X142181852Y-103322726D01*
X142196236Y-103316116D01*
X142209031Y-103307479D01*
X142212149Y-103304597D01*
X142218128Y-103295871D01*
X142226682Y-103279674D01*
X142237587Y-103256526D01*
X142250614Y-103226946D01*
X142265540Y-103191454D01*
X142282139Y-103150568D01*
X142300184Y-103104809D01*
X142309710Y-103080181D01*
X142319565Y-103054416D01*
X142326658Y-103035289D01*
X142331304Y-103021552D01*
X142333819Y-103011956D01*
X142334519Y-103005253D01*
X142333721Y-103000193D01*
X142331739Y-102995529D01*
X142331325Y-102994722D01*
X142323927Y-102985230D01*
X142315131Y-102979809D01*
X142315057Y-102979790D01*
X142307671Y-102979048D01*
X142293451Y-102978557D01*
X142274027Y-102978339D01*
X142251026Y-102978415D01*
X142232879Y-102978671D01*
X142206080Y-102979254D01*
X142186357Y-102979971D01*
X142172319Y-102980987D01*
X142162575Y-102982470D01*
X142155735Y-102984587D01*
X142150407Y-102987505D01*
X142148586Y-102988788D01*
X142134918Y-103002027D01*
X142121467Y-103020446D01*
X142110285Y-103040959D01*
X142105158Y-103054099D01*
X142101641Y-103064053D01*
X142095508Y-103080207D01*
X142087392Y-103100944D01*
X142077925Y-103124646D01*
X142067965Y-103149148D01*
X142057178Y-103175722D01*
X142046553Y-103202376D01*
X142036894Y-103227060D01*
X142029004Y-103247725D01*
X142024283Y-103260611D01*
X142016903Y-103282529D01*
X142012753Y-103299212D01*
X142012583Y-103311372D01*
X141804977Y-103311372D01*
X141811906Y-103292325D01*
X141823325Y-103262231D01*
X141837309Y-103226326D01*
X141854104Y-103183878D01*
X141868724Y-103147233D01*
X141890572Y-103092865D01*
X141909760Y-103045826D01*
X141926612Y-103005523D01*
X141941453Y-102971364D01*
X141954610Y-102942754D01*
X141966407Y-102919101D01*
X141977170Y-102899811D01*
X141987223Y-102884292D01*
X141996893Y-102871950D01*
X142006505Y-102862191D01*
X142016383Y-102854424D01*
X142026854Y-102848054D01*
X142035050Y-102843949D01*
X142056216Y-102834049D01*
X142270000Y-102834031D01*
X142327660Y-102834125D01*
X142327660Y-102834125D01*
G37*
X142327660Y-102834125D02*
X142377213Y-102834417D01*
X142418597Y-102834905D01*
X142451753Y-102835589D01*
X142476618Y-102836467D01*
X142493134Y-102837537D01*
X142500716Y-102838639D01*
X142524464Y-102849169D01*
X142543244Y-102865737D01*
X142556027Y-102887021D01*
X142561785Y-102911701D01*
X142562007Y-102917356D01*
X142561543Y-102925902D01*
X142559915Y-102936215D01*
X142556890Y-102948964D01*
X142552236Y-102964819D01*
X142545722Y-102984451D01*
X142537115Y-103008529D01*
X142526183Y-103037723D01*
X142512695Y-103072704D01*
X142496418Y-103114141D01*
X142477120Y-103162705D01*
X142476568Y-103164088D01*
X142454296Y-103219538D01*
X142434606Y-103267639D01*
X142417166Y-103308987D01*
X142401647Y-103344183D01*
X142387717Y-103373826D01*
X142375045Y-103398514D01*
X142363301Y-103418848D01*
X142352153Y-103435426D01*
X142341272Y-103448847D01*
X142330327Y-103459712D01*
X142318986Y-103468618D01*
X142306919Y-103476165D01*
X142303153Y-103478229D01*
X142284816Y-103488016D01*
X142068916Y-103488767D01*
X142017209Y-103488860D01*
X141971125Y-103488764D01*
X141931105Y-103488487D01*
X141897592Y-103488036D01*
X141871030Y-103487416D01*
X141851860Y-103486635D01*
X141840526Y-103485699D01*
X141838199Y-103485259D01*
X141817586Y-103475137D01*
X141801009Y-103458537D01*
X141789384Y-103436848D01*
X141783626Y-103411463D01*
X141783166Y-103401620D01*
X141783507Y-103391753D01*
X141784693Y-103381188D01*
X141786971Y-103369195D01*
X141790585Y-103355042D01*
X141795782Y-103338000D01*
X141802807Y-103317338D01*
X141804977Y-103311372D01*
X142012583Y-103311372D01*
X142017144Y-103319721D01*
X142027188Y-103324972D01*
X142043465Y-103327838D01*
X142066726Y-103329032D01*
X142096621Y-103329266D01*
X142126604Y-103328964D01*
X142149454Y-103327989D01*
X142166484Y-103326241D01*
X142179009Y-103323618D01*
X142181852Y-103322726D01*
X142196236Y-103316116D01*
X142209031Y-103307479D01*
X142212149Y-103304597D01*
X142218128Y-103295871D01*
X142226682Y-103279674D01*
X142237587Y-103256526D01*
X142250614Y-103226946D01*
X142265540Y-103191454D01*
X142282139Y-103150568D01*
X142300184Y-103104809D01*
X142309710Y-103080181D01*
X142319565Y-103054416D01*
X142326658Y-103035289D01*
X142331304Y-103021552D01*
X142333819Y-103011956D01*
X142334519Y-103005253D01*
X142333721Y-103000193D01*
X142331739Y-102995529D01*
X142331325Y-102994722D01*
X142323927Y-102985230D01*
X142315131Y-102979809D01*
X142315057Y-102979790D01*
X142307671Y-102979048D01*
X142293451Y-102978557D01*
X142274027Y-102978339D01*
X142251026Y-102978415D01*
X142232879Y-102978671D01*
X142206080Y-102979254D01*
X142186357Y-102979971D01*
X142172319Y-102980987D01*
X142162575Y-102982470D01*
X142155735Y-102984587D01*
X142150407Y-102987505D01*
X142148586Y-102988788D01*
X142134918Y-103002027D01*
X142121467Y-103020446D01*
X142110285Y-103040959D01*
X142105158Y-103054099D01*
X142101641Y-103064053D01*
X142095508Y-103080207D01*
X142087392Y-103100944D01*
X142077925Y-103124646D01*
X142067965Y-103149148D01*
X142057178Y-103175722D01*
X142046553Y-103202376D01*
X142036894Y-103227060D01*
X142029004Y-103247725D01*
X142024283Y-103260611D01*
X142016903Y-103282529D01*
X142012753Y-103299212D01*
X142012583Y-103311372D01*
X141804977Y-103311372D01*
X141811906Y-103292325D01*
X141823325Y-103262231D01*
X141837309Y-103226326D01*
X141854104Y-103183878D01*
X141868724Y-103147233D01*
X141890572Y-103092865D01*
X141909760Y-103045826D01*
X141926612Y-103005523D01*
X141941453Y-102971364D01*
X141954610Y-102942754D01*
X141966407Y-102919101D01*
X141977170Y-102899811D01*
X141987223Y-102884292D01*
X141996893Y-102871950D01*
X142006505Y-102862191D01*
X142016383Y-102854424D01*
X142026854Y-102848054D01*
X142035050Y-102843949D01*
X142056216Y-102834049D01*
X142270000Y-102834031D01*
X142327660Y-102834125D01*
G36*
X143019181Y-102833992D02*
X143064082Y-102834081D01*
X143102309Y-102834273D01*
X143134460Y-102834606D01*
X143161132Y-102835118D01*
X143182923Y-102835848D01*
X143200431Y-102836834D01*
X143214254Y-102838114D01*
X143224988Y-102839728D01*
X143233232Y-102841713D01*
X143239583Y-102844108D01*
X143244639Y-102846951D01*
X143248997Y-102850281D01*
X143253255Y-102854136D01*
X143255662Y-102856393D01*
X143269156Y-102872121D01*
X143277699Y-102890086D01*
X143281300Y-102911158D01*
X143279968Y-102936210D01*
X143273713Y-102966113D01*
X143262543Y-103001737D01*
X143257369Y-103015999D01*
X143251556Y-103031247D01*
X143242965Y-103053331D01*
X143231995Y-103081245D01*
X143219047Y-103113978D01*
X143204522Y-103150520D01*
X143188819Y-103189863D01*
X143172341Y-103230998D01*
X143155486Y-103272915D01*
X143152009Y-103281541D01*
X143067983Y-103489933D01*
X142969558Y-103490033D01*
X142934074Y-103489903D01*
X142906772Y-103489426D01*
X142887375Y-103488588D01*
X142875605Y-103487377D01*
X142871183Y-103485780D01*
X142871133Y-103485563D01*
X142872657Y-103480906D01*
X142877048Y-103469085D01*
X142884033Y-103450800D01*
X142893338Y-103426752D01*
X142904692Y-103397639D01*
X142917821Y-103364162D01*
X142932452Y-103327020D01*
X142948313Y-103286913D01*
X142964266Y-103246716D01*
X142981083Y-103204237D01*
X142996925Y-103163882D01*
X143011515Y-103126375D01*
X143024579Y-103092440D01*
X143035843Y-103062799D01*
X143045031Y-103038175D01*
X143051868Y-103019291D01*
X143056080Y-103006871D01*
X143057400Y-103001759D01*
X143056728Y-102994398D01*
X143054078Y-102988713D01*
X143048497Y-102984492D01*
X143039034Y-102981522D01*
X143024736Y-102979590D01*
X143004650Y-102978485D01*
X142977826Y-102977994D01*
X142950474Y-102977899D01*
X142862365Y-102977899D01*
X142853483Y-102998008D01*
X142850315Y-103005541D01*
X142844310Y-103020175D01*
X142835775Y-103041148D01*
X142825018Y-103067702D01*
X142812345Y-103099075D01*
X142798065Y-103134507D01*
X142782484Y-103173237D01*
X142765909Y-103214505D01*
X142750444Y-103253066D01*
X142656288Y-103488016D01*
X142557915Y-103489154D01*
X142459542Y-103490291D01*
X142462480Y-103478570D01*
X142464544Y-103472649D01*
X142469494Y-103459581D01*
X142477049Y-103440071D01*
X142486932Y-103414827D01*
X142498864Y-103384554D01*
X142512567Y-103349958D01*
X142527763Y-103311746D01*
X142544172Y-103270624D01*
X142561516Y-103227298D01*
X142564313Y-103220323D01*
X142663208Y-102973797D01*
X142634407Y-102913297D01*
X142624297Y-102891867D01*
X142615342Y-102872524D01*
X142608253Y-102856830D01*
X142603741Y-102846349D01*
X142602617Y-102843382D01*
X142599629Y-102833966D01*
X142967008Y-102833966D01*
X143019181Y-102833992D01*
X143019181Y-102833992D01*
G37*
X143019181Y-102833992D02*
X143064082Y-102834081D01*
X143102309Y-102834273D01*
X143134460Y-102834606D01*
X143161132Y-102835118D01*
X143182923Y-102835848D01*
X143200431Y-102836834D01*
X143214254Y-102838114D01*
X143224988Y-102839728D01*
X143233232Y-102841713D01*
X143239583Y-102844108D01*
X143244639Y-102846951D01*
X143248997Y-102850281D01*
X143253255Y-102854136D01*
X143255662Y-102856393D01*
X143269156Y-102872121D01*
X143277699Y-102890086D01*
X143281300Y-102911158D01*
X143279968Y-102936210D01*
X143273713Y-102966113D01*
X143262543Y-103001737D01*
X143257369Y-103015999D01*
X143251556Y-103031247D01*
X143242965Y-103053331D01*
X143231995Y-103081245D01*
X143219047Y-103113978D01*
X143204522Y-103150520D01*
X143188819Y-103189863D01*
X143172341Y-103230998D01*
X143155486Y-103272915D01*
X143152009Y-103281541D01*
X143067983Y-103489933D01*
X142969558Y-103490033D01*
X142934074Y-103489903D01*
X142906772Y-103489426D01*
X142887375Y-103488588D01*
X142875605Y-103487377D01*
X142871183Y-103485780D01*
X142871133Y-103485563D01*
X142872657Y-103480906D01*
X142877048Y-103469085D01*
X142884033Y-103450800D01*
X142893338Y-103426752D01*
X142904692Y-103397639D01*
X142917821Y-103364162D01*
X142932452Y-103327020D01*
X142948313Y-103286913D01*
X142964266Y-103246716D01*
X142981083Y-103204237D01*
X142996925Y-103163882D01*
X143011515Y-103126375D01*
X143024579Y-103092440D01*
X143035843Y-103062799D01*
X143045031Y-103038175D01*
X143051868Y-103019291D01*
X143056080Y-103006871D01*
X143057400Y-103001759D01*
X143056728Y-102994398D01*
X143054078Y-102988713D01*
X143048497Y-102984492D01*
X143039034Y-102981522D01*
X143024736Y-102979590D01*
X143004650Y-102978485D01*
X142977826Y-102977994D01*
X142950474Y-102977899D01*
X142862365Y-102977899D01*
X142853483Y-102998008D01*
X142850315Y-103005541D01*
X142844310Y-103020175D01*
X142835775Y-103041148D01*
X142825018Y-103067702D01*
X142812345Y-103099075D01*
X142798065Y-103134507D01*
X142782484Y-103173237D01*
X142765909Y-103214505D01*
X142750444Y-103253066D01*
X142656288Y-103488016D01*
X142557915Y-103489154D01*
X142459542Y-103490291D01*
X142462480Y-103478570D01*
X142464544Y-103472649D01*
X142469494Y-103459581D01*
X142477049Y-103440071D01*
X142486932Y-103414827D01*
X142498864Y-103384554D01*
X142512567Y-103349958D01*
X142527763Y-103311746D01*
X142544172Y-103270624D01*
X142561516Y-103227298D01*
X142564313Y-103220323D01*
X142663208Y-102973797D01*
X142634407Y-102913297D01*
X142624297Y-102891867D01*
X142615342Y-102872524D01*
X142608253Y-102856830D01*
X142603741Y-102846349D01*
X142602617Y-102843382D01*
X142599629Y-102833966D01*
X142967008Y-102833966D01*
X143019181Y-102833992D01*
G36*
X138347286Y-102829771D02*
X138397153Y-102829883D01*
X138443864Y-102830061D01*
X138486780Y-102830300D01*
X138525263Y-102830594D01*
X138558678Y-102830938D01*
X138586384Y-102831324D01*
X138607746Y-102831748D01*
X138622125Y-102832203D01*
X138628883Y-102832684D01*
X138629333Y-102832846D01*
X138627883Y-102837632D01*
X138623862Y-102848968D01*
X138617763Y-102865512D01*
X138610081Y-102885921D01*
X138602874Y-102904785D01*
X138576416Y-102973612D01*
X138222402Y-102973666D01*
X138209959Y-103001108D01*
X138201495Y-103020537D01*
X138192619Y-103042078D01*
X138187131Y-103056141D01*
X138176746Y-103083733D01*
X138314139Y-103083733D01*
X138353708Y-103083804D01*
X138385491Y-103084035D01*
X138410166Y-103084451D01*
X138428413Y-103085078D01*
X138440911Y-103085943D01*
X138448339Y-103087070D01*
X138451376Y-103088486D01*
X138451533Y-103088964D01*
X138450073Y-103094541D01*
X138446044Y-103106523D01*
X138439970Y-103123433D01*
X138432376Y-103143793D01*
X138427446Y-103156697D01*
X138403359Y-103219199D01*
X138122123Y-103219199D01*
X138108450Y-103252008D01*
X138100799Y-103270858D01*
X138093347Y-103290035D01*
X138087584Y-103305697D01*
X138087116Y-103307041D01*
X138079456Y-103329266D01*
X138241153Y-103329371D01*
X138402850Y-103329477D01*
X138436716Y-103403757D01*
X138447315Y-103427046D01*
X138456706Y-103447758D01*
X138464320Y-103464636D01*
X138469591Y-103476420D01*
X138471951Y-103481854D01*
X138471994Y-103481969D01*
X138468098Y-103482698D01*
X138456123Y-103483364D01*
X138436458Y-103483964D01*
X138409491Y-103484491D01*
X138375609Y-103484943D01*
X138335202Y-103485312D01*
X138288656Y-103485596D01*
X138236361Y-103485790D01*
X138178704Y-103485888D01*
X138149202Y-103485899D01*
X137825000Y-103485899D01*
X137825000Y-103473754D01*
X137826550Y-103467701D01*
X137831014Y-103454538D01*
X137838114Y-103434993D01*
X137847569Y-103409798D01*
X137859101Y-103379683D01*
X137872430Y-103345377D01*
X137887276Y-103307611D01*
X137903360Y-103267116D01*
X137918527Y-103229279D01*
X137935566Y-103186916D01*
X137951746Y-103146618D01*
X137966774Y-103109120D01*
X137980357Y-103075156D01*
X137992202Y-103045459D01*
X138002017Y-103020763D01*
X138009509Y-103001802D01*
X138014384Y-102989311D01*
X138016281Y-102984244D01*
X138017512Y-102978772D01*
X138017272Y-102972438D01*
X138015127Y-102963944D01*
X138010641Y-102951993D01*
X138003379Y-102935287D01*
X137992905Y-102912528D01*
X137990487Y-102907351D01*
X137980473Y-102885554D01*
X137971876Y-102866103D01*
X137965299Y-102850424D01*
X137961347Y-102839945D01*
X137960466Y-102836448D01*
X137961055Y-102835215D01*
X137963181Y-102834142D01*
X137967383Y-102833217D01*
X137974201Y-102832429D01*
X137984174Y-102831768D01*
X137997842Y-102831223D01*
X138015743Y-102830783D01*
X138038417Y-102830437D01*
X138066403Y-102830174D01*
X138100241Y-102829984D01*
X138140469Y-102829856D01*
X138187628Y-102829778D01*
X138242256Y-102829741D01*
X138294899Y-102829733D01*
X138347286Y-102829771D01*
X138347286Y-102829771D01*
G37*
X138347286Y-102829771D02*
X138397153Y-102829883D01*
X138443864Y-102830061D01*
X138486780Y-102830300D01*
X138525263Y-102830594D01*
X138558678Y-102830938D01*
X138586384Y-102831324D01*
X138607746Y-102831748D01*
X138622125Y-102832203D01*
X138628883Y-102832684D01*
X138629333Y-102832846D01*
X138627883Y-102837632D01*
X138623862Y-102848968D01*
X138617763Y-102865512D01*
X138610081Y-102885921D01*
X138602874Y-102904785D01*
X138576416Y-102973612D01*
X138222402Y-102973666D01*
X138209959Y-103001108D01*
X138201495Y-103020537D01*
X138192619Y-103042078D01*
X138187131Y-103056141D01*
X138176746Y-103083733D01*
X138314139Y-103083733D01*
X138353708Y-103083804D01*
X138385491Y-103084035D01*
X138410166Y-103084451D01*
X138428413Y-103085078D01*
X138440911Y-103085943D01*
X138448339Y-103087070D01*
X138451376Y-103088486D01*
X138451533Y-103088964D01*
X138450073Y-103094541D01*
X138446044Y-103106523D01*
X138439970Y-103123433D01*
X138432376Y-103143793D01*
X138427446Y-103156697D01*
X138403359Y-103219199D01*
X138122123Y-103219199D01*
X138108450Y-103252008D01*
X138100799Y-103270858D01*
X138093347Y-103290035D01*
X138087584Y-103305697D01*
X138087116Y-103307041D01*
X138079456Y-103329266D01*
X138241153Y-103329371D01*
X138402850Y-103329477D01*
X138436716Y-103403757D01*
X138447315Y-103427046D01*
X138456706Y-103447758D01*
X138464320Y-103464636D01*
X138469591Y-103476420D01*
X138471951Y-103481854D01*
X138471994Y-103481969D01*
X138468098Y-103482698D01*
X138456123Y-103483364D01*
X138436458Y-103483964D01*
X138409491Y-103484491D01*
X138375609Y-103484943D01*
X138335202Y-103485312D01*
X138288656Y-103485596D01*
X138236361Y-103485790D01*
X138178704Y-103485888D01*
X138149202Y-103485899D01*
X137825000Y-103485899D01*
X137825000Y-103473754D01*
X137826550Y-103467701D01*
X137831014Y-103454538D01*
X137838114Y-103434993D01*
X137847569Y-103409798D01*
X137859101Y-103379683D01*
X137872430Y-103345377D01*
X137887276Y-103307611D01*
X137903360Y-103267116D01*
X137918527Y-103229279D01*
X137935566Y-103186916D01*
X137951746Y-103146618D01*
X137966774Y-103109120D01*
X137980357Y-103075156D01*
X137992202Y-103045459D01*
X138002017Y-103020763D01*
X138009509Y-103001802D01*
X138014384Y-102989311D01*
X138016281Y-102984244D01*
X138017512Y-102978772D01*
X138017272Y-102972438D01*
X138015127Y-102963944D01*
X138010641Y-102951993D01*
X138003379Y-102935287D01*
X137992905Y-102912528D01*
X137990487Y-102907351D01*
X137980473Y-102885554D01*
X137971876Y-102866103D01*
X137965299Y-102850424D01*
X137961347Y-102839945D01*
X137960466Y-102836448D01*
X137961055Y-102835215D01*
X137963181Y-102834142D01*
X137967383Y-102833217D01*
X137974201Y-102832429D01*
X137984174Y-102831768D01*
X137997842Y-102831223D01*
X138015743Y-102830783D01*
X138038417Y-102830437D01*
X138066403Y-102830174D01*
X138100241Y-102829984D01*
X138140469Y-102829856D01*
X138187628Y-102829778D01*
X138242256Y-102829741D01*
X138294899Y-102829733D01*
X138347286Y-102829771D01*
G36*
X139623029Y-102829786D02*
X139685407Y-102829947D01*
X139739348Y-102830216D01*
X139784866Y-102830592D01*
X139821975Y-102831076D01*
X139850691Y-102831669D01*
X139871026Y-102832369D01*
X139882996Y-102833178D01*
X139886633Y-102834032D01*
X139885175Y-102839228D01*
X139881137Y-102850925D01*
X139875020Y-102867739D01*
X139867326Y-102888283D01*
X139860574Y-102905953D01*
X139834514Y-102973575D01*
X139656335Y-102974679D01*
X139478155Y-102975783D01*
X139434189Y-103083733D01*
X139709891Y-103083733D01*
X139707542Y-103095374D01*
X139705171Y-103103484D01*
X139700300Y-103117647D01*
X139693574Y-103136060D01*
X139685644Y-103156918D01*
X139683233Y-103163108D01*
X139661274Y-103219199D01*
X139522588Y-103219199D01*
X139482257Y-103219277D01*
X139449709Y-103219528D01*
X139424263Y-103219976D01*
X139405238Y-103220647D01*
X139391951Y-103221566D01*
X139383723Y-103222759D01*
X139379870Y-103224251D01*
X139379636Y-103224491D01*
X139376496Y-103230322D01*
X139371077Y-103242323D01*
X139364130Y-103258761D01*
X139356409Y-103277901D01*
X139356186Y-103278466D01*
X139337005Y-103327149D01*
X139498802Y-103328257D01*
X139660599Y-103329364D01*
X139695299Y-103404920D01*
X139705970Y-103428287D01*
X139715312Y-103448995D01*
X139722785Y-103465828D01*
X139727850Y-103477571D01*
X139729969Y-103483006D01*
X139729999Y-103483188D01*
X139725874Y-103483618D01*
X139713927Y-103484027D01*
X139694804Y-103484409D01*
X139669151Y-103484760D01*
X139637613Y-103485074D01*
X139600835Y-103485345D01*
X139559464Y-103485568D01*
X139514143Y-103485738D01*
X139465520Y-103485850D01*
X139414239Y-103485898D01*
X139403574Y-103485899D01*
X139077148Y-103485899D01*
X139080068Y-103474258D01*
X139082134Y-103468332D01*
X139087081Y-103455266D01*
X139094629Y-103435774D01*
X139104496Y-103410568D01*
X139116401Y-103380363D01*
X139130063Y-103345872D01*
X139145200Y-103307808D01*
X139161532Y-103266885D01*
X139178775Y-103223817D01*
X139180010Y-103220739D01*
X139197217Y-103177745D01*
X139213448Y-103136996D01*
X139228434Y-103099186D01*
X139241904Y-103065006D01*
X139253585Y-103035149D01*
X139263209Y-103010309D01*
X139270503Y-102991177D01*
X139275196Y-102978447D01*
X139277019Y-102972811D01*
X139277033Y-102972670D01*
X139275279Y-102966904D01*
X139270433Y-102954964D01*
X139263118Y-102938283D01*
X139253955Y-102918296D01*
X139247400Y-102904412D01*
X139237379Y-102883050D01*
X139228807Y-102864064D01*
X139222306Y-102848892D01*
X139218500Y-102838970D01*
X139217766Y-102836038D01*
X139218543Y-102834876D01*
X139221226Y-102833862D01*
X139226345Y-102832989D01*
X139234432Y-102832245D01*
X139246015Y-102831621D01*
X139261626Y-102831106D01*
X139281794Y-102830691D01*
X139307050Y-102830366D01*
X139337923Y-102830120D01*
X139374944Y-102829944D01*
X139418643Y-102829828D01*
X139469551Y-102829762D01*
X139528197Y-102829735D01*
X139552199Y-102829733D01*
X139623029Y-102829786D01*
X139623029Y-102829786D01*
G37*
X139623029Y-102829786D02*
X139685407Y-102829947D01*
X139739348Y-102830216D01*
X139784866Y-102830592D01*
X139821975Y-102831076D01*
X139850691Y-102831669D01*
X139871026Y-102832369D01*
X139882996Y-102833178D01*
X139886633Y-102834032D01*
X139885175Y-102839228D01*
X139881137Y-102850925D01*
X139875020Y-102867739D01*
X139867326Y-102888283D01*
X139860574Y-102905953D01*
X139834514Y-102973575D01*
X139656335Y-102974679D01*
X139478155Y-102975783D01*
X139434189Y-103083733D01*
X139709891Y-103083733D01*
X139707542Y-103095374D01*
X139705171Y-103103484D01*
X139700300Y-103117647D01*
X139693574Y-103136060D01*
X139685644Y-103156918D01*
X139683233Y-103163108D01*
X139661274Y-103219199D01*
X139522588Y-103219199D01*
X139482257Y-103219277D01*
X139449709Y-103219528D01*
X139424263Y-103219976D01*
X139405238Y-103220647D01*
X139391951Y-103221566D01*
X139383723Y-103222759D01*
X139379870Y-103224251D01*
X139379636Y-103224491D01*
X139376496Y-103230322D01*
X139371077Y-103242323D01*
X139364130Y-103258761D01*
X139356409Y-103277901D01*
X139356186Y-103278466D01*
X139337005Y-103327149D01*
X139498802Y-103328257D01*
X139660599Y-103329364D01*
X139695299Y-103404920D01*
X139705970Y-103428287D01*
X139715312Y-103448995D01*
X139722785Y-103465828D01*
X139727850Y-103477571D01*
X139729969Y-103483006D01*
X139729999Y-103483188D01*
X139725874Y-103483618D01*
X139713927Y-103484027D01*
X139694804Y-103484409D01*
X139669151Y-103484760D01*
X139637613Y-103485074D01*
X139600835Y-103485345D01*
X139559464Y-103485568D01*
X139514143Y-103485738D01*
X139465520Y-103485850D01*
X139414239Y-103485898D01*
X139403574Y-103485899D01*
X139077148Y-103485899D01*
X139080068Y-103474258D01*
X139082134Y-103468332D01*
X139087081Y-103455266D01*
X139094629Y-103435774D01*
X139104496Y-103410568D01*
X139116401Y-103380363D01*
X139130063Y-103345872D01*
X139145200Y-103307808D01*
X139161532Y-103266885D01*
X139178775Y-103223817D01*
X139180010Y-103220739D01*
X139197217Y-103177745D01*
X139213448Y-103136996D01*
X139228434Y-103099186D01*
X139241904Y-103065006D01*
X139253585Y-103035149D01*
X139263209Y-103010309D01*
X139270503Y-102991177D01*
X139275196Y-102978447D01*
X139277019Y-102972811D01*
X139277033Y-102972670D01*
X139275279Y-102966904D01*
X139270433Y-102954964D01*
X139263118Y-102938283D01*
X139253955Y-102918296D01*
X139247400Y-102904412D01*
X139237379Y-102883050D01*
X139228807Y-102864064D01*
X139222306Y-102848892D01*
X139218500Y-102838970D01*
X139217766Y-102836038D01*
X139218543Y-102834876D01*
X139221226Y-102833862D01*
X139226345Y-102832989D01*
X139234432Y-102832245D01*
X139246015Y-102831621D01*
X139261626Y-102831106D01*
X139281794Y-102830691D01*
X139307050Y-102830366D01*
X139337923Y-102830120D01*
X139374944Y-102829944D01*
X139418643Y-102829828D01*
X139469551Y-102829762D01*
X139528197Y-102829735D01*
X139552199Y-102829733D01*
X139623029Y-102829786D01*
G36*
X140306376Y-102834115D02*
X140353675Y-102834330D01*
X140393477Y-102834701D01*
X140425605Y-102835224D01*
X140449882Y-102835895D01*
X140466130Y-102836713D01*
X140474172Y-102837673D01*
X140475066Y-102838162D01*
X140473579Y-102843327D01*
X140469463Y-102854952D01*
X140463237Y-102871639D01*
X140455421Y-102891988D01*
X140449144Y-102908012D01*
X140423222Y-102973666D01*
X140291453Y-102973690D01*
X140249739Y-102973859D01*
X140213958Y-102974341D01*
X140184658Y-102975117D01*
X140162389Y-102976170D01*
X140147703Y-102977483D01*
X140142750Y-102978391D01*
X140124394Y-102987425D01*
X140107253Y-103003208D01*
X140092947Y-103024033D01*
X140086629Y-103037634D01*
X140082923Y-103047052D01*
X140076526Y-103063212D01*
X140067884Y-103084992D01*
X140057443Y-103111271D01*
X140045649Y-103140926D01*
X140032947Y-103172835D01*
X140024596Y-103193799D01*
X139971462Y-103327149D01*
X140242124Y-103331383D01*
X140257411Y-103363133D01*
X140268694Y-103386878D01*
X140279695Y-103410583D01*
X140289822Y-103432917D01*
X140298488Y-103452550D01*
X140305101Y-103468154D01*
X140309073Y-103478397D01*
X140309966Y-103481693D01*
X140305758Y-103482685D01*
X140293228Y-103483545D01*
X140272524Y-103484270D01*
X140243789Y-103484859D01*
X140207169Y-103485309D01*
X140162809Y-103485617D01*
X140110854Y-103485780D01*
X140065491Y-103485807D01*
X140013668Y-103485775D01*
X139969621Y-103485707D01*
X139932659Y-103485583D01*
X139902092Y-103485380D01*
X139877229Y-103485078D01*
X139857379Y-103484654D01*
X139841851Y-103484088D01*
X139829956Y-103483357D01*
X139821002Y-103482442D01*
X139814298Y-103481319D01*
X139809154Y-103479968D01*
X139804880Y-103478367D01*
X139803304Y-103477672D01*
X139783699Y-103464594D01*
X139770053Y-103445761D01*
X139762240Y-103420953D01*
X139760314Y-103403421D01*
X139760349Y-103389394D01*
X139762016Y-103374014D01*
X139765594Y-103356373D01*
X139771360Y-103335560D01*
X139779591Y-103310666D01*
X139790566Y-103280781D01*
X139804561Y-103244996D01*
X139821026Y-103204414D01*
X139833403Y-103174073D01*
X139847544Y-103139075D01*
X139862151Y-103102655D01*
X139875923Y-103068049D01*
X139884037Y-103047488D01*
X139900595Y-103005924D01*
X139914860Y-102971511D01*
X139927266Y-102943380D01*
X139938246Y-102920664D01*
X139948231Y-102902498D01*
X139957654Y-102888013D01*
X139966947Y-102876343D01*
X139972173Y-102870796D01*
X139979838Y-102863057D01*
X139986612Y-102856490D01*
X139993228Y-102850999D01*
X140000420Y-102846488D01*
X140008922Y-102842860D01*
X140019466Y-102840018D01*
X140032786Y-102837868D01*
X140049616Y-102836311D01*
X140070688Y-102835252D01*
X140096737Y-102834595D01*
X140128496Y-102834242D01*
X140166697Y-102834099D01*
X140212075Y-102834067D01*
X140251758Y-102834059D01*
X140306376Y-102834115D01*
X140306376Y-102834115D01*
G37*
X140306376Y-102834115D02*
X140353675Y-102834330D01*
X140393477Y-102834701D01*
X140425605Y-102835224D01*
X140449882Y-102835895D01*
X140466130Y-102836713D01*
X140474172Y-102837673D01*
X140475066Y-102838162D01*
X140473579Y-102843327D01*
X140469463Y-102854952D01*
X140463237Y-102871639D01*
X140455421Y-102891988D01*
X140449144Y-102908012D01*
X140423222Y-102973666D01*
X140291453Y-102973690D01*
X140249739Y-102973859D01*
X140213958Y-102974341D01*
X140184658Y-102975117D01*
X140162389Y-102976170D01*
X140147703Y-102977483D01*
X140142750Y-102978391D01*
X140124394Y-102987425D01*
X140107253Y-103003208D01*
X140092947Y-103024033D01*
X140086629Y-103037634D01*
X140082923Y-103047052D01*
X140076526Y-103063212D01*
X140067884Y-103084992D01*
X140057443Y-103111271D01*
X140045649Y-103140926D01*
X140032947Y-103172835D01*
X140024596Y-103193799D01*
X139971462Y-103327149D01*
X140242124Y-103331383D01*
X140257411Y-103363133D01*
X140268694Y-103386878D01*
X140279695Y-103410583D01*
X140289822Y-103432917D01*
X140298488Y-103452550D01*
X140305101Y-103468154D01*
X140309073Y-103478397D01*
X140309966Y-103481693D01*
X140305758Y-103482685D01*
X140293228Y-103483545D01*
X140272524Y-103484270D01*
X140243789Y-103484859D01*
X140207169Y-103485309D01*
X140162809Y-103485617D01*
X140110854Y-103485780D01*
X140065491Y-103485807D01*
X140013668Y-103485775D01*
X139969621Y-103485707D01*
X139932659Y-103485583D01*
X139902092Y-103485380D01*
X139877229Y-103485078D01*
X139857379Y-103484654D01*
X139841851Y-103484088D01*
X139829956Y-103483357D01*
X139821002Y-103482442D01*
X139814298Y-103481319D01*
X139809154Y-103479968D01*
X139804880Y-103478367D01*
X139803304Y-103477672D01*
X139783699Y-103464594D01*
X139770053Y-103445761D01*
X139762240Y-103420953D01*
X139760314Y-103403421D01*
X139760349Y-103389394D01*
X139762016Y-103374014D01*
X139765594Y-103356373D01*
X139771360Y-103335560D01*
X139779591Y-103310666D01*
X139790566Y-103280781D01*
X139804561Y-103244996D01*
X139821026Y-103204414D01*
X139833403Y-103174073D01*
X139847544Y-103139075D01*
X139862151Y-103102655D01*
X139875923Y-103068049D01*
X139884037Y-103047488D01*
X139900595Y-103005924D01*
X139914860Y-102971511D01*
X139927266Y-102943380D01*
X139938246Y-102920664D01*
X139948231Y-102902498D01*
X139957654Y-102888013D01*
X139966947Y-102876343D01*
X139972173Y-102870796D01*
X139979838Y-102863057D01*
X139986612Y-102856490D01*
X139993228Y-102850999D01*
X140000420Y-102846488D01*
X140008922Y-102842860D01*
X140019466Y-102840018D01*
X140032786Y-102837868D01*
X140049616Y-102836311D01*
X140070688Y-102835252D01*
X140096737Y-102834595D01*
X140128496Y-102834242D01*
X140166697Y-102834099D01*
X140212075Y-102834067D01*
X140251758Y-102834059D01*
X140306376Y-102834115D01*
G36*
X141027450Y-102830529D02*
X141058504Y-102830713D01*
X141083663Y-102831008D01*
X141103441Y-102831423D01*
X141118351Y-102831965D01*
X141128910Y-102832641D01*
X141135629Y-102833459D01*
X141139024Y-102834426D01*
X141139699Y-102835226D01*
X141138223Y-102840875D01*
X141134139Y-102852946D01*
X141127967Y-102869995D01*
X141120226Y-102890576D01*
X141114299Y-102905933D01*
X141105836Y-102927718D01*
X141098567Y-102946568D01*
X141093004Y-102961150D01*
X141089654Y-102970131D01*
X141088899Y-102972378D01*
X141084866Y-102972749D01*
X141073563Y-102973078D01*
X141056190Y-102973349D01*
X141033943Y-102973546D01*
X141008020Y-102973652D01*
X140994116Y-102973666D01*
X140899332Y-102973666D01*
X140889860Y-102993774D01*
X140884406Y-103006055D01*
X140877003Y-103023676D01*
X140868715Y-103044067D01*
X140862239Y-103060449D01*
X140856765Y-103074393D01*
X140848577Y-103095107D01*
X140838110Y-103121500D01*
X140825797Y-103152482D01*
X140812071Y-103186961D01*
X140797367Y-103223849D01*
X140782118Y-103262054D01*
X140773869Y-103282699D01*
X140759133Y-103319619D01*
X140745243Y-103354517D01*
X140732545Y-103386521D01*
X140721381Y-103414762D01*
X140712095Y-103438368D01*
X140705032Y-103456468D01*
X140700534Y-103468192D01*
X140699095Y-103472141D01*
X140694543Y-103485899D01*
X140595388Y-103485899D01*
X140561248Y-103485723D01*
X140533837Y-103485204D01*
X140513582Y-103484362D01*
X140500911Y-103483214D01*
X140496249Y-103481779D01*
X140496233Y-103481682D01*
X140497767Y-103477108D01*
X140502191Y-103465359D01*
X140509237Y-103447119D01*
X140518635Y-103423069D01*
X140530117Y-103393892D01*
X140543415Y-103360268D01*
X140558261Y-103322880D01*
X140574386Y-103282410D01*
X140591520Y-103239541D01*
X140594150Y-103232974D01*
X140611471Y-103189687D01*
X140627880Y-103148613D01*
X140643101Y-103110444D01*
X140656858Y-103075876D01*
X140668876Y-103045602D01*
X140678879Y-103020316D01*
X140686593Y-103000712D01*
X140691741Y-102987484D01*
X140694048Y-102981326D01*
X140694127Y-102981074D01*
X140694273Y-102978813D01*
X140692673Y-102977063D01*
X140688391Y-102975760D01*
X140680488Y-102974839D01*
X140668028Y-102974235D01*
X140650072Y-102973881D01*
X140625684Y-102973714D01*
X140593925Y-102973667D01*
X140587743Y-102973666D01*
X140554593Y-102973631D01*
X140528955Y-102973480D01*
X140509876Y-102973150D01*
X140496401Y-102972574D01*
X140487576Y-102971688D01*
X140482446Y-102970425D01*
X140480059Y-102968722D01*
X140479459Y-102966512D01*
X140479460Y-102966258D01*
X140480978Y-102959917D01*
X140485065Y-102947222D01*
X140491193Y-102929699D01*
X140498835Y-102908875D01*
X140503958Y-102895349D01*
X140528295Y-102831849D01*
X140833997Y-102830763D01*
X140893775Y-102830575D01*
X140945600Y-102830468D01*
X140989987Y-102830450D01*
X141027450Y-102830529D01*
X141027450Y-102830529D01*
G37*
X141027450Y-102830529D02*
X141058504Y-102830713D01*
X141083663Y-102831008D01*
X141103441Y-102831423D01*
X141118351Y-102831965D01*
X141128910Y-102832641D01*
X141135629Y-102833459D01*
X141139024Y-102834426D01*
X141139699Y-102835226D01*
X141138223Y-102840875D01*
X141134139Y-102852946D01*
X141127967Y-102869995D01*
X141120226Y-102890576D01*
X141114299Y-102905933D01*
X141105836Y-102927718D01*
X141098567Y-102946568D01*
X141093004Y-102961150D01*
X141089654Y-102970131D01*
X141088899Y-102972378D01*
X141084866Y-102972749D01*
X141073563Y-102973078D01*
X141056190Y-102973349D01*
X141033943Y-102973546D01*
X141008020Y-102973652D01*
X140994116Y-102973666D01*
X140899332Y-102973666D01*
X140889860Y-102993774D01*
X140884406Y-103006055D01*
X140877003Y-103023676D01*
X140868715Y-103044067D01*
X140862239Y-103060449D01*
X140856765Y-103074393D01*
X140848577Y-103095107D01*
X140838110Y-103121500D01*
X140825797Y-103152482D01*
X140812071Y-103186961D01*
X140797367Y-103223849D01*
X140782118Y-103262054D01*
X140773869Y-103282699D01*
X140759133Y-103319619D01*
X140745243Y-103354517D01*
X140732545Y-103386521D01*
X140721381Y-103414762D01*
X140712095Y-103438368D01*
X140705032Y-103456468D01*
X140700534Y-103468192D01*
X140699095Y-103472141D01*
X140694543Y-103485899D01*
X140595388Y-103485899D01*
X140561248Y-103485723D01*
X140533837Y-103485204D01*
X140513582Y-103484362D01*
X140500911Y-103483214D01*
X140496249Y-103481779D01*
X140496233Y-103481682D01*
X140497767Y-103477108D01*
X140502191Y-103465359D01*
X140509237Y-103447119D01*
X140518635Y-103423069D01*
X140530117Y-103393892D01*
X140543415Y-103360268D01*
X140558261Y-103322880D01*
X140574386Y-103282410D01*
X140591520Y-103239541D01*
X140594150Y-103232974D01*
X140611471Y-103189687D01*
X140627880Y-103148613D01*
X140643101Y-103110444D01*
X140656858Y-103075876D01*
X140668876Y-103045602D01*
X140678879Y-103020316D01*
X140686593Y-103000712D01*
X140691741Y-102987484D01*
X140694048Y-102981326D01*
X140694127Y-102981074D01*
X140694273Y-102978813D01*
X140692673Y-102977063D01*
X140688391Y-102975760D01*
X140680488Y-102974839D01*
X140668028Y-102974235D01*
X140650072Y-102973881D01*
X140625684Y-102973714D01*
X140593925Y-102973667D01*
X140587743Y-102973666D01*
X140554593Y-102973631D01*
X140528955Y-102973480D01*
X140509876Y-102973150D01*
X140496401Y-102972574D01*
X140487576Y-102971688D01*
X140482446Y-102970425D01*
X140480059Y-102968722D01*
X140479459Y-102966512D01*
X140479460Y-102966258D01*
X140480978Y-102959917D01*
X140485065Y-102947222D01*
X140491193Y-102929699D01*
X140498835Y-102908875D01*
X140503958Y-102895349D01*
X140528295Y-102831849D01*
X140833997Y-102830763D01*
X140893775Y-102830575D01*
X140945600Y-102830468D01*
X140989987Y-102830450D01*
X141027450Y-102830529D01*
G36*
X141368294Y-102830122D02*
X141415046Y-102830238D01*
X141469440Y-102830435D01*
X141498780Y-102830558D01*
X141798595Y-102831849D01*
X141823363Y-102844549D01*
X141845254Y-102859509D01*
X141859660Y-102878297D01*
X141866852Y-102901347D01*
X141867833Y-102915588D01*
X141865820Y-102933244D01*
X141859923Y-102957640D01*
X141850358Y-102988108D01*
X141837338Y-103023979D01*
X141821078Y-103064584D01*
X141816874Y-103074589D01*
X141805395Y-103100305D01*
X141795000Y-103119416D01*
X141784245Y-103133397D01*
X141771683Y-103143721D01*
X141755870Y-103151863D01*
X141735359Y-103159299D01*
X141733131Y-103160017D01*
X141718124Y-103164815D01*
X141705899Y-103168722D01*
X141699090Y-103170896D01*
X141699069Y-103170902D01*
X141697727Y-103174413D01*
X141702684Y-103182409D01*
X141710120Y-103191002D01*
X141722289Y-103206737D01*
X141728570Y-103222080D01*
X141729702Y-103227989D01*
X141730153Y-103239536D01*
X141729356Y-103258517D01*
X141727402Y-103284007D01*
X141724383Y-103315080D01*
X141720387Y-103350809D01*
X141715508Y-103390270D01*
X141709834Y-103432535D01*
X141709194Y-103437113D01*
X141706587Y-103455800D01*
X141704484Y-103471101D01*
X141703125Y-103481257D01*
X141702733Y-103484520D01*
X141698696Y-103484912D01*
X141687375Y-103485261D01*
X141669951Y-103485550D01*
X141647605Y-103485762D01*
X141621520Y-103485880D01*
X141605366Y-103485899D01*
X141570756Y-103485716D01*
X141543412Y-103485172D01*
X141523639Y-103484284D01*
X141511738Y-103483062D01*
X141507999Y-103481614D01*
X141508714Y-103476439D01*
X141510726Y-103464084D01*
X141513837Y-103445706D01*
X141517851Y-103422460D01*
X141522569Y-103395499D01*
X141527186Y-103369407D01*
X141533168Y-103335550D01*
X141537677Y-103308944D01*
X141540734Y-103288508D01*
X141542364Y-103273160D01*
X141542589Y-103261818D01*
X141541434Y-103253401D01*
X141538920Y-103246827D01*
X141535073Y-103241014D01*
X141530083Y-103235074D01*
X141527054Y-103232509D01*
X141522295Y-103230608D01*
X141514633Y-103229273D01*
X141502898Y-103228408D01*
X141485915Y-103227917D01*
X141462513Y-103227703D01*
X141440177Y-103227666D01*
X141356733Y-103227666D01*
X141344138Y-103256241D01*
X141339032Y-103268234D01*
X141331428Y-103286627D01*
X141321927Y-103309943D01*
X141311130Y-103336702D01*
X141299637Y-103365426D01*
X141291717Y-103385358D01*
X141251891Y-103485899D01*
X141055148Y-103485899D01*
X141064615Y-103461023D01*
X141068158Y-103451881D01*
X141074454Y-103435812D01*
X141083131Y-103413760D01*
X141093817Y-103386666D01*
X141106140Y-103355474D01*
X141119729Y-103321127D01*
X141134211Y-103284566D01*
X141143933Y-103260045D01*
X141213783Y-103083943D01*
X141397933Y-103083745D01*
X141442621Y-103083674D01*
X141479652Y-103083545D01*
X141509834Y-103083325D01*
X141533977Y-103082983D01*
X141552889Y-103082488D01*
X141567379Y-103081807D01*
X141578257Y-103080908D01*
X141586331Y-103079761D01*
X141592411Y-103078333D01*
X141597305Y-103076592D01*
X141599016Y-103075844D01*
X141611579Y-103069338D01*
X141620246Y-103062056D01*
X141626837Y-103051716D01*
X141633172Y-103036039D01*
X141635022Y-103030751D01*
X141639398Y-103018023D01*
X141642610Y-103007341D01*
X141644034Y-102998527D01*
X141643049Y-102991402D01*
X141639034Y-102985785D01*
X141631367Y-102981498D01*
X141619425Y-102978362D01*
X141602588Y-102976197D01*
X141580233Y-102974824D01*
X141551738Y-102974063D01*
X141516482Y-102973736D01*
X141473843Y-102973662D01*
X141437044Y-102973666D01*
X141259983Y-102973666D01*
X141229475Y-102907614D01*
X141219433Y-102885530D01*
X141210783Y-102865848D01*
X141204111Y-102849959D01*
X141200007Y-102839257D01*
X141198966Y-102835414D01*
X141199827Y-102834222D01*
X141202779Y-102833201D01*
X141208378Y-102832343D01*
X141217178Y-102831638D01*
X141229735Y-102831077D01*
X141246604Y-102830651D01*
X141268339Y-102830352D01*
X141295496Y-102830170D01*
X141328629Y-102830096D01*
X141368294Y-102830122D01*
X141368294Y-102830122D01*
G37*
X141368294Y-102830122D02*
X141415046Y-102830238D01*
X141469440Y-102830435D01*
X141498780Y-102830558D01*
X141798595Y-102831849D01*
X141823363Y-102844549D01*
X141845254Y-102859509D01*
X141859660Y-102878297D01*
X141866852Y-102901347D01*
X141867833Y-102915588D01*
X141865820Y-102933244D01*
X141859923Y-102957640D01*
X141850358Y-102988108D01*
X141837338Y-103023979D01*
X141821078Y-103064584D01*
X141816874Y-103074589D01*
X141805395Y-103100305D01*
X141795000Y-103119416D01*
X141784245Y-103133397D01*
X141771683Y-103143721D01*
X141755870Y-103151863D01*
X141735359Y-103159299D01*
X141733131Y-103160017D01*
X141718124Y-103164815D01*
X141705899Y-103168722D01*
X141699090Y-103170896D01*
X141699069Y-103170902D01*
X141697727Y-103174413D01*
X141702684Y-103182409D01*
X141710120Y-103191002D01*
X141722289Y-103206737D01*
X141728570Y-103222080D01*
X141729702Y-103227989D01*
X141730153Y-103239536D01*
X141729356Y-103258517D01*
X141727402Y-103284007D01*
X141724383Y-103315080D01*
X141720387Y-103350809D01*
X141715508Y-103390270D01*
X141709834Y-103432535D01*
X141709194Y-103437113D01*
X141706587Y-103455800D01*
X141704484Y-103471101D01*
X141703125Y-103481257D01*
X141702733Y-103484520D01*
X141698696Y-103484912D01*
X141687375Y-103485261D01*
X141669951Y-103485550D01*
X141647605Y-103485762D01*
X141621520Y-103485880D01*
X141605366Y-103485899D01*
X141570756Y-103485716D01*
X141543412Y-103485172D01*
X141523639Y-103484284D01*
X141511738Y-103483062D01*
X141507999Y-103481614D01*
X141508714Y-103476439D01*
X141510726Y-103464084D01*
X141513837Y-103445706D01*
X141517851Y-103422460D01*
X141522569Y-103395499D01*
X141527186Y-103369407D01*
X141533168Y-103335550D01*
X141537677Y-103308944D01*
X141540734Y-103288508D01*
X141542364Y-103273160D01*
X141542589Y-103261818D01*
X141541434Y-103253401D01*
X141538920Y-103246827D01*
X141535073Y-103241014D01*
X141530083Y-103235074D01*
X141527054Y-103232509D01*
X141522295Y-103230608D01*
X141514633Y-103229273D01*
X141502898Y-103228408D01*
X141485915Y-103227917D01*
X141462513Y-103227703D01*
X141440177Y-103227666D01*
X141356733Y-103227666D01*
X141344138Y-103256241D01*
X141339032Y-103268234D01*
X141331428Y-103286627D01*
X141321927Y-103309943D01*
X141311130Y-103336702D01*
X141299637Y-103365426D01*
X141291717Y-103385358D01*
X141251891Y-103485899D01*
X141055148Y-103485899D01*
X141064615Y-103461023D01*
X141068158Y-103451881D01*
X141074454Y-103435812D01*
X141083131Y-103413760D01*
X141093817Y-103386666D01*
X141106140Y-103355474D01*
X141119729Y-103321127D01*
X141134211Y-103284566D01*
X141143933Y-103260045D01*
X141213783Y-103083943D01*
X141397933Y-103083745D01*
X141442621Y-103083674D01*
X141479652Y-103083545D01*
X141509834Y-103083325D01*
X141533977Y-103082983D01*
X141552889Y-103082488D01*
X141567379Y-103081807D01*
X141578257Y-103080908D01*
X141586331Y-103079761D01*
X141592411Y-103078333D01*
X141597305Y-103076592D01*
X141599016Y-103075844D01*
X141611579Y-103069338D01*
X141620246Y-103062056D01*
X141626837Y-103051716D01*
X141633172Y-103036039D01*
X141635022Y-103030751D01*
X141639398Y-103018023D01*
X141642610Y-103007341D01*
X141644034Y-102998527D01*
X141643049Y-102991402D01*
X141639034Y-102985785D01*
X141631367Y-102981498D01*
X141619425Y-102978362D01*
X141602588Y-102976197D01*
X141580233Y-102974824D01*
X141551738Y-102974063D01*
X141516482Y-102973736D01*
X141473843Y-102973662D01*
X141437044Y-102973666D01*
X141259983Y-102973666D01*
X141229475Y-102907614D01*
X141219433Y-102885530D01*
X141210783Y-102865848D01*
X141204111Y-102849959D01*
X141200007Y-102839257D01*
X141198966Y-102835414D01*
X141199827Y-102834222D01*
X141202779Y-102833201D01*
X141208378Y-102832343D01*
X141217178Y-102831638D01*
X141229735Y-102831077D01*
X141246604Y-102830651D01*
X141268339Y-102830352D01*
X141295496Y-102830170D01*
X141328629Y-102830096D01*
X141368294Y-102830122D01*
G36*
X143532708Y-102829856D02*
X143557541Y-102830200D01*
X143578145Y-102830730D01*
X143593346Y-102831410D01*
X143601970Y-102832206D01*
X143603500Y-102832731D01*
X143601963Y-102837032D01*
X143597507Y-102848605D01*
X143590365Y-102866866D01*
X143580769Y-102891229D01*
X143568950Y-102921109D01*
X143555141Y-102955920D01*
X143539574Y-102995076D01*
X143522481Y-103037993D01*
X143504094Y-103084084D01*
X143484645Y-103132765D01*
X143473426Y-103160815D01*
X143343353Y-103485899D01*
X143244826Y-103485899D01*
X143216961Y-103485775D01*
X143192151Y-103485427D01*
X143171573Y-103484891D01*
X143156400Y-103484202D01*
X143147808Y-103483398D01*
X143146300Y-103482870D01*
X143147835Y-103478565D01*
X143152286Y-103466985D01*
X143159422Y-103448717D01*
X143169009Y-103424347D01*
X143180817Y-103394459D01*
X143194613Y-103359641D01*
X143210165Y-103320477D01*
X143227242Y-103277553D01*
X143245611Y-103231455D01*
X143265040Y-103182769D01*
X143276220Y-103154787D01*
X143406140Y-102829733D01*
X143504820Y-102829733D01*
X143532708Y-102829856D01*
X143532708Y-102829856D01*
G37*
X143532708Y-102829856D02*
X143557541Y-102830200D01*
X143578145Y-102830730D01*
X143593346Y-102831410D01*
X143601970Y-102832206D01*
X143603500Y-102832731D01*
X143601963Y-102837032D01*
X143597507Y-102848605D01*
X143590365Y-102866866D01*
X143580769Y-102891229D01*
X143568950Y-102921109D01*
X143555141Y-102955920D01*
X143539574Y-102995076D01*
X143522481Y-103037993D01*
X143504094Y-103084084D01*
X143484645Y-103132765D01*
X143473426Y-103160815D01*
X143343353Y-103485899D01*
X143244826Y-103485899D01*
X143216961Y-103485775D01*
X143192151Y-103485427D01*
X143171573Y-103484891D01*
X143156400Y-103484202D01*
X143147808Y-103483398D01*
X143146300Y-103482870D01*
X143147835Y-103478565D01*
X143152286Y-103466985D01*
X143159422Y-103448717D01*
X143169009Y-103424347D01*
X143180817Y-103394459D01*
X143194613Y-103359641D01*
X143210165Y-103320477D01*
X143227242Y-103277553D01*
X143245611Y-103231455D01*
X143265040Y-103182769D01*
X143276220Y-103154787D01*
X143406140Y-102829733D01*
X143504820Y-102829733D01*
X143532708Y-102829856D01*
G36*
X143955383Y-102833966D02*
X144175000Y-102833966D01*
X144175000Y-102845902D01*
X144173467Y-102854062D01*
X144169260Y-102868254D01*
X144162965Y-102886695D01*
X144155167Y-102907604D01*
X144152383Y-102914693D01*
X144129766Y-102971549D01*
X143988341Y-102973666D01*
X143944284Y-102974447D01*
X143908338Y-102975357D01*
X143880145Y-102976413D01*
X143859351Y-102977632D01*
X143845600Y-102979031D01*
X143838534Y-102980627D01*
X143838084Y-102980852D01*
X143824473Y-102991643D01*
X143810485Y-103007538D01*
X143798426Y-103025609D01*
X143791710Y-103039691D01*
X143788267Y-103048647D01*
X143782112Y-103064342D01*
X143773688Y-103085657D01*
X143763440Y-103111474D01*
X143751811Y-103140674D01*
X143739243Y-103172141D01*
X143731844Y-103190627D01*
X143719352Y-103221937D01*
X143707933Y-103250795D01*
X143697957Y-103276247D01*
X143689794Y-103297340D01*
X143683813Y-103313122D01*
X143680385Y-103322640D01*
X143679700Y-103325035D01*
X143683887Y-103326337D01*
X143696274Y-103327410D01*
X143716596Y-103328248D01*
X143744588Y-103328841D01*
X143779984Y-103329182D01*
X143813344Y-103329266D01*
X143946989Y-103329266D01*
X143974669Y-103387474D01*
X143985117Y-103409672D01*
X143994919Y-103430906D01*
X144003172Y-103449194D01*
X144008975Y-103462555D01*
X144010296Y-103465791D01*
X144018243Y-103485899D01*
X143773829Y-103485518D01*
X143728725Y-103485382D01*
X143685862Y-103485128D01*
X143646039Y-103484768D01*
X143610059Y-103484316D01*
X143578721Y-103483785D01*
X143552827Y-103483188D01*
X143533177Y-103482537D01*
X143520572Y-103481847D01*
X143516158Y-103481293D01*
X143502233Y-103473829D01*
X143488164Y-103460705D01*
X143476116Y-103444408D01*
X143468258Y-103427422D01*
X143467795Y-103425814D01*
X143465218Y-103412598D01*
X143464572Y-103398073D01*
X143466076Y-103381418D01*
X143469949Y-103361812D01*
X143476410Y-103338435D01*
X143485680Y-103310464D01*
X143497977Y-103277078D01*
X143513520Y-103237458D01*
X143526937Y-103204383D01*
X143539614Y-103173230D01*
X143553668Y-103138331D01*
X143567850Y-103102814D01*
X143580910Y-103069803D01*
X143588713Y-103049866D01*
X143605081Y-103008371D01*
X143619198Y-102974010D01*
X143631516Y-102945897D01*
X143642487Y-102923142D01*
X143652563Y-102904857D01*
X143662195Y-102890154D01*
X143671836Y-102878143D01*
X143680593Y-102869183D01*
X143688525Y-102861663D01*
X143695489Y-102855295D01*
X143702229Y-102849984D01*
X143709493Y-102845634D01*
X143718024Y-102842149D01*
X143728570Y-102839434D01*
X143741876Y-102837393D01*
X143758688Y-102835932D01*
X143779751Y-102834953D01*
X143805811Y-102834362D01*
X143837614Y-102834063D01*
X143875905Y-102833960D01*
X143921431Y-102833958D01*
X143955383Y-102833966D01*
X143955383Y-102833966D01*
G37*
X143955383Y-102833966D02*
X144175000Y-102833966D01*
X144175000Y-102845902D01*
X144173467Y-102854062D01*
X144169260Y-102868254D01*
X144162965Y-102886695D01*
X144155167Y-102907604D01*
X144152383Y-102914693D01*
X144129766Y-102971549D01*
X143988341Y-102973666D01*
X143944284Y-102974447D01*
X143908338Y-102975357D01*
X143880145Y-102976413D01*
X143859351Y-102977632D01*
X143845600Y-102979031D01*
X143838534Y-102980627D01*
X143838084Y-102980852D01*
X143824473Y-102991643D01*
X143810485Y-103007538D01*
X143798426Y-103025609D01*
X143791710Y-103039691D01*
X143788267Y-103048647D01*
X143782112Y-103064342D01*
X143773688Y-103085657D01*
X143763440Y-103111474D01*
X143751811Y-103140674D01*
X143739243Y-103172141D01*
X143731844Y-103190627D01*
X143719352Y-103221937D01*
X143707933Y-103250795D01*
X143697957Y-103276247D01*
X143689794Y-103297340D01*
X143683813Y-103313122D01*
X143680385Y-103322640D01*
X143679700Y-103325035D01*
X143683887Y-103326337D01*
X143696274Y-103327410D01*
X143716596Y-103328248D01*
X143744588Y-103328841D01*
X143779984Y-103329182D01*
X143813344Y-103329266D01*
X143946989Y-103329266D01*
X143974669Y-103387474D01*
X143985117Y-103409672D01*
X143994919Y-103430906D01*
X144003172Y-103449194D01*
X144008975Y-103462555D01*
X144010296Y-103465791D01*
X144018243Y-103485899D01*
X143773829Y-103485518D01*
X143728725Y-103485382D01*
X143685862Y-103485128D01*
X143646039Y-103484768D01*
X143610059Y-103484316D01*
X143578721Y-103483785D01*
X143552827Y-103483188D01*
X143533177Y-103482537D01*
X143520572Y-103481847D01*
X143516158Y-103481293D01*
X143502233Y-103473829D01*
X143488164Y-103460705D01*
X143476116Y-103444408D01*
X143468258Y-103427422D01*
X143467795Y-103425814D01*
X143465218Y-103412598D01*
X143464572Y-103398073D01*
X143466076Y-103381418D01*
X143469949Y-103361812D01*
X143476410Y-103338435D01*
X143485680Y-103310464D01*
X143497977Y-103277078D01*
X143513520Y-103237458D01*
X143526937Y-103204383D01*
X143539614Y-103173230D01*
X143553668Y-103138331D01*
X143567850Y-103102814D01*
X143580910Y-103069803D01*
X143588713Y-103049866D01*
X143605081Y-103008371D01*
X143619198Y-102974010D01*
X143631516Y-102945897D01*
X143642487Y-102923142D01*
X143652563Y-102904857D01*
X143662195Y-102890154D01*
X143671836Y-102878143D01*
X143680593Y-102869183D01*
X143688525Y-102861663D01*
X143695489Y-102855295D01*
X143702229Y-102849984D01*
X143709493Y-102845634D01*
X143718024Y-102842149D01*
X143728570Y-102839434D01*
X143741876Y-102837393D01*
X143758688Y-102835932D01*
X143779751Y-102834953D01*
X143805811Y-102834362D01*
X143837614Y-102834063D01*
X143875905Y-102833960D01*
X143921431Y-102833958D01*
X143955383Y-102833966D01*
G36*
X142492024Y-99485847D02*
X142514312Y-99487594D01*
X142531751Y-99491247D01*
X142546134Y-99497414D01*
X142559256Y-99506700D01*
X142572912Y-99519713D01*
X142576859Y-99523876D01*
X142594461Y-99546257D01*
X142609397Y-99573285D01*
X142622047Y-99605919D01*
X142632789Y-99645118D01*
X142641099Y-99686574D01*
X142643427Y-99701747D01*
X142645234Y-99718175D01*
X142646575Y-99737111D01*
X142647507Y-99759812D01*
X142648084Y-99787533D01*
X142648363Y-99821531D01*
X142648409Y-99851583D01*
X142648174Y-99895556D01*
X142647429Y-99935696D01*
X142646055Y-99973659D01*
X142643936Y-100011100D01*
X142640955Y-100049676D01*
X142636994Y-100091043D01*
X142631935Y-100136855D01*
X142625663Y-100188769D01*
X142623081Y-100209300D01*
X142620516Y-100229350D01*
X142617959Y-100248882D01*
X142615298Y-100268662D01*
X142612419Y-100289456D01*
X142609209Y-100312028D01*
X142605556Y-100337144D01*
X142601346Y-100365571D01*
X142596467Y-100398072D01*
X142590805Y-100435415D01*
X142584247Y-100478365D01*
X142576680Y-100527686D01*
X142567992Y-100584145D01*
X142562150Y-100622050D01*
X142539955Y-100765983D01*
X142566535Y-100808112D01*
X142590077Y-100848234D01*
X142613747Y-100893665D01*
X142636124Y-100941389D01*
X142655788Y-100988390D01*
X142670113Y-101027950D01*
X142677908Y-101053190D01*
X142685686Y-101081137D01*
X142693047Y-101110046D01*
X142699587Y-101138176D01*
X142704907Y-101163781D01*
X142708603Y-101185119D01*
X142710275Y-101200446D01*
X142710331Y-101202548D01*
X142711555Y-101213447D01*
X142713928Y-101220287D01*
X142716561Y-101220756D01*
X142722977Y-101219178D01*
X142733656Y-101215346D01*
X142749078Y-101209050D01*
X142769724Y-101200082D01*
X142796074Y-101188233D01*
X142828609Y-101173295D01*
X142867809Y-101155060D01*
X142912640Y-101134031D01*
X143073560Y-101058322D01*
X143227781Y-101058322D01*
X143232051Y-101077213D01*
X143242112Y-101093475D01*
X143256630Y-101105991D01*
X143274273Y-101113643D01*
X143293708Y-101115317D01*
X143313601Y-101109894D01*
X143315469Y-101108967D01*
X143332595Y-101096044D01*
X143343309Y-101079462D01*
X143347801Y-101060862D01*
X143346263Y-101041886D01*
X143338885Y-101024175D01*
X143325857Y-101009371D01*
X143307371Y-100999115D01*
X143302546Y-100997621D01*
X143282559Y-100996314D01*
X143263028Y-101002140D01*
X143246046Y-101013924D01*
X143233709Y-101030493D01*
X143230636Y-101037918D01*
X143227781Y-101058322D01*
X143073560Y-101058322D01*
X143107820Y-101042204D01*
X143112742Y-101018394D01*
X143124139Y-100982730D01*
X143142203Y-100950971D01*
X143165919Y-100923811D01*
X143194276Y-100901946D01*
X143226262Y-100886068D01*
X143260864Y-100876875D01*
X143297071Y-100875060D01*
X143317902Y-100877568D01*
X143355735Y-100888534D01*
X143389185Y-100906237D01*
X143417587Y-100929887D01*
X143440279Y-100958694D01*
X143456597Y-100991869D01*
X143465875Y-101028620D01*
X143467826Y-101055966D01*
X143463838Y-101094498D01*
X143452343Y-101130133D01*
X143434042Y-101162043D01*
X143409637Y-101189404D01*
X143379830Y-101211390D01*
X143345323Y-101227173D01*
X143316096Y-101234562D01*
X143279523Y-101236845D01*
X143243352Y-101230932D01*
X143207739Y-101217130D01*
X143182395Y-101204583D01*
X142951622Y-101312902D01*
X142910134Y-101332442D01*
X142870866Y-101351064D01*
X142834502Y-101368437D01*
X142801724Y-101384226D01*
X142773216Y-101398101D01*
X142749662Y-101409728D01*
X142731743Y-101418776D01*
X142720143Y-101424911D01*
X142715558Y-101427786D01*
X142711688Y-101436677D01*
X142710225Y-101447300D01*
X142709356Y-101456585D01*
X142707030Y-101471901D01*
X142703616Y-101491010D01*
X142700058Y-101508933D01*
X142696166Y-101528008D01*
X142693106Y-101543725D01*
X142691187Y-101554431D01*
X142690716Y-101558464D01*
X142694967Y-101558721D01*
X142707009Y-101559195D01*
X142726170Y-101559863D01*
X142751776Y-101560705D01*
X142783156Y-101561699D01*
X142819636Y-101562826D01*
X142860545Y-101564063D01*
X142905209Y-101565389D01*
X142952957Y-101566784D01*
X142993888Y-101567962D01*
X143051829Y-101569611D01*
X143101891Y-101571009D01*
X143144657Y-101572157D01*
X143180711Y-101573058D01*
X143210637Y-101573715D01*
X143235018Y-101574131D01*
X143254439Y-101574307D01*
X143269482Y-101574246D01*
X143280731Y-101573952D01*
X143288771Y-101573425D01*
X143294184Y-101572669D01*
X143297555Y-101571687D01*
X143299466Y-101570481D01*
X143300381Y-101569278D01*
X143311245Y-101554484D01*
X143327194Y-101538313D01*
X143345673Y-101523039D01*
X143364129Y-101510935D01*
X143368536Y-101508624D01*
X143405238Y-101494868D01*
X143442304Y-101489013D01*
X143478740Y-101490732D01*
X143513554Y-101499699D01*
X143545752Y-101515584D01*
X143574340Y-101538062D01*
X143598325Y-101566805D01*
X143610841Y-101588420D01*
X143617699Y-101602623D01*
X143622241Y-101613763D01*
X143624942Y-101624272D01*
X143626281Y-101636579D01*
X143626736Y-101653117D01*
X143626783Y-101669580D01*
X143626639Y-101691162D01*
X143625929Y-101706673D01*
X143624232Y-101718510D01*
X143621129Y-101729068D01*
X143616201Y-101740741D01*
X143613200Y-101747159D01*
X143593256Y-101779993D01*
X143567857Y-101807025D01*
X143538042Y-101827880D01*
X143504852Y-101842185D01*
X143469329Y-101849565D01*
X143432513Y-101849647D01*
X143395446Y-101842056D01*
X143373034Y-101833442D01*
X143355948Y-101823319D01*
X143336653Y-101808275D01*
X143317588Y-101790465D01*
X143301193Y-101772045D01*
X143296553Y-101765875D01*
X143288116Y-101754000D01*
X143004483Y-101745829D01*
X142938950Y-101743948D01*
X142881361Y-101742321D01*
X142831200Y-101740945D01*
X142787949Y-101739821D01*
X142751088Y-101738947D01*
X142720102Y-101738324D01*
X142694471Y-101737949D01*
X142673678Y-101737823D01*
X142657206Y-101737944D01*
X142644536Y-101738312D01*
X142635150Y-101738926D01*
X142628531Y-101739786D01*
X142624161Y-101740890D01*
X142621521Y-101742237D01*
X142620095Y-101743828D01*
X142619484Y-101745259D01*
X142616520Y-101751759D01*
X142610208Y-101763898D01*
X142601447Y-101779993D01*
X142591139Y-101798362D01*
X142590185Y-101800036D01*
X142563338Y-101847087D01*
X142872775Y-101992809D01*
X143182213Y-102138531D01*
X143205817Y-102126536D01*
X143241692Y-102112740D01*
X143278504Y-102106774D01*
X143315121Y-102108369D01*
X143350409Y-102117254D01*
X143383234Y-102133162D01*
X143412465Y-102155824D01*
X143434012Y-102180715D01*
X143448477Y-102203532D01*
X143458088Y-102225837D01*
X143463606Y-102250236D01*
X143465795Y-102279340D01*
X143465916Y-102289983D01*
X143465716Y-102310020D01*
X143464717Y-102324483D01*
X143462322Y-102336260D01*
X143457932Y-102348242D01*
X143450950Y-102363317D01*
X143450588Y-102364066D01*
X143430415Y-102397062D01*
X143405270Y-102424062D01*
X143376180Y-102444865D01*
X143344172Y-102459272D01*
X143310271Y-102467083D01*
X143275505Y-102468100D01*
X143240899Y-102462122D01*
X143207481Y-102448950D01*
X143176275Y-102428385D01*
X143166036Y-102419374D01*
X143143435Y-102394048D01*
X143126721Y-102365686D01*
X143114553Y-102331964D01*
X143113667Y-102328710D01*
X143106083Y-102300202D01*
X143085289Y-102290404D01*
X143229072Y-102290404D01*
X143232822Y-102308983D01*
X143242714Y-102325947D01*
X143258302Y-102339246D01*
X143277028Y-102346061D01*
X143297620Y-102346146D01*
X143316923Y-102339589D01*
X143320298Y-102337523D01*
X143335971Y-102322798D01*
X143344940Y-102305269D01*
X143347652Y-102286474D01*
X143344557Y-102267951D01*
X143336103Y-102251241D01*
X143322740Y-102237881D01*
X143304917Y-102229411D01*
X143288116Y-102227188D01*
X143267300Y-102230743D01*
X143250579Y-102240382D01*
X143238360Y-102254564D01*
X143231055Y-102271752D01*
X143229072Y-102290404D01*
X143085289Y-102290404D01*
X142780788Y-102146926D01*
X142455492Y-101993650D01*
X142389204Y-102059442D01*
X142345611Y-102101489D01*
X142304297Y-102138546D01*
X142262799Y-102172626D01*
X142218655Y-102205743D01*
X142169403Y-102239908D01*
X142164166Y-102243417D01*
X142062694Y-102306247D01*
X141955802Y-102362864D01*
X141843999Y-102413101D01*
X141727792Y-102456792D01*
X141607690Y-102493770D01*
X141484199Y-102523867D01*
X141357829Y-102546917D01*
X141229087Y-102562752D01*
X141179916Y-102566824D01*
X141148521Y-102568753D01*
X141112406Y-102570431D01*
X141073652Y-102571807D01*
X141034336Y-102572831D01*
X140996538Y-102573452D01*
X140962336Y-102573619D01*
X140933810Y-102573281D01*
X140925916Y-102573047D01*
X140789617Y-102564500D01*
X140656492Y-102548755D01*
X140526818Y-102525896D01*
X140400871Y-102496006D01*
X140278929Y-102459169D01*
X140161269Y-102415470D01*
X140048168Y-102364991D01*
X139939903Y-102307816D01*
X139836751Y-102244030D01*
X139835833Y-102243417D01*
X139785943Y-102209038D01*
X139741404Y-102175908D01*
X139699754Y-102142013D01*
X139658531Y-102105339D01*
X139615272Y-102063875D01*
X139610795Y-102059442D01*
X139544507Y-101993650D01*
X139219211Y-102146926D01*
X138893916Y-102300202D01*
X138886332Y-102328710D01*
X138874494Y-102363006D01*
X138858228Y-102391742D01*
X138836191Y-102417239D01*
X138833963Y-102419374D01*
X138803780Y-102442581D01*
X138771022Y-102458325D01*
X138736716Y-102466805D01*
X138701889Y-102468221D01*
X138667568Y-102462773D01*
X138634778Y-102450659D01*
X138604546Y-102432080D01*
X138577899Y-102407235D01*
X138555864Y-102376323D01*
X138549411Y-102364066D01*
X138542306Y-102348796D01*
X138537818Y-102336742D01*
X138535351Y-102325015D01*
X138534305Y-102310725D01*
X138534083Y-102290982D01*
X138534083Y-102290811D01*
X138651526Y-102290811D01*
X138656039Y-102308376D01*
X138665660Y-102324003D01*
X138679324Y-102336500D01*
X138695965Y-102344676D01*
X138714517Y-102347340D01*
X138733913Y-102343302D01*
X138739276Y-102340847D01*
X138754670Y-102328757D01*
X138765382Y-102312104D01*
X138770809Y-102293110D01*
X138770347Y-102274000D01*
X138763392Y-102256997D01*
X138762421Y-102255638D01*
X138745153Y-102238157D01*
X138726024Y-102228520D01*
X138706154Y-102226738D01*
X138686660Y-102232823D01*
X138668660Y-102246786D01*
X138662093Y-102254628D01*
X138653189Y-102272497D01*
X138651526Y-102290811D01*
X138534083Y-102290811D01*
X138534083Y-102289983D01*
X138535373Y-102258841D01*
X138539752Y-102233231D01*
X138547982Y-102210544D01*
X138560824Y-102188172D01*
X138565987Y-102180715D01*
X138591186Y-102152419D01*
X138620962Y-102130643D01*
X138654182Y-102115657D01*
X138689713Y-102107728D01*
X138726421Y-102107127D01*
X138763174Y-102114123D01*
X138794182Y-102126536D01*
X138817786Y-102138531D01*
X139127224Y-101992809D01*
X139436661Y-101847087D01*
X139409814Y-101800036D01*
X139399413Y-101781548D01*
X139390479Y-101765184D01*
X139383914Y-101752628D01*
X139380618Y-101745563D01*
X139380515Y-101745259D01*
X139379681Y-101743477D01*
X139378045Y-101741937D01*
X139375088Y-101740640D01*
X139370292Y-101739587D01*
X139363139Y-101738778D01*
X139353112Y-101738215D01*
X139339693Y-101737899D01*
X139322363Y-101737829D01*
X139300605Y-101738007D01*
X139273902Y-101738433D01*
X139241735Y-101739109D01*
X139203586Y-101740034D01*
X139158938Y-101741211D01*
X139107272Y-101742639D01*
X139048072Y-101744319D01*
X138995516Y-101745829D01*
X138711883Y-101754000D01*
X138703446Y-101765875D01*
X138688555Y-101784002D01*
X138670144Y-101802270D01*
X138650652Y-101818523D01*
X138632519Y-101830606D01*
X138626965Y-101833442D01*
X138590259Y-101845924D01*
X138553165Y-101850504D01*
X138516726Y-101847557D01*
X138481981Y-101837455D01*
X138449973Y-101820573D01*
X138421742Y-101797286D01*
X138398328Y-101767966D01*
X138386799Y-101747159D01*
X138380889Y-101734164D01*
X138376997Y-101723390D01*
X138374705Y-101712440D01*
X138373592Y-101698920D01*
X138373239Y-101680433D01*
X138373216Y-101669580D01*
X138373217Y-101669322D01*
X138490417Y-101669322D01*
X138490848Y-101677649D01*
X138493622Y-101691132D01*
X138499668Y-101701944D01*
X138510217Y-101713033D01*
X138521607Y-101722671D01*
X138531256Y-101727453D01*
X138542906Y-101728978D01*
X138547677Y-101729038D01*
X138566978Y-101726598D01*
X138580051Y-101721032D01*
X138595620Y-101706425D01*
X138605013Y-101688425D01*
X138608267Y-101668836D01*
X138605416Y-101649467D01*
X138596497Y-101632121D01*
X138581546Y-101618607D01*
X138577985Y-101616599D01*
X138557214Y-101609992D01*
X138537059Y-101610841D01*
X138518912Y-101618173D01*
X138504162Y-101631014D01*
X138494200Y-101648388D01*
X138490417Y-101669322D01*
X138373217Y-101669322D01*
X138373322Y-101648326D01*
X138373958Y-101633108D01*
X138375602Y-101621495D01*
X138378731Y-101611057D01*
X138383823Y-101599361D01*
X138389158Y-101588420D01*
X138409662Y-101555825D01*
X138435407Y-101529286D01*
X138465400Y-101509128D01*
X138498648Y-101495680D01*
X138534157Y-101489268D01*
X138570932Y-101490220D01*
X138607982Y-101498863D01*
X138631463Y-101508624D01*
X138649502Y-101519552D01*
X138668219Y-101534232D01*
X138685058Y-101550390D01*
X138697466Y-101565752D01*
X138699618Y-101569278D01*
X138700747Y-101570674D01*
X138702838Y-101571847D01*
X138706475Y-101572796D01*
X138712241Y-101573518D01*
X138720720Y-101574010D01*
X138732496Y-101574270D01*
X138748152Y-101574296D01*
X138768272Y-101574084D01*
X138793440Y-101573633D01*
X138824238Y-101572940D01*
X138861252Y-101572002D01*
X138905064Y-101570817D01*
X138956258Y-101569383D01*
X139006111Y-101567962D01*
X139055882Y-101566527D01*
X139103122Y-101565143D01*
X139147156Y-101563831D01*
X139187313Y-101562613D01*
X139222920Y-101561509D01*
X139253305Y-101560540D01*
X139277794Y-101559728D01*
X139295716Y-101559094D01*
X139306399Y-101558658D01*
X139309283Y-101558464D01*
X139308782Y-101554247D01*
X139306832Y-101543403D01*
X139303748Y-101527586D01*
X139299941Y-101508933D01*
X139295882Y-101488345D01*
X139292591Y-101469609D01*
X139290436Y-101454963D01*
X139289774Y-101447300D01*
X139288066Y-101435780D01*
X139284441Y-101427786D01*
X139279745Y-101424850D01*
X139268057Y-101418673D01*
X139250058Y-101409589D01*
X139226433Y-101397930D01*
X139197864Y-101384027D01*
X139165034Y-101368214D01*
X139128626Y-101350823D01*
X139089324Y-101332186D01*
X139048377Y-101312902D01*
X138817604Y-101204583D01*
X138792260Y-101217130D01*
X138755823Y-101231159D01*
X138719650Y-101236884D01*
X138683903Y-101234562D01*
X138646265Y-101224098D01*
X138612789Y-101206798D01*
X138584176Y-101183488D01*
X138561129Y-101154995D01*
X138544348Y-101122144D01*
X138534537Y-101085762D01*
X138532502Y-101060111D01*
X138651828Y-101060111D01*
X138656372Y-101079464D01*
X138661374Y-101088755D01*
X138675514Y-101103144D01*
X138694121Y-101112089D01*
X138714682Y-101114938D01*
X138734683Y-101111039D01*
X138739236Y-101108967D01*
X138756752Y-101095891D01*
X138767657Y-101079302D01*
X138772103Y-101060779D01*
X138770246Y-101041902D01*
X138762237Y-101024247D01*
X138748231Y-101009396D01*
X138728546Y-100998982D01*
X138708412Y-100995900D01*
X138689875Y-100999918D01*
X138673942Y-101009694D01*
X138661619Y-101023881D01*
X138653912Y-101041135D01*
X138651828Y-101060111D01*
X138532502Y-101060111D01*
X138532173Y-101055966D01*
X138536137Y-101017109D01*
X138547588Y-100981329D01*
X138565861Y-100949406D01*
X138590294Y-100922122D01*
X138620223Y-100900257D01*
X138654984Y-100884593D01*
X138683858Y-100877378D01*
X138720838Y-100875108D01*
X138756617Y-100880610D01*
X138790198Y-100893193D01*
X138820583Y-100912166D01*
X138846775Y-100936837D01*
X138867776Y-100966514D01*
X138882588Y-101000506D01*
X138887257Y-101018394D01*
X138892179Y-101042204D01*
X139087217Y-101133964D01*
X139125106Y-101151745D01*
X139160628Y-101168330D01*
X139193058Y-101183385D01*
X139221671Y-101196579D01*
X139245741Y-101207577D01*
X139264542Y-101216049D01*
X139277349Y-101221660D01*
X139283437Y-101224078D01*
X139283841Y-101224136D01*
X139285110Y-101219594D01*
X139287431Y-101208338D01*
X139290486Y-101192007D01*
X139293957Y-101172242D01*
X139294347Y-101169949D01*
X139312383Y-101087227D01*
X139338194Y-101004644D01*
X139371179Y-100923753D01*
X139874096Y-100923753D01*
X139874293Y-100947005D01*
X139875004Y-100973768D01*
X139876162Y-101002397D01*
X139877699Y-101031252D01*
X139879546Y-101058690D01*
X139881638Y-101083068D01*
X139883905Y-101102745D01*
X139884176Y-101104650D01*
X139899215Y-101186528D01*
X139919412Y-101261726D01*
X139944790Y-101330296D01*
X139975370Y-101392287D01*
X140011177Y-101447751D01*
X140052231Y-101496738D01*
X140060102Y-101504794D01*
X140108763Y-101547531D01*
X140163832Y-101584928D01*
X140225054Y-101616872D01*
X140292177Y-101643249D01*
X140364947Y-101663946D01*
X140443110Y-101678850D01*
X140451783Y-101680097D01*
X140475793Y-101683389D01*
X140495183Y-101685819D01*
X140512012Y-101687509D01*
X140528339Y-101688580D01*
X140546223Y-101689154D01*
X140567724Y-101689353D01*
X140594901Y-101689300D01*
X140606300Y-101689243D01*
X140680383Y-101688850D01*
X140681590Y-101616883D01*
X140681510Y-101612976D01*
X141317499Y-101612976D01*
X141317677Y-101636958D01*
X141318169Y-101657976D01*
X141318914Y-101674573D01*
X141319851Y-101685293D01*
X141320674Y-101688638D01*
X141326107Y-101689851D01*
X141338645Y-101690531D01*
X141356947Y-101690724D01*
X141379671Y-101690480D01*
X141405476Y-101689845D01*
X141433022Y-101688868D01*
X141460966Y-101687596D01*
X141487967Y-101686077D01*
X141512684Y-101684359D01*
X141533775Y-101682490D01*
X141549899Y-101680517D01*
X141550333Y-101680450D01*
X141565367Y-101677551D01*
X143391714Y-101677551D01*
X143397819Y-101696329D01*
X143409645Y-101712146D01*
X143426331Y-101723483D01*
X143447010Y-101728819D01*
X143452322Y-101729038D01*
X143465405Y-101728220D01*
X143475289Y-101724657D01*
X143485713Y-101716749D01*
X143489782Y-101713033D01*
X143503948Y-101694843D01*
X143510080Y-101674655D01*
X143508004Y-101653325D01*
X143504048Y-101642949D01*
X143491987Y-101626301D01*
X143475566Y-101615429D01*
X143456664Y-101610438D01*
X143437161Y-101611432D01*
X143418937Y-101618515D01*
X143403873Y-101631791D01*
X143400128Y-101637197D01*
X143392196Y-101657334D01*
X143391714Y-101677551D01*
X141565367Y-101677551D01*
X141631009Y-101664894D01*
X141705072Y-101644146D01*
X141772666Y-101618060D01*
X141833935Y-101586489D01*
X141889022Y-101549287D01*
X141938073Y-101506308D01*
X141981230Y-101457403D01*
X142018637Y-101402428D01*
X142050440Y-101341235D01*
X142076781Y-101273677D01*
X142097805Y-101199608D01*
X142113656Y-101118882D01*
X142115823Y-101104650D01*
X142118106Y-101085625D01*
X142120221Y-101061709D01*
X142122100Y-101034542D01*
X142123677Y-101005767D01*
X142124882Y-100977027D01*
X142125648Y-100949964D01*
X142125909Y-100926219D01*
X142125595Y-100907436D01*
X142124640Y-100895256D01*
X142124484Y-100894345D01*
X142121651Y-100879244D01*
X142084700Y-100876459D01*
X142058304Y-100875533D01*
X142025742Y-100876063D01*
X141989159Y-100877903D01*
X141950705Y-100880905D01*
X141912525Y-100884924D01*
X141876768Y-100889812D01*
X141867833Y-100891258D01*
X141794791Y-100906629D01*
X141726004Y-100927355D01*
X141662137Y-100953132D01*
X141603855Y-100983657D01*
X141551823Y-101018624D01*
X141509383Y-101055101D01*
X141466738Y-101102432D01*
X141429159Y-101156253D01*
X141396781Y-101216169D01*
X141369741Y-101281789D01*
X141348172Y-101352718D01*
X141332211Y-101428564D01*
X141321993Y-101508933D01*
X141317652Y-101593432D01*
X141317499Y-101612976D01*
X140681510Y-101612976D01*
X140679900Y-101534890D01*
X140672166Y-101455831D01*
X140658576Y-101380264D01*
X140639321Y-101308748D01*
X140614590Y-101241841D01*
X140584573Y-101180103D01*
X140549460Y-101124092D01*
X140509441Y-101074366D01*
X140490666Y-101054953D01*
X140445917Y-101016736D01*
X140394234Y-100982455D01*
X140336347Y-100952445D01*
X140272982Y-100927036D01*
X140204869Y-100906562D01*
X140132734Y-100891354D01*
X140132166Y-100891258D01*
X140097427Y-100886160D01*
X140059689Y-100881893D01*
X140021097Y-100878603D01*
X139983800Y-100876436D01*
X139949944Y-100875539D01*
X139921676Y-100876059D01*
X139915299Y-100876459D01*
X139878348Y-100879244D01*
X139875515Y-100894345D01*
X139874481Y-100905652D01*
X139874096Y-100923753D01*
X139371179Y-100923753D01*
X139371201Y-100923701D01*
X139410822Y-100845901D01*
X139435797Y-100804083D01*
X139459865Y-100765983D01*
X139444437Y-100662266D01*
X139432089Y-100579017D01*
X139420986Y-100503526D01*
X139411062Y-100435190D01*
X139402252Y-100373400D01*
X139394493Y-100317553D01*
X139387719Y-100267043D01*
X139381865Y-100221263D01*
X139376867Y-100179607D01*
X139372661Y-100141471D01*
X139369182Y-100106249D01*
X139366365Y-100073334D01*
X139364145Y-100042121D01*
X139362458Y-100012004D01*
X139361239Y-99982378D01*
X139360424Y-99952636D01*
X139359947Y-99922174D01*
X139359745Y-99890385D01*
X139359731Y-99868516D01*
X139359862Y-99827668D01*
X139360190Y-99794124D01*
X139360764Y-99766724D01*
X139361635Y-99744306D01*
X139362850Y-99725709D01*
X139364461Y-99709771D01*
X139366515Y-99695333D01*
X139367296Y-99690716D01*
X139377788Y-99640623D01*
X139390464Y-99598269D01*
X139405578Y-99563148D01*
X139423387Y-99534756D01*
X139444147Y-99512587D01*
X139464759Y-99497996D01*
X139473793Y-99493005D01*
X139481694Y-99489555D01*
X139490291Y-99487358D01*
X139501408Y-99486132D01*
X139516874Y-99485589D01*
X139538514Y-99485446D01*
X139545225Y-99485439D01*
X139569734Y-99485572D01*
X139588102Y-99486210D01*
X139602654Y-99487650D01*
X139615712Y-99490193D01*
X139629601Y-99494136D01*
X139640475Y-99497693D01*
X139694846Y-99518852D01*
X139752661Y-99546992D01*
X139814026Y-99582182D01*
X139879045Y-99624490D01*
X139947823Y-99673986D01*
X140020464Y-99730739D01*
X140097073Y-99794817D01*
X140114913Y-99810290D01*
X140141337Y-99833961D01*
X140171892Y-99862348D01*
X140205301Y-99894186D01*
X140240287Y-99928209D01*
X140275576Y-99963152D01*
X140309891Y-99997749D01*
X140341956Y-100030735D01*
X140370494Y-100060843D01*
X140394231Y-100086809D01*
X140397983Y-100091045D01*
X140441088Y-100140007D01*
X140505702Y-100126057D01*
X140571910Y-100112511D01*
X140634269Y-100101436D01*
X140694626Y-100092646D01*
X140754829Y-100085955D01*
X140816728Y-100081178D01*
X140882169Y-100078129D01*
X140953002Y-100076621D01*
X141000000Y-100076380D01*
X141075062Y-100077032D01*
X141143597Y-100079112D01*
X141207454Y-100082805D01*
X141268480Y-100088298D01*
X141328523Y-100095776D01*
X141389433Y-100105425D01*
X141453057Y-100117431D01*
X141494297Y-100126057D01*
X141558911Y-100140007D01*
X141602247Y-100091065D01*
X141618328Y-100073332D01*
X141638858Y-100051342D01*
X141662242Y-100026769D01*
X141686883Y-100001284D01*
X141711186Y-99976559D01*
X141719690Y-99968020D01*
X141788163Y-99901401D01*
X141856727Y-99838299D01*
X141924868Y-99779089D01*
X141992071Y-99724144D01*
X142057823Y-99673840D01*
X142121608Y-99628549D01*
X142182913Y-99588648D01*
X142241223Y-99554509D01*
X142296024Y-99526508D01*
X142346801Y-99505019D01*
X142364382Y-99498821D01*
X142381569Y-99493325D01*
X142395679Y-99489572D01*
X142409130Y-99487232D01*
X142424342Y-99485976D01*
X142443734Y-99485476D01*
X142463092Y-99485400D01*
X142492024Y-99485847D01*
X142492024Y-99485847D01*
G37*
X142492024Y-99485847D02*
X142514312Y-99487594D01*
X142531751Y-99491247D01*
X142546134Y-99497414D01*
X142559256Y-99506700D01*
X142572912Y-99519713D01*
X142576859Y-99523876D01*
X142594461Y-99546257D01*
X142609397Y-99573285D01*
X142622047Y-99605919D01*
X142632789Y-99645118D01*
X142641099Y-99686574D01*
X142643427Y-99701747D01*
X142645234Y-99718175D01*
X142646575Y-99737111D01*
X142647507Y-99759812D01*
X142648084Y-99787533D01*
X142648363Y-99821531D01*
X142648409Y-99851583D01*
X142648174Y-99895556D01*
X142647429Y-99935696D01*
X142646055Y-99973659D01*
X142643936Y-100011100D01*
X142640955Y-100049676D01*
X142636994Y-100091043D01*
X142631935Y-100136855D01*
X142625663Y-100188769D01*
X142623081Y-100209300D01*
X142620516Y-100229350D01*
X142617959Y-100248882D01*
X142615298Y-100268662D01*
X142612419Y-100289456D01*
X142609209Y-100312028D01*
X142605556Y-100337144D01*
X142601346Y-100365571D01*
X142596467Y-100398072D01*
X142590805Y-100435415D01*
X142584247Y-100478365D01*
X142576680Y-100527686D01*
X142567992Y-100584145D01*
X142562150Y-100622050D01*
X142539955Y-100765983D01*
X142566535Y-100808112D01*
X142590077Y-100848234D01*
X142613747Y-100893665D01*
X142636124Y-100941389D01*
X142655788Y-100988390D01*
X142670113Y-101027950D01*
X142677908Y-101053190D01*
X142685686Y-101081137D01*
X142693047Y-101110046D01*
X142699587Y-101138176D01*
X142704907Y-101163781D01*
X142708603Y-101185119D01*
X142710275Y-101200446D01*
X142710331Y-101202548D01*
X142711555Y-101213447D01*
X142713928Y-101220287D01*
X142716561Y-101220756D01*
X142722977Y-101219178D01*
X142733656Y-101215346D01*
X142749078Y-101209050D01*
X142769724Y-101200082D01*
X142796074Y-101188233D01*
X142828609Y-101173295D01*
X142867809Y-101155060D01*
X142912640Y-101134031D01*
X143073560Y-101058322D01*
X143227781Y-101058322D01*
X143232051Y-101077213D01*
X143242112Y-101093475D01*
X143256630Y-101105991D01*
X143274273Y-101113643D01*
X143293708Y-101115317D01*
X143313601Y-101109894D01*
X143315469Y-101108967D01*
X143332595Y-101096044D01*
X143343309Y-101079462D01*
X143347801Y-101060862D01*
X143346263Y-101041886D01*
X143338885Y-101024175D01*
X143325857Y-101009371D01*
X143307371Y-100999115D01*
X143302546Y-100997621D01*
X143282559Y-100996314D01*
X143263028Y-101002140D01*
X143246046Y-101013924D01*
X143233709Y-101030493D01*
X143230636Y-101037918D01*
X143227781Y-101058322D01*
X143073560Y-101058322D01*
X143107820Y-101042204D01*
X143112742Y-101018394D01*
X143124139Y-100982730D01*
X143142203Y-100950971D01*
X143165919Y-100923811D01*
X143194276Y-100901946D01*
X143226262Y-100886068D01*
X143260864Y-100876875D01*
X143297071Y-100875060D01*
X143317902Y-100877568D01*
X143355735Y-100888534D01*
X143389185Y-100906237D01*
X143417587Y-100929887D01*
X143440279Y-100958694D01*
X143456597Y-100991869D01*
X143465875Y-101028620D01*
X143467826Y-101055966D01*
X143463838Y-101094498D01*
X143452343Y-101130133D01*
X143434042Y-101162043D01*
X143409637Y-101189404D01*
X143379830Y-101211390D01*
X143345323Y-101227173D01*
X143316096Y-101234562D01*
X143279523Y-101236845D01*
X143243352Y-101230932D01*
X143207739Y-101217130D01*
X143182395Y-101204583D01*
X142951622Y-101312902D01*
X142910134Y-101332442D01*
X142870866Y-101351064D01*
X142834502Y-101368437D01*
X142801724Y-101384226D01*
X142773216Y-101398101D01*
X142749662Y-101409728D01*
X142731743Y-101418776D01*
X142720143Y-101424911D01*
X142715558Y-101427786D01*
X142711688Y-101436677D01*
X142710225Y-101447300D01*
X142709356Y-101456585D01*
X142707030Y-101471901D01*
X142703616Y-101491010D01*
X142700058Y-101508933D01*
X142696166Y-101528008D01*
X142693106Y-101543725D01*
X142691187Y-101554431D01*
X142690716Y-101558464D01*
X142694967Y-101558721D01*
X142707009Y-101559195D01*
X142726170Y-101559863D01*
X142751776Y-101560705D01*
X142783156Y-101561699D01*
X142819636Y-101562826D01*
X142860545Y-101564063D01*
X142905209Y-101565389D01*
X142952957Y-101566784D01*
X142993888Y-101567962D01*
X143051829Y-101569611D01*
X143101891Y-101571009D01*
X143144657Y-101572157D01*
X143180711Y-101573058D01*
X143210637Y-101573715D01*
X143235018Y-101574131D01*
X143254439Y-101574307D01*
X143269482Y-101574246D01*
X143280731Y-101573952D01*
X143288771Y-101573425D01*
X143294184Y-101572669D01*
X143297555Y-101571687D01*
X143299466Y-101570481D01*
X143300381Y-101569278D01*
X143311245Y-101554484D01*
X143327194Y-101538313D01*
X143345673Y-101523039D01*
X143364129Y-101510935D01*
X143368536Y-101508624D01*
X143405238Y-101494868D01*
X143442304Y-101489013D01*
X143478740Y-101490732D01*
X143513554Y-101499699D01*
X143545752Y-101515584D01*
X143574340Y-101538062D01*
X143598325Y-101566805D01*
X143610841Y-101588420D01*
X143617699Y-101602623D01*
X143622241Y-101613763D01*
X143624942Y-101624272D01*
X143626281Y-101636579D01*
X143626736Y-101653117D01*
X143626783Y-101669580D01*
X143626639Y-101691162D01*
X143625929Y-101706673D01*
X143624232Y-101718510D01*
X143621129Y-101729068D01*
X143616201Y-101740741D01*
X143613200Y-101747159D01*
X143593256Y-101779993D01*
X143567857Y-101807025D01*
X143538042Y-101827880D01*
X143504852Y-101842185D01*
X143469329Y-101849565D01*
X143432513Y-101849647D01*
X143395446Y-101842056D01*
X143373034Y-101833442D01*
X143355948Y-101823319D01*
X143336653Y-101808275D01*
X143317588Y-101790465D01*
X143301193Y-101772045D01*
X143296553Y-101765875D01*
X143288116Y-101754000D01*
X143004483Y-101745829D01*
X142938950Y-101743948D01*
X142881361Y-101742321D01*
X142831200Y-101740945D01*
X142787949Y-101739821D01*
X142751088Y-101738947D01*
X142720102Y-101738324D01*
X142694471Y-101737949D01*
X142673678Y-101737823D01*
X142657206Y-101737944D01*
X142644536Y-101738312D01*
X142635150Y-101738926D01*
X142628531Y-101739786D01*
X142624161Y-101740890D01*
X142621521Y-101742237D01*
X142620095Y-101743828D01*
X142619484Y-101745259D01*
X142616520Y-101751759D01*
X142610208Y-101763898D01*
X142601447Y-101779993D01*
X142591139Y-101798362D01*
X142590185Y-101800036D01*
X142563338Y-101847087D01*
X142872775Y-101992809D01*
X143182213Y-102138531D01*
X143205817Y-102126536D01*
X143241692Y-102112740D01*
X143278504Y-102106774D01*
X143315121Y-102108369D01*
X143350409Y-102117254D01*
X143383234Y-102133162D01*
X143412465Y-102155824D01*
X143434012Y-102180715D01*
X143448477Y-102203532D01*
X143458088Y-102225837D01*
X143463606Y-102250236D01*
X143465795Y-102279340D01*
X143465916Y-102289983D01*
X143465716Y-102310020D01*
X143464717Y-102324483D01*
X143462322Y-102336260D01*
X143457932Y-102348242D01*
X143450950Y-102363317D01*
X143450588Y-102364066D01*
X143430415Y-102397062D01*
X143405270Y-102424062D01*
X143376180Y-102444865D01*
X143344172Y-102459272D01*
X143310271Y-102467083D01*
X143275505Y-102468100D01*
X143240899Y-102462122D01*
X143207481Y-102448950D01*
X143176275Y-102428385D01*
X143166036Y-102419374D01*
X143143435Y-102394048D01*
X143126721Y-102365686D01*
X143114553Y-102331964D01*
X143113667Y-102328710D01*
X143106083Y-102300202D01*
X143085289Y-102290404D01*
X143229072Y-102290404D01*
X143232822Y-102308983D01*
X143242714Y-102325947D01*
X143258302Y-102339246D01*
X143277028Y-102346061D01*
X143297620Y-102346146D01*
X143316923Y-102339589D01*
X143320298Y-102337523D01*
X143335971Y-102322798D01*
X143344940Y-102305269D01*
X143347652Y-102286474D01*
X143344557Y-102267951D01*
X143336103Y-102251241D01*
X143322740Y-102237881D01*
X143304917Y-102229411D01*
X143288116Y-102227188D01*
X143267300Y-102230743D01*
X143250579Y-102240382D01*
X143238360Y-102254564D01*
X143231055Y-102271752D01*
X143229072Y-102290404D01*
X143085289Y-102290404D01*
X142780788Y-102146926D01*
X142455492Y-101993650D01*
X142389204Y-102059442D01*
X142345611Y-102101489D01*
X142304297Y-102138546D01*
X142262799Y-102172626D01*
X142218655Y-102205743D01*
X142169403Y-102239908D01*
X142164166Y-102243417D01*
X142062694Y-102306247D01*
X141955802Y-102362864D01*
X141843999Y-102413101D01*
X141727792Y-102456792D01*
X141607690Y-102493770D01*
X141484199Y-102523867D01*
X141357829Y-102546917D01*
X141229087Y-102562752D01*
X141179916Y-102566824D01*
X141148521Y-102568753D01*
X141112406Y-102570431D01*
X141073652Y-102571807D01*
X141034336Y-102572831D01*
X140996538Y-102573452D01*
X140962336Y-102573619D01*
X140933810Y-102573281D01*
X140925916Y-102573047D01*
X140789617Y-102564500D01*
X140656492Y-102548755D01*
X140526818Y-102525896D01*
X140400871Y-102496006D01*
X140278929Y-102459169D01*
X140161269Y-102415470D01*
X140048168Y-102364991D01*
X139939903Y-102307816D01*
X139836751Y-102244030D01*
X139835833Y-102243417D01*
X139785943Y-102209038D01*
X139741404Y-102175908D01*
X139699754Y-102142013D01*
X139658531Y-102105339D01*
X139615272Y-102063875D01*
X139610795Y-102059442D01*
X139544507Y-101993650D01*
X139219211Y-102146926D01*
X138893916Y-102300202D01*
X138886332Y-102328710D01*
X138874494Y-102363006D01*
X138858228Y-102391742D01*
X138836191Y-102417239D01*
X138833963Y-102419374D01*
X138803780Y-102442581D01*
X138771022Y-102458325D01*
X138736716Y-102466805D01*
X138701889Y-102468221D01*
X138667568Y-102462773D01*
X138634778Y-102450659D01*
X138604546Y-102432080D01*
X138577899Y-102407235D01*
X138555864Y-102376323D01*
X138549411Y-102364066D01*
X138542306Y-102348796D01*
X138537818Y-102336742D01*
X138535351Y-102325015D01*
X138534305Y-102310725D01*
X138534083Y-102290982D01*
X138534083Y-102290811D01*
X138651526Y-102290811D01*
X138656039Y-102308376D01*
X138665660Y-102324003D01*
X138679324Y-102336500D01*
X138695965Y-102344676D01*
X138714517Y-102347340D01*
X138733913Y-102343302D01*
X138739276Y-102340847D01*
X138754670Y-102328757D01*
X138765382Y-102312104D01*
X138770809Y-102293110D01*
X138770347Y-102274000D01*
X138763392Y-102256997D01*
X138762421Y-102255638D01*
X138745153Y-102238157D01*
X138726024Y-102228520D01*
X138706154Y-102226738D01*
X138686660Y-102232823D01*
X138668660Y-102246786D01*
X138662093Y-102254628D01*
X138653189Y-102272497D01*
X138651526Y-102290811D01*
X138534083Y-102290811D01*
X138534083Y-102289983D01*
X138535373Y-102258841D01*
X138539752Y-102233231D01*
X138547982Y-102210544D01*
X138560824Y-102188172D01*
X138565987Y-102180715D01*
X138591186Y-102152419D01*
X138620962Y-102130643D01*
X138654182Y-102115657D01*
X138689713Y-102107728D01*
X138726421Y-102107127D01*
X138763174Y-102114123D01*
X138794182Y-102126536D01*
X138817786Y-102138531D01*
X139127224Y-101992809D01*
X139436661Y-101847087D01*
X139409814Y-101800036D01*
X139399413Y-101781548D01*
X139390479Y-101765184D01*
X139383914Y-101752628D01*
X139380618Y-101745563D01*
X139380515Y-101745259D01*
X139379681Y-101743477D01*
X139378045Y-101741937D01*
X139375088Y-101740640D01*
X139370292Y-101739587D01*
X139363139Y-101738778D01*
X139353112Y-101738215D01*
X139339693Y-101737899D01*
X139322363Y-101737829D01*
X139300605Y-101738007D01*
X139273902Y-101738433D01*
X139241735Y-101739109D01*
X139203586Y-101740034D01*
X139158938Y-101741211D01*
X139107272Y-101742639D01*
X139048072Y-101744319D01*
X138995516Y-101745829D01*
X138711883Y-101754000D01*
X138703446Y-101765875D01*
X138688555Y-101784002D01*
X138670144Y-101802270D01*
X138650652Y-101818523D01*
X138632519Y-101830606D01*
X138626965Y-101833442D01*
X138590259Y-101845924D01*
X138553165Y-101850504D01*
X138516726Y-101847557D01*
X138481981Y-101837455D01*
X138449973Y-101820573D01*
X138421742Y-101797286D01*
X138398328Y-101767966D01*
X138386799Y-101747159D01*
X138380889Y-101734164D01*
X138376997Y-101723390D01*
X138374705Y-101712440D01*
X138373592Y-101698920D01*
X138373239Y-101680433D01*
X138373216Y-101669580D01*
X138373217Y-101669322D01*
X138490417Y-101669322D01*
X138490848Y-101677649D01*
X138493622Y-101691132D01*
X138499668Y-101701944D01*
X138510217Y-101713033D01*
X138521607Y-101722671D01*
X138531256Y-101727453D01*
X138542906Y-101728978D01*
X138547677Y-101729038D01*
X138566978Y-101726598D01*
X138580051Y-101721032D01*
X138595620Y-101706425D01*
X138605013Y-101688425D01*
X138608267Y-101668836D01*
X138605416Y-101649467D01*
X138596497Y-101632121D01*
X138581546Y-101618607D01*
X138577985Y-101616599D01*
X138557214Y-101609992D01*
X138537059Y-101610841D01*
X138518912Y-101618173D01*
X138504162Y-101631014D01*
X138494200Y-101648388D01*
X138490417Y-101669322D01*
X138373217Y-101669322D01*
X138373322Y-101648326D01*
X138373958Y-101633108D01*
X138375602Y-101621495D01*
X138378731Y-101611057D01*
X138383823Y-101599361D01*
X138389158Y-101588420D01*
X138409662Y-101555825D01*
X138435407Y-101529286D01*
X138465400Y-101509128D01*
X138498648Y-101495680D01*
X138534157Y-101489268D01*
X138570932Y-101490220D01*
X138607982Y-101498863D01*
X138631463Y-101508624D01*
X138649502Y-101519552D01*
X138668219Y-101534232D01*
X138685058Y-101550390D01*
X138697466Y-101565752D01*
X138699618Y-101569278D01*
X138700747Y-101570674D01*
X138702838Y-101571847D01*
X138706475Y-101572796D01*
X138712241Y-101573518D01*
X138720720Y-101574010D01*
X138732496Y-101574270D01*
X138748152Y-101574296D01*
X138768272Y-101574084D01*
X138793440Y-101573633D01*
X138824238Y-101572940D01*
X138861252Y-101572002D01*
X138905064Y-101570817D01*
X138956258Y-101569383D01*
X139006111Y-101567962D01*
X139055882Y-101566527D01*
X139103122Y-101565143D01*
X139147156Y-101563831D01*
X139187313Y-101562613D01*
X139222920Y-101561509D01*
X139253305Y-101560540D01*
X139277794Y-101559728D01*
X139295716Y-101559094D01*
X139306399Y-101558658D01*
X139309283Y-101558464D01*
X139308782Y-101554247D01*
X139306832Y-101543403D01*
X139303748Y-101527586D01*
X139299941Y-101508933D01*
X139295882Y-101488345D01*
X139292591Y-101469609D01*
X139290436Y-101454963D01*
X139289774Y-101447300D01*
X139288066Y-101435780D01*
X139284441Y-101427786D01*
X139279745Y-101424850D01*
X139268057Y-101418673D01*
X139250058Y-101409589D01*
X139226433Y-101397930D01*
X139197864Y-101384027D01*
X139165034Y-101368214D01*
X139128626Y-101350823D01*
X139089324Y-101332186D01*
X139048377Y-101312902D01*
X138817604Y-101204583D01*
X138792260Y-101217130D01*
X138755823Y-101231159D01*
X138719650Y-101236884D01*
X138683903Y-101234562D01*
X138646265Y-101224098D01*
X138612789Y-101206798D01*
X138584176Y-101183488D01*
X138561129Y-101154995D01*
X138544348Y-101122144D01*
X138534537Y-101085762D01*
X138532502Y-101060111D01*
X138651828Y-101060111D01*
X138656372Y-101079464D01*
X138661374Y-101088755D01*
X138675514Y-101103144D01*
X138694121Y-101112089D01*
X138714682Y-101114938D01*
X138734683Y-101111039D01*
X138739236Y-101108967D01*
X138756752Y-101095891D01*
X138767657Y-101079302D01*
X138772103Y-101060779D01*
X138770246Y-101041902D01*
X138762237Y-101024247D01*
X138748231Y-101009396D01*
X138728546Y-100998982D01*
X138708412Y-100995900D01*
X138689875Y-100999918D01*
X138673942Y-101009694D01*
X138661619Y-101023881D01*
X138653912Y-101041135D01*
X138651828Y-101060111D01*
X138532502Y-101060111D01*
X138532173Y-101055966D01*
X138536137Y-101017109D01*
X138547588Y-100981329D01*
X138565861Y-100949406D01*
X138590294Y-100922122D01*
X138620223Y-100900257D01*
X138654984Y-100884593D01*
X138683858Y-100877378D01*
X138720838Y-100875108D01*
X138756617Y-100880610D01*
X138790198Y-100893193D01*
X138820583Y-100912166D01*
X138846775Y-100936837D01*
X138867776Y-100966514D01*
X138882588Y-101000506D01*
X138887257Y-101018394D01*
X138892179Y-101042204D01*
X139087217Y-101133964D01*
X139125106Y-101151745D01*
X139160628Y-101168330D01*
X139193058Y-101183385D01*
X139221671Y-101196579D01*
X139245741Y-101207577D01*
X139264542Y-101216049D01*
X139277349Y-101221660D01*
X139283437Y-101224078D01*
X139283841Y-101224136D01*
X139285110Y-101219594D01*
X139287431Y-101208338D01*
X139290486Y-101192007D01*
X139293957Y-101172242D01*
X139294347Y-101169949D01*
X139312383Y-101087227D01*
X139338194Y-101004644D01*
X139371179Y-100923753D01*
X139874096Y-100923753D01*
X139874293Y-100947005D01*
X139875004Y-100973768D01*
X139876162Y-101002397D01*
X139877699Y-101031252D01*
X139879546Y-101058690D01*
X139881638Y-101083068D01*
X139883905Y-101102745D01*
X139884176Y-101104650D01*
X139899215Y-101186528D01*
X139919412Y-101261726D01*
X139944790Y-101330296D01*
X139975370Y-101392287D01*
X140011177Y-101447751D01*
X140052231Y-101496738D01*
X140060102Y-101504794D01*
X140108763Y-101547531D01*
X140163832Y-101584928D01*
X140225054Y-101616872D01*
X140292177Y-101643249D01*
X140364947Y-101663946D01*
X140443110Y-101678850D01*
X140451783Y-101680097D01*
X140475793Y-101683389D01*
X140495183Y-101685819D01*
X140512012Y-101687509D01*
X140528339Y-101688580D01*
X140546223Y-101689154D01*
X140567724Y-101689353D01*
X140594901Y-101689300D01*
X140606300Y-101689243D01*
X140680383Y-101688850D01*
X140681590Y-101616883D01*
X140681510Y-101612976D01*
X141317499Y-101612976D01*
X141317677Y-101636958D01*
X141318169Y-101657976D01*
X141318914Y-101674573D01*
X141319851Y-101685293D01*
X141320674Y-101688638D01*
X141326107Y-101689851D01*
X141338645Y-101690531D01*
X141356947Y-101690724D01*
X141379671Y-101690480D01*
X141405476Y-101689845D01*
X141433022Y-101688868D01*
X141460966Y-101687596D01*
X141487967Y-101686077D01*
X141512684Y-101684359D01*
X141533775Y-101682490D01*
X141549899Y-101680517D01*
X141550333Y-101680450D01*
X141565367Y-101677551D01*
X143391714Y-101677551D01*
X143397819Y-101696329D01*
X143409645Y-101712146D01*
X143426331Y-101723483D01*
X143447010Y-101728819D01*
X143452322Y-101729038D01*
X143465405Y-101728220D01*
X143475289Y-101724657D01*
X143485713Y-101716749D01*
X143489782Y-101713033D01*
X143503948Y-101694843D01*
X143510080Y-101674655D01*
X143508004Y-101653325D01*
X143504048Y-101642949D01*
X143491987Y-101626301D01*
X143475566Y-101615429D01*
X143456664Y-101610438D01*
X143437161Y-101611432D01*
X143418937Y-101618515D01*
X143403873Y-101631791D01*
X143400128Y-101637197D01*
X143392196Y-101657334D01*
X143391714Y-101677551D01*
X141565367Y-101677551D01*
X141631009Y-101664894D01*
X141705072Y-101644146D01*
X141772666Y-101618060D01*
X141833935Y-101586489D01*
X141889022Y-101549287D01*
X141938073Y-101506308D01*
X141981230Y-101457403D01*
X142018637Y-101402428D01*
X142050440Y-101341235D01*
X142076781Y-101273677D01*
X142097805Y-101199608D01*
X142113656Y-101118882D01*
X142115823Y-101104650D01*
X142118106Y-101085625D01*
X142120221Y-101061709D01*
X142122100Y-101034542D01*
X142123677Y-101005767D01*
X142124882Y-100977027D01*
X142125648Y-100949964D01*
X142125909Y-100926219D01*
X142125595Y-100907436D01*
X142124640Y-100895256D01*
X142124484Y-100894345D01*
X142121651Y-100879244D01*
X142084700Y-100876459D01*
X142058304Y-100875533D01*
X142025742Y-100876063D01*
X141989159Y-100877903D01*
X141950705Y-100880905D01*
X141912525Y-100884924D01*
X141876768Y-100889812D01*
X141867833Y-100891258D01*
X141794791Y-100906629D01*
X141726004Y-100927355D01*
X141662137Y-100953132D01*
X141603855Y-100983657D01*
X141551823Y-101018624D01*
X141509383Y-101055101D01*
X141466738Y-101102432D01*
X141429159Y-101156253D01*
X141396781Y-101216169D01*
X141369741Y-101281789D01*
X141348172Y-101352718D01*
X141332211Y-101428564D01*
X141321993Y-101508933D01*
X141317652Y-101593432D01*
X141317499Y-101612976D01*
X140681510Y-101612976D01*
X140679900Y-101534890D01*
X140672166Y-101455831D01*
X140658576Y-101380264D01*
X140639321Y-101308748D01*
X140614590Y-101241841D01*
X140584573Y-101180103D01*
X140549460Y-101124092D01*
X140509441Y-101074366D01*
X140490666Y-101054953D01*
X140445917Y-101016736D01*
X140394234Y-100982455D01*
X140336347Y-100952445D01*
X140272982Y-100927036D01*
X140204869Y-100906562D01*
X140132734Y-100891354D01*
X140132166Y-100891258D01*
X140097427Y-100886160D01*
X140059689Y-100881893D01*
X140021097Y-100878603D01*
X139983800Y-100876436D01*
X139949944Y-100875539D01*
X139921676Y-100876059D01*
X139915299Y-100876459D01*
X139878348Y-100879244D01*
X139875515Y-100894345D01*
X139874481Y-100905652D01*
X139874096Y-100923753D01*
X139371179Y-100923753D01*
X139371201Y-100923701D01*
X139410822Y-100845901D01*
X139435797Y-100804083D01*
X139459865Y-100765983D01*
X139444437Y-100662266D01*
X139432089Y-100579017D01*
X139420986Y-100503526D01*
X139411062Y-100435190D01*
X139402252Y-100373400D01*
X139394493Y-100317553D01*
X139387719Y-100267043D01*
X139381865Y-100221263D01*
X139376867Y-100179607D01*
X139372661Y-100141471D01*
X139369182Y-100106249D01*
X139366365Y-100073334D01*
X139364145Y-100042121D01*
X139362458Y-100012004D01*
X139361239Y-99982378D01*
X139360424Y-99952636D01*
X139359947Y-99922174D01*
X139359745Y-99890385D01*
X139359731Y-99868516D01*
X139359862Y-99827668D01*
X139360190Y-99794124D01*
X139360764Y-99766724D01*
X139361635Y-99744306D01*
X139362850Y-99725709D01*
X139364461Y-99709771D01*
X139366515Y-99695333D01*
X139367296Y-99690716D01*
X139377788Y-99640623D01*
X139390464Y-99598269D01*
X139405578Y-99563148D01*
X139423387Y-99534756D01*
X139444147Y-99512587D01*
X139464759Y-99497996D01*
X139473793Y-99493005D01*
X139481694Y-99489555D01*
X139490291Y-99487358D01*
X139501408Y-99486132D01*
X139516874Y-99485589D01*
X139538514Y-99485446D01*
X139545225Y-99485439D01*
X139569734Y-99485572D01*
X139588102Y-99486210D01*
X139602654Y-99487650D01*
X139615712Y-99490193D01*
X139629601Y-99494136D01*
X139640475Y-99497693D01*
X139694846Y-99518852D01*
X139752661Y-99546992D01*
X139814026Y-99582182D01*
X139879045Y-99624490D01*
X139947823Y-99673986D01*
X140020464Y-99730739D01*
X140097073Y-99794817D01*
X140114913Y-99810290D01*
X140141337Y-99833961D01*
X140171892Y-99862348D01*
X140205301Y-99894186D01*
X140240287Y-99928209D01*
X140275576Y-99963152D01*
X140309891Y-99997749D01*
X140341956Y-100030735D01*
X140370494Y-100060843D01*
X140394231Y-100086809D01*
X140397983Y-100091045D01*
X140441088Y-100140007D01*
X140505702Y-100126057D01*
X140571910Y-100112511D01*
X140634269Y-100101436D01*
X140694626Y-100092646D01*
X140754829Y-100085955D01*
X140816728Y-100081178D01*
X140882169Y-100078129D01*
X140953002Y-100076621D01*
X141000000Y-100076380D01*
X141075062Y-100077032D01*
X141143597Y-100079112D01*
X141207454Y-100082805D01*
X141268480Y-100088298D01*
X141328523Y-100095776D01*
X141389433Y-100105425D01*
X141453057Y-100117431D01*
X141494297Y-100126057D01*
X141558911Y-100140007D01*
X141602247Y-100091065D01*
X141618328Y-100073332D01*
X141638858Y-100051342D01*
X141662242Y-100026769D01*
X141686883Y-100001284D01*
X141711186Y-99976559D01*
X141719690Y-99968020D01*
X141788163Y-99901401D01*
X141856727Y-99838299D01*
X141924868Y-99779089D01*
X141992071Y-99724144D01*
X142057823Y-99673840D01*
X142121608Y-99628549D01*
X142182913Y-99588648D01*
X142241223Y-99554509D01*
X142296024Y-99526508D01*
X142346801Y-99505019D01*
X142364382Y-99498821D01*
X142381569Y-99493325D01*
X142395679Y-99489572D01*
X142409130Y-99487232D01*
X142424342Y-99485976D01*
X142443734Y-99485476D01*
X142463092Y-99485400D01*
X142492024Y-99485847D01*
D11*
X143099912Y-70629248D02*
X141462252Y-68533139D01*
X133044894Y-78485088D02*
X143099912Y-70629248D01*
X131407235Y-76388980D02*
X141462252Y-68533139D01*
X133044894Y-78485088D02*
X131407235Y-76388980D01*
X132044121Y-79266978D02*
X130996066Y-80085808D01*
X130996066Y-80085808D02*
X130177237Y-79037754D01*
D12*
X146045314Y-95869112D02*
X146618890Y-95049960D01*
X146435386Y-96142244D02*
X147008962Y-95323092D01*
X146903473Y-96470002D01*
X147477050Y-95650850D01*
X147773488Y-95974683D02*
X147839808Y-95962988D01*
X147945136Y-95978608D01*
X148140173Y-96115174D01*
X148190874Y-96208807D01*
X148202568Y-96275128D01*
X148186949Y-96380455D01*
X148132323Y-96458470D01*
X148011376Y-96548178D01*
X147215531Y-96688507D01*
X147722625Y-97043578D01*
X159054344Y-102150243D02*
X159574696Y-102770374D01*
X159672392Y-102812722D01*
X159739479Y-102818591D01*
X159843045Y-102793851D01*
X159988959Y-102671415D01*
X160031306Y-102573719D01*
X160037176Y-102506632D01*
X160012436Y-102403066D01*
X159492084Y-101782935D01*
X159783910Y-101538064D02*
X160258129Y-101140148D01*
X160247651Y-101646237D01*
X160357087Y-101554409D01*
X160460652Y-101529670D01*
X160527739Y-101535539D01*
X160625436Y-101577888D01*
X160778481Y-101760279D01*
X160803220Y-101863844D01*
X160797351Y-101930931D01*
X160755003Y-102028628D01*
X160536133Y-102212282D01*
X160432567Y-102237021D01*
X160365480Y-102231152D01*
X162992381Y-92501905D02*
X163801905Y-92501905D01*
X163897143Y-92454286D01*
X163944762Y-92406667D01*
X163992381Y-92311429D01*
X163992381Y-92120952D01*
X163944762Y-92025714D01*
X163897143Y-91978095D01*
X163801905Y-91930476D01*
X162992381Y-91930476D01*
X163087619Y-91501905D02*
X163040000Y-91454286D01*
X162992381Y-91359048D01*
X162992381Y-91120952D01*
X163040000Y-91025714D01*
X163087619Y-90978095D01*
X163182857Y-90930476D01*
X163278095Y-90930476D01*
X163420952Y-90978095D01*
X163992381Y-91549524D01*
X163992381Y-90930476D01*
X137333334Y-105928571D02*
X137476191Y-105976190D01*
X137523810Y-106023810D01*
X137571429Y-106119048D01*
X137571429Y-106261905D01*
X137523810Y-106357143D01*
X137476191Y-106404762D01*
X137380953Y-106452381D01*
X137000000Y-106452381D01*
X137000000Y-105452381D01*
X137333334Y-105452381D01*
X137428572Y-105500000D01*
X137476191Y-105547619D01*
X137523810Y-105642857D01*
X137523810Y-105738095D01*
X137476191Y-105833333D01*
X137428572Y-105880952D01*
X137333334Y-105928571D01*
X137000000Y-105928571D01*
X137857143Y-105452381D02*
X138428572Y-105452381D01*
X138142857Y-106452381D02*
X138142857Y-105452381D01*
X139333334Y-106452381D02*
X139000000Y-105976190D01*
X138761905Y-106452381D02*
X138761905Y-105452381D01*
X139142858Y-105452381D01*
X139238096Y-105500000D01*
X139285715Y-105547619D01*
X139333334Y-105642857D01*
X139333334Y-105785714D01*
X139285715Y-105880952D01*
X139238096Y-105928571D01*
X139142858Y-105976190D01*
X138761905Y-105976190D01*
X139619048Y-105452381D02*
X140190477Y-105452381D01*
X139904762Y-106452381D02*
X139904762Y-105452381D01*
X141095239Y-106357143D02*
X141047620Y-106404762D01*
X140904763Y-106452381D01*
X140809525Y-106452381D01*
X140666667Y-106404762D01*
X140571429Y-106309524D01*
X140523810Y-106214286D01*
X140476191Y-106023810D01*
X140476191Y-105880952D01*
X140523810Y-105690476D01*
X140571429Y-105595238D01*
X140666667Y-105500000D01*
X140809525Y-105452381D01*
X140904763Y-105452381D01*
X141047620Y-105500000D01*
X141095239Y-105547619D01*
X142047620Y-106452381D02*
X141476191Y-106452381D01*
X141761905Y-106452381D02*
X141761905Y-105452381D01*
X141666667Y-105595238D01*
X141571429Y-105690476D01*
X141476191Y-105738095D01*
X129208095Y-100287381D02*
X129208095Y-101096905D01*
X129255714Y-101192143D01*
X129303333Y-101239762D01*
X129398571Y-101287381D01*
X129589048Y-101287381D01*
X129684286Y-101239762D01*
X129731905Y-101192143D01*
X129779524Y-101096905D01*
X129779524Y-100287381D01*
X130160476Y-100287381D02*
X130827143Y-100287381D01*
X130398571Y-101287381D01*
X155288095Y-77682381D02*
X155288095Y-78491905D01*
X155335714Y-78587143D01*
X155383333Y-78634762D01*
X155478571Y-78682381D01*
X155669048Y-78682381D01*
X155764286Y-78634762D01*
X155811905Y-78587143D01*
X155859524Y-78491905D01*
X155859524Y-77682381D01*
X156859524Y-78682381D02*
X156288095Y-78682381D01*
X156573809Y-78682381D02*
X156573809Y-77682381D01*
X156478571Y-77825238D01*
X156383333Y-77920476D01*
X156288095Y-77968095D01*
D16*
X131278585Y-95602543D02*
X131309104Y-95510988D01*
X131309104Y-95358396D01*
X131278585Y-95297359D01*
X131248067Y-95266841D01*
X131187030Y-95236323D01*
X131125994Y-95236323D01*
X131064957Y-95266841D01*
X131034439Y-95297359D01*
X131003920Y-95358396D01*
X130973402Y-95480469D01*
X130942884Y-95541506D01*
X130912365Y-95572024D01*
X130851329Y-95602543D01*
X130790292Y-95602543D01*
X130729255Y-95572024D01*
X130698737Y-95541506D01*
X130668219Y-95480469D01*
X130668219Y-95327878D01*
X130698737Y-95236323D01*
X131309104Y-94625956D02*
X131309104Y-94992176D01*
X131309104Y-94809066D02*
X130668219Y-94809066D01*
X130759774Y-94870102D01*
X130820810Y-94931139D01*
X130851329Y-94992176D01*
X126919357Y-98479701D02*
X126949852Y-98388215D01*
X126980348Y-98357719D01*
X127041339Y-98327224D01*
X127132825Y-98327224D01*
X127193816Y-98357719D01*
X127224311Y-98388215D01*
X127254807Y-98449205D01*
X127254807Y-98693169D01*
X126614403Y-98693169D01*
X126614403Y-98479701D01*
X126644898Y-98418710D01*
X126675393Y-98388215D01*
X126736384Y-98357719D01*
X126797375Y-98357719D01*
X126858366Y-98388215D01*
X126888861Y-98418710D01*
X126919357Y-98479701D01*
X126919357Y-98693169D01*
X126614403Y-97930783D02*
X126614403Y-97808801D01*
X126644898Y-97747811D01*
X126705889Y-97686820D01*
X126827871Y-97656324D01*
X127041339Y-97656324D01*
X127163320Y-97686820D01*
X127224311Y-97747811D01*
X127254807Y-97808801D01*
X127254807Y-97930783D01*
X127224311Y-97991774D01*
X127163320Y-98052765D01*
X127041339Y-98083260D01*
X126827871Y-98083260D01*
X126705889Y-98052765D01*
X126644898Y-97991774D01*
X126614403Y-97930783D01*
X126614403Y-97473352D02*
X126614403Y-97107407D01*
X127254807Y-97290380D02*
X126614403Y-97290380D01*
X126614403Y-96985425D02*
X126614403Y-96619480D01*
X127254807Y-96802453D02*
X126614403Y-96802453D01*
X126614403Y-96284030D02*
X126614403Y-96162048D01*
X126644898Y-96101058D01*
X126705889Y-96040067D01*
X126827871Y-96009571D01*
X127041339Y-96009571D01*
X127163320Y-96040067D01*
X127224311Y-96101058D01*
X127254807Y-96162048D01*
X127254807Y-96284030D01*
X127224311Y-96345021D01*
X127163320Y-96406012D01*
X127041339Y-96436507D01*
X126827871Y-96436507D01*
X126705889Y-96406012D01*
X126644898Y-96345021D01*
X126614403Y-96284030D01*
X127254807Y-95735113D02*
X126614403Y-95735113D01*
X127071834Y-95521645D01*
X126614403Y-95308177D01*
X127254807Y-95308177D01*
X127315797Y-95155700D02*
X127315797Y-94667773D01*
X126919357Y-94301828D02*
X126949852Y-94210342D01*
X126980348Y-94179846D01*
X127041339Y-94149351D01*
X127132825Y-94149351D01*
X127193816Y-94179846D01*
X127224311Y-94210342D01*
X127254807Y-94271332D01*
X127254807Y-94515296D01*
X126614403Y-94515296D01*
X126614403Y-94301828D01*
X126644898Y-94240837D01*
X126675393Y-94210342D01*
X126736384Y-94179846D01*
X126797375Y-94179846D01*
X126858366Y-94210342D01*
X126888861Y-94240837D01*
X126919357Y-94301828D01*
X126919357Y-94515296D01*
X126614403Y-93752910D02*
X126614403Y-93630928D01*
X126644898Y-93569938D01*
X126705889Y-93508947D01*
X126827871Y-93478451D01*
X127041339Y-93478451D01*
X127163320Y-93508947D01*
X127224311Y-93569938D01*
X127254807Y-93630928D01*
X127254807Y-93752910D01*
X127224311Y-93813901D01*
X127163320Y-93874892D01*
X127041339Y-93905387D01*
X126827871Y-93905387D01*
X126705889Y-93874892D01*
X126644898Y-93813901D01*
X126614403Y-93752910D01*
X126614403Y-93082011D02*
X126614403Y-92960029D01*
X126644898Y-92899039D01*
X126705889Y-92838048D01*
X126827871Y-92807552D01*
X127041339Y-92807552D01*
X127163320Y-92838048D01*
X127224311Y-92899039D01*
X127254807Y-92960029D01*
X127254807Y-93082011D01*
X127224311Y-93143002D01*
X127163320Y-93203993D01*
X127041339Y-93234488D01*
X126827871Y-93234488D01*
X126705889Y-93203993D01*
X126644898Y-93143002D01*
X126614403Y-93082011D01*
X126614403Y-92624580D02*
X126614403Y-92258635D01*
X127254807Y-92441608D02*
X126614403Y-92441608D01*
X131368585Y-88262543D02*
X131399104Y-88170988D01*
X131399104Y-88018396D01*
X131368585Y-87957359D01*
X131338067Y-87926841D01*
X131277030Y-87896323D01*
X131215994Y-87896323D01*
X131154957Y-87926841D01*
X131124439Y-87957359D01*
X131093920Y-88018396D01*
X131063402Y-88140469D01*
X131032884Y-88201506D01*
X131002365Y-88232024D01*
X130941329Y-88262543D01*
X130880292Y-88262543D01*
X130819255Y-88232024D01*
X130788737Y-88201506D01*
X130758219Y-88140469D01*
X130758219Y-87987878D01*
X130788737Y-87896323D01*
X130819255Y-87652176D02*
X130788737Y-87621657D01*
X130758219Y-87560621D01*
X130758219Y-87408029D01*
X130788737Y-87346992D01*
X130819255Y-87316474D01*
X130880292Y-87285956D01*
X130941329Y-87285956D01*
X131032884Y-87316474D01*
X131399104Y-87682694D01*
X131399104Y-87285956D01*
X127009357Y-90773756D02*
X127039852Y-90682270D01*
X127070348Y-90651774D01*
X127131339Y-90621279D01*
X127222825Y-90621279D01*
X127283816Y-90651774D01*
X127314311Y-90682270D01*
X127344807Y-90743260D01*
X127344807Y-90987224D01*
X126704403Y-90987224D01*
X126704403Y-90773756D01*
X126734898Y-90712765D01*
X126765393Y-90682270D01*
X126826384Y-90651774D01*
X126887375Y-90651774D01*
X126948366Y-90682270D01*
X126978861Y-90712765D01*
X127009357Y-90773756D01*
X127009357Y-90987224D01*
X126704403Y-90224838D02*
X126704403Y-90102856D01*
X126734898Y-90041866D01*
X126795889Y-89980875D01*
X126917871Y-89950379D01*
X127131339Y-89950379D01*
X127253320Y-89980875D01*
X127314311Y-90041866D01*
X127344807Y-90102856D01*
X127344807Y-90224838D01*
X127314311Y-90285829D01*
X127253320Y-90346820D01*
X127131339Y-90377315D01*
X126917871Y-90377315D01*
X126795889Y-90346820D01*
X126734898Y-90285829D01*
X126704403Y-90224838D01*
X126704403Y-89767407D02*
X126704403Y-89401462D01*
X127344807Y-89584435D02*
X126704403Y-89584435D01*
X126704403Y-89279480D02*
X126704403Y-88913535D01*
X127344807Y-89096508D02*
X126704403Y-89096508D01*
X126704403Y-88578085D02*
X126704403Y-88456103D01*
X126734898Y-88395113D01*
X126795889Y-88334122D01*
X126917871Y-88303626D01*
X127131339Y-88303626D01*
X127253320Y-88334122D01*
X127314311Y-88395113D01*
X127344807Y-88456103D01*
X127344807Y-88578085D01*
X127314311Y-88639076D01*
X127253320Y-88700067D01*
X127131339Y-88730562D01*
X126917871Y-88730562D01*
X126795889Y-88700067D01*
X126734898Y-88639076D01*
X126704403Y-88578085D01*
X127344807Y-88029168D02*
X126704403Y-88029168D01*
X127161834Y-87815700D01*
X126704403Y-87602232D01*
X127344807Y-87602232D01*
X127405797Y-87449755D02*
X127405797Y-86961828D01*
X127344807Y-86443406D02*
X127039852Y-86656874D01*
X127344807Y-86809351D02*
X126704403Y-86809351D01*
X126704403Y-86565387D01*
X126734898Y-86504397D01*
X126765393Y-86473901D01*
X126826384Y-86443406D01*
X126917871Y-86443406D01*
X126978861Y-86473901D01*
X127009357Y-86504397D01*
X127039852Y-86565387D01*
X127039852Y-86809351D01*
X127314311Y-86199442D02*
X127344807Y-86107956D01*
X127344807Y-85955479D01*
X127314311Y-85894488D01*
X127283816Y-85863993D01*
X127222825Y-85833497D01*
X127161834Y-85833497D01*
X127100843Y-85863993D01*
X127070348Y-85894488D01*
X127039852Y-85955479D01*
X127009357Y-86077461D01*
X126978861Y-86138451D01*
X126948366Y-86168947D01*
X126887375Y-86199442D01*
X126826384Y-86199442D01*
X126765393Y-86168947D01*
X126734898Y-86138451D01*
X126704403Y-86077461D01*
X126704403Y-85924983D01*
X126734898Y-85833497D01*
X126704403Y-85650524D02*
X126704403Y-85284579D01*
X127344807Y-85467552D02*
X126704403Y-85467552D01*
D12*
X163027622Y-81367247D02*
X162364499Y-81831570D01*
X162313798Y-81925204D01*
X162302104Y-81991524D01*
X162317723Y-82096852D01*
X162426976Y-82252881D01*
X162520610Y-82303583D01*
X162586930Y-82315277D01*
X162692257Y-82299658D01*
X163355381Y-81835334D01*
X163601280Y-82767663D02*
X163055179Y-83150048D01*
X163776772Y-82354122D02*
X163055097Y-82568783D01*
X163410169Y-83075878D01*
X145166667Y-74952381D02*
X145166667Y-75666667D01*
X145119047Y-75809524D01*
X145023809Y-75904762D01*
X144880952Y-75952381D01*
X144785714Y-75952381D01*
X145547619Y-74952381D02*
X146166667Y-74952381D01*
X145833333Y-75333333D01*
X145976191Y-75333333D01*
X146071429Y-75380952D01*
X146119048Y-75428571D01*
X146166667Y-75523810D01*
X146166667Y-75761905D01*
X146119048Y-75857143D01*
X146071429Y-75904762D01*
X145976191Y-75952381D01*
X145690476Y-75952381D01*
X145595238Y-75904762D01*
X145547619Y-75857143D01*
X130456667Y-84432381D02*
X130456667Y-85146667D01*
X130409047Y-85289524D01*
X130313809Y-85384762D01*
X130170952Y-85432381D01*
X130075714Y-85432381D01*
X131456667Y-85432381D02*
X130885238Y-85432381D01*
X131170952Y-85432381D02*
X131170952Y-84432381D01*
X131075714Y-84575238D01*
X130980476Y-84670476D01*
X130885238Y-84718095D01*
X145357143Y-78166666D02*
X145404762Y-78214285D01*
X145452381Y-78357142D01*
X145452381Y-78452380D01*
X145404762Y-78595238D01*
X145309524Y-78690476D01*
X145214286Y-78738095D01*
X145023810Y-78785714D01*
X144880952Y-78785714D01*
X144690476Y-78738095D01*
X144595238Y-78690476D01*
X144500000Y-78595238D01*
X144452381Y-78452380D01*
X144452381Y-78357142D01*
X144500000Y-78214285D01*
X144547619Y-78166666D01*
X145452381Y-77214285D02*
X145452381Y-77785714D01*
X145452381Y-77500000D02*
X144452381Y-77500000D01*
X144595238Y-77595238D01*
X144690476Y-77690476D01*
X144738095Y-77785714D01*
X140667143Y-75036666D02*
X140714762Y-75084285D01*
X140762381Y-75227142D01*
X140762381Y-75322380D01*
X140714762Y-75465238D01*
X140619524Y-75560476D01*
X140524286Y-75608095D01*
X140333810Y-75655714D01*
X140190952Y-75655714D01*
X140000476Y-75608095D01*
X139905238Y-75560476D01*
X139810000Y-75465238D01*
X139762381Y-75322380D01*
X139762381Y-75227142D01*
X139810000Y-75084285D01*
X139857619Y-75036666D01*
X139762381Y-74703333D02*
X139762381Y-74084285D01*
X140143333Y-74417619D01*
X140143333Y-74274761D01*
X140190952Y-74179523D01*
X140238571Y-74131904D01*
X140333810Y-74084285D01*
X140571905Y-74084285D01*
X140667143Y-74131904D01*
X140714762Y-74179523D01*
X140762381Y-74274761D01*
X140762381Y-74560476D01*
X140714762Y-74655714D01*
X140667143Y-74703333D01*
X133091905Y-80632381D02*
X133091905Y-79632381D01*
X133330000Y-79632381D01*
X133472858Y-79680000D01*
X133568096Y-79775238D01*
X133615715Y-79870476D01*
X133663334Y-80060952D01*
X133663334Y-80203810D01*
X133615715Y-80394286D01*
X133568096Y-80489524D01*
X133472858Y-80584762D01*
X133330000Y-80632381D01*
X133091905Y-80632381D01*
X134615715Y-80632381D02*
X134044286Y-80632381D01*
X134330000Y-80632381D02*
X134330000Y-79632381D01*
X134234762Y-79775238D01*
X134139524Y-79870476D01*
X134044286Y-79918095D01*
X132518572Y-84012381D02*
X132042381Y-84012381D01*
X132042381Y-83012381D01*
X132851905Y-83488571D02*
X133185239Y-83488571D01*
X133328096Y-84012381D02*
X132851905Y-84012381D01*
X132851905Y-83012381D01*
X133328096Y-83012381D01*
X133756667Y-84012381D02*
X133756667Y-83012381D01*
X133994762Y-83012381D01*
X134137620Y-83060000D01*
X134232858Y-83155238D01*
X134280477Y-83250476D01*
X134328096Y-83440952D01*
X134328096Y-83583810D01*
X134280477Y-83774286D01*
X134232858Y-83869524D01*
X134137620Y-83964762D01*
X133994762Y-84012381D01*
X133756667Y-84012381D01*
X134518572Y-84107619D02*
X135280477Y-84107619D01*
X135709048Y-83012381D02*
X135899525Y-83012381D01*
X135994763Y-83060000D01*
X136090001Y-83155238D01*
X136137620Y-83345714D01*
X136137620Y-83679048D01*
X136090001Y-83869524D01*
X135994763Y-83964762D01*
X135899525Y-84012381D01*
X135709048Y-84012381D01*
X135613810Y-83964762D01*
X135518572Y-83869524D01*
X135470953Y-83679048D01*
X135470953Y-83345714D01*
X135518572Y-83155238D01*
X135613810Y-83060000D01*
X135709048Y-83012381D01*
X136566191Y-84012381D02*
X136566191Y-83012381D01*
X137137620Y-84012381D01*
X137137620Y-83012381D01*
X149101905Y-75842381D02*
X149101905Y-74842381D01*
X149340000Y-74842381D01*
X149482858Y-74890000D01*
X149578096Y-74985238D01*
X149625715Y-75080476D01*
X149673334Y-75270952D01*
X149673334Y-75413810D01*
X149625715Y-75604286D01*
X149578096Y-75699524D01*
X149482858Y-75794762D01*
X149340000Y-75842381D01*
X149101905Y-75842381D01*
X150054286Y-74937619D02*
X150101905Y-74890000D01*
X150197143Y-74842381D01*
X150435239Y-74842381D01*
X150530477Y-74890000D01*
X150578096Y-74937619D01*
X150625715Y-75032857D01*
X150625715Y-75128095D01*
X150578096Y-75270952D01*
X150006667Y-75842381D01*
X150625715Y-75842381D01*
X136702381Y-78842857D02*
X136226190Y-79176191D01*
X136702381Y-79414286D02*
X135702381Y-79414286D01*
X135702381Y-79033333D01*
X135750000Y-78938095D01*
X135797619Y-78890476D01*
X135892857Y-78842857D01*
X136035714Y-78842857D01*
X136130952Y-78890476D01*
X136178571Y-78938095D01*
X136226190Y-79033333D01*
X136226190Y-79414286D01*
X136702381Y-77890476D02*
X136702381Y-78461905D01*
X136702381Y-78176191D02*
X135702381Y-78176191D01*
X135845238Y-78271429D01*
X135940476Y-78366667D01*
X135988095Y-78461905D01*
X135702381Y-77557143D02*
X135702381Y-76890476D01*
X136702381Y-77319048D01*
X152262181Y-96878066D02*
X151606122Y-96123357D01*
X152621566Y-96565658D02*
X151965507Y-95810948D01*
X153052829Y-96190766D01*
X152396770Y-95436057D01*
X153807539Y-95534707D02*
X153376276Y-95909599D01*
X153591907Y-95722153D02*
X152935848Y-94967444D01*
X152957693Y-95137741D01*
X152948298Y-95272100D01*
X152907662Y-95370520D01*
X144692381Y-92070000D02*
X143692381Y-92070000D01*
X144692381Y-91593810D02*
X143692381Y-91593810D01*
X144692381Y-91022381D01*
X143692381Y-91022381D01*
X143692381Y-90641429D02*
X143692381Y-90022381D01*
X144073333Y-90355715D01*
X144073333Y-90212857D01*
X144120952Y-90117619D01*
X144168571Y-90070000D01*
X144263810Y-90022381D01*
X144501905Y-90022381D01*
X144597143Y-90070000D01*
X144644762Y-90117619D01*
X144692381Y-90212857D01*
X144692381Y-90498572D01*
X144644762Y-90593810D01*
X144597143Y-90641429D01*
X155622381Y-91710000D02*
X154622381Y-91710000D01*
X155622381Y-91233810D02*
X154622381Y-91233810D01*
X155622381Y-90662381D01*
X154622381Y-90662381D01*
X154955714Y-89757619D02*
X155622381Y-89757619D01*
X154574762Y-89995715D02*
X155289048Y-90233810D01*
X155289048Y-89614762D01*
X146419862Y-87499835D02*
X146413992Y-87566922D01*
X146335166Y-87695227D01*
X146262210Y-87756445D01*
X146122165Y-87811794D01*
X145987991Y-87800055D01*
X145890295Y-87757707D01*
X145731381Y-87642403D01*
X145639554Y-87532968D01*
X145553596Y-87356446D01*
X145528857Y-87252880D01*
X145540595Y-87118706D01*
X145619422Y-86990400D01*
X145692379Y-86929182D01*
X145832422Y-86873834D01*
X145899510Y-86879703D01*
X146312509Y-86408831D02*
X146458423Y-86286395D01*
X146561989Y-86261655D01*
X146696163Y-86273394D01*
X146855077Y-86388698D01*
X147069340Y-86644047D01*
X147155297Y-86820569D01*
X147143558Y-86954743D01*
X147101211Y-87052439D01*
X146955297Y-87174875D01*
X146851731Y-87199615D01*
X146717557Y-87187876D01*
X146558643Y-87072572D01*
X146344380Y-86817223D01*
X146258423Y-86640701D01*
X146270162Y-86506527D01*
X146312509Y-86408831D01*
X147611907Y-86623915D02*
X146969119Y-85857870D01*
X147683602Y-86190782D01*
X147479815Y-85429345D01*
X148122603Y-86195389D01*
X148888647Y-85552602D02*
X148450907Y-85919909D01*
X148669777Y-85736256D02*
X148026989Y-84970211D01*
X148045860Y-85140864D01*
X148034121Y-85275038D01*
X147991773Y-85372734D01*
X151624430Y-85412184D02*
X151557343Y-85418054D01*
X151417299Y-85362705D01*
X151344343Y-85301487D01*
X151265516Y-85173182D01*
X151253778Y-85039007D01*
X151278517Y-84935442D01*
X151364474Y-84758920D01*
X151456302Y-84649484D01*
X151615216Y-84534180D01*
X151712912Y-84491832D01*
X151847086Y-84480094D01*
X151987131Y-84535443D01*
X152060087Y-84596661D01*
X152138913Y-84724966D01*
X152144782Y-84792053D01*
X152680218Y-85117012D02*
X152826132Y-85239448D01*
X152868479Y-85337144D01*
X152880218Y-85471319D01*
X152794261Y-85647841D01*
X152579998Y-85903189D01*
X152421084Y-86018493D01*
X152286909Y-86030232D01*
X152183344Y-86005493D01*
X152037430Y-85883056D01*
X151995082Y-85785360D01*
X151983344Y-85651186D01*
X152069301Y-85474664D01*
X152283564Y-85219315D01*
X152442478Y-85104011D01*
X152576652Y-85092272D01*
X152680218Y-85117012D01*
X152694040Y-86434017D02*
X153336827Y-85667973D01*
X153133042Y-86429411D01*
X153847524Y-86096498D01*
X153204736Y-86862543D01*
X154114610Y-86444935D02*
X154181698Y-86439065D01*
X154285263Y-86463805D01*
X154467655Y-86616850D01*
X154510003Y-86714546D01*
X154515872Y-86781633D01*
X154491133Y-86885199D01*
X154429915Y-86958155D01*
X154301610Y-87036981D01*
X153496562Y-87107414D01*
X153970781Y-87505330D01*
X133743334Y-109577143D02*
X133695715Y-109624762D01*
X133552858Y-109672381D01*
X133457620Y-109672381D01*
X133314762Y-109624762D01*
X133219524Y-109529524D01*
X133171905Y-109434286D01*
X133124286Y-109243810D01*
X133124286Y-109100952D01*
X133171905Y-108910476D01*
X133219524Y-108815238D01*
X133314762Y-108720000D01*
X133457620Y-108672381D01*
X133552858Y-108672381D01*
X133695715Y-108720000D01*
X133743334Y-108767619D01*
X134600477Y-109005714D02*
X134600477Y-109672381D01*
X134362381Y-108624762D02*
X134124286Y-109339048D01*
X134743334Y-109339048D01*
X130360182Y-75143691D02*
X130799940Y-75706556D01*
X130850367Y-75848446D01*
X130833953Y-75982129D01*
X130750697Y-76107605D01*
X130675649Y-76166239D01*
X130756535Y-74954885D02*
X130764742Y-74888043D01*
X130810473Y-74791884D01*
X130998096Y-74645298D01*
X131102461Y-74624188D01*
X131169303Y-74632395D01*
X131265462Y-74678126D01*
X131324096Y-74753175D01*
X131374523Y-74895065D01*
X131276038Y-75697164D01*
X131763854Y-75316040D01*
M02*
