G04 #@! TF.FileFunction,Soldermask,Top*
%FSLAX46Y46*%
G04 Gerber Fmt 4.6, Leading zero omitted, Abs format (unit mm)*
G04 Created by KiCad (PCBNEW 4.0.7) date 01/22/18 19:21:18*
%MOMM*%
%LPD*%
G01*
G04 APERTURE LIST*
%ADD10C,0.100000*%
%ADD11R,2.000000X2.000000*%
%ADD12C,1.670000*%
%ADD13C,3.850000*%
%ADD14C,1.920000*%
%ADD15R,2.381200X0.958800*%
%ADD16R,2.100000X1.200000*%
%ADD17O,1.910000X3.410000*%
%ADD18R,2.100000X2.100000*%
%ADD19O,2.100000X2.100000*%
%ADD20R,1.650000X1.900000*%
%ADD21R,1.900000X1.700000*%
%ADD22R,1.700000X1.900000*%
%ADD23R,2.400000X5.400000*%
%ADD24R,1.900000X1.650000*%
%ADD25C,2.100000*%
G04 APERTURE END LIST*
D10*
G36*
X160165433Y-105912100D02*
X158879858Y-104380011D01*
X160411947Y-103094436D01*
X161697522Y-104626525D01*
X160165433Y-105912100D01*
X160165433Y-105912100D01*
G37*
G36*
X169268053Y-104905564D02*
X167982478Y-103373475D01*
X169514567Y-102087900D01*
X170800142Y-103619989D01*
X169268053Y-104905564D01*
X169268053Y-104905564D01*
G37*
G36*
X161798114Y-107857853D02*
X160512539Y-106325764D01*
X162044628Y-105040189D01*
X163330203Y-106572278D01*
X161798114Y-107857853D01*
X161798114Y-107857853D01*
G37*
G36*
X167635372Y-102959811D02*
X166349797Y-101427722D01*
X167881886Y-100142147D01*
X169167461Y-101674236D01*
X167635372Y-102959811D01*
X167635372Y-102959811D01*
G37*
G36*
X163430794Y-109803606D02*
X162145219Y-108271517D01*
X163677308Y-106985942D01*
X164962883Y-108518031D01*
X163430794Y-109803606D01*
X163430794Y-109803606D01*
G37*
G36*
X166002692Y-101014058D02*
X164717117Y-99481969D01*
X166249206Y-98196394D01*
X167534781Y-99728483D01*
X166002692Y-101014058D01*
X166002692Y-101014058D01*
G37*
G36*
X148590002Y-98685674D02*
X147213419Y-100651639D01*
X142789998Y-97554326D01*
X144166581Y-95588361D01*
X148590002Y-98685674D01*
X148590002Y-98685674D01*
G37*
D11*
X165870000Y-95550000D03*
X170950000Y-87930000D03*
X168410000Y-95550000D03*
X168410000Y-87930000D03*
X170950000Y-95550000D03*
X165870000Y-87930000D03*
D12*
X146410000Y-113070000D03*
D13*
X138690000Y-109620000D03*
X150830000Y-109620000D03*
D14*
X157120000Y-109620000D03*
D15*
X130300000Y-103360000D03*
X135500000Y-103360000D03*
X130300000Y-102090000D03*
X130300000Y-104630000D03*
X130300000Y-105900000D03*
X135500000Y-102090000D03*
X135500000Y-104630000D03*
X135500000Y-105900000D03*
D11*
X159860000Y-75900000D03*
X152240000Y-70820000D03*
X159860000Y-73360000D03*
X152240000Y-73360000D03*
X159860000Y-70820000D03*
X152240000Y-75900000D03*
D16*
X129010000Y-97790000D03*
X129010000Y-94390000D03*
X129100000Y-90450000D03*
X129100000Y-87050000D03*
D10*
G36*
X168502728Y-84335576D02*
X166864424Y-85482728D01*
X165717272Y-83844424D01*
X167355576Y-82697272D01*
X168502728Y-84335576D01*
X168502728Y-84335576D01*
G37*
G36*
X168293368Y-75179870D02*
X166655064Y-76327022D01*
X165507912Y-74688718D01*
X167146216Y-73541566D01*
X168293368Y-75179870D01*
X168293368Y-75179870D01*
G37*
G36*
X170583374Y-82878692D02*
X168945070Y-84025844D01*
X167797918Y-82387540D01*
X169436222Y-81240388D01*
X170583374Y-82878692D01*
X170583374Y-82878692D01*
G37*
G36*
X166212722Y-76636754D02*
X164574418Y-77783906D01*
X163427266Y-76145602D01*
X165065570Y-74998450D01*
X166212722Y-76636754D01*
X166212722Y-76636754D01*
G37*
G36*
X172664020Y-81421808D02*
X171025716Y-82568960D01*
X169878564Y-80930656D01*
X171516868Y-79783504D01*
X172664020Y-81421808D01*
X172664020Y-81421808D01*
G37*
G36*
X164132076Y-78093638D02*
X162493772Y-79240790D01*
X161346620Y-77602486D01*
X162984924Y-76455334D01*
X164132076Y-78093638D01*
X164132076Y-78093638D01*
G37*
D17*
X144740000Y-71050000D03*
X147280000Y-71050000D03*
D18*
X132900000Y-87270000D03*
D19*
X135440000Y-87270000D03*
X132900000Y-89810000D03*
X135440000Y-89810000D03*
X132900000Y-92350000D03*
X135440000Y-92350000D03*
X132900000Y-94890000D03*
X135440000Y-94890000D03*
X132900000Y-97430000D03*
X135440000Y-97430000D03*
X132900000Y-99970000D03*
X135440000Y-99970000D03*
D20*
X143110000Y-79290000D03*
X143110000Y-76790000D03*
X140330000Y-79380000D03*
X140330000Y-76880000D03*
D21*
X133950000Y-81810000D03*
X136650000Y-81810000D03*
D22*
X149790000Y-73440000D03*
X149790000Y-70740000D03*
X137950000Y-79550000D03*
X137950000Y-76850000D03*
D10*
G36*
X153139555Y-100297011D02*
X151565013Y-98485708D01*
X155640445Y-94942989D01*
X157214987Y-96754292D01*
X153139555Y-100297011D01*
X153139555Y-100297011D01*
G37*
D23*
X141740000Y-91070000D03*
X157360000Y-90930000D03*
D10*
G36*
X144253025Y-87154780D02*
X142710335Y-85316273D01*
X146846975Y-81845220D01*
X148389665Y-83683727D01*
X144253025Y-87154780D01*
X144253025Y-87154780D01*
G37*
G36*
X157059665Y-85226273D02*
X155516975Y-87064780D01*
X151380335Y-83593727D01*
X152923025Y-81755220D01*
X157059665Y-85226273D01*
X157059665Y-85226273D01*
G37*
D24*
X132770000Y-107590000D03*
X135270000Y-107590000D03*
D10*
G36*
X132699147Y-78399891D02*
X131044324Y-79692780D01*
X129751435Y-78037957D01*
X131406258Y-76745068D01*
X132699147Y-78399891D01*
X132699147Y-78399891D01*
G37*
D25*
X133226838Y-76655144D02*
X133226838Y-76655144D01*
X135228386Y-75091364D02*
X135228386Y-75091364D01*
X137229933Y-73527584D02*
X137229933Y-73527584D01*
X139231480Y-71963803D02*
X139231480Y-71963803D01*
X141233028Y-70400023D02*
X141233028Y-70400023D01*
M02*
