G04 #@! TF.FileFunction,Paste,Top*
%FSLAX46Y46*%
G04 Gerber Fmt 4.6, Leading zero omitted, Abs format (unit mm)*
G04 Created by KiCad (PCBNEW 4.0.7) date 01/22/18 18:56:20*
%MOMM*%
%LPD*%
G01*
G04 APERTURE LIST*
%ADD10C,0.100000*%
%ADD11R,1.600000X1.600000*%
%ADD12R,1.981200X0.558800*%
%ADD13R,1.700000X0.800000*%
%ADD14R,1.250000X1.500000*%
%ADD15R,1.500000X1.300000*%
%ADD16R,1.300000X1.500000*%
%ADD17R,1.500000X1.250000*%
G04 APERTURE END LIST*
D10*
G36*
X160190085Y-105630334D02*
X159161624Y-104404663D01*
X160387295Y-103376202D01*
X161415756Y-104601873D01*
X160190085Y-105630334D01*
X160190085Y-105630334D01*
G37*
G36*
X169292705Y-104623798D02*
X168264244Y-103398127D01*
X169489915Y-102369666D01*
X170518376Y-103595337D01*
X169292705Y-104623798D01*
X169292705Y-104623798D01*
G37*
G36*
X161822766Y-107576087D02*
X160794305Y-106350416D01*
X162019976Y-105321955D01*
X163048437Y-106547626D01*
X161822766Y-107576087D01*
X161822766Y-107576087D01*
G37*
G36*
X167660024Y-102678045D02*
X166631563Y-101452374D01*
X167857234Y-100423913D01*
X168885695Y-101649584D01*
X167660024Y-102678045D01*
X167660024Y-102678045D01*
G37*
G36*
X163455446Y-109521840D02*
X162426985Y-108296169D01*
X163652656Y-107267708D01*
X164681117Y-108493379D01*
X163455446Y-109521840D01*
X163455446Y-109521840D01*
G37*
G36*
X166027344Y-100732292D02*
X164998883Y-99506621D01*
X166224554Y-98478160D01*
X167253015Y-99703831D01*
X166027344Y-100732292D01*
X166027344Y-100732292D01*
G37*
D11*
X165870000Y-95550000D03*
X170950000Y-87930000D03*
X168410000Y-95550000D03*
X168410000Y-87930000D03*
X170950000Y-95550000D03*
X165870000Y-87930000D03*
D12*
X130300000Y-103360000D03*
X135500000Y-103360000D03*
X130300000Y-102090000D03*
X130300000Y-104630000D03*
X130300000Y-105900000D03*
X135500000Y-102090000D03*
X135500000Y-104630000D03*
X135500000Y-105900000D03*
D11*
X159860000Y-75900000D03*
X152240000Y-70820000D03*
X159860000Y-73360000D03*
X152240000Y-73360000D03*
X159860000Y-70820000D03*
X152240000Y-75900000D03*
D13*
X129010000Y-97790000D03*
X129010000Y-94390000D03*
X129100000Y-90450000D03*
X129100000Y-87050000D03*
D10*
G36*
X168224183Y-84286460D02*
X166913540Y-85204183D01*
X165995817Y-83893540D01*
X167306460Y-82975817D01*
X168224183Y-84286460D01*
X168224183Y-84286460D01*
G37*
G36*
X168014823Y-75130754D02*
X166704180Y-76048477D01*
X165786457Y-74737834D01*
X167097100Y-73820111D01*
X168014823Y-75130754D01*
X168014823Y-75130754D01*
G37*
G36*
X170304829Y-82829576D02*
X168994186Y-83747299D01*
X168076463Y-82436656D01*
X169387106Y-81518933D01*
X170304829Y-82829576D01*
X170304829Y-82829576D01*
G37*
G36*
X165934177Y-76587638D02*
X164623534Y-77505361D01*
X163705811Y-76194718D01*
X165016454Y-75276995D01*
X165934177Y-76587638D01*
X165934177Y-76587638D01*
G37*
G36*
X172385475Y-81372692D02*
X171074832Y-82290415D01*
X170157109Y-80979772D01*
X171467752Y-80062049D01*
X172385475Y-81372692D01*
X172385475Y-81372692D01*
G37*
G36*
X163853531Y-78044522D02*
X162542888Y-78962245D01*
X161625165Y-77651602D01*
X162935808Y-76733879D01*
X163853531Y-78044522D01*
X163853531Y-78044522D01*
G37*
D14*
X143110000Y-79290000D03*
X143110000Y-76790000D03*
X140330000Y-79380000D03*
X140330000Y-76880000D03*
D15*
X133950000Y-81810000D03*
X136650000Y-81810000D03*
D16*
X149790000Y-73440000D03*
X149790000Y-70740000D03*
X137950000Y-79550000D03*
X137950000Y-76850000D03*
D17*
X132770000Y-107590000D03*
X135270000Y-107590000D03*
M02*
