G04 #@! TF.FileFunction,Copper,L1,Top,Signal*
%FSLAX46Y46*%
G04 Gerber Fmt 4.6, Leading zero omitted, Abs format (unit mm)*
G04 Created by KiCad (PCBNEW 4.0.7) date 01/22/18 18:56:20*
%MOMM*%
%LPD*%
G01*
G04 APERTURE LIST*
%ADD10C,0.100000*%
%ADD11R,1.600000X1.600000*%
%ADD12C,1.270000*%
%ADD13C,3.450000*%
%ADD14C,1.520000*%
%ADD15R,1.981200X0.558800*%
%ADD16R,1.700000X0.800000*%
%ADD17O,1.510000X3.010000*%
%ADD18R,1.700000X1.700000*%
%ADD19O,1.700000X1.700000*%
%ADD20R,1.250000X1.500000*%
%ADD21R,1.500000X1.300000*%
%ADD22R,1.300000X1.500000*%
%ADD23R,2.000000X5.000000*%
%ADD24R,1.500000X1.250000*%
%ADD25C,1.700000*%
%ADD26C,1.000000*%
%ADD27C,1.200000*%
%ADD28C,0.300000*%
%ADD29C,0.500000*%
%ADD30C,0.254000*%
G04 APERTURE END LIST*
D10*
G36*
X148311457Y-98734789D02*
X147164304Y-100373093D01*
X143068543Y-97505211D01*
X144215696Y-95866907D01*
X148311457Y-98734789D01*
X148311457Y-98734789D01*
G37*
G36*
X160190085Y-105630334D02*
X159161624Y-104404663D01*
X160387295Y-103376202D01*
X161415756Y-104601873D01*
X160190085Y-105630334D01*
X160190085Y-105630334D01*
G37*
G36*
X169292705Y-104623798D02*
X168264244Y-103398127D01*
X169489915Y-102369666D01*
X170518376Y-103595337D01*
X169292705Y-104623798D01*
X169292705Y-104623798D01*
G37*
G36*
X161822766Y-107576087D02*
X160794305Y-106350416D01*
X162019976Y-105321955D01*
X163048437Y-106547626D01*
X161822766Y-107576087D01*
X161822766Y-107576087D01*
G37*
G36*
X167660024Y-102678045D02*
X166631563Y-101452374D01*
X167857234Y-100423913D01*
X168885695Y-101649584D01*
X167660024Y-102678045D01*
X167660024Y-102678045D01*
G37*
G36*
X163455446Y-109521840D02*
X162426985Y-108296169D01*
X163652656Y-107267708D01*
X164681117Y-108493379D01*
X163455446Y-109521840D01*
X163455446Y-109521840D01*
G37*
G36*
X166027344Y-100732292D02*
X164998883Y-99506621D01*
X166224554Y-98478160D01*
X167253015Y-99703831D01*
X166027344Y-100732292D01*
X166027344Y-100732292D01*
G37*
D11*
X165870000Y-95550000D03*
X170950000Y-87930000D03*
X168410000Y-95550000D03*
X168410000Y-87930000D03*
X170950000Y-95550000D03*
X165870000Y-87930000D03*
D12*
X146410000Y-113070000D03*
D13*
X138690000Y-109620000D03*
X150830000Y-109620000D03*
D14*
X157120000Y-109620000D03*
D15*
X130300000Y-103360000D03*
X135500000Y-103360000D03*
X130300000Y-102090000D03*
X130300000Y-104630000D03*
X130300000Y-105900000D03*
X135500000Y-102090000D03*
X135500000Y-104630000D03*
X135500000Y-105900000D03*
D11*
X159860000Y-75900000D03*
X152240000Y-70820000D03*
X159860000Y-73360000D03*
X152240000Y-73360000D03*
X159860000Y-70820000D03*
X152240000Y-75900000D03*
D16*
X129010000Y-97790000D03*
X129010000Y-94390000D03*
X129100000Y-90450000D03*
X129100000Y-87050000D03*
D10*
G36*
X168224183Y-84286460D02*
X166913540Y-85204183D01*
X165995817Y-83893540D01*
X167306460Y-82975817D01*
X168224183Y-84286460D01*
X168224183Y-84286460D01*
G37*
G36*
X168014823Y-75130754D02*
X166704180Y-76048477D01*
X165786457Y-74737834D01*
X167097100Y-73820111D01*
X168014823Y-75130754D01*
X168014823Y-75130754D01*
G37*
G36*
X170304829Y-82829576D02*
X168994186Y-83747299D01*
X168076463Y-82436656D01*
X169387106Y-81518933D01*
X170304829Y-82829576D01*
X170304829Y-82829576D01*
G37*
G36*
X165934177Y-76587638D02*
X164623534Y-77505361D01*
X163705811Y-76194718D01*
X165016454Y-75276995D01*
X165934177Y-76587638D01*
X165934177Y-76587638D01*
G37*
G36*
X172385475Y-81372692D02*
X171074832Y-82290415D01*
X170157109Y-80979772D01*
X171467752Y-80062049D01*
X172385475Y-81372692D01*
X172385475Y-81372692D01*
G37*
G36*
X163853531Y-78044522D02*
X162542888Y-78962245D01*
X161625165Y-77651602D01*
X162935808Y-76733879D01*
X163853531Y-78044522D01*
X163853531Y-78044522D01*
G37*
D17*
X144740000Y-71050000D03*
X147280000Y-71050000D03*
D18*
X132900000Y-87270000D03*
D19*
X135440000Y-87270000D03*
X132900000Y-89810000D03*
X135440000Y-89810000D03*
X132900000Y-92350000D03*
X135440000Y-92350000D03*
X132900000Y-94890000D03*
X135440000Y-94890000D03*
X132900000Y-97430000D03*
X135440000Y-97430000D03*
X132900000Y-99970000D03*
X135440000Y-99970000D03*
D20*
X143110000Y-79290000D03*
X143110000Y-76790000D03*
X140330000Y-79380000D03*
X140330000Y-76880000D03*
D21*
X133950000Y-81810000D03*
X136650000Y-81810000D03*
D22*
X149790000Y-73440000D03*
X149790000Y-70740000D03*
X137950000Y-79550000D03*
X137950000Y-76850000D03*
D10*
G36*
X153159285Y-100014857D02*
X151847167Y-98505438D01*
X155620715Y-95225143D01*
X156932833Y-96734562D01*
X153159285Y-100014857D01*
X153159285Y-100014857D01*
G37*
D23*
X141740000Y-91070000D03*
X157360000Y-90930000D03*
D10*
G36*
X144277677Y-86873013D02*
X142992101Y-85340925D01*
X146822323Y-82126987D01*
X148107899Y-83659075D01*
X144277677Y-86873013D01*
X144277677Y-86873013D01*
G37*
G36*
X156777899Y-85250925D02*
X155492323Y-86783013D01*
X151662101Y-83569075D01*
X152947677Y-82036987D01*
X156777899Y-85250925D01*
X156777899Y-85250925D01*
G37*
D24*
X132770000Y-107590000D03*
X135270000Y-107590000D03*
D10*
G36*
X132418412Y-78365421D02*
X131078794Y-79412045D01*
X130032170Y-78072427D01*
X131371788Y-77025803D01*
X132418412Y-78365421D01*
X132418412Y-78365421D01*
G37*
D25*
X133226838Y-76655144D02*
X133226838Y-76655144D01*
X135228386Y-75091364D02*
X135228386Y-75091364D01*
X137229933Y-73527584D02*
X137229933Y-73527584D01*
X139231480Y-71963803D02*
X139231480Y-71963803D01*
X141233028Y-70400023D02*
X141233028Y-70400023D01*
D26*
X141750000Y-113070000D03*
D27*
X132030000Y-82900000D03*
X130970000Y-98860000D03*
X130970000Y-98860000D03*
X154860000Y-79090000D03*
X154970000Y-75700000D03*
X148820000Y-77220000D03*
X138010000Y-105590000D03*
D26*
X145880000Y-78520000D03*
D27*
X155100000Y-81670000D03*
X145890000Y-76040000D03*
X139110000Y-81300000D03*
X157810000Y-87190000D03*
X163350000Y-87180000D03*
X150410000Y-83050000D03*
X154850000Y-72420000D03*
X154880000Y-69690000D03*
X165850000Y-72390000D03*
X171310000Y-84940000D03*
X171360000Y-98360000D03*
X127760000Y-84630000D03*
X126950000Y-94560000D03*
X165330000Y-106100000D03*
X161330000Y-83920000D03*
X164240000Y-72500000D03*
X170050000Y-92790000D03*
X165200000Y-78600000D03*
X169330000Y-79350000D03*
X168110000Y-97490000D03*
X149790000Y-68510000D03*
D26*
X156670000Y-82630000D03*
X155885000Y-102190000D03*
X146680000Y-101890000D03*
X163610000Y-90790000D03*
X141570000Y-103240000D03*
X169610000Y-100490000D03*
X140260000Y-101780000D03*
X161230000Y-88270000D03*
X138980000Y-100500000D03*
X159210000Y-85490000D03*
X160230000Y-93590000D03*
X146710000Y-108090000D03*
X162310000Y-89690000D03*
X163960001Y-94730000D03*
D28*
X138820000Y-104640000D02*
X141750000Y-107570000D01*
X138820000Y-104640000D02*
X138810000Y-104630000D01*
X138810000Y-104630000D02*
X135500000Y-104630000D01*
X141750000Y-107570000D02*
X141750000Y-113070000D01*
D29*
X132030000Y-81360000D02*
X132030000Y-82900000D01*
X132500000Y-80890000D02*
X132030000Y-81360000D01*
X132510000Y-80890000D02*
X132500000Y-80890000D01*
X129100000Y-87050000D02*
X132680000Y-87050000D01*
X132680000Y-87050000D02*
X132900000Y-87270000D01*
X126885000Y-87815000D02*
X127650000Y-87050000D01*
X127650000Y-87050000D02*
X129100000Y-87050000D01*
X126885000Y-91715000D02*
X126885000Y-88370000D01*
X126885000Y-88370000D02*
X126885000Y-87815000D01*
X129010000Y-94390000D02*
X129010000Y-93310000D01*
X129010000Y-93310000D02*
X128340000Y-92640000D01*
X128340000Y-92640000D02*
X127810000Y-92640000D01*
X127810000Y-92640000D02*
X126885000Y-91715000D01*
X130970000Y-97320000D02*
X130970000Y-98860000D01*
X129040000Y-95390000D02*
X130970000Y-97320000D01*
X129010000Y-95390000D02*
X129040000Y-95390000D01*
X146050000Y-68340000D02*
X142730000Y-68340000D01*
X141654516Y-70465127D02*
X141654516Y-69263046D01*
X142577562Y-68340000D02*
X142730000Y-68340000D01*
X141654516Y-69263046D02*
X142577562Y-68340000D01*
X141110000Y-73270000D02*
X141654516Y-72725484D01*
X141654516Y-72725484D02*
X141654516Y-70465127D01*
X141110000Y-73290000D02*
X141110000Y-73270000D01*
X152870000Y-79070000D02*
X153630000Y-79070000D01*
X150670000Y-79070000D02*
X152870000Y-79070000D01*
X152870000Y-79070000D02*
X154840000Y-79070000D01*
X154840000Y-79070000D02*
X154860000Y-79090000D01*
X148820000Y-77220000D02*
X150670000Y-79070000D01*
X148820000Y-76150000D02*
X147280000Y-74610000D01*
X147280000Y-74610000D02*
X147280000Y-71050000D01*
X148820000Y-77220000D02*
X148820000Y-76150000D01*
X146740000Y-68340000D02*
X146050000Y-68340000D01*
X146575000Y-68340000D02*
X146050000Y-68340000D01*
X147280000Y-71050000D02*
X147280000Y-69045000D01*
X147280000Y-69045000D02*
X146575000Y-68340000D01*
X135270000Y-107590000D02*
X135270000Y-105845000D01*
X135270000Y-105845000D02*
X135530000Y-105585000D01*
X132510000Y-80890000D02*
X136610000Y-76790000D01*
X136610000Y-76790000D02*
X138110000Y-76790000D01*
X138010000Y-105590000D02*
X135535000Y-105590000D01*
X135535000Y-105590000D02*
X135530000Y-105585000D01*
X129010000Y-94390000D02*
X129010000Y-95390000D01*
X135430000Y-105685000D02*
X135530000Y-105585000D01*
X135440000Y-105675000D02*
X135530000Y-105585000D01*
X141110000Y-73290000D02*
X140610000Y-73790000D01*
X140610000Y-73790000D02*
X140610000Y-76790000D01*
X138110000Y-76790000D02*
X140610000Y-76790000D01*
X143110000Y-76790000D02*
X140610000Y-76790000D01*
D28*
X143110000Y-79290000D02*
X145110000Y-79290000D01*
X145110000Y-79290000D02*
X145880000Y-78520000D01*
X144390000Y-79290000D02*
X143110000Y-79290000D01*
D29*
X145890000Y-75191472D02*
X145420000Y-74721472D01*
X145420000Y-74721472D02*
X145250000Y-74551472D01*
X144740000Y-71050000D02*
X144740000Y-74041472D01*
X144740000Y-74041472D02*
X145420000Y-74721472D01*
X145890000Y-76040000D02*
X145890000Y-75191472D01*
X155100000Y-81670000D02*
X154120000Y-80690000D01*
X154120000Y-80690000D02*
X153910000Y-80690000D01*
X147370000Y-76510000D02*
X146900000Y-76040000D01*
X146900000Y-76040000D02*
X145890000Y-76040000D01*
X147370000Y-79500000D02*
X147370000Y-76510000D01*
X148450000Y-80580000D02*
X147370000Y-79500000D01*
X153910000Y-80690000D02*
X148450000Y-80690000D01*
X148450000Y-80690000D02*
X148450000Y-80580000D01*
X157810000Y-87190000D02*
X156961472Y-87190000D01*
X156961472Y-87190000D02*
X156414469Y-87737003D01*
X156414469Y-87737003D02*
X153747003Y-87737003D01*
X153747003Y-87737003D02*
X150410000Y-84400000D01*
X150410000Y-84400000D02*
X150410000Y-83050000D01*
X134950000Y-84630000D02*
X134730000Y-84630000D01*
X135440000Y-85130000D02*
X135440000Y-85120000D01*
X135440000Y-85120000D02*
X134950000Y-84630000D01*
X135460000Y-85130000D02*
X135960000Y-84630000D01*
X135440000Y-87270000D02*
X135440000Y-85130000D01*
X135440000Y-85130000D02*
X135460000Y-85130000D01*
X136650000Y-83830000D02*
X136650000Y-83940000D01*
X136650000Y-83940000D02*
X135960000Y-84630000D01*
X140330000Y-79380000D02*
X140330000Y-80080000D01*
X140330000Y-80080000D02*
X139110000Y-81300000D01*
X137930000Y-81810000D02*
X138600000Y-81810000D01*
X138600000Y-81810000D02*
X139110000Y-81300000D01*
X136650000Y-81810000D02*
X137930000Y-81810000D01*
X136650000Y-83830000D02*
X136650000Y-81810000D01*
X126950000Y-101800000D02*
X127330000Y-102180000D01*
X127330000Y-102180000D02*
X128195000Y-103045000D01*
X128789400Y-103340000D02*
X128490000Y-103340000D01*
X128490000Y-103340000D02*
X127330000Y-102180000D01*
X130300000Y-103360000D02*
X128809400Y-103360000D01*
X128809400Y-103360000D02*
X128789400Y-103340000D01*
X132770000Y-104320000D02*
X131810000Y-103360000D01*
X131810000Y-103360000D02*
X130300000Y-103360000D01*
X132770000Y-104580000D02*
X132770000Y-107590000D01*
X132770000Y-104580000D02*
X132770000Y-104320000D01*
X164710000Y-89920000D02*
X163350000Y-88560000D01*
X163350000Y-88560000D02*
X163350000Y-87180000D01*
X167720000Y-89920000D02*
X164710000Y-89920000D01*
X168410000Y-87930000D02*
X168410000Y-89230000D01*
X168410000Y-89230000D02*
X167720000Y-89920000D01*
X152240000Y-73360000D02*
X153910000Y-73360000D01*
X153910000Y-73360000D02*
X154850000Y-72420000D01*
X156670000Y-68890000D02*
X155680000Y-68890000D01*
X155680000Y-68890000D02*
X154880000Y-69690000D01*
X165850000Y-72390000D02*
X164250000Y-70790000D01*
X164250000Y-70790000D02*
X163810000Y-70790000D01*
X164819994Y-76391178D02*
X164174872Y-75746056D01*
X164174872Y-75746056D02*
X164174872Y-74065128D01*
X164174872Y-74065128D02*
X165850000Y-72390000D01*
X134730000Y-84630000D02*
X135960000Y-84630000D01*
X134730000Y-84630000D02*
X127760000Y-84630000D01*
X161910000Y-68890000D02*
X156670000Y-68890000D01*
X163810000Y-70790000D02*
X161910000Y-68890000D01*
X170320000Y-98390000D02*
X170910000Y-98390000D01*
X169210000Y-98390000D02*
X170320000Y-98390000D01*
X170320000Y-98390000D02*
X170350000Y-98360000D01*
X170350000Y-98360000D02*
X171360000Y-98360000D01*
X168410000Y-87840000D02*
X171310000Y-84940000D01*
X168410000Y-87930000D02*
X168410000Y-87840000D01*
X170910000Y-98390000D02*
X171010000Y-98290000D01*
X168610000Y-98990000D02*
X169210000Y-98390000D01*
X168610000Y-100190000D02*
X168610000Y-98990000D01*
X167967577Y-100832423D02*
X168610000Y-100190000D01*
X167268629Y-101470979D02*
X167907185Y-100832423D01*
X167907185Y-100832423D02*
X167967577Y-100832423D01*
X126950000Y-94560000D02*
X126950000Y-101800000D01*
X127760000Y-84630000D02*
X128608528Y-84630000D01*
X164570000Y-105340000D02*
X165330000Y-106100000D01*
X162569535Y-105810465D02*
X163040000Y-105340000D01*
X163040000Y-105340000D02*
X164570000Y-105340000D01*
X161921371Y-106449021D02*
X162559927Y-105810465D01*
X162559927Y-105810465D02*
X162569535Y-105810465D01*
X161330000Y-83920000D02*
X161330000Y-82470000D01*
X161330000Y-82470000D02*
X165200000Y-78600000D01*
X159860000Y-73360000D02*
X163380000Y-73360000D01*
X163380000Y-73360000D02*
X164240000Y-72500000D01*
X169480000Y-93380000D02*
X169790000Y-93070000D01*
X168410000Y-94450000D02*
X169480000Y-93380000D01*
X169480000Y-93380000D02*
X169480000Y-93360000D01*
X169480000Y-93360000D02*
X170050000Y-92790000D01*
X168410000Y-95550000D02*
X168410000Y-94450000D01*
X165200000Y-78600000D02*
X164600001Y-79199999D01*
X168150000Y-80500000D02*
X169300000Y-79350000D01*
X169300000Y-79350000D02*
X169330000Y-79350000D01*
X168150000Y-81570000D02*
X168150000Y-80500000D01*
X168545524Y-81965524D02*
X168150000Y-81570000D01*
X169190646Y-82633116D02*
X168545524Y-81987994D01*
X168545524Y-81987994D02*
X168545524Y-81965524D01*
X168110000Y-97490000D02*
X168110000Y-95850000D01*
X168110000Y-95850000D02*
X168410000Y-95550000D01*
X168210000Y-95750000D02*
X168410000Y-95550000D01*
D28*
X134860000Y-81840000D02*
X134860000Y-80140000D01*
X135510000Y-79490000D02*
X138110000Y-79490000D01*
X134860000Y-80140000D02*
X135510000Y-79490000D01*
D29*
X149790000Y-70740000D02*
X149790000Y-68510000D01*
D28*
X156670000Y-82630000D02*
X156670000Y-78430000D01*
X156670000Y-78430000D02*
X155840000Y-77600000D01*
X155840000Y-77600000D02*
X150790000Y-77600000D01*
X150790000Y-77600000D02*
X149790000Y-76600000D01*
X149790000Y-76600000D02*
X149790000Y-73440000D01*
X155775000Y-99155000D02*
X155530000Y-98910000D01*
X155530000Y-98910000D02*
X154190000Y-97570000D01*
X155885000Y-102190000D02*
X155885000Y-99265000D01*
X155885000Y-99265000D02*
X155530000Y-98910000D01*
X144440000Y-100357106D02*
X144440000Y-99700000D01*
X144440000Y-99700000D02*
X144440000Y-99200000D01*
X144440000Y-99200000D02*
X145470000Y-98170000D01*
X145972894Y-101890000D02*
X144440000Y-100357106D01*
X146680000Y-101890000D02*
X145972894Y-101890000D01*
X141570000Y-103240000D02*
X141570000Y-104250000D01*
X164480000Y-100950000D02*
X164480000Y-97038002D01*
X141570000Y-104250000D02*
X142110000Y-104790000D01*
X142110000Y-104790000D02*
X157002880Y-104790000D01*
X157002880Y-104790000D02*
X159910000Y-101882880D01*
X163547120Y-101882880D02*
X164480000Y-100950000D01*
X159910000Y-101882880D02*
X163547120Y-101882880D01*
X164480000Y-97038002D02*
X163110001Y-95668003D01*
X163110001Y-95668003D02*
X163110001Y-91289999D01*
X163110001Y-91289999D02*
X163610000Y-90790000D01*
X170950000Y-87930000D02*
X170950000Y-89950000D01*
X170950000Y-89950000D02*
X170110000Y-90790000D01*
X170110000Y-90790000D02*
X163610000Y-90790000D01*
X160140000Y-102430000D02*
X163410000Y-102430000D01*
X157910000Y-104590000D02*
X157980000Y-104590000D01*
X157980000Y-104590000D02*
X160140000Y-102430000D01*
X163410000Y-102430000D02*
X166090000Y-105110000D01*
X166090000Y-105110000D02*
X167778042Y-105110000D01*
X167778042Y-105110000D02*
X170010000Y-102878042D01*
X170010000Y-102878042D02*
X170010000Y-100890000D01*
X170010000Y-100890000D02*
X169610000Y-100490000D01*
X157910000Y-104590000D02*
X157020000Y-105480000D01*
X157020000Y-105480000D02*
X141300000Y-105480000D01*
X141300000Y-105480000D02*
X140260000Y-104440000D01*
X140260000Y-104440000D02*
X140260000Y-101780000D01*
X157210000Y-105290000D02*
X157910000Y-104590000D01*
X142940000Y-103760000D02*
X142970000Y-103760000D01*
X142970000Y-103760000D02*
X143350000Y-104140000D01*
X143350000Y-104140000D02*
X156752870Y-104140000D01*
X156752870Y-104140000D02*
X159510000Y-101382870D01*
X159510000Y-101382870D02*
X163257130Y-101382870D01*
X163257130Y-101382870D02*
X163979990Y-100660010D01*
X163979990Y-100660010D02*
X163979990Y-97245112D01*
X163979990Y-97245112D02*
X161230000Y-94495122D01*
X161230000Y-94495122D02*
X161230000Y-93660000D01*
X161230000Y-93660000D02*
X161230000Y-88270000D01*
X142940000Y-103760000D02*
X142670000Y-103490000D01*
X143120000Y-103940000D02*
X142940000Y-103760000D01*
X167710000Y-78400000D02*
X167710000Y-75743654D01*
X167710000Y-78400000D02*
X167710000Y-78946002D01*
X167710000Y-78946002D02*
X161230000Y-85426002D01*
X161230000Y-85426002D02*
X161230000Y-87562894D01*
X161230000Y-87562894D02*
X161230000Y-88270000D01*
X142670000Y-102410000D02*
X140760000Y-100500000D01*
X140760000Y-100500000D02*
X138980000Y-100500000D01*
X142670000Y-103490000D02*
X142670000Y-102410000D01*
X167710000Y-75743654D02*
X166900640Y-74934294D01*
X166900640Y-75480640D02*
X167010000Y-75590000D01*
X129080000Y-91740000D02*
X129690000Y-92350000D01*
X129690000Y-92350000D02*
X132900000Y-92350000D01*
X129080000Y-91170000D02*
X129080000Y-91740000D01*
X129100000Y-90450000D02*
X129100000Y-91150000D01*
X129100000Y-91150000D02*
X129080000Y-91170000D01*
X159320000Y-100700000D02*
X163050000Y-100700000D01*
X135440000Y-94890000D02*
X137720000Y-94890000D01*
X163050000Y-100700000D02*
X163479980Y-100270020D01*
X163479980Y-97549980D02*
X160580000Y-94650000D01*
X137720000Y-94890000D02*
X138400000Y-95570000D01*
X159960000Y-94650000D02*
X159210000Y-93900000D01*
X144350000Y-103540000D02*
X156480000Y-103540000D01*
X138400000Y-95570000D02*
X138410000Y-95570000D01*
X138410000Y-95570000D02*
X138410000Y-98600000D01*
X144008640Y-103218640D02*
X144028640Y-103218640D01*
X138410000Y-98600000D02*
X138850000Y-99040000D01*
X138850000Y-99040000D02*
X140690000Y-99040000D01*
X144028640Y-103218640D02*
X144350000Y-103540000D01*
X140690000Y-99040000D02*
X143540000Y-101890000D01*
X143540000Y-101890000D02*
X143540000Y-102750000D01*
X163479980Y-100270020D02*
X163479980Y-97549980D01*
X143540000Y-102750000D02*
X144008640Y-103218640D01*
X156480000Y-103540000D02*
X159320000Y-100700000D01*
X160580000Y-94650000D02*
X159960000Y-94650000D01*
X159210000Y-93900000D02*
X159210000Y-93500000D01*
X159210000Y-93500000D02*
X159210000Y-85490000D01*
X159210000Y-82890000D02*
X159210000Y-78350000D01*
X159210000Y-78350000D02*
X158070000Y-77210000D01*
X158070000Y-77210000D02*
X158070000Y-71550000D01*
X158070000Y-71550000D02*
X157350000Y-70830000D01*
X157350000Y-70830000D02*
X153350000Y-70830000D01*
X153350000Y-70830000D02*
X153340000Y-70820000D01*
X153340000Y-70820000D02*
X152240000Y-70820000D01*
X159210000Y-82490000D02*
X159210000Y-82890000D01*
X159210000Y-82890000D02*
X159210000Y-85490000D01*
X135500000Y-102090000D02*
X135500000Y-100030000D01*
X135500000Y-100030000D02*
X135440000Y-99970000D01*
X137520000Y-98070000D02*
X136880000Y-97430000D01*
X136880000Y-97430000D02*
X135440000Y-97430000D01*
X137520000Y-102760000D02*
X137520000Y-98340000D01*
X137520000Y-98340000D02*
X137520000Y-98070000D01*
X137520000Y-103070000D02*
X137230000Y-103360000D01*
X137230000Y-103360000D02*
X135500000Y-103360000D01*
X137520000Y-102760000D02*
X137520000Y-103070000D01*
X160230000Y-93590000D02*
X160230000Y-84560000D01*
X160230000Y-84560000D02*
X159860000Y-84190000D01*
X159860000Y-84190000D02*
X159860000Y-75900000D01*
X148749999Y-106749999D02*
X149185000Y-106749999D01*
X149185000Y-106749999D02*
X157475001Y-106749999D01*
X146710000Y-108090000D02*
X146710000Y-107382894D01*
X147342895Y-106749999D02*
X149185000Y-106749999D01*
X146710000Y-107382894D02*
X147342895Y-106749999D01*
X157475001Y-106749999D02*
X159160134Y-105064866D01*
X159160134Y-105064866D02*
X159160134Y-105061824D01*
X159160134Y-105061824D02*
X159798690Y-104423268D01*
X163050000Y-85120000D02*
X164080000Y-84090000D01*
X162310000Y-89690000D02*
X162310000Y-85860000D01*
X162310000Y-85860000D02*
X163050000Y-85120000D01*
X164080000Y-84090000D02*
X167110000Y-84090000D01*
X165870000Y-95550000D02*
X164780001Y-95550000D01*
X164780001Y-95550000D02*
X163960001Y-94730000D01*
X165850000Y-95570000D02*
X165870000Y-95550000D01*
X129010000Y-99380000D02*
X129600000Y-99970000D01*
X129600000Y-99970000D02*
X132900000Y-99970000D01*
X129010000Y-97790000D02*
X129010000Y-99380000D01*
X129010000Y-98490000D02*
X129010000Y-97790000D01*
D30*
G36*
X127908110Y-98786431D02*
X128160000Y-98837440D01*
X128225000Y-98837440D01*
X128225000Y-99380000D01*
X128284755Y-99680407D01*
X128454921Y-99935079D01*
X129044921Y-100525079D01*
X129299593Y-100695245D01*
X129600000Y-100755000D01*
X131643750Y-100755000D01*
X131820853Y-101020054D01*
X132302622Y-101341961D01*
X132870907Y-101455000D01*
X132929093Y-101455000D01*
X133497378Y-101341961D01*
X133979147Y-101020054D01*
X134170000Y-100734422D01*
X134360853Y-101020054D01*
X134575027Y-101163160D01*
X134509400Y-101163160D01*
X134274083Y-101207438D01*
X134057959Y-101346510D01*
X133912969Y-101558710D01*
X133861960Y-101810600D01*
X133861960Y-102369400D01*
X133906238Y-102604717D01*
X133983732Y-102725145D01*
X133912969Y-102828710D01*
X133861960Y-103080600D01*
X133861960Y-103639400D01*
X133906238Y-103874717D01*
X133983732Y-103995145D01*
X133912969Y-104098710D01*
X133861960Y-104350600D01*
X133861960Y-104909400D01*
X133906238Y-105144717D01*
X133977114Y-105254861D01*
X133971073Y-105260902D01*
X133874400Y-105494291D01*
X133874400Y-105614250D01*
X134033150Y-105773000D01*
X135373000Y-105773000D01*
X135373000Y-105753000D01*
X135627000Y-105753000D01*
X135627000Y-105773000D01*
X136966850Y-105773000D01*
X137125600Y-105614250D01*
X137125600Y-105494291D01*
X137092757Y-105415000D01*
X138484842Y-105415000D01*
X140965000Y-107895158D01*
X140965000Y-108945922D01*
X140691877Y-108284914D01*
X140028578Y-107620456D01*
X139161492Y-107260411D01*
X138222627Y-107259591D01*
X137354914Y-107618123D01*
X136690456Y-108281422D01*
X136330411Y-109148508D01*
X136329591Y-110087373D01*
X136688123Y-110955086D01*
X137351422Y-111619544D01*
X138218508Y-111979589D01*
X139157373Y-111980409D01*
X140025086Y-111621877D01*
X140689544Y-110958578D01*
X140965000Y-110295205D01*
X140965000Y-112249898D01*
X140788355Y-112426235D01*
X140615197Y-112843244D01*
X140614803Y-113294775D01*
X140787233Y-113712086D01*
X141027160Y-113952432D01*
X138857064Y-113954737D01*
X132033009Y-108862440D01*
X133520000Y-108862440D01*
X133755317Y-108818162D01*
X133971441Y-108679090D01*
X134017969Y-108610994D01*
X134160302Y-108753327D01*
X134393691Y-108850000D01*
X134984250Y-108850000D01*
X135143000Y-108691250D01*
X135143000Y-107717000D01*
X135397000Y-107717000D01*
X135397000Y-108691250D01*
X135555750Y-108850000D01*
X136146309Y-108850000D01*
X136379698Y-108753327D01*
X136558327Y-108574699D01*
X136655000Y-108341310D01*
X136655000Y-107875750D01*
X136496250Y-107717000D01*
X135397000Y-107717000D01*
X135143000Y-107717000D01*
X135123000Y-107717000D01*
X135123000Y-107463000D01*
X135143000Y-107463000D01*
X135143000Y-107443000D01*
X135397000Y-107443000D01*
X135397000Y-107463000D01*
X136496250Y-107463000D01*
X136655000Y-107304250D01*
X136655000Y-106838690D01*
X136640834Y-106804490D01*
X136850299Y-106717727D01*
X137028927Y-106539098D01*
X137125600Y-106305709D01*
X137125600Y-106185750D01*
X136966850Y-106027000D01*
X135627000Y-106027000D01*
X135627000Y-106047000D01*
X135373000Y-106047000D01*
X135373000Y-106027000D01*
X134033150Y-106027000D01*
X133874400Y-106185750D01*
X133874400Y-106305709D01*
X133951180Y-106491073D01*
X133771890Y-106368569D01*
X133655000Y-106344898D01*
X133655000Y-104320005D01*
X133655001Y-104320000D01*
X133587633Y-103981326D01*
X133587633Y-103981325D01*
X133395790Y-103694210D01*
X133395787Y-103694208D01*
X132435790Y-102734210D01*
X132392074Y-102705000D01*
X132148675Y-102542367D01*
X132092484Y-102531190D01*
X131912526Y-102495393D01*
X131938040Y-102369400D01*
X131938040Y-101810600D01*
X131893762Y-101575283D01*
X131754690Y-101359159D01*
X131542490Y-101214169D01*
X131290600Y-101163160D01*
X129309400Y-101163160D01*
X129074083Y-101207438D01*
X128857959Y-101346510D01*
X128712969Y-101558710D01*
X128661960Y-101810600D01*
X128661960Y-102260381D01*
X127955790Y-101554210D01*
X127955787Y-101554208D01*
X127835000Y-101433421D01*
X127835000Y-98736477D01*
X127908110Y-98786431D01*
X127908110Y-98786431D01*
G37*
X127908110Y-98786431D02*
X128160000Y-98837440D01*
X128225000Y-98837440D01*
X128225000Y-99380000D01*
X128284755Y-99680407D01*
X128454921Y-99935079D01*
X129044921Y-100525079D01*
X129299593Y-100695245D01*
X129600000Y-100755000D01*
X131643750Y-100755000D01*
X131820853Y-101020054D01*
X132302622Y-101341961D01*
X132870907Y-101455000D01*
X132929093Y-101455000D01*
X133497378Y-101341961D01*
X133979147Y-101020054D01*
X134170000Y-100734422D01*
X134360853Y-101020054D01*
X134575027Y-101163160D01*
X134509400Y-101163160D01*
X134274083Y-101207438D01*
X134057959Y-101346510D01*
X133912969Y-101558710D01*
X133861960Y-101810600D01*
X133861960Y-102369400D01*
X133906238Y-102604717D01*
X133983732Y-102725145D01*
X133912969Y-102828710D01*
X133861960Y-103080600D01*
X133861960Y-103639400D01*
X133906238Y-103874717D01*
X133983732Y-103995145D01*
X133912969Y-104098710D01*
X133861960Y-104350600D01*
X133861960Y-104909400D01*
X133906238Y-105144717D01*
X133977114Y-105254861D01*
X133971073Y-105260902D01*
X133874400Y-105494291D01*
X133874400Y-105614250D01*
X134033150Y-105773000D01*
X135373000Y-105773000D01*
X135373000Y-105753000D01*
X135627000Y-105753000D01*
X135627000Y-105773000D01*
X136966850Y-105773000D01*
X137125600Y-105614250D01*
X137125600Y-105494291D01*
X137092757Y-105415000D01*
X138484842Y-105415000D01*
X140965000Y-107895158D01*
X140965000Y-108945922D01*
X140691877Y-108284914D01*
X140028578Y-107620456D01*
X139161492Y-107260411D01*
X138222627Y-107259591D01*
X137354914Y-107618123D01*
X136690456Y-108281422D01*
X136330411Y-109148508D01*
X136329591Y-110087373D01*
X136688123Y-110955086D01*
X137351422Y-111619544D01*
X138218508Y-111979589D01*
X139157373Y-111980409D01*
X140025086Y-111621877D01*
X140689544Y-110958578D01*
X140965000Y-110295205D01*
X140965000Y-112249898D01*
X140788355Y-112426235D01*
X140615197Y-112843244D01*
X140614803Y-113294775D01*
X140787233Y-113712086D01*
X141027160Y-113952432D01*
X138857064Y-113954737D01*
X132033009Y-108862440D01*
X133520000Y-108862440D01*
X133755317Y-108818162D01*
X133971441Y-108679090D01*
X134017969Y-108610994D01*
X134160302Y-108753327D01*
X134393691Y-108850000D01*
X134984250Y-108850000D01*
X135143000Y-108691250D01*
X135143000Y-107717000D01*
X135397000Y-107717000D01*
X135397000Y-108691250D01*
X135555750Y-108850000D01*
X136146309Y-108850000D01*
X136379698Y-108753327D01*
X136558327Y-108574699D01*
X136655000Y-108341310D01*
X136655000Y-107875750D01*
X136496250Y-107717000D01*
X135397000Y-107717000D01*
X135143000Y-107717000D01*
X135123000Y-107717000D01*
X135123000Y-107463000D01*
X135143000Y-107463000D01*
X135143000Y-107443000D01*
X135397000Y-107443000D01*
X135397000Y-107463000D01*
X136496250Y-107463000D01*
X136655000Y-107304250D01*
X136655000Y-106838690D01*
X136640834Y-106804490D01*
X136850299Y-106717727D01*
X137028927Y-106539098D01*
X137125600Y-106305709D01*
X137125600Y-106185750D01*
X136966850Y-106027000D01*
X135627000Y-106027000D01*
X135627000Y-106047000D01*
X135373000Y-106047000D01*
X135373000Y-106027000D01*
X134033150Y-106027000D01*
X133874400Y-106185750D01*
X133874400Y-106305709D01*
X133951180Y-106491073D01*
X133771890Y-106368569D01*
X133655000Y-106344898D01*
X133655000Y-104320005D01*
X133655001Y-104320000D01*
X133587633Y-103981326D01*
X133587633Y-103981325D01*
X133395790Y-103694210D01*
X133395787Y-103694208D01*
X132435790Y-102734210D01*
X132392074Y-102705000D01*
X132148675Y-102542367D01*
X132092484Y-102531190D01*
X131912526Y-102495393D01*
X131938040Y-102369400D01*
X131938040Y-101810600D01*
X131893762Y-101575283D01*
X131754690Y-101359159D01*
X131542490Y-101214169D01*
X131290600Y-101163160D01*
X129309400Y-101163160D01*
X129074083Y-101207438D01*
X128857959Y-101346510D01*
X128712969Y-101558710D01*
X128661960Y-101810600D01*
X128661960Y-102260381D01*
X127955790Y-101554210D01*
X127955787Y-101554208D01*
X127835000Y-101433421D01*
X127835000Y-98736477D01*
X127908110Y-98786431D01*
G36*
X159694117Y-106046501D02*
X159879295Y-106198302D01*
X160124752Y-106274469D01*
X160154374Y-106271535D01*
X160150170Y-106285083D01*
X160175500Y-106540835D01*
X160298337Y-106766583D01*
X161326798Y-107992254D01*
X161511976Y-108144055D01*
X161757433Y-108220222D01*
X161787054Y-108217288D01*
X161782850Y-108230836D01*
X161808180Y-108486588D01*
X161931017Y-108712336D01*
X162959478Y-109938007D01*
X163074653Y-110032423D01*
X160951297Y-111575571D01*
X160943608Y-111583892D01*
X160933468Y-111588946D01*
X160846556Y-111688911D01*
X160756658Y-111786189D01*
X160752738Y-111796818D01*
X160745305Y-111805368D01*
X160703267Y-111930972D01*
X160657434Y-112055259D01*
X160657880Y-112066581D01*
X160654285Y-112077323D01*
X160663513Y-112209453D01*
X160668732Y-112341819D01*
X160673477Y-112352107D01*
X160674266Y-112363409D01*
X160733357Y-112481954D01*
X160788831Y-112602243D01*
X160797152Y-112609932D01*
X160802206Y-112620072D01*
X161437441Y-113440630D01*
X160482023Y-113931766D01*
X147330355Y-113945736D01*
X147486026Y-113790337D01*
X147679779Y-113323727D01*
X147680220Y-112818490D01*
X147487282Y-112351542D01*
X147130337Y-111993974D01*
X146663727Y-111800221D01*
X146158490Y-111799780D01*
X145691542Y-111992718D01*
X145333974Y-112349663D01*
X145140221Y-112816273D01*
X145139780Y-113321510D01*
X145332718Y-113788458D01*
X145491672Y-113947689D01*
X142474101Y-113950895D01*
X142711645Y-113713765D01*
X142884803Y-113296756D01*
X142885197Y-112845225D01*
X142712767Y-112427914D01*
X142535000Y-112249837D01*
X142535000Y-107570000D01*
X142475245Y-107269594D01*
X142305079Y-107014921D01*
X141555158Y-106265000D01*
X146717736Y-106265000D01*
X146154921Y-106827815D01*
X145984755Y-107082487D01*
X145975631Y-107128355D01*
X145953045Y-107241901D01*
X145748355Y-107446235D01*
X145575197Y-107863244D01*
X145574803Y-108314775D01*
X145747233Y-108732086D01*
X146066235Y-109051645D01*
X146483244Y-109224803D01*
X146934775Y-109225197D01*
X147352086Y-109052767D01*
X147671645Y-108733765D01*
X147844803Y-108316756D01*
X147845197Y-107865225D01*
X147708750Y-107534999D01*
X149696089Y-107534999D01*
X149494914Y-107618123D01*
X148830456Y-108281422D01*
X148470411Y-109148508D01*
X148469591Y-110087373D01*
X148828123Y-110955086D01*
X149491422Y-111619544D01*
X150358508Y-111979589D01*
X151297373Y-111980409D01*
X152165086Y-111621877D01*
X152829544Y-110958578D01*
X152978951Y-110598764D01*
X156320841Y-110598764D01*
X156390059Y-110840742D01*
X156912780Y-111027155D01*
X157467049Y-110999341D01*
X157849941Y-110840742D01*
X157919159Y-110598764D01*
X157120000Y-109799605D01*
X156320841Y-110598764D01*
X152978951Y-110598764D01*
X153189589Y-110091492D01*
X153190181Y-109412780D01*
X155712845Y-109412780D01*
X155740659Y-109967049D01*
X155899258Y-110349941D01*
X156141236Y-110419159D01*
X156940395Y-109620000D01*
X157299605Y-109620000D01*
X158098764Y-110419159D01*
X158340742Y-110349941D01*
X158527155Y-109827220D01*
X158499341Y-109272951D01*
X158340742Y-108890059D01*
X158098764Y-108820841D01*
X157299605Y-109620000D01*
X156940395Y-109620000D01*
X156141236Y-108820841D01*
X155899258Y-108890059D01*
X155712845Y-109412780D01*
X153190181Y-109412780D01*
X153190409Y-109152627D01*
X152979107Y-108641236D01*
X156320841Y-108641236D01*
X157120000Y-109440395D01*
X157919159Y-108641236D01*
X157849941Y-108399258D01*
X157327220Y-108212845D01*
X156772951Y-108240659D01*
X156390059Y-108399258D01*
X156320841Y-108641236D01*
X152979107Y-108641236D01*
X152831877Y-108284914D01*
X152168578Y-107620456D01*
X151962774Y-107534999D01*
X157475001Y-107534999D01*
X157775408Y-107475244D01*
X158030080Y-107305078D01*
X159509123Y-105826035D01*
X159694117Y-106046501D01*
X159694117Y-106046501D01*
G37*
X159694117Y-106046501D02*
X159879295Y-106198302D01*
X160124752Y-106274469D01*
X160154374Y-106271535D01*
X160150170Y-106285083D01*
X160175500Y-106540835D01*
X160298337Y-106766583D01*
X161326798Y-107992254D01*
X161511976Y-108144055D01*
X161757433Y-108220222D01*
X161787054Y-108217288D01*
X161782850Y-108230836D01*
X161808180Y-108486588D01*
X161931017Y-108712336D01*
X162959478Y-109938007D01*
X163074653Y-110032423D01*
X160951297Y-111575571D01*
X160943608Y-111583892D01*
X160933468Y-111588946D01*
X160846556Y-111688911D01*
X160756658Y-111786189D01*
X160752738Y-111796818D01*
X160745305Y-111805368D01*
X160703267Y-111930972D01*
X160657434Y-112055259D01*
X160657880Y-112066581D01*
X160654285Y-112077323D01*
X160663513Y-112209453D01*
X160668732Y-112341819D01*
X160673477Y-112352107D01*
X160674266Y-112363409D01*
X160733357Y-112481954D01*
X160788831Y-112602243D01*
X160797152Y-112609932D01*
X160802206Y-112620072D01*
X161437441Y-113440630D01*
X160482023Y-113931766D01*
X147330355Y-113945736D01*
X147486026Y-113790337D01*
X147679779Y-113323727D01*
X147680220Y-112818490D01*
X147487282Y-112351542D01*
X147130337Y-111993974D01*
X146663727Y-111800221D01*
X146158490Y-111799780D01*
X145691542Y-111992718D01*
X145333974Y-112349663D01*
X145140221Y-112816273D01*
X145139780Y-113321510D01*
X145332718Y-113788458D01*
X145491672Y-113947689D01*
X142474101Y-113950895D01*
X142711645Y-113713765D01*
X142884803Y-113296756D01*
X142885197Y-112845225D01*
X142712767Y-112427914D01*
X142535000Y-112249837D01*
X142535000Y-107570000D01*
X142475245Y-107269594D01*
X142305079Y-107014921D01*
X141555158Y-106265000D01*
X146717736Y-106265000D01*
X146154921Y-106827815D01*
X145984755Y-107082487D01*
X145975631Y-107128355D01*
X145953045Y-107241901D01*
X145748355Y-107446235D01*
X145575197Y-107863244D01*
X145574803Y-108314775D01*
X145747233Y-108732086D01*
X146066235Y-109051645D01*
X146483244Y-109224803D01*
X146934775Y-109225197D01*
X147352086Y-109052767D01*
X147671645Y-108733765D01*
X147844803Y-108316756D01*
X147845197Y-107865225D01*
X147708750Y-107534999D01*
X149696089Y-107534999D01*
X149494914Y-107618123D01*
X148830456Y-108281422D01*
X148470411Y-109148508D01*
X148469591Y-110087373D01*
X148828123Y-110955086D01*
X149491422Y-111619544D01*
X150358508Y-111979589D01*
X151297373Y-111980409D01*
X152165086Y-111621877D01*
X152829544Y-110958578D01*
X152978951Y-110598764D01*
X156320841Y-110598764D01*
X156390059Y-110840742D01*
X156912780Y-111027155D01*
X157467049Y-110999341D01*
X157849941Y-110840742D01*
X157919159Y-110598764D01*
X157120000Y-109799605D01*
X156320841Y-110598764D01*
X152978951Y-110598764D01*
X153189589Y-110091492D01*
X153190181Y-109412780D01*
X155712845Y-109412780D01*
X155740659Y-109967049D01*
X155899258Y-110349941D01*
X156141236Y-110419159D01*
X156940395Y-109620000D01*
X157299605Y-109620000D01*
X158098764Y-110419159D01*
X158340742Y-110349941D01*
X158527155Y-109827220D01*
X158499341Y-109272951D01*
X158340742Y-108890059D01*
X158098764Y-108820841D01*
X157299605Y-109620000D01*
X156940395Y-109620000D01*
X156141236Y-108820841D01*
X155899258Y-108890059D01*
X155712845Y-109412780D01*
X153190181Y-109412780D01*
X153190409Y-109152627D01*
X152979107Y-108641236D01*
X156320841Y-108641236D01*
X157120000Y-109440395D01*
X157919159Y-108641236D01*
X157849941Y-108399258D01*
X157327220Y-108212845D01*
X156772951Y-108240659D01*
X156390059Y-108399258D01*
X156320841Y-108641236D01*
X152979107Y-108641236D01*
X152831877Y-108284914D01*
X152168578Y-107620456D01*
X151962774Y-107534999D01*
X157475001Y-107534999D01*
X157775408Y-107475244D01*
X158030080Y-107305078D01*
X159509123Y-105826035D01*
X159694117Y-106046501D01*
G36*
X148554786Y-68754579D02*
X148742408Y-69208657D01*
X148905000Y-69371533D01*
X148905000Y-69386778D01*
X148904683Y-69386838D01*
X148688559Y-69525910D01*
X148543569Y-69738110D01*
X148542697Y-69742416D01*
X148515592Y-69650737D01*
X148173076Y-69227319D01*
X147694597Y-68967207D01*
X147621971Y-68952723D01*
X147407000Y-69075317D01*
X147407000Y-70923000D01*
X147427000Y-70923000D01*
X147427000Y-71177000D01*
X147407000Y-71177000D01*
X147407000Y-73024683D01*
X147621971Y-73147277D01*
X147694597Y-73132793D01*
X148173076Y-72872681D01*
X148515592Y-72449263D01*
X148668935Y-71930602D01*
X148675910Y-71941441D01*
X148888110Y-72086431D01*
X148901197Y-72089081D01*
X148688559Y-72225910D01*
X148543569Y-72438110D01*
X148492560Y-72690000D01*
X148492560Y-74190000D01*
X148536838Y-74425317D01*
X148675910Y-74641441D01*
X148888110Y-74786431D01*
X149005000Y-74810102D01*
X149005000Y-76600000D01*
X149064755Y-76900407D01*
X149234921Y-77155079D01*
X150234921Y-78155079D01*
X150489594Y-78325245D01*
X150790000Y-78385001D01*
X150790005Y-78385000D01*
X155514842Y-78385000D01*
X155885000Y-78755158D01*
X155885000Y-80708292D01*
X155800485Y-80623629D01*
X155346734Y-80435215D01*
X155116594Y-80435014D01*
X154745790Y-80064210D01*
X154705244Y-80037118D01*
X154458675Y-79872367D01*
X154402484Y-79861190D01*
X154120000Y-79804999D01*
X154119995Y-79805000D01*
X148926579Y-79805000D01*
X148255000Y-79133420D01*
X148255000Y-76510000D01*
X148187633Y-76171325D01*
X147995790Y-75884210D01*
X147995787Y-75884208D01*
X147525790Y-75414210D01*
X147488496Y-75389291D01*
X147238675Y-75222367D01*
X147182484Y-75211190D01*
X146900000Y-75154999D01*
X146899995Y-75155000D01*
X146767745Y-75155000D01*
X146707633Y-74852797D01*
X146515790Y-74565682D01*
X146515787Y-74565680D01*
X146045790Y-74095682D01*
X146045787Y-74095680D01*
X145991579Y-74041472D01*
X145875790Y-73925682D01*
X145625000Y-73674892D01*
X145625000Y-72890203D01*
X145722878Y-72824803D01*
X146022751Y-72376013D01*
X146044408Y-72449263D01*
X146386924Y-72872681D01*
X146865403Y-73132793D01*
X146938029Y-73147277D01*
X147153000Y-73024683D01*
X147153000Y-71177000D01*
X147133000Y-71177000D01*
X147133000Y-70923000D01*
X147153000Y-70923000D01*
X147153000Y-69075317D01*
X146938029Y-68952723D01*
X146865403Y-68967207D01*
X146386924Y-69227319D01*
X146044408Y-69650737D01*
X146022751Y-69723987D01*
X145722878Y-69275197D01*
X145271930Y-68973882D01*
X144740000Y-68868075D01*
X144208070Y-68973882D01*
X143757122Y-69275197D01*
X143455807Y-69726145D01*
X143350000Y-70258075D01*
X143350000Y-71841925D01*
X143455807Y-72373855D01*
X143757122Y-72824803D01*
X143855000Y-72890203D01*
X143855000Y-74041467D01*
X143854999Y-74041472D01*
X143902801Y-74281785D01*
X143922367Y-74380147D01*
X144036842Y-74551472D01*
X144114210Y-74667262D01*
X144624210Y-75177262D01*
X144736542Y-75289593D01*
X144794208Y-75347259D01*
X144794210Y-75347262D01*
X144826856Y-75379908D01*
X144655215Y-75793266D01*
X144654786Y-76284579D01*
X144842408Y-76738657D01*
X145189515Y-77086371D01*
X145643266Y-77274785D01*
X146134579Y-77275214D01*
X146485000Y-77130422D01*
X146485000Y-77542258D01*
X146106756Y-77385197D01*
X145655225Y-77384803D01*
X145237914Y-77557233D01*
X144918355Y-77876235D01*
X144745197Y-78293244D01*
X144745012Y-78505000D01*
X144375854Y-78505000D01*
X144338162Y-78304683D01*
X144199090Y-78088559D01*
X144130994Y-78042031D01*
X144273327Y-77899698D01*
X144370000Y-77666309D01*
X144370000Y-77075750D01*
X144211250Y-76917000D01*
X143237000Y-76917000D01*
X143237000Y-76937000D01*
X142983000Y-76937000D01*
X142983000Y-76917000D01*
X142008750Y-76917000D01*
X141850000Y-77075750D01*
X141850000Y-77666309D01*
X141946673Y-77899698D01*
X142087910Y-78040936D01*
X142033559Y-78075910D01*
X141888569Y-78288110D01*
X141837560Y-78540000D01*
X141837560Y-80040000D01*
X141881838Y-80275317D01*
X142020910Y-80491441D01*
X142233110Y-80636431D01*
X142485000Y-80687440D01*
X143735000Y-80687440D01*
X143970317Y-80643162D01*
X144186441Y-80504090D01*
X144331431Y-80291890D01*
X144375352Y-80075000D01*
X145110000Y-80075000D01*
X145410407Y-80015245D01*
X145665079Y-79845079D01*
X145855179Y-79654979D01*
X146104775Y-79655197D01*
X146485000Y-79498091D01*
X146485000Y-79499995D01*
X146484999Y-79500000D01*
X146522530Y-79688675D01*
X146552367Y-79838675D01*
X146713614Y-80080000D01*
X146744210Y-80125790D01*
X147628710Y-81010289D01*
X147632367Y-81028675D01*
X147824210Y-81315790D01*
X148111325Y-81507633D01*
X148450000Y-81575000D01*
X152509205Y-81575000D01*
X152451709Y-81620820D01*
X151583347Y-82655692D01*
X151457592Y-82351343D01*
X151110485Y-82003629D01*
X150656734Y-81815215D01*
X150165421Y-81814786D01*
X149711343Y-82002408D01*
X149363629Y-82349515D01*
X149175215Y-82803266D01*
X149174786Y-83294579D01*
X149362408Y-83748657D01*
X149525000Y-83911533D01*
X149525000Y-84399995D01*
X149524999Y-84400000D01*
X149579325Y-84673108D01*
X149592367Y-84738675D01*
X149771213Y-85006338D01*
X149784210Y-85025790D01*
X152708016Y-87949595D01*
X151478628Y-87128144D01*
X149850000Y-86804190D01*
X148221372Y-87128144D01*
X146840688Y-88050688D01*
X145918144Y-89431372D01*
X145594190Y-91060000D01*
X145918144Y-92688628D01*
X146840688Y-94069312D01*
X148221372Y-94991856D01*
X149850000Y-95315810D01*
X151478628Y-94991856D01*
X152859312Y-94069312D01*
X153781856Y-92688628D01*
X154105810Y-91060000D01*
X153781856Y-89431372D01*
X152960405Y-88201984D01*
X153121211Y-88362790D01*
X153121213Y-88362793D01*
X153408328Y-88554636D01*
X153414130Y-88555790D01*
X153747003Y-88622004D01*
X153747008Y-88622003D01*
X155712560Y-88622003D01*
X155712560Y-93430000D01*
X155756838Y-93665317D01*
X155895910Y-93881441D01*
X156108110Y-94026431D01*
X156360000Y-94077440D01*
X158360000Y-94077440D01*
X158456677Y-94059249D01*
X158484755Y-94200407D01*
X158654921Y-94455079D01*
X159404921Y-95205079D01*
X159421428Y-95216109D01*
X158259900Y-97063579D01*
X158231149Y-97093455D01*
X158126505Y-97360464D01*
X158132007Y-97647194D01*
X158246816Y-97909992D01*
X158453455Y-98108851D01*
X161272142Y-99915000D01*
X159320005Y-99915000D01*
X159320000Y-99914999D01*
X159019594Y-99974755D01*
X158764921Y-100144921D01*
X158764919Y-100144924D01*
X156998099Y-101911744D01*
X156847767Y-101547914D01*
X156670000Y-101369837D01*
X156670000Y-99265000D01*
X156610245Y-98964594D01*
X156440079Y-98709921D01*
X156071410Y-98341252D01*
X157357592Y-97223191D01*
X157506139Y-97035392D01*
X157578010Y-96788643D01*
X157548220Y-96533372D01*
X157421462Y-96309803D01*
X156109344Y-94800384D01*
X155921546Y-94651837D01*
X155674796Y-94579966D01*
X155419525Y-94609756D01*
X155195956Y-94736514D01*
X151422408Y-98016809D01*
X151273861Y-98204608D01*
X151201990Y-98451357D01*
X151231780Y-98706628D01*
X151358538Y-98930197D01*
X152670656Y-100439616D01*
X152858454Y-100588163D01*
X153105204Y-100660034D01*
X153360475Y-100630244D01*
X153584044Y-100503486D01*
X154883622Y-99373780D01*
X155100000Y-99590158D01*
X155100000Y-101369898D01*
X154923355Y-101546235D01*
X154750197Y-101963244D01*
X154749803Y-102414775D01*
X154890382Y-102755000D01*
X147420024Y-102755000D01*
X147641645Y-102533765D01*
X147814803Y-102116756D01*
X147815197Y-101665225D01*
X147642767Y-101247914D01*
X147369297Y-100973967D01*
X147508393Y-100921528D01*
X147694656Y-100744449D01*
X148841809Y-99106145D01*
X148940511Y-98887988D01*
X148950553Y-98631181D01*
X148859892Y-98390700D01*
X148682813Y-98204437D01*
X144587052Y-95336555D01*
X144368895Y-95237853D01*
X144112088Y-95227811D01*
X143871607Y-95318472D01*
X143685344Y-95495551D01*
X142538191Y-97133855D01*
X142439489Y-97352012D01*
X142429447Y-97608819D01*
X142520108Y-97849300D01*
X142697187Y-98035563D01*
X143783728Y-98796367D01*
X143714755Y-98899593D01*
X143681805Y-99065245D01*
X143655000Y-99200000D01*
X143655000Y-100357106D01*
X143714755Y-100657513D01*
X143884921Y-100912185D01*
X145417813Y-102445076D01*
X145417815Y-102445079D01*
X145672488Y-102615245D01*
X145831901Y-102646955D01*
X145939758Y-102755000D01*
X144675158Y-102755000D01*
X144583719Y-102663561D01*
X144523446Y-102623288D01*
X144325000Y-102424842D01*
X144325000Y-101890000D01*
X144265245Y-101589594D01*
X144095079Y-101334921D01*
X141245079Y-98484921D01*
X140990407Y-98314755D01*
X140690000Y-98255000D01*
X139195000Y-98255000D01*
X139195000Y-95570000D01*
X139135245Y-95269594D01*
X138965079Y-95014921D01*
X138934943Y-94994785D01*
X138275079Y-94334921D01*
X138020407Y-94164755D01*
X137720000Y-94105000D01*
X136696250Y-94105000D01*
X136519147Y-93839946D01*
X136189974Y-93620000D01*
X136519147Y-93400054D01*
X136841054Y-92918285D01*
X136954093Y-92350000D01*
X136841054Y-91781715D01*
X136519147Y-91299946D01*
X136189974Y-91080000D01*
X136519147Y-90860054D01*
X136841054Y-90378285D01*
X136954093Y-89810000D01*
X136841054Y-89241715D01*
X136519147Y-88759946D01*
X136234873Y-88570000D01*
X140092560Y-88570000D01*
X140092560Y-93570000D01*
X140136838Y-93805317D01*
X140275910Y-94021441D01*
X140488110Y-94166431D01*
X140740000Y-94217440D01*
X142740000Y-94217440D01*
X142975317Y-94173162D01*
X143191441Y-94034090D01*
X143336431Y-93821890D01*
X143387440Y-93570000D01*
X143387440Y-88570000D01*
X143343162Y-88334683D01*
X143204090Y-88118559D01*
X142991890Y-87973569D01*
X142740000Y-87922560D01*
X140740000Y-87922560D01*
X140504683Y-87966838D01*
X140288559Y-88105910D01*
X140143569Y-88318110D01*
X140092560Y-88570000D01*
X136234873Y-88570000D01*
X136189974Y-88540000D01*
X136519147Y-88320054D01*
X136841054Y-87838285D01*
X136954093Y-87270000D01*
X136841054Y-86701715D01*
X136566669Y-86291068D01*
X139013274Y-88163662D01*
X139032362Y-88173046D01*
X139047296Y-88188195D01*
X139160427Y-88236006D01*
X139270637Y-88290187D01*
X139291864Y-88291552D01*
X139311458Y-88299833D01*
X139434271Y-88300711D01*
X139556828Y-88308593D01*
X139576962Y-88301731D01*
X139598233Y-88301883D01*
X139712033Y-88255696D01*
X139828278Y-88216078D01*
X139844253Y-88202034D01*
X139863964Y-88194034D01*
X139951433Y-88107807D01*
X140043661Y-88026726D01*
X140053044Y-88007639D01*
X140068195Y-87992704D01*
X141911949Y-85275592D01*
X142347966Y-85275592D01*
X142373297Y-85531344D01*
X142496133Y-85757092D01*
X143781709Y-87289180D01*
X143966887Y-87440981D01*
X144212344Y-87517148D01*
X144468096Y-87491818D01*
X144693843Y-87368981D01*
X148524065Y-84155043D01*
X148675867Y-83969865D01*
X148752034Y-83724408D01*
X148726703Y-83468656D01*
X148603867Y-83242908D01*
X147318291Y-81710820D01*
X147133113Y-81559019D01*
X146887656Y-81482852D01*
X146631904Y-81508182D01*
X146406157Y-81631019D01*
X142575935Y-84844957D01*
X142424133Y-85030135D01*
X142347966Y-85275592D01*
X141911949Y-85275592D01*
X142348195Y-84632703D01*
X142394460Y-84523229D01*
X142448065Y-84417150D01*
X142449969Y-84391883D01*
X142459833Y-84368542D01*
X142460683Y-84249697D01*
X142469613Y-84131178D01*
X142461702Y-84107103D01*
X142461883Y-84081767D01*
X142417190Y-83971648D01*
X142380084Y-83858728D01*
X142363563Y-83839514D01*
X142354034Y-83816036D01*
X142270595Y-83731395D01*
X142193108Y-83641279D01*
X140130467Y-82026343D01*
X140156371Y-82000485D01*
X140344785Y-81546734D01*
X140344986Y-81316594D01*
X140884139Y-80777440D01*
X140955000Y-80777440D01*
X141190317Y-80733162D01*
X141406441Y-80594090D01*
X141551431Y-80381890D01*
X141602440Y-80130000D01*
X141602440Y-78630000D01*
X141558162Y-78394683D01*
X141419090Y-78178559D01*
X141350994Y-78132031D01*
X141493327Y-77989698D01*
X141590000Y-77756309D01*
X141590000Y-77165750D01*
X141431250Y-77007000D01*
X140457000Y-77007000D01*
X140457000Y-77027000D01*
X140203000Y-77027000D01*
X140203000Y-77007000D01*
X139228750Y-77007000D01*
X139167500Y-77068250D01*
X139076250Y-76977000D01*
X138077000Y-76977000D01*
X138077000Y-76997000D01*
X137823000Y-76997000D01*
X137823000Y-76977000D01*
X136823750Y-76977000D01*
X136665000Y-77135750D01*
X136665000Y-77726309D01*
X136761673Y-77959698D01*
X136940301Y-78138327D01*
X137076287Y-78194654D01*
X137064683Y-78196838D01*
X136848559Y-78335910D01*
X136703569Y-78548110D01*
X136671798Y-78705000D01*
X135510000Y-78705000D01*
X135209594Y-78764755D01*
X134954921Y-78934921D01*
X134304921Y-79584921D01*
X134134755Y-79839593D01*
X134099341Y-80017632D01*
X134075000Y-80140000D01*
X134075000Y-80512560D01*
X133200000Y-80512560D01*
X132964683Y-80556838D01*
X132748559Y-80695910D01*
X132603569Y-80908110D01*
X132552560Y-81160000D01*
X132552560Y-82460000D01*
X132596838Y-82695317D01*
X132735910Y-82911441D01*
X132948110Y-83056431D01*
X133200000Y-83107440D01*
X134700000Y-83107440D01*
X134935317Y-83063162D01*
X135151441Y-82924090D01*
X135296431Y-82711890D01*
X135299081Y-82698803D01*
X135435910Y-82911441D01*
X135648110Y-83056431D01*
X135765000Y-83080102D01*
X135765000Y-83573421D01*
X135593420Y-83745000D01*
X134950005Y-83745000D01*
X134950000Y-83744999D01*
X134949995Y-83745000D01*
X130024381Y-83745000D01*
X130028040Y-83726511D01*
X130023591Y-79113064D01*
X130568604Y-79810649D01*
X130748371Y-79968821D01*
X130991021Y-80053508D01*
X131247501Y-80037118D01*
X131477398Y-79922235D01*
X132817016Y-78875611D01*
X132975188Y-78695844D01*
X133059875Y-78453194D01*
X133043485Y-78196714D01*
X133012734Y-78135176D01*
X133063743Y-78151998D01*
X133641569Y-78109069D01*
X134158982Y-77848285D01*
X134537212Y-77409345D01*
X134718677Y-76859076D01*
X134689343Y-76464240D01*
X135065291Y-76588218D01*
X135643117Y-76545289D01*
X136160530Y-76284505D01*
X136428355Y-75973691D01*
X136665000Y-75973691D01*
X136665000Y-76564250D01*
X136823750Y-76723000D01*
X137823000Y-76723000D01*
X137823000Y-75623750D01*
X138077000Y-75623750D01*
X138077000Y-76723000D01*
X139076250Y-76723000D01*
X139137500Y-76661750D01*
X139228750Y-76753000D01*
X140203000Y-76753000D01*
X140203000Y-75653750D01*
X140457000Y-75653750D01*
X140457000Y-76753000D01*
X141431250Y-76753000D01*
X141590000Y-76594250D01*
X141590000Y-76003691D01*
X141552721Y-75913691D01*
X141850000Y-75913691D01*
X141850000Y-76504250D01*
X142008750Y-76663000D01*
X142983000Y-76663000D01*
X142983000Y-75563750D01*
X143237000Y-75563750D01*
X143237000Y-76663000D01*
X144211250Y-76663000D01*
X144370000Y-76504250D01*
X144370000Y-75913691D01*
X144273327Y-75680302D01*
X144094699Y-75501673D01*
X143861310Y-75405000D01*
X143395750Y-75405000D01*
X143237000Y-75563750D01*
X142983000Y-75563750D01*
X142824250Y-75405000D01*
X142358690Y-75405000D01*
X142125301Y-75501673D01*
X141946673Y-75680302D01*
X141850000Y-75913691D01*
X141552721Y-75913691D01*
X141493327Y-75770302D01*
X141314699Y-75591673D01*
X141081310Y-75495000D01*
X140615750Y-75495000D01*
X140457000Y-75653750D01*
X140203000Y-75653750D01*
X140044250Y-75495000D01*
X139578690Y-75495000D01*
X139345301Y-75591673D01*
X139166673Y-75770302D01*
X139158713Y-75789519D01*
X139138327Y-75740302D01*
X138959699Y-75561673D01*
X138726310Y-75465000D01*
X138235750Y-75465000D01*
X138077000Y-75623750D01*
X137823000Y-75623750D01*
X137664250Y-75465000D01*
X137173690Y-75465000D01*
X136940301Y-75561673D01*
X136761673Y-75740302D01*
X136665000Y-75973691D01*
X136428355Y-75973691D01*
X136538760Y-75845565D01*
X136720225Y-75295296D01*
X136690891Y-74900460D01*
X137066838Y-75024438D01*
X137644664Y-74981509D01*
X138162077Y-74720725D01*
X138540307Y-74281785D01*
X138721772Y-73731516D01*
X138692438Y-73336679D01*
X139068385Y-73460657D01*
X139646211Y-73417728D01*
X140163624Y-73156944D01*
X140541854Y-72718004D01*
X140723319Y-72167735D01*
X140692958Y-71759076D01*
X140833829Y-71830371D01*
X141411586Y-71874258D01*
X141839256Y-71755645D01*
X141945719Y-71518508D01*
X141211140Y-70578289D01*
X141195380Y-70590602D01*
X141063584Y-70421911D01*
X141411294Y-70421911D01*
X142145874Y-71362130D01*
X142401722Y-71316198D01*
X142620275Y-70929927D01*
X142717463Y-70358714D01*
X142588659Y-69793790D01*
X142352037Y-69686923D01*
X141411294Y-70421911D01*
X141063584Y-70421911D01*
X141039002Y-70390448D01*
X141054762Y-70378135D01*
X140320182Y-69437916D01*
X140064334Y-69483848D01*
X139845781Y-69870119D01*
X139748593Y-70441332D01*
X139783691Y-70595270D01*
X139394575Y-70466949D01*
X138816749Y-70509878D01*
X138739784Y-70548669D01*
X138734348Y-70416994D01*
X138732994Y-70414071D01*
X138732833Y-70410855D01*
X138672742Y-70284057D01*
X138613765Y-70156794D01*
X138611397Y-70154614D01*
X138610017Y-70151702D01*
X137963610Y-69281538D01*
X140520337Y-69281538D01*
X141254916Y-70221757D01*
X142195659Y-69486768D01*
X142149210Y-69231321D01*
X141632227Y-68969675D01*
X141054470Y-68925788D01*
X140626800Y-69044401D01*
X140520337Y-69281538D01*
X137963610Y-69281538D01*
X137820949Y-69089495D01*
X139401451Y-68275000D01*
X148555205Y-68275000D01*
X148554786Y-68754579D01*
X148554786Y-68754579D01*
G37*
X148554786Y-68754579D02*
X148742408Y-69208657D01*
X148905000Y-69371533D01*
X148905000Y-69386778D01*
X148904683Y-69386838D01*
X148688559Y-69525910D01*
X148543569Y-69738110D01*
X148542697Y-69742416D01*
X148515592Y-69650737D01*
X148173076Y-69227319D01*
X147694597Y-68967207D01*
X147621971Y-68952723D01*
X147407000Y-69075317D01*
X147407000Y-70923000D01*
X147427000Y-70923000D01*
X147427000Y-71177000D01*
X147407000Y-71177000D01*
X147407000Y-73024683D01*
X147621971Y-73147277D01*
X147694597Y-73132793D01*
X148173076Y-72872681D01*
X148515592Y-72449263D01*
X148668935Y-71930602D01*
X148675910Y-71941441D01*
X148888110Y-72086431D01*
X148901197Y-72089081D01*
X148688559Y-72225910D01*
X148543569Y-72438110D01*
X148492560Y-72690000D01*
X148492560Y-74190000D01*
X148536838Y-74425317D01*
X148675910Y-74641441D01*
X148888110Y-74786431D01*
X149005000Y-74810102D01*
X149005000Y-76600000D01*
X149064755Y-76900407D01*
X149234921Y-77155079D01*
X150234921Y-78155079D01*
X150489594Y-78325245D01*
X150790000Y-78385001D01*
X150790005Y-78385000D01*
X155514842Y-78385000D01*
X155885000Y-78755158D01*
X155885000Y-80708292D01*
X155800485Y-80623629D01*
X155346734Y-80435215D01*
X155116594Y-80435014D01*
X154745790Y-80064210D01*
X154705244Y-80037118D01*
X154458675Y-79872367D01*
X154402484Y-79861190D01*
X154120000Y-79804999D01*
X154119995Y-79805000D01*
X148926579Y-79805000D01*
X148255000Y-79133420D01*
X148255000Y-76510000D01*
X148187633Y-76171325D01*
X147995790Y-75884210D01*
X147995787Y-75884208D01*
X147525790Y-75414210D01*
X147488496Y-75389291D01*
X147238675Y-75222367D01*
X147182484Y-75211190D01*
X146900000Y-75154999D01*
X146899995Y-75155000D01*
X146767745Y-75155000D01*
X146707633Y-74852797D01*
X146515790Y-74565682D01*
X146515787Y-74565680D01*
X146045790Y-74095682D01*
X146045787Y-74095680D01*
X145991579Y-74041472D01*
X145875790Y-73925682D01*
X145625000Y-73674892D01*
X145625000Y-72890203D01*
X145722878Y-72824803D01*
X146022751Y-72376013D01*
X146044408Y-72449263D01*
X146386924Y-72872681D01*
X146865403Y-73132793D01*
X146938029Y-73147277D01*
X147153000Y-73024683D01*
X147153000Y-71177000D01*
X147133000Y-71177000D01*
X147133000Y-70923000D01*
X147153000Y-70923000D01*
X147153000Y-69075317D01*
X146938029Y-68952723D01*
X146865403Y-68967207D01*
X146386924Y-69227319D01*
X146044408Y-69650737D01*
X146022751Y-69723987D01*
X145722878Y-69275197D01*
X145271930Y-68973882D01*
X144740000Y-68868075D01*
X144208070Y-68973882D01*
X143757122Y-69275197D01*
X143455807Y-69726145D01*
X143350000Y-70258075D01*
X143350000Y-71841925D01*
X143455807Y-72373855D01*
X143757122Y-72824803D01*
X143855000Y-72890203D01*
X143855000Y-74041467D01*
X143854999Y-74041472D01*
X143902801Y-74281785D01*
X143922367Y-74380147D01*
X144036842Y-74551472D01*
X144114210Y-74667262D01*
X144624210Y-75177262D01*
X144736542Y-75289593D01*
X144794208Y-75347259D01*
X144794210Y-75347262D01*
X144826856Y-75379908D01*
X144655215Y-75793266D01*
X144654786Y-76284579D01*
X144842408Y-76738657D01*
X145189515Y-77086371D01*
X145643266Y-77274785D01*
X146134579Y-77275214D01*
X146485000Y-77130422D01*
X146485000Y-77542258D01*
X146106756Y-77385197D01*
X145655225Y-77384803D01*
X145237914Y-77557233D01*
X144918355Y-77876235D01*
X144745197Y-78293244D01*
X144745012Y-78505000D01*
X144375854Y-78505000D01*
X144338162Y-78304683D01*
X144199090Y-78088559D01*
X144130994Y-78042031D01*
X144273327Y-77899698D01*
X144370000Y-77666309D01*
X144370000Y-77075750D01*
X144211250Y-76917000D01*
X143237000Y-76917000D01*
X143237000Y-76937000D01*
X142983000Y-76937000D01*
X142983000Y-76917000D01*
X142008750Y-76917000D01*
X141850000Y-77075750D01*
X141850000Y-77666309D01*
X141946673Y-77899698D01*
X142087910Y-78040936D01*
X142033559Y-78075910D01*
X141888569Y-78288110D01*
X141837560Y-78540000D01*
X141837560Y-80040000D01*
X141881838Y-80275317D01*
X142020910Y-80491441D01*
X142233110Y-80636431D01*
X142485000Y-80687440D01*
X143735000Y-80687440D01*
X143970317Y-80643162D01*
X144186441Y-80504090D01*
X144331431Y-80291890D01*
X144375352Y-80075000D01*
X145110000Y-80075000D01*
X145410407Y-80015245D01*
X145665079Y-79845079D01*
X145855179Y-79654979D01*
X146104775Y-79655197D01*
X146485000Y-79498091D01*
X146485000Y-79499995D01*
X146484999Y-79500000D01*
X146522530Y-79688675D01*
X146552367Y-79838675D01*
X146713614Y-80080000D01*
X146744210Y-80125790D01*
X147628710Y-81010289D01*
X147632367Y-81028675D01*
X147824210Y-81315790D01*
X148111325Y-81507633D01*
X148450000Y-81575000D01*
X152509205Y-81575000D01*
X152451709Y-81620820D01*
X151583347Y-82655692D01*
X151457592Y-82351343D01*
X151110485Y-82003629D01*
X150656734Y-81815215D01*
X150165421Y-81814786D01*
X149711343Y-82002408D01*
X149363629Y-82349515D01*
X149175215Y-82803266D01*
X149174786Y-83294579D01*
X149362408Y-83748657D01*
X149525000Y-83911533D01*
X149525000Y-84399995D01*
X149524999Y-84400000D01*
X149579325Y-84673108D01*
X149592367Y-84738675D01*
X149771213Y-85006338D01*
X149784210Y-85025790D01*
X152708016Y-87949595D01*
X151478628Y-87128144D01*
X149850000Y-86804190D01*
X148221372Y-87128144D01*
X146840688Y-88050688D01*
X145918144Y-89431372D01*
X145594190Y-91060000D01*
X145918144Y-92688628D01*
X146840688Y-94069312D01*
X148221372Y-94991856D01*
X149850000Y-95315810D01*
X151478628Y-94991856D01*
X152859312Y-94069312D01*
X153781856Y-92688628D01*
X154105810Y-91060000D01*
X153781856Y-89431372D01*
X152960405Y-88201984D01*
X153121211Y-88362790D01*
X153121213Y-88362793D01*
X153408328Y-88554636D01*
X153414130Y-88555790D01*
X153747003Y-88622004D01*
X153747008Y-88622003D01*
X155712560Y-88622003D01*
X155712560Y-93430000D01*
X155756838Y-93665317D01*
X155895910Y-93881441D01*
X156108110Y-94026431D01*
X156360000Y-94077440D01*
X158360000Y-94077440D01*
X158456677Y-94059249D01*
X158484755Y-94200407D01*
X158654921Y-94455079D01*
X159404921Y-95205079D01*
X159421428Y-95216109D01*
X158259900Y-97063579D01*
X158231149Y-97093455D01*
X158126505Y-97360464D01*
X158132007Y-97647194D01*
X158246816Y-97909992D01*
X158453455Y-98108851D01*
X161272142Y-99915000D01*
X159320005Y-99915000D01*
X159320000Y-99914999D01*
X159019594Y-99974755D01*
X158764921Y-100144921D01*
X158764919Y-100144924D01*
X156998099Y-101911744D01*
X156847767Y-101547914D01*
X156670000Y-101369837D01*
X156670000Y-99265000D01*
X156610245Y-98964594D01*
X156440079Y-98709921D01*
X156071410Y-98341252D01*
X157357592Y-97223191D01*
X157506139Y-97035392D01*
X157578010Y-96788643D01*
X157548220Y-96533372D01*
X157421462Y-96309803D01*
X156109344Y-94800384D01*
X155921546Y-94651837D01*
X155674796Y-94579966D01*
X155419525Y-94609756D01*
X155195956Y-94736514D01*
X151422408Y-98016809D01*
X151273861Y-98204608D01*
X151201990Y-98451357D01*
X151231780Y-98706628D01*
X151358538Y-98930197D01*
X152670656Y-100439616D01*
X152858454Y-100588163D01*
X153105204Y-100660034D01*
X153360475Y-100630244D01*
X153584044Y-100503486D01*
X154883622Y-99373780D01*
X155100000Y-99590158D01*
X155100000Y-101369898D01*
X154923355Y-101546235D01*
X154750197Y-101963244D01*
X154749803Y-102414775D01*
X154890382Y-102755000D01*
X147420024Y-102755000D01*
X147641645Y-102533765D01*
X147814803Y-102116756D01*
X147815197Y-101665225D01*
X147642767Y-101247914D01*
X147369297Y-100973967D01*
X147508393Y-100921528D01*
X147694656Y-100744449D01*
X148841809Y-99106145D01*
X148940511Y-98887988D01*
X148950553Y-98631181D01*
X148859892Y-98390700D01*
X148682813Y-98204437D01*
X144587052Y-95336555D01*
X144368895Y-95237853D01*
X144112088Y-95227811D01*
X143871607Y-95318472D01*
X143685344Y-95495551D01*
X142538191Y-97133855D01*
X142439489Y-97352012D01*
X142429447Y-97608819D01*
X142520108Y-97849300D01*
X142697187Y-98035563D01*
X143783728Y-98796367D01*
X143714755Y-98899593D01*
X143681805Y-99065245D01*
X143655000Y-99200000D01*
X143655000Y-100357106D01*
X143714755Y-100657513D01*
X143884921Y-100912185D01*
X145417813Y-102445076D01*
X145417815Y-102445079D01*
X145672488Y-102615245D01*
X145831901Y-102646955D01*
X145939758Y-102755000D01*
X144675158Y-102755000D01*
X144583719Y-102663561D01*
X144523446Y-102623288D01*
X144325000Y-102424842D01*
X144325000Y-101890000D01*
X144265245Y-101589594D01*
X144095079Y-101334921D01*
X141245079Y-98484921D01*
X140990407Y-98314755D01*
X140690000Y-98255000D01*
X139195000Y-98255000D01*
X139195000Y-95570000D01*
X139135245Y-95269594D01*
X138965079Y-95014921D01*
X138934943Y-94994785D01*
X138275079Y-94334921D01*
X138020407Y-94164755D01*
X137720000Y-94105000D01*
X136696250Y-94105000D01*
X136519147Y-93839946D01*
X136189974Y-93620000D01*
X136519147Y-93400054D01*
X136841054Y-92918285D01*
X136954093Y-92350000D01*
X136841054Y-91781715D01*
X136519147Y-91299946D01*
X136189974Y-91080000D01*
X136519147Y-90860054D01*
X136841054Y-90378285D01*
X136954093Y-89810000D01*
X136841054Y-89241715D01*
X136519147Y-88759946D01*
X136234873Y-88570000D01*
X140092560Y-88570000D01*
X140092560Y-93570000D01*
X140136838Y-93805317D01*
X140275910Y-94021441D01*
X140488110Y-94166431D01*
X140740000Y-94217440D01*
X142740000Y-94217440D01*
X142975317Y-94173162D01*
X143191441Y-94034090D01*
X143336431Y-93821890D01*
X143387440Y-93570000D01*
X143387440Y-88570000D01*
X143343162Y-88334683D01*
X143204090Y-88118559D01*
X142991890Y-87973569D01*
X142740000Y-87922560D01*
X140740000Y-87922560D01*
X140504683Y-87966838D01*
X140288559Y-88105910D01*
X140143569Y-88318110D01*
X140092560Y-88570000D01*
X136234873Y-88570000D01*
X136189974Y-88540000D01*
X136519147Y-88320054D01*
X136841054Y-87838285D01*
X136954093Y-87270000D01*
X136841054Y-86701715D01*
X136566669Y-86291068D01*
X139013274Y-88163662D01*
X139032362Y-88173046D01*
X139047296Y-88188195D01*
X139160427Y-88236006D01*
X139270637Y-88290187D01*
X139291864Y-88291552D01*
X139311458Y-88299833D01*
X139434271Y-88300711D01*
X139556828Y-88308593D01*
X139576962Y-88301731D01*
X139598233Y-88301883D01*
X139712033Y-88255696D01*
X139828278Y-88216078D01*
X139844253Y-88202034D01*
X139863964Y-88194034D01*
X139951433Y-88107807D01*
X140043661Y-88026726D01*
X140053044Y-88007639D01*
X140068195Y-87992704D01*
X141911949Y-85275592D01*
X142347966Y-85275592D01*
X142373297Y-85531344D01*
X142496133Y-85757092D01*
X143781709Y-87289180D01*
X143966887Y-87440981D01*
X144212344Y-87517148D01*
X144468096Y-87491818D01*
X144693843Y-87368981D01*
X148524065Y-84155043D01*
X148675867Y-83969865D01*
X148752034Y-83724408D01*
X148726703Y-83468656D01*
X148603867Y-83242908D01*
X147318291Y-81710820D01*
X147133113Y-81559019D01*
X146887656Y-81482852D01*
X146631904Y-81508182D01*
X146406157Y-81631019D01*
X142575935Y-84844957D01*
X142424133Y-85030135D01*
X142347966Y-85275592D01*
X141911949Y-85275592D01*
X142348195Y-84632703D01*
X142394460Y-84523229D01*
X142448065Y-84417150D01*
X142449969Y-84391883D01*
X142459833Y-84368542D01*
X142460683Y-84249697D01*
X142469613Y-84131178D01*
X142461702Y-84107103D01*
X142461883Y-84081767D01*
X142417190Y-83971648D01*
X142380084Y-83858728D01*
X142363563Y-83839514D01*
X142354034Y-83816036D01*
X142270595Y-83731395D01*
X142193108Y-83641279D01*
X140130467Y-82026343D01*
X140156371Y-82000485D01*
X140344785Y-81546734D01*
X140344986Y-81316594D01*
X140884139Y-80777440D01*
X140955000Y-80777440D01*
X141190317Y-80733162D01*
X141406441Y-80594090D01*
X141551431Y-80381890D01*
X141602440Y-80130000D01*
X141602440Y-78630000D01*
X141558162Y-78394683D01*
X141419090Y-78178559D01*
X141350994Y-78132031D01*
X141493327Y-77989698D01*
X141590000Y-77756309D01*
X141590000Y-77165750D01*
X141431250Y-77007000D01*
X140457000Y-77007000D01*
X140457000Y-77027000D01*
X140203000Y-77027000D01*
X140203000Y-77007000D01*
X139228750Y-77007000D01*
X139167500Y-77068250D01*
X139076250Y-76977000D01*
X138077000Y-76977000D01*
X138077000Y-76997000D01*
X137823000Y-76997000D01*
X137823000Y-76977000D01*
X136823750Y-76977000D01*
X136665000Y-77135750D01*
X136665000Y-77726309D01*
X136761673Y-77959698D01*
X136940301Y-78138327D01*
X137076287Y-78194654D01*
X137064683Y-78196838D01*
X136848559Y-78335910D01*
X136703569Y-78548110D01*
X136671798Y-78705000D01*
X135510000Y-78705000D01*
X135209594Y-78764755D01*
X134954921Y-78934921D01*
X134304921Y-79584921D01*
X134134755Y-79839593D01*
X134099341Y-80017632D01*
X134075000Y-80140000D01*
X134075000Y-80512560D01*
X133200000Y-80512560D01*
X132964683Y-80556838D01*
X132748559Y-80695910D01*
X132603569Y-80908110D01*
X132552560Y-81160000D01*
X132552560Y-82460000D01*
X132596838Y-82695317D01*
X132735910Y-82911441D01*
X132948110Y-83056431D01*
X133200000Y-83107440D01*
X134700000Y-83107440D01*
X134935317Y-83063162D01*
X135151441Y-82924090D01*
X135296431Y-82711890D01*
X135299081Y-82698803D01*
X135435910Y-82911441D01*
X135648110Y-83056431D01*
X135765000Y-83080102D01*
X135765000Y-83573421D01*
X135593420Y-83745000D01*
X134950005Y-83745000D01*
X134950000Y-83744999D01*
X134949995Y-83745000D01*
X130024381Y-83745000D01*
X130028040Y-83726511D01*
X130023591Y-79113064D01*
X130568604Y-79810649D01*
X130748371Y-79968821D01*
X130991021Y-80053508D01*
X131247501Y-80037118D01*
X131477398Y-79922235D01*
X132817016Y-78875611D01*
X132975188Y-78695844D01*
X133059875Y-78453194D01*
X133043485Y-78196714D01*
X133012734Y-78135176D01*
X133063743Y-78151998D01*
X133641569Y-78109069D01*
X134158982Y-77848285D01*
X134537212Y-77409345D01*
X134718677Y-76859076D01*
X134689343Y-76464240D01*
X135065291Y-76588218D01*
X135643117Y-76545289D01*
X136160530Y-76284505D01*
X136428355Y-75973691D01*
X136665000Y-75973691D01*
X136665000Y-76564250D01*
X136823750Y-76723000D01*
X137823000Y-76723000D01*
X137823000Y-75623750D01*
X138077000Y-75623750D01*
X138077000Y-76723000D01*
X139076250Y-76723000D01*
X139137500Y-76661750D01*
X139228750Y-76753000D01*
X140203000Y-76753000D01*
X140203000Y-75653750D01*
X140457000Y-75653750D01*
X140457000Y-76753000D01*
X141431250Y-76753000D01*
X141590000Y-76594250D01*
X141590000Y-76003691D01*
X141552721Y-75913691D01*
X141850000Y-75913691D01*
X141850000Y-76504250D01*
X142008750Y-76663000D01*
X142983000Y-76663000D01*
X142983000Y-75563750D01*
X143237000Y-75563750D01*
X143237000Y-76663000D01*
X144211250Y-76663000D01*
X144370000Y-76504250D01*
X144370000Y-75913691D01*
X144273327Y-75680302D01*
X144094699Y-75501673D01*
X143861310Y-75405000D01*
X143395750Y-75405000D01*
X143237000Y-75563750D01*
X142983000Y-75563750D01*
X142824250Y-75405000D01*
X142358690Y-75405000D01*
X142125301Y-75501673D01*
X141946673Y-75680302D01*
X141850000Y-75913691D01*
X141552721Y-75913691D01*
X141493327Y-75770302D01*
X141314699Y-75591673D01*
X141081310Y-75495000D01*
X140615750Y-75495000D01*
X140457000Y-75653750D01*
X140203000Y-75653750D01*
X140044250Y-75495000D01*
X139578690Y-75495000D01*
X139345301Y-75591673D01*
X139166673Y-75770302D01*
X139158713Y-75789519D01*
X139138327Y-75740302D01*
X138959699Y-75561673D01*
X138726310Y-75465000D01*
X138235750Y-75465000D01*
X138077000Y-75623750D01*
X137823000Y-75623750D01*
X137664250Y-75465000D01*
X137173690Y-75465000D01*
X136940301Y-75561673D01*
X136761673Y-75740302D01*
X136665000Y-75973691D01*
X136428355Y-75973691D01*
X136538760Y-75845565D01*
X136720225Y-75295296D01*
X136690891Y-74900460D01*
X137066838Y-75024438D01*
X137644664Y-74981509D01*
X138162077Y-74720725D01*
X138540307Y-74281785D01*
X138721772Y-73731516D01*
X138692438Y-73336679D01*
X139068385Y-73460657D01*
X139646211Y-73417728D01*
X140163624Y-73156944D01*
X140541854Y-72718004D01*
X140723319Y-72167735D01*
X140692958Y-71759076D01*
X140833829Y-71830371D01*
X141411586Y-71874258D01*
X141839256Y-71755645D01*
X141945719Y-71518508D01*
X141211140Y-70578289D01*
X141195380Y-70590602D01*
X141063584Y-70421911D01*
X141411294Y-70421911D01*
X142145874Y-71362130D01*
X142401722Y-71316198D01*
X142620275Y-70929927D01*
X142717463Y-70358714D01*
X142588659Y-69793790D01*
X142352037Y-69686923D01*
X141411294Y-70421911D01*
X141063584Y-70421911D01*
X141039002Y-70390448D01*
X141054762Y-70378135D01*
X140320182Y-69437916D01*
X140064334Y-69483848D01*
X139845781Y-69870119D01*
X139748593Y-70441332D01*
X139783691Y-70595270D01*
X139394575Y-70466949D01*
X138816749Y-70509878D01*
X138739784Y-70548669D01*
X138734348Y-70416994D01*
X138732994Y-70414071D01*
X138732833Y-70410855D01*
X138672742Y-70284057D01*
X138613765Y-70156794D01*
X138611397Y-70154614D01*
X138610017Y-70151702D01*
X137963610Y-69281538D01*
X140520337Y-69281538D01*
X141254916Y-70221757D01*
X142195659Y-69486768D01*
X142149210Y-69231321D01*
X141632227Y-68969675D01*
X141054470Y-68925788D01*
X140626800Y-69044401D01*
X140520337Y-69281538D01*
X137963610Y-69281538D01*
X137820949Y-69089495D01*
X139401451Y-68275000D01*
X148555205Y-68275000D01*
X148554786Y-68754579D01*
G36*
X127059515Y-85676371D02*
X127513266Y-85864785D01*
X128004579Y-85865214D01*
X128458657Y-85677592D01*
X128621533Y-85515000D01*
X134555000Y-85515000D01*
X134555000Y-86090221D01*
X134360853Y-86219946D01*
X134356903Y-86225858D01*
X134288327Y-86060301D01*
X134109698Y-85881673D01*
X133876309Y-85785000D01*
X133185750Y-85785000D01*
X133027000Y-85943750D01*
X133027000Y-87143000D01*
X133047000Y-87143000D01*
X133047000Y-87397000D01*
X133027000Y-87397000D01*
X133027000Y-87417000D01*
X132773000Y-87417000D01*
X132773000Y-87397000D01*
X131573750Y-87397000D01*
X131415000Y-87555750D01*
X131415000Y-88246310D01*
X131511673Y-88479699D01*
X131690302Y-88658327D01*
X131864777Y-88730597D01*
X131820853Y-88759946D01*
X131498946Y-89241715D01*
X131385907Y-89810000D01*
X131498946Y-90378285D01*
X131820853Y-90860054D01*
X132150026Y-91080000D01*
X131820853Y-91299946D01*
X131643750Y-91565000D01*
X130015158Y-91565000D01*
X129947598Y-91497440D01*
X129950000Y-91497440D01*
X130185317Y-91453162D01*
X130401441Y-91314090D01*
X130546431Y-91101890D01*
X130597440Y-90850000D01*
X130597440Y-90050000D01*
X130553162Y-89814683D01*
X130414090Y-89598559D01*
X130201890Y-89453569D01*
X129950000Y-89402560D01*
X128250000Y-89402560D01*
X128014683Y-89446838D01*
X127798559Y-89585910D01*
X127653569Y-89798110D01*
X127602560Y-90050000D01*
X127602560Y-90850000D01*
X127646838Y-91085317D01*
X127785910Y-91301441D01*
X127998110Y-91446431D01*
X128250000Y-91497440D01*
X128295000Y-91497440D01*
X128295000Y-91740000D01*
X128354755Y-92040407D01*
X128524921Y-92295079D01*
X129134921Y-92905079D01*
X129389593Y-93075245D01*
X129690000Y-93135000D01*
X131643750Y-93135000D01*
X131820853Y-93400054D01*
X132150026Y-93620000D01*
X131820853Y-93839946D01*
X131498946Y-94321715D01*
X131385907Y-94890000D01*
X131498946Y-95458285D01*
X131820853Y-95940054D01*
X132150026Y-96160000D01*
X131820853Y-96379946D01*
X131498946Y-96861715D01*
X131385907Y-97430000D01*
X131498946Y-97998285D01*
X131820853Y-98480054D01*
X132150026Y-98700000D01*
X131820853Y-98919946D01*
X131643750Y-99185000D01*
X129925158Y-99185000D01*
X129795000Y-99054842D01*
X129795000Y-98837440D01*
X129860000Y-98837440D01*
X130095317Y-98793162D01*
X130311441Y-98654090D01*
X130456431Y-98441890D01*
X130507440Y-98190000D01*
X130507440Y-97390000D01*
X130463162Y-97154683D01*
X130324090Y-96938559D01*
X130111890Y-96793569D01*
X129860000Y-96742560D01*
X128160000Y-96742560D01*
X127924683Y-96786838D01*
X127835000Y-96844547D01*
X127835000Y-95421574D01*
X127890842Y-95365830D01*
X128033690Y-95425000D01*
X128724250Y-95425000D01*
X128883000Y-95266250D01*
X128883000Y-94517000D01*
X129137000Y-94517000D01*
X129137000Y-95266250D01*
X129295750Y-95425000D01*
X129986310Y-95425000D01*
X130219699Y-95328327D01*
X130398327Y-95149698D01*
X130495000Y-94916309D01*
X130495000Y-94675750D01*
X130336250Y-94517000D01*
X129137000Y-94517000D01*
X128883000Y-94517000D01*
X128863000Y-94517000D01*
X128863000Y-94263000D01*
X128883000Y-94263000D01*
X128883000Y-93513750D01*
X129137000Y-93513750D01*
X129137000Y-94263000D01*
X130336250Y-94263000D01*
X130495000Y-94104250D01*
X130495000Y-93863691D01*
X130398327Y-93630302D01*
X130219699Y-93451673D01*
X129986310Y-93355000D01*
X129295750Y-93355000D01*
X129137000Y-93513750D01*
X128883000Y-93513750D01*
X128724250Y-93355000D01*
X128033690Y-93355000D01*
X127800301Y-93451673D01*
X127694377Y-93557598D01*
X127650485Y-93513629D01*
X127196734Y-93325215D01*
X126889783Y-93324947D01*
X126893042Y-87335750D01*
X127615000Y-87335750D01*
X127615000Y-87576309D01*
X127711673Y-87809698D01*
X127890301Y-87988327D01*
X128123690Y-88085000D01*
X128814250Y-88085000D01*
X128973000Y-87926250D01*
X128973000Y-87177000D01*
X129227000Y-87177000D01*
X129227000Y-87926250D01*
X129385750Y-88085000D01*
X130076310Y-88085000D01*
X130309699Y-87988327D01*
X130488327Y-87809698D01*
X130585000Y-87576309D01*
X130585000Y-87335750D01*
X130426250Y-87177000D01*
X129227000Y-87177000D01*
X128973000Y-87177000D01*
X127773750Y-87177000D01*
X127615000Y-87335750D01*
X126893042Y-87335750D01*
X126893484Y-86523691D01*
X127615000Y-86523691D01*
X127615000Y-86764250D01*
X127773750Y-86923000D01*
X128973000Y-86923000D01*
X128973000Y-86173750D01*
X129227000Y-86173750D01*
X129227000Y-86923000D01*
X130426250Y-86923000D01*
X130585000Y-86764250D01*
X130585000Y-86523691D01*
X130489731Y-86293690D01*
X131415000Y-86293690D01*
X131415000Y-86984250D01*
X131573750Y-87143000D01*
X132773000Y-87143000D01*
X132773000Y-85943750D01*
X132614250Y-85785000D01*
X131923691Y-85785000D01*
X131690302Y-85881673D01*
X131511673Y-86060301D01*
X131415000Y-86293690D01*
X130489731Y-86293690D01*
X130488327Y-86290302D01*
X130309699Y-86111673D01*
X130076310Y-86015000D01*
X129385750Y-86015000D01*
X129227000Y-86173750D01*
X128973000Y-86173750D01*
X128814250Y-86015000D01*
X128123690Y-86015000D01*
X127890301Y-86111673D01*
X127711673Y-86290302D01*
X127615000Y-86523691D01*
X126893484Y-86523691D01*
X126894036Y-85510603D01*
X127059515Y-85676371D01*
X127059515Y-85676371D01*
G37*
X127059515Y-85676371D02*
X127513266Y-85864785D01*
X128004579Y-85865214D01*
X128458657Y-85677592D01*
X128621533Y-85515000D01*
X134555000Y-85515000D01*
X134555000Y-86090221D01*
X134360853Y-86219946D01*
X134356903Y-86225858D01*
X134288327Y-86060301D01*
X134109698Y-85881673D01*
X133876309Y-85785000D01*
X133185750Y-85785000D01*
X133027000Y-85943750D01*
X133027000Y-87143000D01*
X133047000Y-87143000D01*
X133047000Y-87397000D01*
X133027000Y-87397000D01*
X133027000Y-87417000D01*
X132773000Y-87417000D01*
X132773000Y-87397000D01*
X131573750Y-87397000D01*
X131415000Y-87555750D01*
X131415000Y-88246310D01*
X131511673Y-88479699D01*
X131690302Y-88658327D01*
X131864777Y-88730597D01*
X131820853Y-88759946D01*
X131498946Y-89241715D01*
X131385907Y-89810000D01*
X131498946Y-90378285D01*
X131820853Y-90860054D01*
X132150026Y-91080000D01*
X131820853Y-91299946D01*
X131643750Y-91565000D01*
X130015158Y-91565000D01*
X129947598Y-91497440D01*
X129950000Y-91497440D01*
X130185317Y-91453162D01*
X130401441Y-91314090D01*
X130546431Y-91101890D01*
X130597440Y-90850000D01*
X130597440Y-90050000D01*
X130553162Y-89814683D01*
X130414090Y-89598559D01*
X130201890Y-89453569D01*
X129950000Y-89402560D01*
X128250000Y-89402560D01*
X128014683Y-89446838D01*
X127798559Y-89585910D01*
X127653569Y-89798110D01*
X127602560Y-90050000D01*
X127602560Y-90850000D01*
X127646838Y-91085317D01*
X127785910Y-91301441D01*
X127998110Y-91446431D01*
X128250000Y-91497440D01*
X128295000Y-91497440D01*
X128295000Y-91740000D01*
X128354755Y-92040407D01*
X128524921Y-92295079D01*
X129134921Y-92905079D01*
X129389593Y-93075245D01*
X129690000Y-93135000D01*
X131643750Y-93135000D01*
X131820853Y-93400054D01*
X132150026Y-93620000D01*
X131820853Y-93839946D01*
X131498946Y-94321715D01*
X131385907Y-94890000D01*
X131498946Y-95458285D01*
X131820853Y-95940054D01*
X132150026Y-96160000D01*
X131820853Y-96379946D01*
X131498946Y-96861715D01*
X131385907Y-97430000D01*
X131498946Y-97998285D01*
X131820853Y-98480054D01*
X132150026Y-98700000D01*
X131820853Y-98919946D01*
X131643750Y-99185000D01*
X129925158Y-99185000D01*
X129795000Y-99054842D01*
X129795000Y-98837440D01*
X129860000Y-98837440D01*
X130095317Y-98793162D01*
X130311441Y-98654090D01*
X130456431Y-98441890D01*
X130507440Y-98190000D01*
X130507440Y-97390000D01*
X130463162Y-97154683D01*
X130324090Y-96938559D01*
X130111890Y-96793569D01*
X129860000Y-96742560D01*
X128160000Y-96742560D01*
X127924683Y-96786838D01*
X127835000Y-96844547D01*
X127835000Y-95421574D01*
X127890842Y-95365830D01*
X128033690Y-95425000D01*
X128724250Y-95425000D01*
X128883000Y-95266250D01*
X128883000Y-94517000D01*
X129137000Y-94517000D01*
X129137000Y-95266250D01*
X129295750Y-95425000D01*
X129986310Y-95425000D01*
X130219699Y-95328327D01*
X130398327Y-95149698D01*
X130495000Y-94916309D01*
X130495000Y-94675750D01*
X130336250Y-94517000D01*
X129137000Y-94517000D01*
X128883000Y-94517000D01*
X128863000Y-94517000D01*
X128863000Y-94263000D01*
X128883000Y-94263000D01*
X128883000Y-93513750D01*
X129137000Y-93513750D01*
X129137000Y-94263000D01*
X130336250Y-94263000D01*
X130495000Y-94104250D01*
X130495000Y-93863691D01*
X130398327Y-93630302D01*
X130219699Y-93451673D01*
X129986310Y-93355000D01*
X129295750Y-93355000D01*
X129137000Y-93513750D01*
X128883000Y-93513750D01*
X128724250Y-93355000D01*
X128033690Y-93355000D01*
X127800301Y-93451673D01*
X127694377Y-93557598D01*
X127650485Y-93513629D01*
X127196734Y-93325215D01*
X126889783Y-93324947D01*
X126893042Y-87335750D01*
X127615000Y-87335750D01*
X127615000Y-87576309D01*
X127711673Y-87809698D01*
X127890301Y-87988327D01*
X128123690Y-88085000D01*
X128814250Y-88085000D01*
X128973000Y-87926250D01*
X128973000Y-87177000D01*
X129227000Y-87177000D01*
X129227000Y-87926250D01*
X129385750Y-88085000D01*
X130076310Y-88085000D01*
X130309699Y-87988327D01*
X130488327Y-87809698D01*
X130585000Y-87576309D01*
X130585000Y-87335750D01*
X130426250Y-87177000D01*
X129227000Y-87177000D01*
X128973000Y-87177000D01*
X127773750Y-87177000D01*
X127615000Y-87335750D01*
X126893042Y-87335750D01*
X126893484Y-86523691D01*
X127615000Y-86523691D01*
X127615000Y-86764250D01*
X127773750Y-86923000D01*
X128973000Y-86923000D01*
X128973000Y-86173750D01*
X129227000Y-86173750D01*
X129227000Y-86923000D01*
X130426250Y-86923000D01*
X130585000Y-86764250D01*
X130585000Y-86523691D01*
X130489731Y-86293690D01*
X131415000Y-86293690D01*
X131415000Y-86984250D01*
X131573750Y-87143000D01*
X132773000Y-87143000D01*
X132773000Y-85943750D01*
X132614250Y-85785000D01*
X131923691Y-85785000D01*
X131690302Y-85881673D01*
X131511673Y-86060301D01*
X131415000Y-86293690D01*
X130489731Y-86293690D01*
X130488327Y-86290302D01*
X130309699Y-86111673D01*
X130076310Y-86015000D01*
X129385750Y-86015000D01*
X129227000Y-86173750D01*
X128973000Y-86173750D01*
X128814250Y-86015000D01*
X128123690Y-86015000D01*
X127890301Y-86111673D01*
X127711673Y-86290302D01*
X127615000Y-86523691D01*
X126893484Y-86523691D01*
X126894036Y-85510603D01*
X127059515Y-85676371D01*
G36*
X157285000Y-71875158D02*
X157285000Y-77210000D01*
X157344755Y-77510407D01*
X157514921Y-77765079D01*
X158425000Y-78675157D01*
X158425000Y-84669898D01*
X158248355Y-84846235D01*
X158075197Y-85263244D01*
X158074803Y-85714775D01*
X158198469Y-86014069D01*
X158056734Y-85955215D01*
X157565421Y-85954786D01*
X157111343Y-86142408D01*
X156945232Y-86308230D01*
X156693946Y-86358215D01*
X157273867Y-85667092D01*
X157391207Y-85458367D01*
X157423593Y-85203412D01*
X157354237Y-84955945D01*
X157194065Y-84754957D01*
X154989257Y-82904904D01*
X155344579Y-82905214D01*
X155534828Y-82826605D01*
X155534803Y-82854775D01*
X155707233Y-83272086D01*
X156026235Y-83591645D01*
X156443244Y-83764803D01*
X156894775Y-83765197D01*
X157312086Y-83592767D01*
X157631645Y-83273765D01*
X157804803Y-82856756D01*
X157805197Y-82405225D01*
X157632767Y-81987914D01*
X157455000Y-81809837D01*
X157455000Y-78430000D01*
X157402436Y-78165746D01*
X157395245Y-78129593D01*
X157225079Y-77874921D01*
X156395079Y-77044921D01*
X156140407Y-76874755D01*
X155840000Y-76815000D01*
X153664152Y-76815000D01*
X153687440Y-76700000D01*
X153687440Y-75100000D01*
X153643162Y-74864683D01*
X153504090Y-74648559D01*
X153479512Y-74631766D01*
X153491441Y-74624090D01*
X153636431Y-74411890D01*
X153670227Y-74245000D01*
X153909995Y-74245000D01*
X153910000Y-74245001D01*
X154221452Y-74183048D01*
X154248675Y-74177633D01*
X154535790Y-73985790D01*
X154866565Y-73655015D01*
X155094579Y-73655214D01*
X155548657Y-73467592D01*
X155896371Y-73120485D01*
X156084785Y-72666734D01*
X156085214Y-72175421D01*
X155897592Y-71721343D01*
X155791435Y-71615000D01*
X157024842Y-71615000D01*
X157285000Y-71875158D01*
X157285000Y-71875158D01*
G37*
X157285000Y-71875158D02*
X157285000Y-77210000D01*
X157344755Y-77510407D01*
X157514921Y-77765079D01*
X158425000Y-78675157D01*
X158425000Y-84669898D01*
X158248355Y-84846235D01*
X158075197Y-85263244D01*
X158074803Y-85714775D01*
X158198469Y-86014069D01*
X158056734Y-85955215D01*
X157565421Y-85954786D01*
X157111343Y-86142408D01*
X156945232Y-86308230D01*
X156693946Y-86358215D01*
X157273867Y-85667092D01*
X157391207Y-85458367D01*
X157423593Y-85203412D01*
X157354237Y-84955945D01*
X157194065Y-84754957D01*
X154989257Y-82904904D01*
X155344579Y-82905214D01*
X155534828Y-82826605D01*
X155534803Y-82854775D01*
X155707233Y-83272086D01*
X156026235Y-83591645D01*
X156443244Y-83764803D01*
X156894775Y-83765197D01*
X157312086Y-83592767D01*
X157631645Y-83273765D01*
X157804803Y-82856756D01*
X157805197Y-82405225D01*
X157632767Y-81987914D01*
X157455000Y-81809837D01*
X157455000Y-78430000D01*
X157402436Y-78165746D01*
X157395245Y-78129593D01*
X157225079Y-77874921D01*
X156395079Y-77044921D01*
X156140407Y-76874755D01*
X155840000Y-76815000D01*
X153664152Y-76815000D01*
X153687440Y-76700000D01*
X153687440Y-75100000D01*
X153643162Y-74864683D01*
X153504090Y-74648559D01*
X153479512Y-74631766D01*
X153491441Y-74624090D01*
X153636431Y-74411890D01*
X153670227Y-74245000D01*
X153909995Y-74245000D01*
X153910000Y-74245001D01*
X154221452Y-74183048D01*
X154248675Y-74177633D01*
X154535790Y-73985790D01*
X154866565Y-73655015D01*
X155094579Y-73655214D01*
X155548657Y-73467592D01*
X155896371Y-73120485D01*
X156084785Y-72666734D01*
X156085214Y-72175421D01*
X155897592Y-71721343D01*
X155791435Y-71615000D01*
X157024842Y-71615000D01*
X157285000Y-71875158D01*
M02*
