M48
;DRILL file {KiCad 4.0.7} date 01/22/18 18:56:26
;FORMAT={-:-/ absolute / inch / decimal}
FMAT,2
INCH,TZ
T1C0.016
T2C0.024
T3C0.030
T4C0.031
T5C0.039
%
G90
G05
M72
T1
X5.4717Y-3.9567
X5.522Y-4.0071
X5.5736Y-4.0646
X5.5807Y-4.4516
X5.7433Y-3.0913
X5.7748Y-4.0114
X5.776Y-4.2555
X6.1372Y-4.0232
X6.1681Y-3.2531
X6.2681Y-3.3657
X6.3083Y-3.6846
X6.3476Y-3.4752
X6.3902Y-3.5311
X6.4413Y-3.5744
X6.4551Y-3.7295
X6.6776Y-3.9563
T2
X4.998Y-3.7228
X5.0299Y-3.3319
X5.1563Y-3.8921
X5.1563Y-3.8921
X5.198Y-3.2638
X5.4335Y-4.1571
X5.4768Y-3.2008
X5.7437Y-2.9937
X5.8591Y-3.0402
X5.8972Y-2.6972
X5.9217Y-3.2697
X6.0965Y-2.8512
X6.0969Y-3.1138
X6.0976Y-2.7437
X6.1012Y-2.9803
X6.1063Y-3.2154
X6.213Y-3.4327
X6.3516Y-3.3039
X6.4311Y-3.4323
X6.4661Y-2.8543
X6.5039Y-3.0945
X6.5091Y-4.1772
X6.5295Y-2.85
X6.6185Y-3.8382
X6.6665Y-3.124
X6.6949Y-3.6531
X6.7445Y-3.3441
X6.7465Y-3.8724
T3
X5.4602Y-4.3157
X5.7642Y-4.4516
X5.9382Y-4.3157
X6.1858Y-4.3157
T5
X5.1664Y-3.0795
X5.2323Y-3.4358
X5.2323Y-3.5358
X5.2323Y-3.6358
X5.2323Y-3.7358
X5.2323Y-3.8358
X5.2323Y-3.9358
X5.2452Y-3.0179
X5.324Y-2.9564
X5.3323Y-3.4358
X5.3323Y-3.5358
X5.3323Y-3.6358
X5.3323Y-3.7358
X5.3323Y-3.8358
X5.3323Y-3.9358
X5.4028Y-2.8948
X5.4816Y-2.8332
X5.5604Y-2.7717
X5.6984Y-2.7972
X5.7984Y-2.7972
T4
X5.5803Y-3.6341G85X5.5803Y-3.5368
G05
X5.6931Y-3.358G85X5.7676Y-3.2955
G05
X5.7757Y-3.8909G85X5.696Y-3.8351
G05
X6.1089Y-3.3545G85X6.0344Y-3.292
G05
X6.0417Y-3.8752G85X6.115Y-3.8114
G05
X6.1953Y-3.6285G85X6.1953Y-3.5313
G05
T0
M30
