G04 #@! TF.FileFunction,Copper,L2,Bot,Signal*
%FSLAX46Y46*%
G04 Gerber Fmt 4.6, Leading zero omitted, Abs format (unit mm)*
G04 Created by KiCad (PCBNEW 4.0.7) date 01/22/18 18:56:20*
%MOMM*%
%LPD*%
G01*
G04 APERTURE LIST*
%ADD10C,0.100000*%
%ADD11R,3.800000X2.000000*%
%ADD12R,1.500000X2.000000*%
%ADD13R,1.250000X1.500000*%
%ADD14R,1.300000X1.500000*%
%ADD15R,0.558800X1.270000*%
%ADD16C,1.270000*%
%ADD17C,3.450000*%
%ADD18C,1.520000*%
%ADD19R,0.900000X1.200000*%
%ADD20O,1.510000X3.010000*%
%ADD21R,1.700000X1.700000*%
%ADD22O,1.700000X1.700000*%
%ADD23R,1.500000X1.300000*%
%ADD24R,2.000000X5.000000*%
%ADD25C,1.700000*%
%ADD26C,1.000000*%
%ADD27C,1.200000*%
%ADD28C,0.300000*%
%ADD29C,0.500000*%
%ADD30C,0.254000*%
G04 APERTURE END LIST*
D10*
G36*
X148311457Y-98734789D02*
X147164304Y-100373093D01*
X143068543Y-97505211D01*
X144215696Y-95866907D01*
X148311457Y-98734789D01*
X148311457Y-98734789D01*
G37*
D11*
X150370000Y-81090000D03*
D12*
X150370000Y-74790000D03*
X152670000Y-74790000D03*
X148070000Y-74790000D03*
D13*
X160170000Y-80830000D03*
X160170000Y-78330000D03*
D14*
X162110000Y-78290000D03*
X162110000Y-80990000D03*
D15*
X160689800Y-75725400D03*
X159750000Y-75725400D03*
X158810200Y-75725400D03*
X158810200Y-73134600D03*
X160689800Y-73134600D03*
D14*
X153620000Y-106250000D03*
X153620000Y-103550000D03*
D16*
X146410000Y-113070000D03*
D17*
X138690000Y-109620000D03*
X150830000Y-109620000D03*
D18*
X157120000Y-109620000D03*
D19*
X140640000Y-75870000D03*
X143940000Y-75870000D03*
X143940000Y-78520000D03*
X140640000Y-78520000D03*
D20*
X144740000Y-71050000D03*
X147280000Y-71050000D03*
D21*
X132900000Y-87270000D03*
D22*
X135440000Y-87270000D03*
X132900000Y-89810000D03*
X135440000Y-89810000D03*
X132900000Y-92350000D03*
X135440000Y-92350000D03*
X132900000Y-94890000D03*
X135440000Y-94890000D03*
X132900000Y-97430000D03*
X135440000Y-97430000D03*
X132900000Y-99970000D03*
X135440000Y-99970000D03*
D14*
X143510000Y-106210000D03*
X143510000Y-103510000D03*
X146680000Y-106270000D03*
X146680000Y-103570000D03*
X150110000Y-106290000D03*
X150110000Y-103590000D03*
D23*
X165420000Y-85790000D03*
X168120000Y-85790000D03*
X165440000Y-90790000D03*
X168140000Y-90790000D03*
X168140000Y-93200000D03*
X165440000Y-93200000D03*
X165440000Y-88290000D03*
X168140000Y-88290000D03*
X158700000Y-70820000D03*
X161400000Y-70820000D03*
D10*
G36*
X153159285Y-100014857D02*
X151847167Y-98505438D01*
X155620715Y-95225143D01*
X156932833Y-96734562D01*
X153159285Y-100014857D01*
X153159285Y-100014857D01*
G37*
D24*
X141740000Y-91070000D03*
X157360000Y-90930000D03*
D14*
X158270000Y-81050000D03*
X158270000Y-78350000D03*
D10*
G36*
X144277677Y-86873013D02*
X142992101Y-85340925D01*
X146822323Y-82126987D01*
X148107899Y-83659075D01*
X144277677Y-86873013D01*
X144277677Y-86873013D01*
G37*
G36*
X156777899Y-85250925D02*
X155492323Y-86783013D01*
X151662101Y-83569075D01*
X152947677Y-82036987D01*
X156777899Y-85250925D01*
X156777899Y-85250925D01*
G37*
G36*
X132418412Y-78365421D02*
X131078794Y-79412045D01*
X130032170Y-78072427D01*
X131371788Y-77025803D01*
X132418412Y-78365421D01*
X132418412Y-78365421D01*
G37*
D25*
X133226838Y-76655144D02*
X133226838Y-76655144D01*
X135228386Y-75091364D02*
X135228386Y-75091364D01*
X137229933Y-73527584D02*
X137229933Y-73527584D01*
X139231480Y-71963803D02*
X139231480Y-71963803D01*
X141233028Y-70400023D02*
X141233028Y-70400023D01*
D26*
X141750000Y-113070000D03*
D27*
X132030000Y-82900000D03*
X130970000Y-98860000D03*
X130970000Y-98860000D03*
X154860000Y-79090000D03*
X154970000Y-75700000D03*
X148820000Y-77220000D03*
X138010000Y-105590000D03*
D26*
X145880000Y-78520000D03*
D27*
X155100000Y-81670000D03*
X145890000Y-76040000D03*
X139110000Y-81300000D03*
X157810000Y-87190000D03*
X163350000Y-87180000D03*
X150410000Y-83050000D03*
X154850000Y-72420000D03*
X154880000Y-69690000D03*
X165850000Y-72390000D03*
X171310000Y-84940000D03*
X171360000Y-98360000D03*
X127760000Y-84630000D03*
X126950000Y-94560000D03*
X165330000Y-106100000D03*
X161330000Y-83920000D03*
X164240000Y-72500000D03*
X170050000Y-92790000D03*
X165200000Y-78600000D03*
X169330000Y-79350000D03*
X168110000Y-97490000D03*
X149790000Y-68510000D03*
D26*
X156670000Y-82630000D03*
X155885000Y-102190000D03*
X146680000Y-101890000D03*
X163610000Y-90790000D03*
X141570000Y-103240000D03*
X169610000Y-100490000D03*
X140260000Y-101780000D03*
X161230000Y-88270000D03*
X138980000Y-100500000D03*
X159210000Y-85490000D03*
X160230000Y-93590000D03*
X146710000Y-108090000D03*
X162310000Y-89690000D03*
X163960001Y-94730000D03*
D28*
X146410000Y-113070000D02*
X141750000Y-113070000D01*
D29*
X132030000Y-84950000D02*
X132900000Y-85820000D01*
X132900000Y-85820000D02*
X132900000Y-87270000D01*
X132030000Y-82900000D02*
X132030000Y-84950000D01*
X130970000Y-98860000D02*
X130970000Y-104650000D01*
X130970000Y-104650000D02*
X131910000Y-105590000D01*
X131910000Y-105590000D02*
X138010000Y-105590000D01*
X154860000Y-79090000D02*
X154860000Y-75810000D01*
X154860000Y-75810000D02*
X154970000Y-75700000D01*
X154870000Y-77830000D02*
X154870000Y-75800000D01*
X154870000Y-75800000D02*
X154970000Y-75700000D01*
X160170000Y-78330000D02*
X159750000Y-77910000D01*
X159750000Y-77910000D02*
X159750000Y-75725400D01*
X148070000Y-74790000D02*
X148070000Y-76470000D01*
X148070000Y-76470000D02*
X148820000Y-77220000D01*
X147510000Y-110950000D02*
X143950000Y-110950000D01*
X138609999Y-106189999D02*
X139189999Y-106189999D01*
X138010000Y-105590000D02*
X138609999Y-106189999D01*
X139189999Y-106189999D02*
X143950000Y-110950000D01*
X159750000Y-72120000D02*
X159750000Y-74450000D01*
X159750000Y-74450000D02*
X159750000Y-75725400D01*
X159630000Y-72000000D02*
X159750000Y-72120000D01*
X159000000Y-72000000D02*
X159630000Y-72000000D01*
X158700000Y-71700000D02*
X159000000Y-72000000D01*
X158700000Y-70820000D02*
X158700000Y-71700000D01*
X158620000Y-70930000D02*
X158620000Y-69550000D01*
X159040000Y-69130000D02*
X162050000Y-69130000D01*
X158620000Y-69550000D02*
X159040000Y-69130000D01*
X163050000Y-70130000D02*
X163050000Y-75830000D01*
X162050000Y-69130000D02*
X163050000Y-70130000D01*
X163050000Y-75830000D02*
X163730000Y-76510000D01*
X163730000Y-76510000D02*
X163730000Y-81850000D01*
X163730000Y-81850000D02*
X165020000Y-83140000D01*
X165020000Y-83140000D02*
X166620000Y-83140000D01*
X166620000Y-83140000D02*
X168120000Y-84640000D01*
X168120000Y-84640000D02*
X168120000Y-85790000D01*
X168140000Y-88290000D02*
X168140000Y-85810000D01*
X168140000Y-85810000D02*
X168120000Y-85790000D01*
X168140000Y-90790000D02*
X168140000Y-88290000D01*
X168140000Y-93200000D02*
X168140000Y-90790000D01*
X148970000Y-112410000D02*
X147510000Y-110950000D01*
X155404802Y-112410000D02*
X148970000Y-112410000D01*
X157120000Y-109620000D02*
X157120000Y-110694802D01*
X157120000Y-110694802D02*
X155404802Y-112410000D01*
D28*
X145880000Y-78520000D02*
X152120000Y-78520000D01*
X152120000Y-78520000D02*
X152670000Y-77970000D01*
X152670000Y-74790000D02*
X152670000Y-77970000D01*
X143940000Y-78520000D02*
X145880000Y-78520000D01*
X142190000Y-76200000D02*
X141860000Y-75870000D01*
X141860000Y-75870000D02*
X140640000Y-75870000D01*
X142190000Y-78120000D02*
X142190000Y-76200000D01*
X142590000Y-78520000D02*
X142190000Y-78120000D01*
X143940000Y-78520000D02*
X142590000Y-78520000D01*
X152710000Y-74830000D02*
X152670000Y-74790000D01*
D29*
X158270000Y-81050000D02*
X155720000Y-81050000D01*
X155720000Y-81050000D02*
X155100000Y-81670000D01*
X158270000Y-81050000D02*
X159950000Y-81050000D01*
X159950000Y-81050000D02*
X160170000Y-80830000D01*
X145890000Y-76040000D02*
X144110000Y-76040000D01*
X144110000Y-76040000D02*
X143940000Y-75870000D01*
X142610000Y-81090000D02*
X142180000Y-80660000D01*
X139110000Y-81300000D02*
X139709999Y-80700001D01*
X139709999Y-80700001D02*
X142139999Y-80700001D01*
X142139999Y-80700001D02*
X142180000Y-80660000D01*
X126950000Y-94560000D02*
X126950000Y-85440000D01*
X157810000Y-87190000D02*
X163340000Y-87190000D01*
X163340000Y-87190000D02*
X163350000Y-87180000D01*
X150410000Y-82630000D02*
X150410000Y-83050000D01*
X150370000Y-81090000D02*
X150370000Y-82590000D01*
X150370000Y-82590000D02*
X150410000Y-82630000D01*
X154300000Y-72420000D02*
X154850000Y-72420000D01*
X150970000Y-72420000D02*
X154300000Y-72420000D01*
X154880000Y-72390000D02*
X154880000Y-71780000D01*
X154880000Y-71780000D02*
X154880000Y-71500000D01*
X150370000Y-74790000D02*
X150370000Y-73020000D01*
X150370000Y-73020000D02*
X150970000Y-72420000D01*
X154850000Y-72420000D02*
X154880000Y-72390000D01*
X154880000Y-71500000D02*
X154880000Y-69690000D01*
X169210000Y-76580000D02*
X165850000Y-73220000D01*
X165850000Y-73220000D02*
X165850000Y-72390000D01*
X169210000Y-76590000D02*
X169210000Y-76580000D01*
X150370000Y-81090000D02*
X142610000Y-81090000D01*
X171030000Y-78390000D02*
X171310000Y-78670000D01*
X171310000Y-78670000D02*
X171310000Y-78890000D01*
X171010000Y-78390000D02*
X171030000Y-78390000D01*
X171310000Y-78890000D02*
X171310000Y-84940000D01*
X171310000Y-96860000D02*
X171310000Y-94450000D01*
X171310000Y-97141472D02*
X171310000Y-96860000D01*
X171310000Y-96860000D02*
X171360000Y-96910000D01*
X171360000Y-96910000D02*
X171360000Y-98360000D01*
X171310000Y-84940000D02*
X171310000Y-84091472D01*
X171310000Y-94450000D02*
X171310000Y-84940000D01*
X169210000Y-76590000D02*
X171010000Y-78390000D01*
X126950000Y-85440000D02*
X127760000Y-84630000D01*
X154660000Y-84580000D02*
X144990000Y-84580000D01*
X144990000Y-84580000D02*
X144850000Y-84440000D01*
X154610000Y-84580000D02*
X154790000Y-84760000D01*
X165330000Y-106100000D02*
X166178528Y-106100000D01*
X166178528Y-106100000D02*
X168120000Y-104158528D01*
X168120000Y-104158528D02*
X168120000Y-99680000D01*
X161330000Y-83920000D02*
X155630000Y-83920000D01*
X155630000Y-83920000D02*
X154790000Y-84760000D01*
X161330000Y-83920000D02*
X159640000Y-83920000D01*
X166360000Y-76390000D02*
X164240000Y-74270000D01*
X166870000Y-76900000D02*
X166360000Y-76390000D01*
X166360000Y-76390000D02*
X166360000Y-77180000D01*
X166360000Y-77180000D02*
X166480000Y-77300000D01*
X166880000Y-76900000D02*
X166870000Y-76900000D01*
X164240000Y-74270000D02*
X164240000Y-72500000D01*
X168120000Y-98348528D02*
X168120000Y-99680000D01*
X168110000Y-97490000D02*
X168110000Y-98338528D01*
X168110000Y-98338528D02*
X168120000Y-98348528D01*
X170050000Y-92790000D02*
X170050000Y-80070000D01*
X170050000Y-80070000D02*
X169330000Y-79350000D01*
X169330000Y-79350000D02*
X167260000Y-77280000D01*
X167260000Y-77280000D02*
X166880000Y-76900000D01*
X166480000Y-77300000D02*
X167240000Y-77300000D01*
X167240000Y-77300000D02*
X167260000Y-77280000D01*
X165799999Y-77980001D02*
X166480000Y-77300000D01*
X166480000Y-77300000D02*
X166880000Y-76900000D01*
X165200000Y-78600000D02*
X165799999Y-78000001D01*
X165799999Y-78000001D02*
X165799999Y-77980001D01*
X137229933Y-73527584D02*
X141412416Y-73527584D01*
X141412416Y-73527584D02*
X142960000Y-71980000D01*
X143700000Y-68510000D02*
X149110000Y-68510000D01*
X142960000Y-71980000D02*
X142960000Y-69250000D01*
X142960000Y-69250000D02*
X143700000Y-68510000D01*
X137544709Y-77474709D02*
X137229933Y-77159933D01*
X137229933Y-77159933D02*
X137229933Y-73527584D01*
X140640000Y-78520000D02*
X138590000Y-78520000D01*
X137544709Y-77474709D02*
X138590000Y-78520000D01*
X150110000Y-68510000D02*
X149790000Y-68510000D01*
X149790000Y-68510000D02*
X149110000Y-68510000D01*
X157090200Y-72310000D02*
X157090200Y-69070200D01*
X157090200Y-72310000D02*
X158124810Y-73344610D01*
X158124810Y-73344610D02*
X158721268Y-73344610D01*
X158721268Y-73344610D02*
X158810200Y-73344610D01*
X157090200Y-69070200D02*
X156530000Y-68510000D01*
X156530000Y-68510000D02*
X151110000Y-68510000D01*
X151110000Y-68510000D02*
X150110000Y-68510000D01*
X149110000Y-68510000D02*
X149553273Y-68510000D01*
D28*
X157830000Y-82550000D02*
X161600000Y-82550000D01*
X157420000Y-82550000D02*
X157830000Y-82550000D01*
X157830000Y-82550000D02*
X156750000Y-82550000D01*
X156750000Y-82550000D02*
X156670000Y-82630000D01*
X161630000Y-82520000D02*
X161790000Y-82360000D01*
X161790000Y-82360000D02*
X162110000Y-82040000D01*
X161600000Y-82550000D02*
X161790000Y-82360000D01*
X161580000Y-82570000D02*
X162110000Y-82040000D01*
X157420000Y-82550000D02*
X158127106Y-82550000D01*
X162110000Y-82040000D02*
X162110000Y-80990000D01*
X162110000Y-81483998D02*
X162110000Y-80990000D01*
X155175000Y-103550000D02*
X155885000Y-102840000D01*
X155885000Y-102840000D02*
X155885000Y-102190000D01*
X153620000Y-103550000D02*
X155175000Y-103550000D01*
X153620000Y-103550000D02*
X154950000Y-103550000D01*
X146680000Y-102520000D02*
X146680000Y-101890000D01*
X146680000Y-103570000D02*
X146680000Y-102520000D01*
X143510000Y-103510000D02*
X143510000Y-98910000D01*
X143510000Y-98910000D02*
X142800000Y-98200000D01*
X139820000Y-93430000D02*
X139820000Y-93070000D01*
X139820000Y-93070000D02*
X139820000Y-91470000D01*
X140970000Y-96370000D02*
X139820000Y-95220000D01*
X139820000Y-95220000D02*
X139820000Y-93070000D01*
X140970000Y-96370000D02*
X142800000Y-98200000D01*
X140770000Y-96170000D02*
X140970000Y-96370000D01*
X139820000Y-91470000D02*
X140220000Y-91070000D01*
X140220000Y-91070000D02*
X141740000Y-91070000D01*
X150110000Y-103590000D02*
X150110000Y-101990000D01*
X163780000Y-101330000D02*
X164450000Y-100660000D01*
X164450000Y-97350000D02*
X161430000Y-94330000D01*
X150110000Y-101990000D02*
X150735000Y-101365000D01*
X150735000Y-101365000D02*
X154285000Y-101365000D01*
X154285000Y-101365000D02*
X155210000Y-100440000D01*
X155210000Y-100440000D02*
X157520000Y-100440000D01*
X157520000Y-100440000D02*
X158410000Y-101330000D01*
X158410000Y-101330000D02*
X163780000Y-101330000D01*
X164450000Y-100660000D02*
X164450000Y-97350000D01*
X161430000Y-94330000D02*
X161430000Y-91730000D01*
X161430000Y-91730000D02*
X160640000Y-90940000D01*
X160640000Y-90940000D02*
X157490000Y-90940000D01*
X150110000Y-103590000D02*
X150110000Y-102090000D01*
X137030000Y-87000000D02*
X137030000Y-86300000D01*
X135390000Y-84710000D02*
X133580000Y-84710000D01*
X137030000Y-86300000D02*
X136980000Y-86300000D01*
X136980000Y-86300000D02*
X135390000Y-84710000D01*
X131010000Y-83490000D02*
X131010000Y-82580000D01*
X131010000Y-82580000D02*
X131010000Y-82390000D01*
X131647120Y-81570000D02*
X131010000Y-82207120D01*
X131010000Y-82207120D02*
X131010000Y-82580000D01*
X133210000Y-82040000D02*
X132740000Y-81570000D01*
X132740000Y-81570000D02*
X131647120Y-81570000D01*
X133210000Y-84340000D02*
X133210000Y-82040000D01*
X133580000Y-84710000D02*
X133210000Y-84340000D01*
X137580000Y-87550000D02*
X137030000Y-87000000D01*
X137600000Y-87550000D02*
X137580000Y-87550000D01*
X131030000Y-89390000D02*
X131450000Y-89810000D01*
X131450000Y-89810000D02*
X132900000Y-89810000D01*
X131030000Y-88090000D02*
X131030000Y-89390000D01*
X131010000Y-87990000D02*
X131010000Y-88070000D01*
X131010000Y-88070000D02*
X131030000Y-88090000D01*
X131010000Y-85100000D02*
X131010000Y-83490000D01*
X131010000Y-85100000D02*
X131010000Y-85060000D01*
X131010000Y-87590000D02*
X131010000Y-85100000D01*
X141580000Y-102522894D02*
X141580000Y-98300000D01*
X141580000Y-98300000D02*
X138700000Y-95420000D01*
X141570000Y-103240000D02*
X141570000Y-102532894D01*
X141570000Y-102532894D02*
X141580000Y-102522894D01*
X165440000Y-90790000D02*
X163610000Y-90790000D01*
X138700000Y-88650000D02*
X137600000Y-87550000D01*
X138700000Y-95420000D02*
X138700000Y-88650000D01*
X131010000Y-83490000D02*
X131010000Y-83290000D01*
X131010000Y-87772081D02*
X131010000Y-87590000D01*
X131010000Y-87990000D02*
X131010000Y-87590000D01*
X138060010Y-90480010D02*
X137390000Y-89810000D01*
X137390000Y-89810000D02*
X135440000Y-89810000D01*
X138060010Y-96450000D02*
X138060010Y-90620000D01*
X138060010Y-90620000D02*
X138060010Y-90480010D01*
X138060010Y-96492008D02*
X138060010Y-96450000D01*
X140270000Y-101062894D02*
X140270000Y-98701998D01*
X140270000Y-98701998D02*
X138060010Y-96492008D01*
X140260000Y-101780000D02*
X140260000Y-101072894D01*
X140260000Y-101072894D02*
X140270000Y-101062894D01*
X165660000Y-95740000D02*
X164970000Y-95050000D01*
X164970000Y-95050000D02*
X164970000Y-93310000D01*
X167970000Y-95740000D02*
X165660000Y-95740000D01*
X169610000Y-97380000D02*
X167970000Y-95740000D01*
X169610000Y-100490000D02*
X169610000Y-97380000D01*
X137510000Y-93080000D02*
X136780000Y-92350000D01*
X136780000Y-92350000D02*
X135440000Y-92350000D01*
X137520000Y-97990000D02*
X137520000Y-93100000D01*
X165440000Y-88290000D02*
X161250000Y-88290000D01*
X161250000Y-88290000D02*
X161230000Y-88270000D01*
X137560000Y-98220000D02*
X137560000Y-97970000D01*
X137560000Y-99990000D02*
X137560000Y-97970000D01*
X138070000Y-100500000D02*
X137560000Y-99990000D01*
X138980000Y-100500000D02*
X138070000Y-100500000D01*
X165440000Y-88290000D02*
X164070000Y-88290000D01*
X165420000Y-85790000D02*
X159510000Y-85790000D01*
X159510000Y-85790000D02*
X159210000Y-85490000D01*
X130410000Y-94080000D02*
X131220000Y-94890000D01*
X131220000Y-94890000D02*
X132900000Y-94890000D01*
X130410000Y-92710000D02*
X130410000Y-82090000D01*
X130410000Y-92940000D02*
X130410000Y-92710000D01*
X130410000Y-92710000D02*
X130410000Y-94080000D01*
X134560000Y-78740000D02*
X136180000Y-77120000D01*
X136130000Y-75992978D02*
X135228386Y-75091364D01*
X136180000Y-76042978D02*
X136130000Y-75992978D01*
X136180000Y-77120000D02*
X136180000Y-76042978D01*
X130410000Y-82090000D02*
X130420000Y-82090000D01*
X134560000Y-78765000D02*
X134560000Y-78740000D01*
X130420000Y-82090000D02*
X132260000Y-80250000D01*
X132260000Y-80250000D02*
X133075000Y-80250000D01*
X133075000Y-80250000D02*
X134560000Y-78765000D01*
X131830008Y-79749992D02*
X129810000Y-81770000D01*
X129810000Y-81770000D02*
X129810000Y-96730000D01*
X129810000Y-96730000D02*
X130510000Y-97430000D01*
X130510000Y-97430000D02*
X132900000Y-97430000D01*
X131830008Y-79749992D02*
X132510008Y-79749992D01*
X133920000Y-78340000D02*
X133920000Y-77348306D01*
X132510008Y-79749992D02*
X133920000Y-78340000D01*
X133920000Y-77348306D02*
X133226838Y-76655144D01*
X131830008Y-79749992D02*
X131840008Y-79749992D01*
X143510000Y-106210000D02*
X144610000Y-106210000D01*
X144610000Y-106210000D02*
X145110000Y-105710000D01*
X160230000Y-94280000D02*
X160230000Y-93590000D01*
X145110000Y-105710000D02*
X145110000Y-101765000D01*
X145110000Y-101765000D02*
X145945000Y-100930000D01*
X150527890Y-100864990D02*
X153735010Y-100864990D01*
X145945000Y-100930000D02*
X150462880Y-100930000D01*
X153735010Y-100864990D02*
X154860000Y-99740000D01*
X150462880Y-100930000D02*
X150527890Y-100864990D01*
X154860000Y-99740000D02*
X158000000Y-99740000D01*
X158000000Y-99740000D02*
X158840000Y-100580000D01*
X158840000Y-100580000D02*
X163250000Y-100580000D01*
X163250000Y-100580000D02*
X163690000Y-100140000D01*
X163690000Y-100140000D02*
X163690000Y-97740000D01*
X163690000Y-97740000D02*
X160230000Y-94280000D01*
X146680000Y-106270000D02*
X146680000Y-108060000D01*
X146680000Y-108060000D02*
X146710000Y-108090000D01*
X150110000Y-106290000D02*
X151060000Y-106290000D01*
X157970000Y-102050000D02*
X164590000Y-102050000D01*
X151060000Y-106290000D02*
X151770000Y-105580000D01*
X151770000Y-102555000D02*
X152310000Y-102015000D01*
X151770000Y-105580000D02*
X151770000Y-102555000D01*
X152310000Y-102015000D02*
X154692120Y-102015000D01*
X154692120Y-102015000D02*
X155460000Y-101247120D01*
X155460000Y-101247120D02*
X157167120Y-101247120D01*
X157167120Y-101247120D02*
X157970000Y-102050000D01*
X162170000Y-94198001D02*
X162170000Y-89830000D01*
X164590000Y-102050000D02*
X165180000Y-101460000D01*
X165180000Y-101460000D02*
X165180000Y-97208001D01*
X165180000Y-97208001D02*
X162170000Y-94198001D01*
X162170000Y-89830000D02*
X162310000Y-89690000D01*
X166000000Y-103620000D02*
X166000000Y-97520000D01*
X164460000Y-95270000D02*
X166000000Y-96810000D01*
X166000000Y-97520000D02*
X166000000Y-97290000D01*
X166000000Y-96810000D02*
X166000000Y-97520000D01*
X163960001Y-94730000D02*
X164460000Y-95229999D01*
X164460000Y-95229999D02*
X164460000Y-95270000D01*
X153620000Y-106250000D02*
X163370000Y-106250000D01*
X163370000Y-106250000D02*
X166000000Y-103620000D01*
X159230000Y-106210000D02*
X154610000Y-106210000D01*
X154610000Y-106210000D02*
X154570000Y-106250000D01*
X154570000Y-106250000D02*
X153620000Y-106250000D01*
X160689800Y-73134600D02*
X160689800Y-72779000D01*
X161400000Y-72068800D02*
X161400000Y-70820000D01*
X160689800Y-72779000D02*
X161400000Y-72068800D01*
X161626200Y-76066200D02*
X162110000Y-76550000D01*
X162110000Y-76550000D02*
X162110000Y-78290000D01*
X161610000Y-76066200D02*
X161626200Y-76066200D01*
X160689800Y-75725400D02*
X161269200Y-75725400D01*
X161269200Y-75725400D02*
X161610000Y-76066200D01*
X158270000Y-78350000D02*
X158270000Y-77300000D01*
X158270000Y-77300000D02*
X158810200Y-76759800D01*
X158810200Y-76759800D02*
X158810200Y-75725400D01*
X158805600Y-75730000D02*
X158810200Y-75725400D01*
D30*
G36*
X129025000Y-96730000D02*
X129084755Y-97030407D01*
X129254921Y-97285079D01*
X129954919Y-97985076D01*
X129954921Y-97985079D01*
X130209594Y-98155245D01*
X130510000Y-98215000D01*
X131643750Y-98215000D01*
X131820853Y-98480054D01*
X132150026Y-98700000D01*
X131820853Y-98919946D01*
X131498946Y-99401715D01*
X131385907Y-99970000D01*
X131498946Y-100538285D01*
X131820853Y-101020054D01*
X132302622Y-101341961D01*
X132870907Y-101455000D01*
X132929093Y-101455000D01*
X133497378Y-101341961D01*
X133979147Y-101020054D01*
X134170000Y-100734422D01*
X134360853Y-101020054D01*
X134842622Y-101341961D01*
X135410907Y-101455000D01*
X135469093Y-101455000D01*
X136037378Y-101341961D01*
X136519147Y-101020054D01*
X136841054Y-100538285D01*
X136877604Y-100354535D01*
X137004921Y-100545079D01*
X137514921Y-101055079D01*
X137769594Y-101225245D01*
X138070000Y-101285000D01*
X138159898Y-101285000D01*
X138336235Y-101461645D01*
X138753244Y-101634803D01*
X139125126Y-101635127D01*
X139124803Y-102004775D01*
X139297233Y-102422086D01*
X139616235Y-102741645D01*
X140033244Y-102914803D01*
X140475913Y-102915189D01*
X140435197Y-103013244D01*
X140434803Y-103464775D01*
X140607233Y-103882086D01*
X140926235Y-104201645D01*
X141343244Y-104374803D01*
X141794775Y-104375197D01*
X142212086Y-104202767D01*
X142212560Y-104202294D01*
X142212560Y-104260000D01*
X142256838Y-104495317D01*
X142395910Y-104711441D01*
X142608110Y-104856431D01*
X142621197Y-104859081D01*
X142408559Y-104995910D01*
X142263569Y-105208110D01*
X142212560Y-105460000D01*
X142212560Y-106960000D01*
X142256838Y-107195317D01*
X142395910Y-107411441D01*
X142608110Y-107556431D01*
X142860000Y-107607440D01*
X144160000Y-107607440D01*
X144395317Y-107563162D01*
X144611441Y-107424090D01*
X144756431Y-107211890D01*
X144807440Y-106960000D01*
X144807440Y-106955727D01*
X144910407Y-106935245D01*
X145165079Y-106765079D01*
X145382560Y-106547598D01*
X145382560Y-107020000D01*
X145426838Y-107255317D01*
X145565910Y-107471441D01*
X145699879Y-107562978D01*
X145575197Y-107863244D01*
X145574803Y-108314775D01*
X145747233Y-108732086D01*
X146066235Y-109051645D01*
X146483244Y-109224803D01*
X146934775Y-109225197D01*
X147352086Y-109052767D01*
X147671645Y-108733765D01*
X147844803Y-108316756D01*
X147845197Y-107865225D01*
X147707401Y-107531734D01*
X147781441Y-107484090D01*
X147926431Y-107271890D01*
X147977440Y-107020000D01*
X147977440Y-105520000D01*
X147933162Y-105284683D01*
X147794090Y-105068559D01*
X147581890Y-104923569D01*
X147568803Y-104920919D01*
X147781441Y-104784090D01*
X147926431Y-104571890D01*
X147977440Y-104320000D01*
X147977440Y-102820000D01*
X147933162Y-102584683D01*
X147794090Y-102368559D01*
X147728776Y-102323932D01*
X147814803Y-102116756D01*
X147815154Y-101715000D01*
X149379701Y-101715000D01*
X149363837Y-101794755D01*
X149325000Y-101990000D01*
X149325000Y-102217962D01*
X149224683Y-102236838D01*
X149008559Y-102375910D01*
X148863569Y-102588110D01*
X148812560Y-102840000D01*
X148812560Y-104340000D01*
X148856838Y-104575317D01*
X148995910Y-104791441D01*
X149208110Y-104936431D01*
X149221197Y-104939081D01*
X149008559Y-105075910D01*
X148863569Y-105288110D01*
X148812560Y-105540000D01*
X148812560Y-107040000D01*
X148856838Y-107275317D01*
X148995910Y-107491441D01*
X149208110Y-107636431D01*
X149431298Y-107681628D01*
X148830456Y-108281422D01*
X148470411Y-109148508D01*
X148469591Y-110087373D01*
X148828123Y-110955086D01*
X149491422Y-111619544D01*
X150358508Y-111979589D01*
X151297373Y-111980409D01*
X152165086Y-111621877D01*
X152829544Y-110958578D01*
X152978951Y-110598764D01*
X156320841Y-110598764D01*
X156390059Y-110840742D01*
X156912780Y-111027155D01*
X157467049Y-110999341D01*
X157849941Y-110840742D01*
X157919159Y-110598764D01*
X157120000Y-109799605D01*
X156320841Y-110598764D01*
X152978951Y-110598764D01*
X153189589Y-110091492D01*
X153190181Y-109412780D01*
X155712845Y-109412780D01*
X155740659Y-109967049D01*
X155899258Y-110349941D01*
X156141236Y-110419159D01*
X156940395Y-109620000D01*
X157299605Y-109620000D01*
X158098764Y-110419159D01*
X158340742Y-110349941D01*
X158527155Y-109827220D01*
X158499341Y-109272951D01*
X158340742Y-108890059D01*
X158098764Y-108820841D01*
X157299605Y-109620000D01*
X156940395Y-109620000D01*
X156141236Y-108820841D01*
X155899258Y-108890059D01*
X155712845Y-109412780D01*
X153190181Y-109412780D01*
X153190409Y-109152627D01*
X152979107Y-108641236D01*
X156320841Y-108641236D01*
X157120000Y-109440395D01*
X157919159Y-108641236D01*
X157849941Y-108399258D01*
X157327220Y-108212845D01*
X156772951Y-108240659D01*
X156390059Y-108399258D01*
X156320841Y-108641236D01*
X152979107Y-108641236D01*
X152831877Y-108284914D01*
X152168578Y-107620456D01*
X151358050Y-107283896D01*
X151407440Y-107040000D01*
X151407440Y-106983819D01*
X151615079Y-106845079D01*
X152322560Y-106137598D01*
X152322560Y-107000000D01*
X152366838Y-107235317D01*
X152505910Y-107451441D01*
X152718110Y-107596431D01*
X152970000Y-107647440D01*
X154270000Y-107647440D01*
X154505317Y-107603162D01*
X154721441Y-107464090D01*
X154866431Y-107251890D01*
X154910352Y-107035000D01*
X163370000Y-107035000D01*
X163670407Y-106975245D01*
X163925079Y-106805079D01*
X164179809Y-106550349D01*
X164282408Y-106798657D01*
X164629515Y-107146371D01*
X165083266Y-107334785D01*
X165574579Y-107335214D01*
X166028657Y-107147592D01*
X166194768Y-106981770D01*
X166461012Y-106928810D01*
X166517203Y-106917633D01*
X166804318Y-106725790D01*
X168745787Y-104784320D01*
X168745790Y-104784318D01*
X168937633Y-104497203D01*
X168948810Y-104441012D01*
X169005001Y-104158528D01*
X169005000Y-104158523D01*
X169005000Y-101467742D01*
X169383244Y-101624803D01*
X169834775Y-101625197D01*
X170252086Y-101452767D01*
X170571645Y-101133765D01*
X170744803Y-100716756D01*
X170745197Y-100265225D01*
X170572767Y-99847914D01*
X170395000Y-99669837D01*
X170395000Y-99141393D01*
X170659515Y-99406371D01*
X171113266Y-99594785D01*
X171604579Y-99595214D01*
X172058657Y-99407592D01*
X172406371Y-99060485D01*
X172563515Y-98682040D01*
X172564891Y-101645145D01*
X166822090Y-109555237D01*
X165339939Y-110784432D01*
X164625284Y-109810108D01*
X164520672Y-109714281D01*
X164416571Y-109618078D01*
X164415028Y-109617509D01*
X164413813Y-109616396D01*
X164280481Y-109567892D01*
X164147501Y-109518854D01*
X164145856Y-109518919D01*
X164144309Y-109518356D01*
X164002572Y-109524568D01*
X163860941Y-109530152D01*
X163859447Y-109530841D01*
X163857801Y-109530913D01*
X163729235Y-109590891D01*
X163600517Y-109650251D01*
X160951297Y-111575571D01*
X160943608Y-111583892D01*
X160933468Y-111588946D01*
X160846556Y-111688911D01*
X160756658Y-111786189D01*
X160752738Y-111796818D01*
X160745305Y-111805368D01*
X160703267Y-111930972D01*
X160657434Y-112055259D01*
X160657880Y-112066581D01*
X160654285Y-112077323D01*
X160663513Y-112209453D01*
X160668732Y-112341819D01*
X160673477Y-112352107D01*
X160674266Y-112363409D01*
X160733357Y-112481954D01*
X160788831Y-112602243D01*
X160797152Y-112609932D01*
X160802206Y-112620072D01*
X161437441Y-113440630D01*
X160482023Y-113931766D01*
X147330355Y-113945736D01*
X147486026Y-113790337D01*
X147679779Y-113323727D01*
X147680220Y-112818490D01*
X147487282Y-112351542D01*
X147130337Y-111993974D01*
X146663727Y-111800221D01*
X146158490Y-111799780D01*
X145691542Y-111992718D01*
X145398750Y-112285000D01*
X142570102Y-112285000D01*
X142393765Y-112108355D01*
X141976756Y-111935197D01*
X141525225Y-111934803D01*
X141107914Y-112107233D01*
X140788355Y-112426235D01*
X140615197Y-112843244D01*
X140614803Y-113294775D01*
X140787233Y-113712086D01*
X141027160Y-113952432D01*
X138857064Y-113954737D01*
X133674510Y-110087373D01*
X136329591Y-110087373D01*
X136688123Y-110955086D01*
X137351422Y-111619544D01*
X138218508Y-111979589D01*
X139157373Y-111980409D01*
X140025086Y-111621877D01*
X140689544Y-110958578D01*
X141049589Y-110091492D01*
X141050409Y-109152627D01*
X140691877Y-108284914D01*
X140028578Y-107620456D01*
X139161492Y-107260411D01*
X138222627Y-107259591D01*
X137354914Y-107618123D01*
X136690456Y-108281422D01*
X136330411Y-109148508D01*
X136329591Y-110087373D01*
X133674510Y-110087373D01*
X130982533Y-108078546D01*
X126885125Y-101880681D01*
X126888438Y-95794947D01*
X127194579Y-95795214D01*
X127648657Y-95607592D01*
X127996371Y-95260485D01*
X128184785Y-94806734D01*
X128185214Y-94315421D01*
X127997592Y-93861343D01*
X127835000Y-93698467D01*
X127835000Y-85865066D01*
X128004579Y-85865214D01*
X128458657Y-85677592D01*
X128806371Y-85330485D01*
X128994785Y-84876734D01*
X128995146Y-84463441D01*
X129025000Y-84463320D01*
X129025000Y-96730000D01*
X129025000Y-96730000D01*
G37*
X129025000Y-96730000D02*
X129084755Y-97030407D01*
X129254921Y-97285079D01*
X129954919Y-97985076D01*
X129954921Y-97985079D01*
X130209594Y-98155245D01*
X130510000Y-98215000D01*
X131643750Y-98215000D01*
X131820853Y-98480054D01*
X132150026Y-98700000D01*
X131820853Y-98919946D01*
X131498946Y-99401715D01*
X131385907Y-99970000D01*
X131498946Y-100538285D01*
X131820853Y-101020054D01*
X132302622Y-101341961D01*
X132870907Y-101455000D01*
X132929093Y-101455000D01*
X133497378Y-101341961D01*
X133979147Y-101020054D01*
X134170000Y-100734422D01*
X134360853Y-101020054D01*
X134842622Y-101341961D01*
X135410907Y-101455000D01*
X135469093Y-101455000D01*
X136037378Y-101341961D01*
X136519147Y-101020054D01*
X136841054Y-100538285D01*
X136877604Y-100354535D01*
X137004921Y-100545079D01*
X137514921Y-101055079D01*
X137769594Y-101225245D01*
X138070000Y-101285000D01*
X138159898Y-101285000D01*
X138336235Y-101461645D01*
X138753244Y-101634803D01*
X139125126Y-101635127D01*
X139124803Y-102004775D01*
X139297233Y-102422086D01*
X139616235Y-102741645D01*
X140033244Y-102914803D01*
X140475913Y-102915189D01*
X140435197Y-103013244D01*
X140434803Y-103464775D01*
X140607233Y-103882086D01*
X140926235Y-104201645D01*
X141343244Y-104374803D01*
X141794775Y-104375197D01*
X142212086Y-104202767D01*
X142212560Y-104202294D01*
X142212560Y-104260000D01*
X142256838Y-104495317D01*
X142395910Y-104711441D01*
X142608110Y-104856431D01*
X142621197Y-104859081D01*
X142408559Y-104995910D01*
X142263569Y-105208110D01*
X142212560Y-105460000D01*
X142212560Y-106960000D01*
X142256838Y-107195317D01*
X142395910Y-107411441D01*
X142608110Y-107556431D01*
X142860000Y-107607440D01*
X144160000Y-107607440D01*
X144395317Y-107563162D01*
X144611441Y-107424090D01*
X144756431Y-107211890D01*
X144807440Y-106960000D01*
X144807440Y-106955727D01*
X144910407Y-106935245D01*
X145165079Y-106765079D01*
X145382560Y-106547598D01*
X145382560Y-107020000D01*
X145426838Y-107255317D01*
X145565910Y-107471441D01*
X145699879Y-107562978D01*
X145575197Y-107863244D01*
X145574803Y-108314775D01*
X145747233Y-108732086D01*
X146066235Y-109051645D01*
X146483244Y-109224803D01*
X146934775Y-109225197D01*
X147352086Y-109052767D01*
X147671645Y-108733765D01*
X147844803Y-108316756D01*
X147845197Y-107865225D01*
X147707401Y-107531734D01*
X147781441Y-107484090D01*
X147926431Y-107271890D01*
X147977440Y-107020000D01*
X147977440Y-105520000D01*
X147933162Y-105284683D01*
X147794090Y-105068559D01*
X147581890Y-104923569D01*
X147568803Y-104920919D01*
X147781441Y-104784090D01*
X147926431Y-104571890D01*
X147977440Y-104320000D01*
X147977440Y-102820000D01*
X147933162Y-102584683D01*
X147794090Y-102368559D01*
X147728776Y-102323932D01*
X147814803Y-102116756D01*
X147815154Y-101715000D01*
X149379701Y-101715000D01*
X149363837Y-101794755D01*
X149325000Y-101990000D01*
X149325000Y-102217962D01*
X149224683Y-102236838D01*
X149008559Y-102375910D01*
X148863569Y-102588110D01*
X148812560Y-102840000D01*
X148812560Y-104340000D01*
X148856838Y-104575317D01*
X148995910Y-104791441D01*
X149208110Y-104936431D01*
X149221197Y-104939081D01*
X149008559Y-105075910D01*
X148863569Y-105288110D01*
X148812560Y-105540000D01*
X148812560Y-107040000D01*
X148856838Y-107275317D01*
X148995910Y-107491441D01*
X149208110Y-107636431D01*
X149431298Y-107681628D01*
X148830456Y-108281422D01*
X148470411Y-109148508D01*
X148469591Y-110087373D01*
X148828123Y-110955086D01*
X149491422Y-111619544D01*
X150358508Y-111979589D01*
X151297373Y-111980409D01*
X152165086Y-111621877D01*
X152829544Y-110958578D01*
X152978951Y-110598764D01*
X156320841Y-110598764D01*
X156390059Y-110840742D01*
X156912780Y-111027155D01*
X157467049Y-110999341D01*
X157849941Y-110840742D01*
X157919159Y-110598764D01*
X157120000Y-109799605D01*
X156320841Y-110598764D01*
X152978951Y-110598764D01*
X153189589Y-110091492D01*
X153190181Y-109412780D01*
X155712845Y-109412780D01*
X155740659Y-109967049D01*
X155899258Y-110349941D01*
X156141236Y-110419159D01*
X156940395Y-109620000D01*
X157299605Y-109620000D01*
X158098764Y-110419159D01*
X158340742Y-110349941D01*
X158527155Y-109827220D01*
X158499341Y-109272951D01*
X158340742Y-108890059D01*
X158098764Y-108820841D01*
X157299605Y-109620000D01*
X156940395Y-109620000D01*
X156141236Y-108820841D01*
X155899258Y-108890059D01*
X155712845Y-109412780D01*
X153190181Y-109412780D01*
X153190409Y-109152627D01*
X152979107Y-108641236D01*
X156320841Y-108641236D01*
X157120000Y-109440395D01*
X157919159Y-108641236D01*
X157849941Y-108399258D01*
X157327220Y-108212845D01*
X156772951Y-108240659D01*
X156390059Y-108399258D01*
X156320841Y-108641236D01*
X152979107Y-108641236D01*
X152831877Y-108284914D01*
X152168578Y-107620456D01*
X151358050Y-107283896D01*
X151407440Y-107040000D01*
X151407440Y-106983819D01*
X151615079Y-106845079D01*
X152322560Y-106137598D01*
X152322560Y-107000000D01*
X152366838Y-107235317D01*
X152505910Y-107451441D01*
X152718110Y-107596431D01*
X152970000Y-107647440D01*
X154270000Y-107647440D01*
X154505317Y-107603162D01*
X154721441Y-107464090D01*
X154866431Y-107251890D01*
X154910352Y-107035000D01*
X163370000Y-107035000D01*
X163670407Y-106975245D01*
X163925079Y-106805079D01*
X164179809Y-106550349D01*
X164282408Y-106798657D01*
X164629515Y-107146371D01*
X165083266Y-107334785D01*
X165574579Y-107335214D01*
X166028657Y-107147592D01*
X166194768Y-106981770D01*
X166461012Y-106928810D01*
X166517203Y-106917633D01*
X166804318Y-106725790D01*
X168745787Y-104784320D01*
X168745790Y-104784318D01*
X168937633Y-104497203D01*
X168948810Y-104441012D01*
X169005001Y-104158528D01*
X169005000Y-104158523D01*
X169005000Y-101467742D01*
X169383244Y-101624803D01*
X169834775Y-101625197D01*
X170252086Y-101452767D01*
X170571645Y-101133765D01*
X170744803Y-100716756D01*
X170745197Y-100265225D01*
X170572767Y-99847914D01*
X170395000Y-99669837D01*
X170395000Y-99141393D01*
X170659515Y-99406371D01*
X171113266Y-99594785D01*
X171604579Y-99595214D01*
X172058657Y-99407592D01*
X172406371Y-99060485D01*
X172563515Y-98682040D01*
X172564891Y-101645145D01*
X166822090Y-109555237D01*
X165339939Y-110784432D01*
X164625284Y-109810108D01*
X164520672Y-109714281D01*
X164416571Y-109618078D01*
X164415028Y-109617509D01*
X164413813Y-109616396D01*
X164280481Y-109567892D01*
X164147501Y-109518854D01*
X164145856Y-109518919D01*
X164144309Y-109518356D01*
X164002572Y-109524568D01*
X163860941Y-109530152D01*
X163859447Y-109530841D01*
X163857801Y-109530913D01*
X163729235Y-109590891D01*
X163600517Y-109650251D01*
X160951297Y-111575571D01*
X160943608Y-111583892D01*
X160933468Y-111588946D01*
X160846556Y-111688911D01*
X160756658Y-111786189D01*
X160752738Y-111796818D01*
X160745305Y-111805368D01*
X160703267Y-111930972D01*
X160657434Y-112055259D01*
X160657880Y-112066581D01*
X160654285Y-112077323D01*
X160663513Y-112209453D01*
X160668732Y-112341819D01*
X160673477Y-112352107D01*
X160674266Y-112363409D01*
X160733357Y-112481954D01*
X160788831Y-112602243D01*
X160797152Y-112609932D01*
X160802206Y-112620072D01*
X161437441Y-113440630D01*
X160482023Y-113931766D01*
X147330355Y-113945736D01*
X147486026Y-113790337D01*
X147679779Y-113323727D01*
X147680220Y-112818490D01*
X147487282Y-112351542D01*
X147130337Y-111993974D01*
X146663727Y-111800221D01*
X146158490Y-111799780D01*
X145691542Y-111992718D01*
X145398750Y-112285000D01*
X142570102Y-112285000D01*
X142393765Y-112108355D01*
X141976756Y-111935197D01*
X141525225Y-111934803D01*
X141107914Y-112107233D01*
X140788355Y-112426235D01*
X140615197Y-112843244D01*
X140614803Y-113294775D01*
X140787233Y-113712086D01*
X141027160Y-113952432D01*
X138857064Y-113954737D01*
X133674510Y-110087373D01*
X136329591Y-110087373D01*
X136688123Y-110955086D01*
X137351422Y-111619544D01*
X138218508Y-111979589D01*
X139157373Y-111980409D01*
X140025086Y-111621877D01*
X140689544Y-110958578D01*
X141049589Y-110091492D01*
X141050409Y-109152627D01*
X140691877Y-108284914D01*
X140028578Y-107620456D01*
X139161492Y-107260411D01*
X138222627Y-107259591D01*
X137354914Y-107618123D01*
X136690456Y-108281422D01*
X136330411Y-109148508D01*
X136329591Y-110087373D01*
X133674510Y-110087373D01*
X130982533Y-108078546D01*
X126885125Y-101880681D01*
X126888438Y-95794947D01*
X127194579Y-95795214D01*
X127648657Y-95607592D01*
X127996371Y-95260485D01*
X128184785Y-94806734D01*
X128185214Y-94315421D01*
X127997592Y-93861343D01*
X127835000Y-93698467D01*
X127835000Y-85865066D01*
X128004579Y-85865214D01*
X128458657Y-85677592D01*
X128806371Y-85330485D01*
X128994785Y-84876734D01*
X128995146Y-84463441D01*
X129025000Y-84463320D01*
X129025000Y-96730000D01*
G36*
X156205200Y-69436779D02*
X156205200Y-72309995D01*
X156205199Y-72310000D01*
X156260980Y-72590425D01*
X156272567Y-72648675D01*
X156417110Y-72865000D01*
X156464410Y-72935790D01*
X157499018Y-73970397D01*
X157499020Y-73970400D01*
X157786135Y-74162243D01*
X158064505Y-74217615D01*
X158066710Y-74221041D01*
X158278910Y-74366031D01*
X158530800Y-74417040D01*
X159089600Y-74417040D01*
X159324917Y-74372762D01*
X159541041Y-74233690D01*
X159686031Y-74021490D01*
X159737040Y-73769600D01*
X159737040Y-72499600D01*
X159692762Y-72264283D01*
X159587329Y-72100435D01*
X159809698Y-72008327D01*
X159988327Y-71829699D01*
X160044654Y-71693713D01*
X160046838Y-71705317D01*
X160171362Y-71898833D01*
X159958959Y-72035510D01*
X159813969Y-72247710D01*
X159762960Y-72499600D01*
X159762960Y-73769600D01*
X159807238Y-74004917D01*
X159946310Y-74221041D01*
X160158510Y-74366031D01*
X160410400Y-74417040D01*
X160969200Y-74417040D01*
X161204517Y-74372762D01*
X161420641Y-74233690D01*
X161565631Y-74021490D01*
X161616640Y-73769600D01*
X161616640Y-72962317D01*
X161955076Y-72623881D01*
X161955079Y-72623879D01*
X162125245Y-72369206D01*
X162176310Y-72112490D01*
X162385317Y-72073162D01*
X162601441Y-71934090D01*
X162746431Y-71721890D01*
X162797440Y-71470000D01*
X162797440Y-70170000D01*
X162796149Y-70163138D01*
X164348848Y-71265095D01*
X163995421Y-71264786D01*
X163541343Y-71452408D01*
X163193629Y-71799515D01*
X163005215Y-72253266D01*
X163004786Y-72744579D01*
X163192408Y-73198657D01*
X163355000Y-73361533D01*
X163355000Y-74269995D01*
X163354999Y-74270000D01*
X163398680Y-74489593D01*
X163422367Y-74608675D01*
X163562606Y-74818559D01*
X163614210Y-74895790D01*
X165475000Y-76756579D01*
X165475000Y-77053420D01*
X165174209Y-77354211D01*
X165167020Y-77364971D01*
X164955421Y-77364786D01*
X164501343Y-77552408D01*
X164153629Y-77899515D01*
X163965215Y-78353266D01*
X163964786Y-78844579D01*
X164152408Y-79298657D01*
X164499515Y-79646371D01*
X164953266Y-79834785D01*
X165444579Y-79835214D01*
X165898657Y-79647592D01*
X166246371Y-79300485D01*
X166434785Y-78846734D01*
X166434990Y-78612021D01*
X166466062Y-78565518D01*
X166846579Y-78185000D01*
X166913420Y-78185000D01*
X168094985Y-79366564D01*
X168094786Y-79594579D01*
X168282408Y-80048657D01*
X168629515Y-80396371D01*
X169083266Y-80584785D01*
X169165000Y-80584856D01*
X169165000Y-84574874D01*
X168996309Y-84505000D01*
X168405750Y-84505000D01*
X168247000Y-84663750D01*
X168247000Y-85663000D01*
X168267000Y-85663000D01*
X168267000Y-85917000D01*
X168247000Y-85917000D01*
X168247000Y-86916250D01*
X168380750Y-87050000D01*
X168267000Y-87163750D01*
X168267000Y-88163000D01*
X168287000Y-88163000D01*
X168287000Y-88417000D01*
X168267000Y-88417000D01*
X168267000Y-89416250D01*
X168390750Y-89540000D01*
X168267000Y-89663750D01*
X168267000Y-90663000D01*
X168287000Y-90663000D01*
X168287000Y-90917000D01*
X168267000Y-90917000D01*
X168267000Y-91916250D01*
X168345750Y-91995000D01*
X168267000Y-92073750D01*
X168267000Y-93073000D01*
X168287000Y-93073000D01*
X168287000Y-93327000D01*
X168267000Y-93327000D01*
X168267000Y-94326250D01*
X168425750Y-94485000D01*
X169016309Y-94485000D01*
X169249698Y-94388327D01*
X169428327Y-94209699D01*
X169525000Y-93976310D01*
X169525000Y-93909239D01*
X169803266Y-94024785D01*
X170294579Y-94025214D01*
X170425000Y-93971325D01*
X170425000Y-96859995D01*
X170424999Y-96860000D01*
X170425000Y-96860005D01*
X170425000Y-97141472D01*
X170475000Y-97392838D01*
X170475000Y-97498426D01*
X170395000Y-97578286D01*
X170395000Y-97380000D01*
X170376119Y-97285079D01*
X170335245Y-97079593D01*
X170165079Y-96824921D01*
X168525079Y-95184921D01*
X168270407Y-95014755D01*
X167970000Y-94955000D01*
X165985158Y-94955000D01*
X165755000Y-94724842D01*
X165755000Y-94497440D01*
X166190000Y-94497440D01*
X166425317Y-94453162D01*
X166641441Y-94314090D01*
X166786431Y-94101890D01*
X166793191Y-94068510D01*
X166851673Y-94209699D01*
X167030302Y-94388327D01*
X167263691Y-94485000D01*
X167854250Y-94485000D01*
X168013000Y-94326250D01*
X168013000Y-93327000D01*
X167993000Y-93327000D01*
X167993000Y-93073000D01*
X168013000Y-93073000D01*
X168013000Y-92073750D01*
X167934250Y-91995000D01*
X168013000Y-91916250D01*
X168013000Y-90917000D01*
X167993000Y-90917000D01*
X167993000Y-90663000D01*
X168013000Y-90663000D01*
X168013000Y-89663750D01*
X167889250Y-89540000D01*
X168013000Y-89416250D01*
X168013000Y-88417000D01*
X167993000Y-88417000D01*
X167993000Y-88163000D01*
X168013000Y-88163000D01*
X168013000Y-87163750D01*
X167879250Y-87030000D01*
X167993000Y-86916250D01*
X167993000Y-85917000D01*
X167973000Y-85917000D01*
X167973000Y-85663000D01*
X167993000Y-85663000D01*
X167993000Y-84663750D01*
X167834250Y-84505000D01*
X167243691Y-84505000D01*
X167010302Y-84601673D01*
X166831673Y-84780301D01*
X166775346Y-84916287D01*
X166773162Y-84904683D01*
X166634090Y-84688559D01*
X166421890Y-84543569D01*
X166170000Y-84492560D01*
X164670000Y-84492560D01*
X164434683Y-84536838D01*
X164218559Y-84675910D01*
X164073569Y-84888110D01*
X164049898Y-85005000D01*
X161938123Y-85005000D01*
X162028657Y-84967592D01*
X162376371Y-84620485D01*
X162564785Y-84166734D01*
X162565214Y-83675421D01*
X162377592Y-83221343D01*
X162208351Y-83051807D01*
X162665079Y-82595079D01*
X162810120Y-82378009D01*
X162995317Y-82343162D01*
X163211441Y-82204090D01*
X163356431Y-81991890D01*
X163407440Y-81740000D01*
X163407440Y-80240000D01*
X163363162Y-80004683D01*
X163224090Y-79788559D01*
X163011890Y-79643569D01*
X162998803Y-79640919D01*
X163211441Y-79504090D01*
X163356431Y-79291890D01*
X163407440Y-79040000D01*
X163407440Y-77540000D01*
X163363162Y-77304683D01*
X163224090Y-77088559D01*
X163011890Y-76943569D01*
X162895000Y-76919898D01*
X162895000Y-76550005D01*
X162895001Y-76550000D01*
X162835245Y-76249594D01*
X162805262Y-76204721D01*
X162665079Y-75994921D01*
X162665076Y-75994919D01*
X162181279Y-75511121D01*
X162132458Y-75478500D01*
X161824279Y-75170321D01*
X161603981Y-75023123D01*
X161572362Y-74855083D01*
X161433290Y-74638959D01*
X161221090Y-74493969D01*
X160969200Y-74442960D01*
X160410400Y-74442960D01*
X160214615Y-74479799D01*
X160155710Y-74455400D01*
X160035750Y-74455400D01*
X159877000Y-74614150D01*
X159877000Y-74746261D01*
X159813969Y-74838510D01*
X159762960Y-75090400D01*
X159762960Y-75872400D01*
X159737040Y-75872400D01*
X159737040Y-75090400D01*
X159692762Y-74855083D01*
X159623000Y-74746670D01*
X159623000Y-74614150D01*
X159464250Y-74455400D01*
X159344290Y-74455400D01*
X159280832Y-74481685D01*
X159089600Y-74442960D01*
X158530800Y-74442960D01*
X158295483Y-74487238D01*
X158079359Y-74626310D01*
X157934369Y-74838510D01*
X157883360Y-75090400D01*
X157883360Y-76360400D01*
X157917580Y-76542262D01*
X157714921Y-76744921D01*
X157569880Y-76961991D01*
X157384683Y-76996838D01*
X157168559Y-77135910D01*
X157023569Y-77348110D01*
X156972560Y-77600000D01*
X156972560Y-79100000D01*
X157016838Y-79335317D01*
X157155910Y-79551441D01*
X157368110Y-79696431D01*
X157381197Y-79699081D01*
X157168559Y-79835910D01*
X157023569Y-80048110D01*
X156999898Y-80165000D01*
X155720000Y-80165000D01*
X155381325Y-80232367D01*
X155094210Y-80424210D01*
X155094208Y-80424213D01*
X155083436Y-80434985D01*
X154855421Y-80434786D01*
X154401343Y-80622408D01*
X154053629Y-80969515D01*
X153865215Y-81423266D01*
X153864786Y-81914579D01*
X153894374Y-81986188D01*
X153363843Y-81541019D01*
X153155119Y-81423679D01*
X152917440Y-81393487D01*
X152917440Y-80090000D01*
X152873162Y-79854683D01*
X152734090Y-79638559D01*
X152521890Y-79493569D01*
X152270000Y-79442560D01*
X148470000Y-79442560D01*
X148234683Y-79486838D01*
X148018559Y-79625910D01*
X147873569Y-79838110D01*
X147822560Y-80090000D01*
X147822560Y-80205000D01*
X142976580Y-80205000D01*
X142805790Y-80034210D01*
X142518674Y-79842367D01*
X142180000Y-79774999D01*
X141978901Y-79815001D01*
X139710004Y-79815001D01*
X139709999Y-79815000D01*
X139427515Y-79871191D01*
X139371324Y-79882368D01*
X139098011Y-80064989D01*
X138865421Y-80064786D01*
X138411343Y-80252408D01*
X138063629Y-80599515D01*
X137875215Y-81053266D01*
X137874786Y-81544579D01*
X138062408Y-81998657D01*
X138267667Y-82204275D01*
X136535883Y-84745725D01*
X135945079Y-84154921D01*
X135690407Y-83984755D01*
X135390000Y-83925000D01*
X133995000Y-83925000D01*
X133995000Y-82040000D01*
X133952185Y-81824755D01*
X133935245Y-81739593D01*
X133765079Y-81484921D01*
X133295079Y-81014921D01*
X133267749Y-80996660D01*
X133375407Y-80975245D01*
X133630079Y-80805079D01*
X135115079Y-79320079D01*
X135165420Y-79244738D01*
X136614289Y-77795869D01*
X136918917Y-78100496D01*
X136918919Y-78100499D01*
X137964208Y-79145787D01*
X137964210Y-79145790D01*
X138251325Y-79337633D01*
X138307516Y-79348810D01*
X138590000Y-79405001D01*
X138590005Y-79405000D01*
X139618808Y-79405000D01*
X139725910Y-79571441D01*
X139938110Y-79716431D01*
X140190000Y-79767440D01*
X141090000Y-79767440D01*
X141325317Y-79723162D01*
X141541441Y-79584090D01*
X141686431Y-79371890D01*
X141737440Y-79120000D01*
X141737440Y-78777598D01*
X142034921Y-79075079D01*
X142289594Y-79245245D01*
X142590000Y-79305000D01*
X142877370Y-79305000D01*
X142886838Y-79355317D01*
X143025910Y-79571441D01*
X143238110Y-79716431D01*
X143490000Y-79767440D01*
X144390000Y-79767440D01*
X144625317Y-79723162D01*
X144841441Y-79584090D01*
X144986431Y-79371890D01*
X144999977Y-79305000D01*
X145059898Y-79305000D01*
X145236235Y-79481645D01*
X145653244Y-79654803D01*
X146104775Y-79655197D01*
X146522086Y-79482767D01*
X146700163Y-79305000D01*
X152120000Y-79305000D01*
X152420407Y-79245245D01*
X152675079Y-79075079D01*
X153225076Y-78525081D01*
X153225079Y-78525079D01*
X153395245Y-78270406D01*
X153455000Y-77970000D01*
X153455000Y-76430854D01*
X153655317Y-76393162D01*
X153871441Y-76254090D01*
X154016431Y-76041890D01*
X154067440Y-75790000D01*
X154067440Y-73790000D01*
X154023162Y-73554683D01*
X153884090Y-73338559D01*
X153834975Y-73305000D01*
X153988426Y-73305000D01*
X154149515Y-73466371D01*
X154603266Y-73654785D01*
X155094579Y-73655214D01*
X155548657Y-73467592D01*
X155896371Y-73120485D01*
X156084785Y-72666734D01*
X156085214Y-72175421D01*
X155897592Y-71721343D01*
X155765000Y-71588519D01*
X155765000Y-70551574D01*
X155926371Y-70390485D01*
X156114785Y-69936734D01*
X156115214Y-69445421D01*
X156094380Y-69395000D01*
X156163420Y-69395000D01*
X156205200Y-69436779D01*
X156205200Y-69436779D01*
G37*
X156205200Y-69436779D02*
X156205200Y-72309995D01*
X156205199Y-72310000D01*
X156260980Y-72590425D01*
X156272567Y-72648675D01*
X156417110Y-72865000D01*
X156464410Y-72935790D01*
X157499018Y-73970397D01*
X157499020Y-73970400D01*
X157786135Y-74162243D01*
X158064505Y-74217615D01*
X158066710Y-74221041D01*
X158278910Y-74366031D01*
X158530800Y-74417040D01*
X159089600Y-74417040D01*
X159324917Y-74372762D01*
X159541041Y-74233690D01*
X159686031Y-74021490D01*
X159737040Y-73769600D01*
X159737040Y-72499600D01*
X159692762Y-72264283D01*
X159587329Y-72100435D01*
X159809698Y-72008327D01*
X159988327Y-71829699D01*
X160044654Y-71693713D01*
X160046838Y-71705317D01*
X160171362Y-71898833D01*
X159958959Y-72035510D01*
X159813969Y-72247710D01*
X159762960Y-72499600D01*
X159762960Y-73769600D01*
X159807238Y-74004917D01*
X159946310Y-74221041D01*
X160158510Y-74366031D01*
X160410400Y-74417040D01*
X160969200Y-74417040D01*
X161204517Y-74372762D01*
X161420641Y-74233690D01*
X161565631Y-74021490D01*
X161616640Y-73769600D01*
X161616640Y-72962317D01*
X161955076Y-72623881D01*
X161955079Y-72623879D01*
X162125245Y-72369206D01*
X162176310Y-72112490D01*
X162385317Y-72073162D01*
X162601441Y-71934090D01*
X162746431Y-71721890D01*
X162797440Y-71470000D01*
X162797440Y-70170000D01*
X162796149Y-70163138D01*
X164348848Y-71265095D01*
X163995421Y-71264786D01*
X163541343Y-71452408D01*
X163193629Y-71799515D01*
X163005215Y-72253266D01*
X163004786Y-72744579D01*
X163192408Y-73198657D01*
X163355000Y-73361533D01*
X163355000Y-74269995D01*
X163354999Y-74270000D01*
X163398680Y-74489593D01*
X163422367Y-74608675D01*
X163562606Y-74818559D01*
X163614210Y-74895790D01*
X165475000Y-76756579D01*
X165475000Y-77053420D01*
X165174209Y-77354211D01*
X165167020Y-77364971D01*
X164955421Y-77364786D01*
X164501343Y-77552408D01*
X164153629Y-77899515D01*
X163965215Y-78353266D01*
X163964786Y-78844579D01*
X164152408Y-79298657D01*
X164499515Y-79646371D01*
X164953266Y-79834785D01*
X165444579Y-79835214D01*
X165898657Y-79647592D01*
X166246371Y-79300485D01*
X166434785Y-78846734D01*
X166434990Y-78612021D01*
X166466062Y-78565518D01*
X166846579Y-78185000D01*
X166913420Y-78185000D01*
X168094985Y-79366564D01*
X168094786Y-79594579D01*
X168282408Y-80048657D01*
X168629515Y-80396371D01*
X169083266Y-80584785D01*
X169165000Y-80584856D01*
X169165000Y-84574874D01*
X168996309Y-84505000D01*
X168405750Y-84505000D01*
X168247000Y-84663750D01*
X168247000Y-85663000D01*
X168267000Y-85663000D01*
X168267000Y-85917000D01*
X168247000Y-85917000D01*
X168247000Y-86916250D01*
X168380750Y-87050000D01*
X168267000Y-87163750D01*
X168267000Y-88163000D01*
X168287000Y-88163000D01*
X168287000Y-88417000D01*
X168267000Y-88417000D01*
X168267000Y-89416250D01*
X168390750Y-89540000D01*
X168267000Y-89663750D01*
X168267000Y-90663000D01*
X168287000Y-90663000D01*
X168287000Y-90917000D01*
X168267000Y-90917000D01*
X168267000Y-91916250D01*
X168345750Y-91995000D01*
X168267000Y-92073750D01*
X168267000Y-93073000D01*
X168287000Y-93073000D01*
X168287000Y-93327000D01*
X168267000Y-93327000D01*
X168267000Y-94326250D01*
X168425750Y-94485000D01*
X169016309Y-94485000D01*
X169249698Y-94388327D01*
X169428327Y-94209699D01*
X169525000Y-93976310D01*
X169525000Y-93909239D01*
X169803266Y-94024785D01*
X170294579Y-94025214D01*
X170425000Y-93971325D01*
X170425000Y-96859995D01*
X170424999Y-96860000D01*
X170425000Y-96860005D01*
X170425000Y-97141472D01*
X170475000Y-97392838D01*
X170475000Y-97498426D01*
X170395000Y-97578286D01*
X170395000Y-97380000D01*
X170376119Y-97285079D01*
X170335245Y-97079593D01*
X170165079Y-96824921D01*
X168525079Y-95184921D01*
X168270407Y-95014755D01*
X167970000Y-94955000D01*
X165985158Y-94955000D01*
X165755000Y-94724842D01*
X165755000Y-94497440D01*
X166190000Y-94497440D01*
X166425317Y-94453162D01*
X166641441Y-94314090D01*
X166786431Y-94101890D01*
X166793191Y-94068510D01*
X166851673Y-94209699D01*
X167030302Y-94388327D01*
X167263691Y-94485000D01*
X167854250Y-94485000D01*
X168013000Y-94326250D01*
X168013000Y-93327000D01*
X167993000Y-93327000D01*
X167993000Y-93073000D01*
X168013000Y-93073000D01*
X168013000Y-92073750D01*
X167934250Y-91995000D01*
X168013000Y-91916250D01*
X168013000Y-90917000D01*
X167993000Y-90917000D01*
X167993000Y-90663000D01*
X168013000Y-90663000D01*
X168013000Y-89663750D01*
X167889250Y-89540000D01*
X168013000Y-89416250D01*
X168013000Y-88417000D01*
X167993000Y-88417000D01*
X167993000Y-88163000D01*
X168013000Y-88163000D01*
X168013000Y-87163750D01*
X167879250Y-87030000D01*
X167993000Y-86916250D01*
X167993000Y-85917000D01*
X167973000Y-85917000D01*
X167973000Y-85663000D01*
X167993000Y-85663000D01*
X167993000Y-84663750D01*
X167834250Y-84505000D01*
X167243691Y-84505000D01*
X167010302Y-84601673D01*
X166831673Y-84780301D01*
X166775346Y-84916287D01*
X166773162Y-84904683D01*
X166634090Y-84688559D01*
X166421890Y-84543569D01*
X166170000Y-84492560D01*
X164670000Y-84492560D01*
X164434683Y-84536838D01*
X164218559Y-84675910D01*
X164073569Y-84888110D01*
X164049898Y-85005000D01*
X161938123Y-85005000D01*
X162028657Y-84967592D01*
X162376371Y-84620485D01*
X162564785Y-84166734D01*
X162565214Y-83675421D01*
X162377592Y-83221343D01*
X162208351Y-83051807D01*
X162665079Y-82595079D01*
X162810120Y-82378009D01*
X162995317Y-82343162D01*
X163211441Y-82204090D01*
X163356431Y-81991890D01*
X163407440Y-81740000D01*
X163407440Y-80240000D01*
X163363162Y-80004683D01*
X163224090Y-79788559D01*
X163011890Y-79643569D01*
X162998803Y-79640919D01*
X163211441Y-79504090D01*
X163356431Y-79291890D01*
X163407440Y-79040000D01*
X163407440Y-77540000D01*
X163363162Y-77304683D01*
X163224090Y-77088559D01*
X163011890Y-76943569D01*
X162895000Y-76919898D01*
X162895000Y-76550005D01*
X162895001Y-76550000D01*
X162835245Y-76249594D01*
X162805262Y-76204721D01*
X162665079Y-75994921D01*
X162665076Y-75994919D01*
X162181279Y-75511121D01*
X162132458Y-75478500D01*
X161824279Y-75170321D01*
X161603981Y-75023123D01*
X161572362Y-74855083D01*
X161433290Y-74638959D01*
X161221090Y-74493969D01*
X160969200Y-74442960D01*
X160410400Y-74442960D01*
X160214615Y-74479799D01*
X160155710Y-74455400D01*
X160035750Y-74455400D01*
X159877000Y-74614150D01*
X159877000Y-74746261D01*
X159813969Y-74838510D01*
X159762960Y-75090400D01*
X159762960Y-75872400D01*
X159737040Y-75872400D01*
X159737040Y-75090400D01*
X159692762Y-74855083D01*
X159623000Y-74746670D01*
X159623000Y-74614150D01*
X159464250Y-74455400D01*
X159344290Y-74455400D01*
X159280832Y-74481685D01*
X159089600Y-74442960D01*
X158530800Y-74442960D01*
X158295483Y-74487238D01*
X158079359Y-74626310D01*
X157934369Y-74838510D01*
X157883360Y-75090400D01*
X157883360Y-76360400D01*
X157917580Y-76542262D01*
X157714921Y-76744921D01*
X157569880Y-76961991D01*
X157384683Y-76996838D01*
X157168559Y-77135910D01*
X157023569Y-77348110D01*
X156972560Y-77600000D01*
X156972560Y-79100000D01*
X157016838Y-79335317D01*
X157155910Y-79551441D01*
X157368110Y-79696431D01*
X157381197Y-79699081D01*
X157168559Y-79835910D01*
X157023569Y-80048110D01*
X156999898Y-80165000D01*
X155720000Y-80165000D01*
X155381325Y-80232367D01*
X155094210Y-80424210D01*
X155094208Y-80424213D01*
X155083436Y-80434985D01*
X154855421Y-80434786D01*
X154401343Y-80622408D01*
X154053629Y-80969515D01*
X153865215Y-81423266D01*
X153864786Y-81914579D01*
X153894374Y-81986188D01*
X153363843Y-81541019D01*
X153155119Y-81423679D01*
X152917440Y-81393487D01*
X152917440Y-80090000D01*
X152873162Y-79854683D01*
X152734090Y-79638559D01*
X152521890Y-79493569D01*
X152270000Y-79442560D01*
X148470000Y-79442560D01*
X148234683Y-79486838D01*
X148018559Y-79625910D01*
X147873569Y-79838110D01*
X147822560Y-80090000D01*
X147822560Y-80205000D01*
X142976580Y-80205000D01*
X142805790Y-80034210D01*
X142518674Y-79842367D01*
X142180000Y-79774999D01*
X141978901Y-79815001D01*
X139710004Y-79815001D01*
X139709999Y-79815000D01*
X139427515Y-79871191D01*
X139371324Y-79882368D01*
X139098011Y-80064989D01*
X138865421Y-80064786D01*
X138411343Y-80252408D01*
X138063629Y-80599515D01*
X137875215Y-81053266D01*
X137874786Y-81544579D01*
X138062408Y-81998657D01*
X138267667Y-82204275D01*
X136535883Y-84745725D01*
X135945079Y-84154921D01*
X135690407Y-83984755D01*
X135390000Y-83925000D01*
X133995000Y-83925000D01*
X133995000Y-82040000D01*
X133952185Y-81824755D01*
X133935245Y-81739593D01*
X133765079Y-81484921D01*
X133295079Y-81014921D01*
X133267749Y-80996660D01*
X133375407Y-80975245D01*
X133630079Y-80805079D01*
X135115079Y-79320079D01*
X135165420Y-79244738D01*
X136614289Y-77795869D01*
X136918917Y-78100496D01*
X136918919Y-78100499D01*
X137964208Y-79145787D01*
X137964210Y-79145790D01*
X138251325Y-79337633D01*
X138307516Y-79348810D01*
X138590000Y-79405001D01*
X138590005Y-79405000D01*
X139618808Y-79405000D01*
X139725910Y-79571441D01*
X139938110Y-79716431D01*
X140190000Y-79767440D01*
X141090000Y-79767440D01*
X141325317Y-79723162D01*
X141541441Y-79584090D01*
X141686431Y-79371890D01*
X141737440Y-79120000D01*
X141737440Y-78777598D01*
X142034921Y-79075079D01*
X142289594Y-79245245D01*
X142590000Y-79305000D01*
X142877370Y-79305000D01*
X142886838Y-79355317D01*
X143025910Y-79571441D01*
X143238110Y-79716431D01*
X143490000Y-79767440D01*
X144390000Y-79767440D01*
X144625317Y-79723162D01*
X144841441Y-79584090D01*
X144986431Y-79371890D01*
X144999977Y-79305000D01*
X145059898Y-79305000D01*
X145236235Y-79481645D01*
X145653244Y-79654803D01*
X146104775Y-79655197D01*
X146522086Y-79482767D01*
X146700163Y-79305000D01*
X152120000Y-79305000D01*
X152420407Y-79245245D01*
X152675079Y-79075079D01*
X153225076Y-78525081D01*
X153225079Y-78525079D01*
X153395245Y-78270406D01*
X153455000Y-77970000D01*
X153455000Y-76430854D01*
X153655317Y-76393162D01*
X153871441Y-76254090D01*
X154016431Y-76041890D01*
X154067440Y-75790000D01*
X154067440Y-73790000D01*
X154023162Y-73554683D01*
X153884090Y-73338559D01*
X153834975Y-73305000D01*
X153988426Y-73305000D01*
X154149515Y-73466371D01*
X154603266Y-73654785D01*
X155094579Y-73655214D01*
X155548657Y-73467592D01*
X155896371Y-73120485D01*
X156084785Y-72666734D01*
X156085214Y-72175421D01*
X155897592Y-71721343D01*
X155765000Y-71588519D01*
X155765000Y-70551574D01*
X155926371Y-70390485D01*
X156114785Y-69936734D01*
X156115214Y-69445421D01*
X156094380Y-69395000D01*
X156163420Y-69395000D01*
X156205200Y-69436779D01*
G36*
X132425000Y-82365158D02*
X132425000Y-84340000D01*
X132484755Y-84640407D01*
X132654921Y-84895079D01*
X133024921Y-85265079D01*
X133279593Y-85435245D01*
X133580000Y-85495000D01*
X135064842Y-85495000D01*
X135364144Y-85794302D01*
X134842622Y-85898039D01*
X134360853Y-86219946D01*
X134356903Y-86225858D01*
X134288327Y-86060301D01*
X134109698Y-85881673D01*
X133876309Y-85785000D01*
X133185750Y-85785000D01*
X133027000Y-85943750D01*
X133027000Y-87143000D01*
X133047000Y-87143000D01*
X133047000Y-87397000D01*
X133027000Y-87397000D01*
X133027000Y-87417000D01*
X132773000Y-87417000D01*
X132773000Y-87397000D01*
X132753000Y-87397000D01*
X132753000Y-87143000D01*
X132773000Y-87143000D01*
X132773000Y-85943750D01*
X132614250Y-85785000D01*
X131923691Y-85785000D01*
X131795000Y-85838306D01*
X131795000Y-82532278D01*
X131972278Y-82355000D01*
X132414842Y-82355000D01*
X132425000Y-82365158D01*
X132425000Y-82365158D01*
G37*
X132425000Y-82365158D02*
X132425000Y-84340000D01*
X132484755Y-84640407D01*
X132654921Y-84895079D01*
X133024921Y-85265079D01*
X133279593Y-85435245D01*
X133580000Y-85495000D01*
X135064842Y-85495000D01*
X135364144Y-85794302D01*
X134842622Y-85898039D01*
X134360853Y-86219946D01*
X134356903Y-86225858D01*
X134288327Y-86060301D01*
X134109698Y-85881673D01*
X133876309Y-85785000D01*
X133185750Y-85785000D01*
X133027000Y-85943750D01*
X133027000Y-87143000D01*
X133047000Y-87143000D01*
X133047000Y-87397000D01*
X133027000Y-87397000D01*
X133027000Y-87417000D01*
X132773000Y-87417000D01*
X132773000Y-87397000D01*
X132753000Y-87397000D01*
X132753000Y-87143000D01*
X132773000Y-87143000D01*
X132773000Y-85943750D01*
X132614250Y-85785000D01*
X131923691Y-85785000D01*
X131795000Y-85838306D01*
X131795000Y-82532278D01*
X131972278Y-82355000D01*
X132414842Y-82355000D01*
X132425000Y-82365158D01*
G36*
X160297000Y-78203000D02*
X160317000Y-78203000D01*
X160317000Y-78457000D01*
X160297000Y-78457000D01*
X160297000Y-78477000D01*
X160043000Y-78477000D01*
X160043000Y-78457000D01*
X160023000Y-78457000D01*
X160023000Y-78203000D01*
X160043000Y-78203000D01*
X160043000Y-78183000D01*
X160297000Y-78183000D01*
X160297000Y-78203000D01*
X160297000Y-78203000D01*
G37*
X160297000Y-78203000D02*
X160317000Y-78203000D01*
X160317000Y-78457000D01*
X160297000Y-78457000D01*
X160297000Y-78477000D01*
X160043000Y-78477000D01*
X160043000Y-78457000D01*
X160023000Y-78457000D01*
X160023000Y-78203000D01*
X160043000Y-78203000D01*
X160043000Y-78183000D01*
X160297000Y-78183000D01*
X160297000Y-78203000D01*
G36*
X149089515Y-69556371D02*
X149543266Y-69744785D01*
X150034579Y-69745214D01*
X150488657Y-69557592D01*
X150651533Y-69395000D01*
X153665257Y-69395000D01*
X153645215Y-69443266D01*
X153644786Y-69934579D01*
X153832408Y-70388657D01*
X153995000Y-70551533D01*
X153995000Y-71528478D01*
X153988467Y-71535000D01*
X150970005Y-71535000D01*
X150970000Y-71534999D01*
X150661775Y-71596310D01*
X150631325Y-71602367D01*
X150344210Y-71794210D01*
X150344208Y-71794213D01*
X149744210Y-72394210D01*
X149552367Y-72681325D01*
X149552367Y-72681326D01*
X149484999Y-73020000D01*
X149485000Y-73020005D01*
X149485000Y-73167962D01*
X149384683Y-73186838D01*
X149220508Y-73292482D01*
X149179699Y-73251673D01*
X148946310Y-73155000D01*
X148355750Y-73155000D01*
X148197000Y-73313750D01*
X148197000Y-74663000D01*
X148217000Y-74663000D01*
X148217000Y-74917000D01*
X148197000Y-74917000D01*
X148197000Y-76266250D01*
X148355750Y-76425000D01*
X148946310Y-76425000D01*
X149179699Y-76328327D01*
X149221660Y-76286366D01*
X149368110Y-76386431D01*
X149620000Y-76437440D01*
X151120000Y-76437440D01*
X151355317Y-76393162D01*
X151521477Y-76286241D01*
X151668110Y-76386431D01*
X151885000Y-76430352D01*
X151885000Y-77644843D01*
X151794842Y-77735000D01*
X146700102Y-77735000D01*
X146523765Y-77558355D01*
X146106756Y-77385197D01*
X145655225Y-77384803D01*
X145237914Y-77557233D01*
X145059837Y-77735000D01*
X145002630Y-77735000D01*
X144993162Y-77684683D01*
X144854090Y-77468559D01*
X144641890Y-77323569D01*
X144390000Y-77272560D01*
X143490000Y-77272560D01*
X143254683Y-77316838D01*
X143038559Y-77455910D01*
X142975000Y-77548932D01*
X142975000Y-76842325D01*
X143025910Y-76921441D01*
X143238110Y-77066431D01*
X143490000Y-77117440D01*
X144390000Y-77117440D01*
X144625317Y-77073162D01*
X144841441Y-76934090D01*
X144847652Y-76925000D01*
X145028426Y-76925000D01*
X145189515Y-77086371D01*
X145643266Y-77274785D01*
X146134579Y-77275214D01*
X146588657Y-77087592D01*
X146936371Y-76740485D01*
X147085910Y-76380356D01*
X147193690Y-76425000D01*
X147784250Y-76425000D01*
X147943000Y-76266250D01*
X147943000Y-74917000D01*
X146843750Y-74917000D01*
X146685000Y-75075750D01*
X146685000Y-75088309D01*
X146590485Y-74993629D01*
X146136734Y-74805215D01*
X145645421Y-74804786D01*
X145191343Y-74992408D01*
X145028467Y-75155000D01*
X145015801Y-75155000D01*
X144993162Y-75034683D01*
X144854090Y-74818559D01*
X144641890Y-74673569D01*
X144390000Y-74622560D01*
X143490000Y-74622560D01*
X143254683Y-74666838D01*
X143038559Y-74805910D01*
X142893569Y-75018110D01*
X142842560Y-75270000D01*
X142842560Y-75790813D01*
X142745079Y-75644921D01*
X142745076Y-75644919D01*
X142415079Y-75314921D01*
X142160407Y-75144755D01*
X141860000Y-75085000D01*
X141702630Y-75085000D01*
X141693162Y-75034683D01*
X141554090Y-74818559D01*
X141341890Y-74673569D01*
X141090000Y-74622560D01*
X140190000Y-74622560D01*
X139954683Y-74666838D01*
X139738559Y-74805910D01*
X139593569Y-75018110D01*
X139542560Y-75270000D01*
X139542560Y-76470000D01*
X139586838Y-76705317D01*
X139725910Y-76921441D01*
X139938110Y-77066431D01*
X140190000Y-77117440D01*
X141090000Y-77117440D01*
X141325317Y-77073162D01*
X141405000Y-77021887D01*
X141405000Y-77366690D01*
X141341890Y-77323569D01*
X141090000Y-77272560D01*
X140190000Y-77272560D01*
X139954683Y-77316838D01*
X139738559Y-77455910D01*
X139616192Y-77635000D01*
X138956579Y-77635000D01*
X138170499Y-76848919D01*
X138170496Y-76848917D01*
X138114933Y-76793354D01*
X138114933Y-74744486D01*
X138162077Y-74720725D01*
X138427599Y-74412584D01*
X141412411Y-74412584D01*
X141412416Y-74412585D01*
X141694900Y-74356394D01*
X141751091Y-74345217D01*
X142038206Y-74153374D01*
X143585787Y-72605792D01*
X143585790Y-72605790D01*
X143598286Y-72587089D01*
X143757122Y-72824803D01*
X144208070Y-73126118D01*
X144740000Y-73231925D01*
X145271930Y-73126118D01*
X145722878Y-72824803D01*
X146022751Y-72376013D01*
X146044408Y-72449263D01*
X146386924Y-72872681D01*
X146865403Y-73132793D01*
X146938029Y-73147277D01*
X147152998Y-73024684D01*
X147152998Y-73171855D01*
X146960301Y-73251673D01*
X146781673Y-73430302D01*
X146685000Y-73663691D01*
X146685000Y-74504250D01*
X146843750Y-74663000D01*
X147943000Y-74663000D01*
X147943000Y-73313750D01*
X147784250Y-73155000D01*
X147407002Y-73155000D01*
X147407002Y-73024684D01*
X147621971Y-73147277D01*
X147694597Y-73132793D01*
X148173076Y-72872681D01*
X148515592Y-72449263D01*
X148670000Y-71927000D01*
X148670000Y-71177000D01*
X147407000Y-71177000D01*
X147407000Y-71197000D01*
X147153000Y-71197000D01*
X147153000Y-71177000D01*
X147133000Y-71177000D01*
X147133000Y-70923000D01*
X147153000Y-70923000D01*
X147153000Y-70903000D01*
X147407000Y-70903000D01*
X147407000Y-70923000D01*
X148670000Y-70923000D01*
X148670000Y-70173000D01*
X148515592Y-69650737D01*
X148308718Y-69395000D01*
X148928426Y-69395000D01*
X149089515Y-69556371D01*
X149089515Y-69556371D01*
G37*
X149089515Y-69556371D02*
X149543266Y-69744785D01*
X150034579Y-69745214D01*
X150488657Y-69557592D01*
X150651533Y-69395000D01*
X153665257Y-69395000D01*
X153645215Y-69443266D01*
X153644786Y-69934579D01*
X153832408Y-70388657D01*
X153995000Y-70551533D01*
X153995000Y-71528478D01*
X153988467Y-71535000D01*
X150970005Y-71535000D01*
X150970000Y-71534999D01*
X150661775Y-71596310D01*
X150631325Y-71602367D01*
X150344210Y-71794210D01*
X150344208Y-71794213D01*
X149744210Y-72394210D01*
X149552367Y-72681325D01*
X149552367Y-72681326D01*
X149484999Y-73020000D01*
X149485000Y-73020005D01*
X149485000Y-73167962D01*
X149384683Y-73186838D01*
X149220508Y-73292482D01*
X149179699Y-73251673D01*
X148946310Y-73155000D01*
X148355750Y-73155000D01*
X148197000Y-73313750D01*
X148197000Y-74663000D01*
X148217000Y-74663000D01*
X148217000Y-74917000D01*
X148197000Y-74917000D01*
X148197000Y-76266250D01*
X148355750Y-76425000D01*
X148946310Y-76425000D01*
X149179699Y-76328327D01*
X149221660Y-76286366D01*
X149368110Y-76386431D01*
X149620000Y-76437440D01*
X151120000Y-76437440D01*
X151355317Y-76393162D01*
X151521477Y-76286241D01*
X151668110Y-76386431D01*
X151885000Y-76430352D01*
X151885000Y-77644843D01*
X151794842Y-77735000D01*
X146700102Y-77735000D01*
X146523765Y-77558355D01*
X146106756Y-77385197D01*
X145655225Y-77384803D01*
X145237914Y-77557233D01*
X145059837Y-77735000D01*
X145002630Y-77735000D01*
X144993162Y-77684683D01*
X144854090Y-77468559D01*
X144641890Y-77323569D01*
X144390000Y-77272560D01*
X143490000Y-77272560D01*
X143254683Y-77316838D01*
X143038559Y-77455910D01*
X142975000Y-77548932D01*
X142975000Y-76842325D01*
X143025910Y-76921441D01*
X143238110Y-77066431D01*
X143490000Y-77117440D01*
X144390000Y-77117440D01*
X144625317Y-77073162D01*
X144841441Y-76934090D01*
X144847652Y-76925000D01*
X145028426Y-76925000D01*
X145189515Y-77086371D01*
X145643266Y-77274785D01*
X146134579Y-77275214D01*
X146588657Y-77087592D01*
X146936371Y-76740485D01*
X147085910Y-76380356D01*
X147193690Y-76425000D01*
X147784250Y-76425000D01*
X147943000Y-76266250D01*
X147943000Y-74917000D01*
X146843750Y-74917000D01*
X146685000Y-75075750D01*
X146685000Y-75088309D01*
X146590485Y-74993629D01*
X146136734Y-74805215D01*
X145645421Y-74804786D01*
X145191343Y-74992408D01*
X145028467Y-75155000D01*
X145015801Y-75155000D01*
X144993162Y-75034683D01*
X144854090Y-74818559D01*
X144641890Y-74673569D01*
X144390000Y-74622560D01*
X143490000Y-74622560D01*
X143254683Y-74666838D01*
X143038559Y-74805910D01*
X142893569Y-75018110D01*
X142842560Y-75270000D01*
X142842560Y-75790813D01*
X142745079Y-75644921D01*
X142745076Y-75644919D01*
X142415079Y-75314921D01*
X142160407Y-75144755D01*
X141860000Y-75085000D01*
X141702630Y-75085000D01*
X141693162Y-75034683D01*
X141554090Y-74818559D01*
X141341890Y-74673569D01*
X141090000Y-74622560D01*
X140190000Y-74622560D01*
X139954683Y-74666838D01*
X139738559Y-74805910D01*
X139593569Y-75018110D01*
X139542560Y-75270000D01*
X139542560Y-76470000D01*
X139586838Y-76705317D01*
X139725910Y-76921441D01*
X139938110Y-77066431D01*
X140190000Y-77117440D01*
X141090000Y-77117440D01*
X141325317Y-77073162D01*
X141405000Y-77021887D01*
X141405000Y-77366690D01*
X141341890Y-77323569D01*
X141090000Y-77272560D01*
X140190000Y-77272560D01*
X139954683Y-77316838D01*
X139738559Y-77455910D01*
X139616192Y-77635000D01*
X138956579Y-77635000D01*
X138170499Y-76848919D01*
X138170496Y-76848917D01*
X138114933Y-76793354D01*
X138114933Y-74744486D01*
X138162077Y-74720725D01*
X138427599Y-74412584D01*
X141412411Y-74412584D01*
X141412416Y-74412585D01*
X141694900Y-74356394D01*
X141751091Y-74345217D01*
X142038206Y-74153374D01*
X143585787Y-72605792D01*
X143585790Y-72605790D01*
X143598286Y-72587089D01*
X143757122Y-72824803D01*
X144208070Y-73126118D01*
X144740000Y-73231925D01*
X145271930Y-73126118D01*
X145722878Y-72824803D01*
X146022751Y-72376013D01*
X146044408Y-72449263D01*
X146386924Y-72872681D01*
X146865403Y-73132793D01*
X146938029Y-73147277D01*
X147152998Y-73024684D01*
X147152998Y-73171855D01*
X146960301Y-73251673D01*
X146781673Y-73430302D01*
X146685000Y-73663691D01*
X146685000Y-74504250D01*
X146843750Y-74663000D01*
X147943000Y-74663000D01*
X147943000Y-73313750D01*
X147784250Y-73155000D01*
X147407002Y-73155000D01*
X147407002Y-73024684D01*
X147621971Y-73147277D01*
X147694597Y-73132793D01*
X148173076Y-72872681D01*
X148515592Y-72449263D01*
X148670000Y-71927000D01*
X148670000Y-71177000D01*
X147407000Y-71177000D01*
X147407000Y-71197000D01*
X147153000Y-71197000D01*
X147153000Y-71177000D01*
X147133000Y-71177000D01*
X147133000Y-70923000D01*
X147153000Y-70923000D01*
X147153000Y-70903000D01*
X147407000Y-70903000D01*
X147407000Y-70923000D01*
X148670000Y-70923000D01*
X148670000Y-70173000D01*
X148515592Y-69650737D01*
X148308718Y-69395000D01*
X148928426Y-69395000D01*
X149089515Y-69556371D01*
G36*
X161893550Y-69522560D02*
X160650000Y-69522560D01*
X160414683Y-69566838D01*
X160198559Y-69705910D01*
X160053569Y-69918110D01*
X160046809Y-69951490D01*
X159988327Y-69810301D01*
X159809698Y-69631673D01*
X159576309Y-69535000D01*
X158985750Y-69535000D01*
X158827000Y-69693750D01*
X158827000Y-70693000D01*
X158847000Y-70693000D01*
X158847000Y-70947000D01*
X158827000Y-70947000D01*
X158827000Y-70967000D01*
X158573000Y-70967000D01*
X158573000Y-70947000D01*
X158553000Y-70947000D01*
X158553000Y-70693000D01*
X158573000Y-70693000D01*
X158573000Y-69693750D01*
X158414250Y-69535000D01*
X157975200Y-69535000D01*
X157975200Y-69070200D01*
X157907833Y-68731525D01*
X157715990Y-68444410D01*
X157715987Y-68444408D01*
X157546579Y-68275000D01*
X160135690Y-68275000D01*
X161893550Y-69522560D01*
X161893550Y-69522560D01*
G37*
X161893550Y-69522560D02*
X160650000Y-69522560D01*
X160414683Y-69566838D01*
X160198559Y-69705910D01*
X160053569Y-69918110D01*
X160046809Y-69951490D01*
X159988327Y-69810301D01*
X159809698Y-69631673D01*
X159576309Y-69535000D01*
X158985750Y-69535000D01*
X158827000Y-69693750D01*
X158827000Y-70693000D01*
X158847000Y-70693000D01*
X158847000Y-70947000D01*
X158827000Y-70947000D01*
X158827000Y-70967000D01*
X158573000Y-70967000D01*
X158573000Y-70947000D01*
X158553000Y-70947000D01*
X158553000Y-70693000D01*
X158573000Y-70693000D01*
X158573000Y-69693750D01*
X158414250Y-69535000D01*
X157975200Y-69535000D01*
X157975200Y-69070200D01*
X157907833Y-68731525D01*
X157715990Y-68444410D01*
X157715987Y-68444408D01*
X157546579Y-68275000D01*
X160135690Y-68275000D01*
X161893550Y-69522560D01*
G36*
X142334210Y-68624210D02*
X142142367Y-68911325D01*
X142142367Y-68911326D01*
X142085162Y-69198906D01*
X141632227Y-68969675D01*
X141054470Y-68925788D01*
X140626800Y-69044401D01*
X140520337Y-69281538D01*
X141254916Y-70221757D01*
X141270676Y-70209444D01*
X141427054Y-70409598D01*
X141411294Y-70421911D01*
X141423607Y-70437671D01*
X141223453Y-70594049D01*
X141211140Y-70578289D01*
X141195380Y-70590602D01*
X141039002Y-70390448D01*
X141054762Y-70378135D01*
X140320182Y-69437916D01*
X140064334Y-69483848D01*
X139845781Y-69870119D01*
X139748593Y-70441332D01*
X139783691Y-70595270D01*
X139394575Y-70466949D01*
X138816749Y-70509878D01*
X138739784Y-70548669D01*
X138734348Y-70416994D01*
X138732994Y-70414071D01*
X138732833Y-70410855D01*
X138672742Y-70284057D01*
X138613765Y-70156794D01*
X138611397Y-70154614D01*
X138610017Y-70151702D01*
X137820949Y-69089495D01*
X139401451Y-68275000D01*
X142683420Y-68275000D01*
X142334210Y-68624210D01*
X142334210Y-68624210D01*
G37*
X142334210Y-68624210D02*
X142142367Y-68911325D01*
X142142367Y-68911326D01*
X142085162Y-69198906D01*
X141632227Y-68969675D01*
X141054470Y-68925788D01*
X140626800Y-69044401D01*
X140520337Y-69281538D01*
X141254916Y-70221757D01*
X141270676Y-70209444D01*
X141427054Y-70409598D01*
X141411294Y-70421911D01*
X141423607Y-70437671D01*
X141223453Y-70594049D01*
X141211140Y-70578289D01*
X141195380Y-70590602D01*
X141039002Y-70390448D01*
X141054762Y-70378135D01*
X140320182Y-69437916D01*
X140064334Y-69483848D01*
X139845781Y-69870119D01*
X139748593Y-70441332D01*
X139783691Y-70595270D01*
X139394575Y-70466949D01*
X138816749Y-70509878D01*
X138739784Y-70548669D01*
X138734348Y-70416994D01*
X138732994Y-70414071D01*
X138732833Y-70410855D01*
X138672742Y-70284057D01*
X138613765Y-70156794D01*
X138611397Y-70154614D01*
X138610017Y-70151702D01*
X137820949Y-69089495D01*
X139401451Y-68275000D01*
X142683420Y-68275000D01*
X142334210Y-68624210D01*
M02*
